<?xml version="1.0" encoding="utf-8"?>
<!-- Generator: Adobe Illustrator 27.3.1, SVG Export Plug-In . SVG Version: 6.00 Build 0)  -->
<svg version="1.1" id="Capa_1" xmlns="http://www.w3.org/2000/svg" xmlns:xlink="http://www.w3.org/1999/xlink" x="0px" y="0px"
	 viewBox="0 0 312.2 306.6" style="enable-background:new 0 0 312.2 306.6;" xml:space="preserve">
<style type="text/css">
	.st0{fill:#FFFFFF;}
	.st1{fill:#959395;}
	
		.st2{clip-path:url(#SVGID_00000083056019934606048470000004627892675395851944_);fill:none;stroke:#222221;stroke-width:0.804;stroke-miterlimit:3.864;}
	.st3{clip-path:url(#SVGID_00000090989567932831278470000003453088707208432313_);fill:#222221;}
	.st4{fill:#222221;}
	.st5{clip-path:url(#SVGID_00000058557048061396422850000011392519890249172629_);fill:#FFFFFF;}
	.st6{clip-path:url(#SVGID_00000050640285730171863090000006516571059697451957_);fill:#FFFFFF;}
	.st7{clip-path:url(#SVGID_00000000943372810696280840000011637723600789969293_);fill:#FFFFFF;}
	.st8{clip-path:url(#SVGID_00000021817036617246730180000017103995907631416758_);fill:#FFFFFF;}
	.st9{clip-path:url(#SVGID_00000078728092624059987000000011211117271597024950_);fill:#FFFFFF;}
	.st10{clip-path:url(#SVGID_00000170251311621658317000000011367490121279037885_);fill:#FFFFFF;}
	.st11{clip-path:url(#SVGID_00000139274328036641149190000012980863055690419387_);fill:#FFFFFF;}
	.st12{clip-path:url(#SVGID_00000173143085940080962440000002363952068275479441_);fill:#FFFFFF;}
	.st13{clip-path:url(#SVGID_00000101783014602936251160000002862298405785330343_);fill:#FFFFFF;}
	.st14{clip-path:url(#SVGID_00000119111577284137597230000009831579328064343741_);fill:#FFFFFF;}
	.st15{clip-path:url(#SVGID_00000119087228400831746330000014215337435572473743_);fill:#FFFFFF;}
	.st16{clip-path:url(#SVGID_00000093160775766066294590000016804022206531912119_);fill:#FFFFFF;}
	.st17{clip-path:url(#SVGID_00000139280839502512917530000015708934565312142011_);fill:#FFFFFF;}
	.st18{clip-path:url(#SVGID_00000041992924444367104350000007735810372836618164_);fill:#FFFFFF;}
	.st19{clip-path:url(#SVGID_00000162333812379392578260000003885226881983926183_);fill:#FFFFFF;}
	.st20{clip-path:url(#SVGID_00000044151948387233178990000003043826744540272545_);fill:#FFFFFF;}
	
		.st21{clip-path:url(#SVGID_00000127756005663622710410000010574787125615089336_);fill:none;stroke:#222221;stroke-width:0.804;stroke-miterlimit:3.864;}
	.st22{clip-path:url(#SVGID_00000123429297824413888550000006987162413205256084_);fill:#222221;}
	.st23{clip-path:url(#SVGID_00000127019931249093314100000009672958574701840049_);fill:#222221;}
	.st24{clip-path:url(#SVGID_00000109719150440799515200000001895663467573468294_);fill:#222221;}
	.st25{clip-path:url(#SVGID_00000094590005361491367340000015961189911846015895_);fill:#222221;}
	.st26{clip-path:url(#SVGID_00000015347512470391972890000004814277334525375897_);fill:#222221;}
	.st27{clip-path:url(#SVGID_00000032606198837646161250000007549921101131120775_);fill:#222221;}
	.st28{clip-path:url(#SVGID_00000083059064565786577680000002172933044097025432_);fill:#222221;}
	.st29{clip-path:url(#SVGID_00000025418680744891885390000005573954735918405034_);fill:#222221;}
	.st30{clip-path:url(#SVGID_00000108288847724224245560000012492212354656596137_);fill:#222221;}
	.st31{clip-path:url(#SVGID_00000088851214854769689390000011370574052862526639_);fill:#222221;}
	.st32{clip-path:url(#SVGID_00000125561445519707140860000005144436866215815821_);fill:#222221;}
	.st33{clip-path:url(#SVGID_00000117647674283043511080000014095627569058010753_);fill:#222221;}
	.st34{clip-path:url(#SVGID_00000151520369257067912700000014663831702200288172_);fill:#222221;}
	.st35{clip-path:url(#SVGID_00000042002446150236314280000015565155913558217113_);fill:#222221;}
	.st36{clip-path:url(#SVGID_00000180345185587824074030000008688153081956244394_);fill:#222221;}
	.st37{clip-path:url(#SVGID_00000140695942291291548920000010661508790379304623_);fill:#FFFFFF;}
	.st38{clip-path:url(#SVGID_00000125584995229513098840000014362097440109906088_);fill:#FFFFFF;}
	.st39{clip-path:url(#SVGID_00000160180837002661154440000015253850799677154967_);fill:#222221;}
	.st40{clip-path:url(#SVGID_00000140736073542237150960000017910650444653856138_);fill:#222221;}
	.st41{clip-path:url(#SVGID_00000083065253927039936360000012167285531295102103_);fill:#222221;}
	.st42{clip-path:url(#SVGID_00000075135925496256205810000012889449543035569538_);fill:#222221;}
	.st43{clip-path:url(#SVGID_00000173874256608378972320000001020290584402880427_);fill:#222221;}
	.st44{clip-path:url(#SVGID_00000158729102844519134990000000444806536422778032_);fill:#222221;}
	.st45{clip-path:url(#SVGID_00000001633645178544324300000015357737207475963820_);fill:#222221;}
	.st46{clip-path:url(#SVGID_00000178890152314750678560000011333442138780506752_);fill:#222221;}
	.st47{clip-path:url(#SVGID_00000003068905467519732700000012399771309649993645_);fill:#222221;}
	.st48{clip-path:url(#SVGID_00000018202007919807259360000016115737991930410137_);fill:#222221;}
	.st49{clip-path:url(#SVGID_00000013908675212772526840000014587729538857293189_);fill:#222221;}
	.st50{clip-path:url(#SVGID_00000106134337740934377520000011500130738982168450_);fill:#222221;}
	.st51{clip-path:url(#SVGID_00000047750264047615603080000013230495781578305939_);fill:#222221;}
	.st52{clip-path:url(#SVGID_00000121246903317957644860000000720867860516615859_);fill:#222221;}
	.st53{clip-path:url(#SVGID_00000134238671731077888400000016355812551741862813_);fill:#222221;}
	.st54{clip-path:url(#SVGID_00000036948105311317696310000011022807825316416140_);fill:#222221;}
	.st55{clip-path:url(#SVGID_00000049209722623088795550000017793689107738312863_);fill:#222221;}
	.st56{clip-path:url(#SVGID_00000074440516458060707390000012697408838194327224_);fill:#222221;}
	.st57{clip-path:url(#SVGID_00000059283406967751798340000002663223792927161265_);fill:#222221;}
	.st58{clip-path:url(#SVGID_00000150786246498927779610000009940085812633091481_);fill:#222221;}
	.st59{clip-path:url(#SVGID_00000137821446114002962570000010595517056813803673_);fill:#222221;}
	.st60{clip-path:url(#SVGID_00000172431504060153621660000013722862140928856754_);fill:#222221;}
	.st61{clip-path:url(#SVGID_00000182489061818018334590000005593375373173514898_);fill:#222221;}
	.st62{clip-path:url(#SVGID_00000025438198630730172320000008822230517710369195_);fill:#284B96;}
	.st63{clip-path:url(#SVGID_00000166640719683950424650000014804169711156301957_);fill:#284B96;}
	.st64{fill:#6B696A;}
	.st65{clip-path:url(#SVGID_00000062165342052974620850000011879189309713108873_);fill:#6B696A;}
	.st66{clip-path:url(#SVGID_00000118366708003846885580000011743879447565429164_);fill:#6B696A;}
	.st67{fill:#284B96;}
	.st68{clip-path:url(#SVGID_00000176744589287732953420000010022177269012917141_);fill:#FFFFFF;}
	.st69{clip-path:url(#SVGID_00000121278550659876340730000005498830560558883755_);fill:#FFFFFF;}
	.st70{clip-path:url(#SVGID_00000070102305679542932140000017189899259122844590_);fill:#FFFFFF;}
</style>
<rect x="0.9" y="210.4" class="st0" width="121.3" height="26.8"/>
<rect x="0.9" y="0.9" class="st1" width="122" height="209.6"/>
<g>
	<g>
		<defs>
			<rect id="SVGID_1_" y="0" width="312.2" height="306.6"/>
		</defs>
		<clipPath id="SVGID_00000041984991300721647760000017047281200251117197_">
			<use xlink:href="#SVGID_1_"  style="overflow:visible;"/>
		</clipPath>
		
			<rect x="1.4" y="1.4" style="clip-path:url(#SVGID_00000041984991300721647760000017047281200251117197_);fill:none;stroke:#222221;stroke-width:0.804;stroke-miterlimit:3.864;" width="120.9" height="208.5"/>
	</g>
	<g>
		<defs>
			<rect id="SVGID_00000033348012767725905810000009094936789929096584_" y="0" width="312.2" height="306.6"/>
		</defs>
		<clipPath id="SVGID_00000082329123652971115370000017898152473083128192_">
			<use xlink:href="#SVGID_00000033348012767725905810000009094936789929096584_"  style="overflow:visible;"/>
		</clipPath>
		<path style="clip-path:url(#SVGID_00000082329123652971115370000017898152473083128192_);fill:#222221;" d="M17.1,49.5h67.3
			c0,0,23.6,0.3,25.4,25.9c1.7,24-24.7,31.2-24.7,31.2l23.8,40.5H90L61.7,98.7l19.9-8c0,0,12.5-4.2,12-14.8
			C93,63.8,81.7,63.2,81.7,63.2H17.1V49.5z"/>
	</g>
</g>
<polygon class="st4" points="17.5,70.8 63.9,70.8 63.9,84.6 32.9,84.6 32.9,100.7 58,100.7 58,114.7 33.1,114.7 33.1,133.1 
	63.9,133.1 63.9,146.9 17.5,146.9 "/>
<polygon class="st0" points="23.8,168.9 18.6,168.9 18.6,174 24.4,174 24.4,175.6 16.8,175.6 16.8,161.3 24.1,161.3 24.1,162.9 
	18.6,162.9 18.6,167.4 23.8,167.4 "/>
<g>
	<g>
		<defs>
			<rect id="SVGID_00000018204270419406449540000006951870250597560448_" y="0" width="312.2" height="306.6"/>
		</defs>
		<clipPath id="SVGID_00000182502432900193301960000010617661525707305366_">
			<use xlink:href="#SVGID_00000018204270419406449540000006951870250597560448_"  style="overflow:visible;"/>
		</clipPath>
		<path style="clip-path:url(#SVGID_00000182502432900193301960000010617661525707305366_);fill:#FFFFFF;" d="M26.6,168.1
			c0-1.1,0-1.9-0.1-2.8H28l0.1,1.7h0.1c0.5-1,1.4-1.9,3-1.9c1.3,0,2.3,0.8,2.7,2.1l0,0c0.3-0.6,0.7-1,1.1-1.3
			c0.6-0.5,1.2-0.7,2.1-0.7c1.3,0,3.2,0.9,3.2,4.4v6h-1.7v-5.8c0-2-0.7-3.2-2.1-3.2c-1,0-1.8,0.8-2.1,1.7c-0.1,0.3-0.1,0.6-0.1,0.9
			v6.3h-1.7v-6.1c0-1.6-0.7-2.8-2-2.8c-1.1,0-1.9,0.9-2.2,1.9c-0.1,0.3-0.1,0.6-0.1,0.9v6.2h-1.7V168.1z"/>
	</g>
	<g>
		<defs>
			<rect id="SVGID_00000156548072123712213780000008047951400370293157_" y="0" width="312.2" height="306.6"/>
		</defs>
		<clipPath id="SVGID_00000157279028345815070080000000294524257517788036_">
			<use xlink:href="#SVGID_00000156548072123712213780000008047951400370293157_"  style="overflow:visible;"/>
		</clipPath>
		<path style="clip-path:url(#SVGID_00000157279028345815070080000000294524257517788036_);fill:#FFFFFF;" d="M45.1,171.4
			c0,0.3,0,0.5,0.1,0.8c0.3,1.3,1.4,2.2,2.6,2.2c1.9,0,2.9-1.6,2.9-4c0-2.1-1-3.8-2.9-3.8c-1.2,0-2.3,0.9-2.7,2.3
			c-0.1,0.2-0.1,0.5-0.1,0.8v1.7H45.1z M43.3,168.7c0-1.3,0-2.4-0.1-3.3h1.6l0.1,1.8l0,0c0.7-1.2,1.9-2,3.4-2c2.3,0,4.1,2.1,4.1,5.2
			c0,3.7-2.1,5.5-4.4,5.5c-1.3,0-2.4-0.6-3-1.6l0,0v5.6h-1.7L43.3,168.7z"/>
	</g>
	<g>
		<defs>
			<rect id="SVGID_00000157990027969425647670000010639158846212710283_" y="0" width="312.2" height="306.6"/>
		</defs>
		<clipPath id="SVGID_00000151501692002072283690000000332556396760205496_">
			<use xlink:href="#SVGID_00000157990027969425647670000010639158846212710283_"  style="overflow:visible;"/>
		</clipPath>
		<path style="clip-path:url(#SVGID_00000151501692002072283690000000332556396760205496_);fill:#FFFFFF;" d="M54.7,168.5
			c0-1.2,0-2.2-0.1-3.2h1.5l0.1,2h0.1c0.4-1.4,1.5-2.2,2.7-2.2c0.2,0,0.3,0,0.5,0.1v1.8c-0.2,0-0.4-0.1-0.6-0.1
			c-1.2,0-2.1,1-2.4,2.4c0,0.3-0.1,0.6-0.1,0.9v5.5h-1.7V168.5z"/>
	</g>
	<g>
		<defs>
			<rect id="SVGID_00000041981861058015268080000008812489458759278752_" y="0" width="312.2" height="306.6"/>
		</defs>
		<clipPath id="SVGID_00000088817975232303725870000017818968580090584255_">
			<use xlink:href="#SVGID_00000041981861058015268080000008812489458759278752_"  style="overflow:visible;"/>
		</clipPath>
		<path style="clip-path:url(#SVGID_00000088817975232303725870000017818968580090584255_);fill:#FFFFFF;" d="M67.4,169.5
			c0-1.2-0.5-3-2.4-3c-1.8,0-2.6,1.7-2.7,3H67.4z M62.3,170.8c0,2.5,1.6,3.6,3.3,3.6c1.3,0,2-0.2,2.7-0.5l0.3,1.3
			c-0.6,0.3-1.7,0.6-3.2,0.6c-3,0-4.8-2.1-4.8-5.2s1.7-5.5,4.5-5.5c3.2,0,4,2.9,4,4.8c0,0.4,0,0.7-0.1,0.9L62.3,170.8L62.3,170.8z"
			/>
	</g>
	<g>
		<defs>
			<rect id="SVGID_00000015336985122618170640000008624340956893080503_" y="0" width="312.2" height="306.6"/>
		</defs>
		<clipPath id="SVGID_00000157274640175289346580000008532487104690042252_">
			<use xlink:href="#SVGID_00000015336985122618170640000008624340956893080503_"  style="overflow:visible;"/>
		</clipPath>
		<path style="clip-path:url(#SVGID_00000157274640175289346580000008532487104690042252_);fill:#FFFFFF;" d="M71.1,173.7
			c0.5,0.4,1.4,0.7,2.3,0.7c1.3,0,1.9-0.7,1.9-1.5c0-0.9-0.5-1.4-1.8-1.9c-1.7-0.7-2.6-1.7-2.6-2.9c0-1.7,1.3-3,3.3-3
			c1,0,1.8,0.3,2.4,0.6l-0.4,1.4c-0.4-0.3-1.1-0.6-2-0.6c-1,0-1.6,0.6-1.6,1.4c0,0.8,0.6,1.2,1.8,1.7c1.7,0.7,2.5,1.6,2.5,3.1
			c0,1.8-1.3,3.1-3.6,3.1c-1.1,0-2-0.3-2.7-0.7L71.1,173.7z"/>
	</g>
	<g>
		<defs>
			<rect id="SVGID_00000100344274177425875270000009248326318804767371_" y="0" width="312.2" height="306.6"/>
		</defs>
		<clipPath id="SVGID_00000067213127825139484390000003350319254709736595_">
			<use xlink:href="#SVGID_00000100344274177425875270000009248326318804767371_"  style="overflow:visible;"/>
		</clipPath>
		<path style="clip-path:url(#SVGID_00000067213127825139484390000003350319254709736595_);fill:#FFFFFF;" d="M84.4,170.4
			c-1.9,0-4.1,0.3-4.1,2.3c0,1.2,0.8,1.8,1.7,1.8c1.3,0,2.1-0.8,2.3-1.7c0.1-0.2,0.1-0.4,0.1-0.6V170.4z M84.6,175.6l-0.1-1.3h-0.1
			c-0.5,0.8-1.6,1.5-3,1.5c-2,0-3-1.5-3-2.9c0-2.5,2.1-3.8,5.8-3.8v-0.2c0-0.8-0.2-2.4-2.2-2.4c-0.9,0-1.8,0.3-2.5,0.8l-0.4-1.2
			c0.8-0.5,2-0.9,3.2-0.9c3,0,3.7,2.1,3.7,4.2v3.8c0,0.9,0,1.8,0.2,2.5h-1.6V175.6z"/>
	</g>
	<g>
		<defs>
			<rect id="SVGID_00000001661676636205646990000000631254245690684580_" y="0" width="312.2" height="306.6"/>
		</defs>
		<clipPath id="SVGID_00000183957407849115911270000006046804556567081871_">
			<use xlink:href="#SVGID_00000001661676636205646990000000631254245690684580_"  style="overflow:visible;"/>
		</clipPath>
		<path style="clip-path:url(#SVGID_00000183957407849115911270000006046804556567081871_);fill:#FFFFFF;" d="M18.6,188h1.8
			c1.9,0,3-1.1,3-2.7c0-1.8-1.3-2.6-3.1-2.7c-0.8,0-1.4,0.1-1.7,0.2L18.6,188z M16.8,181.5c0.9-0.2,2.1-0.3,3.3-0.3
			c1.9,0,3.1,0.4,3.9,1.2c0.7,0.6,1.1,1.6,1.1,2.7c0,1.9-1.1,3.1-2.5,3.6v0.1c1,0.4,1.7,1.4,2,2.9c0.4,2,0.8,3.4,1,3.9h-1.8
			c-0.2-0.4-0.5-1.6-0.9-3.4c-0.4-2-1.1-2.7-2.7-2.8h-1.6v6.2h-1.7L16.8,181.5L16.8,181.5z"/>
	</g>
	<g>
		<defs>
			<rect id="SVGID_00000062882160916181039590000016724360580665153436_" y="0" width="312.2" height="306.6"/>
		</defs>
		<clipPath id="SVGID_00000143619192338720881700000001874593502572602548_">
			<use xlink:href="#SVGID_00000062882160916181039590000016724360580665153436_"  style="overflow:visible;"/>
		</clipPath>
		<path style="clip-path:url(#SVGID_00000143619192338720881700000001874593502572602548_);fill:#FFFFFF;" d="M33.7,189.5
			c0-1.2-0.5-3-2.4-3c-1.8,0-2.6,1.7-2.7,3H33.7z M28.5,190.8c0,2.5,1.6,3.6,3.3,3.6c1.3,0,2-0.2,2.7-0.5l0.3,1.3
			c-0.6,0.3-1.7,0.6-3.2,0.6c-3,0-4.8-2.1-4.8-5.2c0-3.1,1.7-5.5,4.5-5.5c3.2,0,4,2.9,4,4.8c0,0.4,0,0.7-0.1,0.9L28.5,190.8
			L28.5,190.8z"/>
	</g>
	<g>
		<defs>
			<rect id="SVGID_00000054253444195737257280000001626538183573772960_" y="0" width="312.2" height="306.6"/>
		</defs>
		<clipPath id="SVGID_00000071530624479922032350000008453026593484591766_">
			<use xlink:href="#SVGID_00000054253444195737257280000001626538183573772960_"  style="overflow:visible;"/>
		</clipPath>
		<path style="clip-path:url(#SVGID_00000071530624479922032350000008453026593484591766_);fill:#FFFFFF;" d="M44.1,189.4
			c0-0.3,0-0.6-0.1-0.8c-0.3-1.1-1.2-2-2.5-2c-1.7,0-2.9,1.5-2.9,3.9c0,2,1,3.7,2.9,3.7c1.1,0,2.1-0.7,2.4-1.9
			c0.1-0.3,0.1-0.7,0.1-1L44.1,189.4L44.1,189.4z M45.9,185.3c0,0.7-0.1,1.6-0.1,2.8v5.9c0,2.3-0.4,3.8-1.4,4.7
			c-0.9,0.9-2.3,1.2-3.5,1.2s-2.4-0.3-3.2-0.8l0.4-1.4c0.6,0.4,1.6,0.8,2.8,0.8c1.8,0,3.1-1,3.1-3.6v-1.1l0,0
			c-0.5,1-1.6,1.7-3.1,1.7c-2.4,0-4.1-2.2-4.1-5c0-3.5,2.1-5.4,4.4-5.4c1.7,0,2.6,0.9,3,1.8l0,0l0.1-1.5L45.9,185.3L45.9,185.3z"/>
	</g>
	<g>
		<defs>
			<rect id="SVGID_00000136399603286452024060000004341743270015737504_" y="0" width="312.2" height="306.6"/>
		</defs>
		<clipPath id="SVGID_00000096054679884938923430000011696071299374587044_">
			<use xlink:href="#SVGID_00000136399603286452024060000004341743270015737504_"  style="overflow:visible;"/>
		</clipPath>
		<path style="clip-path:url(#SVGID_00000096054679884938923430000011696071299374587044_);fill:#FFFFFF;" d="M48.8,185.3h1.8v10.2
			h-1.8V185.3z M50.8,182.5c0,0.6-0.4,1.1-1.1,1.1c-0.6,0-1.1-0.5-1.1-1.1c0-0.7,0.5-1.2,1.1-1.2S50.8,181.8,50.8,182.5"/>
	</g>
	<g>
		<defs>
			<rect id="SVGID_00000080893686161765155300000008797395073816400309_" y="0" width="312.2" height="306.6"/>
		</defs>
		<clipPath id="SVGID_00000150788359199094023780000015811643577093793179_">
			<use xlink:href="#SVGID_00000080893686161765155300000008797395073816400309_"  style="overflow:visible;"/>
		</clipPath>
		<path style="clip-path:url(#SVGID_00000150788359199094023780000015811643577093793179_);fill:#FFFFFF;" d="M53.2,193.7
			c0.5,0.4,1.4,0.7,2.3,0.7c1.3,0,1.9-0.7,1.9-1.5c0-0.9-0.5-1.4-1.8-1.9c-1.7-0.7-2.6-1.7-2.6-2.9c0-1.7,1.3-3,3.3-3
			c1,0,1.8,0.3,2.4,0.6l-0.4,1.4c-0.4-0.3-1.1-0.6-2-0.6c-1,0-1.6,0.6-1.6,1.4c0,0.8,0.6,1.2,1.8,1.7c1.7,0.7,2.5,1.6,2.5,3.1
			c0,1.8-1.3,3.1-3.6,3.1c-1.1,0-2-0.3-2.7-0.7L53.2,193.7z"/>
	</g>
	<g>
		<defs>
			<rect id="SVGID_00000057870256309358890160000001234430269073614496_" y="0" width="312.2" height="306.6"/>
		</defs>
		<clipPath id="SVGID_00000095302182981438537910000014326259897004361393_">
			<use xlink:href="#SVGID_00000057870256309358890160000001234430269073614496_"  style="overflow:visible;"/>
		</clipPath>
		<path style="clip-path:url(#SVGID_00000095302182981438537910000014326259897004361393_);fill:#FFFFFF;" d="M63.5,182.4v2.9H66
			v1.4h-2.5v5.5c0,1.3,0.3,2,1.3,2c0.5,0,0.8-0.1,1-0.1l0.1,1.4c-0.3,0.1-0.9,0.3-1.6,0.3c-0.8,0-1.5-0.3-1.9-0.8
			c-0.5-0.5-0.7-1.5-0.7-2.7v-5.6h-1.5v-1.4h1.5v-2.5L63.5,182.4z"/>
	</g>
	<g>
		<defs>
			<rect id="SVGID_00000040533780908105451280000011230808954969079189_" y="0" width="312.2" height="306.6"/>
		</defs>
		<clipPath id="SVGID_00000158714765279495791260000017843195594117955004_">
			<use xlink:href="#SVGID_00000040533780908105451280000011230808954969079189_"  style="overflow:visible;"/>
		</clipPath>
		<path style="clip-path:url(#SVGID_00000158714765279495791260000017843195594117955004_);fill:#FFFFFF;" d="M68,188.5
			c0-1.2,0-2.2-0.1-3.2h1.5l0.1,2h0.1c0.4-1.4,1.5-2.2,2.7-2.2c0.2,0,0.3,0,0.5,0.1v1.8c-0.2,0-0.4-0.1-0.6-0.1
			c-1.2,0-2.1,1-2.4,2.4c0,0.3-0.1,0.6-0.1,0.9v5.5H68V188.5z"/>
	</g>
	<g>
		<defs>
			<rect id="SVGID_00000008863192459310887090000013246487850411308186_" y="0" width="312.2" height="306.6"/>
		</defs>
		<clipPath id="SVGID_00000170280205903210494130000003544814011860591804_">
			<use xlink:href="#SVGID_00000008863192459310887090000013246487850411308186_"  style="overflow:visible;"/>
		</clipPath>
		<path style="clip-path:url(#SVGID_00000170280205903210494130000003544814011860591804_);fill:#FFFFFF;" d="M79.7,190.4
			c-1.9,0-4.1,0.3-4.1,2.3c0,1.2,0.8,1.8,1.7,1.8c1.3,0,2.1-0.8,2.3-1.7c0.1-0.2,0.1-0.4,0.1-0.6V190.4z M79.9,195.6l-0.1-1.3h-0.1
			c-0.5,0.8-1.6,1.5-3,1.5c-2,0-3-1.5-3-2.9c0-2.5,2.1-3.8,5.8-3.8v-0.2c0-0.8-0.2-2.4-2.2-2.4c-0.9,0-1.8,0.3-2.5,0.8l-0.4-1.2
			c0.8-0.5,2-0.9,3.2-0.9c3,0,3.7,2.1,3.7,4.2v3.8c0,0.9,0,1.8,0.2,2.5h-1.6V195.6z"/>
	</g>
	<g>
		<defs>
			<rect id="SVGID_00000084493116636730798030000002873354761125675446_" y="0" width="312.2" height="306.6"/>
		</defs>
		<clipPath id="SVGID_00000155119941863445753870000015513149819121323905_">
			<use xlink:href="#SVGID_00000084493116636730798030000002873354761125675446_"  style="overflow:visible;"/>
		</clipPath>
		<path style="clip-path:url(#SVGID_00000155119941863445753870000015513149819121323905_);fill:#FFFFFF;" d="M90.8,189.5
			c0-0.2,0-0.5-0.1-0.8c-0.3-1.2-1.2-2.2-2.5-2.2c-1.8,0-2.9,1.7-2.9,4c0,2.1,1,3.8,2.9,3.8c1.2,0,2.3-0.8,2.6-2.2
			c0.1-0.3,0.1-0.5,0.1-0.8L90.8,189.5L90.8,189.5z M92.6,180.6V193c0,0.9,0,1.9,0.1,2.6h-1.6l-0.1-1.8l0,0c-0.5,1.1-1.7,2-3.3,2
			c-2.3,0-4.1-2.1-4.1-5.2c0-3.4,2-5.5,4.3-5.5c1.5,0,2.5,0.7,2.9,1.6l0,0v-6.1H92.6z"/>
	</g>
	<g>
		<defs>
			<rect id="SVGID_00000034068808665302414450000001692886461811399043_" y="0" width="312.2" height="306.6"/>
		</defs>
		<clipPath id="SVGID_00000114787233473755210270000011131177717041581714_">
			<use xlink:href="#SVGID_00000034068808665302414450000001692886461811399043_"  style="overflow:visible;"/>
		</clipPath>
		<path style="clip-path:url(#SVGID_00000114787233473755210270000011131177717041581714_);fill:#FFFFFF;" d="M100.6,190.4
			c-1.9,0-4.1,0.3-4.1,2.3c0,1.2,0.8,1.8,1.7,1.8c1.3,0,2.1-0.8,2.3-1.7c0.1-0.2,0.1-0.4,0.1-0.6V190.4z M100.9,195.6l-0.1-1.3h-0.1
			c-0.5,0.8-1.6,1.5-3,1.5c-2,0-3-1.5-3-2.9c0-2.5,2.1-3.8,5.8-3.8v-0.2c0-0.8-0.2-2.4-2.2-2.4c-0.9,0-1.8,0.3-2.5,0.8l-0.4-1.2
			c0.8-0.5,2-0.9,3.2-0.9c3,0,3.7,2.1,3.7,4.2v3.8c0,0.9,0,1.8,0.2,2.5h-1.6V195.6z"/>
	</g>
	<g>
		<defs>
			<rect id="SVGID_00000040565159197191887660000000143282072900723900_" y="0" width="312.2" height="306.6"/>
		</defs>
		<clipPath id="SVGID_00000009588626550329490860000013515534778808672400_">
			<use xlink:href="#SVGID_00000040565159197191887660000000143282072900723900_"  style="overflow:visible;"/>
		</clipPath>
		
			<rect x="1.4" y="211" style="clip-path:url(#SVGID_00000009588626550329490860000013515534778808672400_);fill:none;stroke:#222221;stroke-width:0.804;stroke-miterlimit:3.864;" width="120.9" height="25.7"/>
	</g>
</g>
<rect x="35.1" y="218.6" class="st4" width="1.1" height="10.6"/>
<g>
	<g>
		<defs>
			<rect id="SVGID_00000138538036144208521250000000253848046443447959_" y="0" width="312.2" height="306.6"/>
		</defs>
		<clipPath id="SVGID_00000062908407299796905240000002042903939146160025_">
			<use xlink:href="#SVGID_00000138538036144208521250000000253848046443447959_"  style="overflow:visible;"/>
		</clipPath>
		<path style="clip-path:url(#SVGID_00000062908407299796905240000002042903939146160025_);fill:#222221;" d="M44.7,221
			c-0.5-1.7-1.7-2.6-3.3-2.6c-1.8,0-3,1.2-3,2.7c0,3.3,5.6,2.5,5.6,5.2c0,1.1-0.7,1.9-2.2,1.9s-2.2-1-2.6-2.1l-1,0.4
			c0.5,1.3,1.4,2.8,3.6,2.8c2.6,0,3.4-1.6,3.4-3.1c0-3.4-5.7-2.8-5.6-5.1c0-1.1,0.7-1.6,1.9-1.6c1.3,0,2.1,0.8,2.3,1.8L44.7,221z"/>
	</g>
	<g>
		<defs>
			<rect id="SVGID_00000013909764781583359950000008760129401360173759_" y="0" width="312.2" height="306.6"/>
		</defs>
		<clipPath id="SVGID_00000091713557112365885840000004232588389108097693_">
			<use xlink:href="#SVGID_00000013909764781583359950000008760129401360173759_"  style="overflow:visible;"/>
		</clipPath>
		<path style="clip-path:url(#SVGID_00000091713557112365885840000004232588389108097693_);fill:#222221;" d="M47.2,223.9
			c0-3,1-4.4,2.8-4.4s2.8,1.4,2.8,4.4s-1,4.4-2.8,4.4C48.2,228.3,47.2,226.9,47.2,223.9 M46.1,223.9c0,3.5,1.5,5.4,3.9,5.4
			c2.5,0,3.9-1.9,3.9-5.4s-1.5-5.4-3.9-5.4C47.5,218.4,46.1,220.3,46.1,223.9"/>
	</g>
	<g>
		<defs>
			<rect id="SVGID_00000170248008544712967530000005538698694227838875_" y="0" width="312.2" height="306.6"/>
		</defs>
		<clipPath id="SVGID_00000067924040267839840830000009039017259541793152_">
			<use xlink:href="#SVGID_00000170248008544712967530000005538698694227838875_"  style="overflow:visible;"/>
		</clipPath>
		<path style="clip-path:url(#SVGID_00000067924040267839840830000009039017259541793152_);fill:#222221;" d="M59.1,228.7
			c0.3,0.3,1.1,0.6,2.2,0.6c2.7,0,4.1-2.6,4.1-6c0-3.6-1.5-4.9-3.6-4.9c-1.7,0-3.2,1.1-3.2,3.4c0,2.3,1.5,3.4,3,3.4
			c1.4,0,2.1-0.6,2.7-1.3c-0.1,2.9-1.5,4.4-3.1,4.4c-0.8,0-1.2-0.2-1.7-0.6L59.1,228.7z M59.6,221.8c0-1.4,0.8-2.5,2.3-2.5
			c1.4,0,2.4,1.2,2.4,3c-0.4,1.1-1.3,2-2.5,2C60.6,224.3,59.6,223.4,59.6,221.8"/>
	</g>
	<g>
		<defs>
			<rect id="SVGID_00000115492900297451729150000006262851909312072332_" y="0" width="312.2" height="306.6"/>
		</defs>
		<clipPath id="SVGID_00000125603101187501371850000007714857582921450887_">
			<use xlink:href="#SVGID_00000115492900297451729150000006262851909312072332_"  style="overflow:visible;"/>
		</clipPath>
		<path style="clip-path:url(#SVGID_00000125603101187501371850000007714857582921450887_);fill:#222221;" d="M66.3,223.9
			c0,3.8,1.4,5.4,3.5,5.4s3.5-1.6,3.5-5.4s-1.4-5.4-3.5-5.4S66.3,220,66.3,223.9 M67.4,223.9c0-3.2,0.9-4.5,2.5-4.5s2.5,1.3,2.5,4.5
			s-0.9,4.5-2.5,4.5C68.2,228.4,67.4,227.1,67.4,223.9"/>
	</g>
	<g>
		<defs>
			<rect id="SVGID_00000135671873225949094640000010732588491874749620_" y="0" width="312.2" height="306.6"/>
		</defs>
		<clipPath id="SVGID_00000119798097104907268990000004480807716907309475_">
			<use xlink:href="#SVGID_00000135671873225949094640000010732588491874749620_"  style="overflow:visible;"/>
		</clipPath>
		<path style="clip-path:url(#SVGID_00000119798097104907268990000004480807716907309475_);fill:#222221;" d="M74.2,223.9
			c0,3.8,1.4,5.4,3.5,5.4c2.2,0,3.5-1.6,3.5-5.4s-1.4-5.4-3.5-5.4C75.6,218.4,74.2,220,74.2,223.9 M75.3,223.9
			c0-3.2,0.9-4.5,2.5-4.5s2.5,1.3,2.5,4.5s-0.9,4.5-2.5,4.5C76.1,228.4,75.3,227.1,75.3,223.9"/>
	</g>
	<g>
		<defs>
			<rect id="SVGID_00000162310016369905558160000017856212700208745629_" y="0" width="312.2" height="306.6"/>
		</defs>
		<clipPath id="SVGID_00000137112003664962928930000003713796902880111019_">
			<use xlink:href="#SVGID_00000162310016369905558160000017856212700208745629_"  style="overflow:visible;"/>
		</clipPath>
		<path style="clip-path:url(#SVGID_00000137112003664962928930000003713796902880111019_);fill:#222221;" d="M88,229.1v-0.9h-1.7
			v-9.8h-1c-0.4,0.3-1.2,0.5-1.9,0.7v0.7l1.9-0.2v8.6h-1.7v0.9H88z"/>
	</g>
</g>
<polygon class="st4" points="11.1,256.6 11.1,260.2 15.2,260.2 15.2,261.7 11.1,261.7 11.1,266.4 16.7,266.4 16.7,268 9.5,268 
	9.5,255 16.8,255 16.8,256.6 "/>
<g>
	<g>
		<defs>
			<rect id="SVGID_00000058590468240843784720000014201100319339545267_" y="0" width="312.2" height="306.6"/>
		</defs>
		<clipPath id="SVGID_00000072972125822339412850000007035857566027120060_">
			<use xlink:href="#SVGID_00000058590468240843784720000014201100319339545267_"  style="overflow:visible;"/>
		</clipPath>
		<path style="clip-path:url(#SVGID_00000072972125822339412850000007035857566027120060_);fill:#222221;" d="M20.4,256.6v4.2
			c0.4,0.1,0.8,0.1,1.2,0.1c1,0,1.7-0.2,2.2-0.5s0.7-1,0.7-1.8c0-0.7-0.2-1.3-0.7-1.6c-0.5-0.3-1.3-0.5-2.3-0.5
			C21.2,256.5,20.9,256.5,20.4,256.6 M25.4,268l-3.3-5.6c-0.4,0-1,0-1.8-0.1v5.7h-1.7v-13c0.1,0,0.5,0,1.3-0.1
			c0.8,0,1.4-0.1,1.8-0.1c3,0,4.4,1.2,4.4,3.7c0,0.8-0.2,1.5-0.7,2.2s-1,1.1-1.7,1.2l3.6,6L25.4,268L25.4,268z"/>
	</g>
</g>
<rect x="28.6" y="262" class="st4" width="3.6" height="1.5"/>
<g>
	<g>
		<defs>
			<rect id="SVGID_00000044882654436136879040000008095549830275808150_" y="0" width="312.2" height="306.6"/>
		</defs>
		<clipPath id="SVGID_00000078002766517291320650000008842417797523229358_">
			<use xlink:href="#SVGID_00000044882654436136879040000008095549830275808150_"  style="overflow:visible;"/>
		</clipPath>
		<path style="clip-path:url(#SVGID_00000078002766517291320650000008842417797523229358_);fill:#222221;" d="M35.7,261.3
			c0,3.6,0.7,5.4,2.2,5.4c0.8,0,1.4-0.4,1.8-1.2c0.4-0.8,0.6-2.2,0.6-4.2c0-1.4-0.1-2.4-0.2-3s-0.4-1.1-0.7-1.5
			c-0.3-0.3-0.8-0.5-1.3-0.5C36.5,256.3,35.7,257.9,35.7,261.3 M34,261.1c0-1.9,0.4-3.4,1.1-4.6c0.7-1.2,1.7-1.8,3-1.8
			s2.3,0.5,2.9,1.5c0.6,1,1,2.7,1,5.1c0,2.1-0.3,3.8-1,5s-1.7,1.8-3,1.8s-2.3-0.5-3-1.5S34,263.9,34,261.1"/>
	</g>
	<g>
		<defs>
			<rect id="SVGID_00000167398408928179181480000018409033215923658428_" y="0" width="312.2" height="306.6"/>
		</defs>
		<clipPath id="SVGID_00000045585513266680115210000005610911038527260317_">
			<use xlink:href="#SVGID_00000167398408928179181480000018409033215923658428_"  style="overflow:visible;"/>
		</clipPath>
		<path style="clip-path:url(#SVGID_00000045585513266680115210000005610911038527260317_);fill:#222221;" d="M43,268v-0.4l3.9-6.2
			c0.8-1.3,1.2-2.4,1.2-3.3c0-1.2-0.6-1.8-1.9-1.8c-0.5,0-0.9,0.1-1.3,0.4c-0.4,0.3-0.7,0.6-0.9,1l-1.1-0.9c0.2-0.6,0.6-1,1.1-1.4
			c0.6-0.3,1.2-0.5,2-0.5c1.2,0,2.1,0.3,2.8,0.9c0.7,0.6,1,1.4,1,2.4s-0.4,2.2-1.3,3.7l-2.8,4.6h4.8v1.6H43V268z"/>
	</g>
	<g>
		<defs>
			<rect id="SVGID_00000016035542015748678650000000684901817648475574_" y="0" width="312.2" height="306.6"/>
		</defs>
		<clipPath id="SVGID_00000041995517835651774390000008684795380617742253_">
			<use xlink:href="#SVGID_00000016035542015748678650000000684901817648475574_"  style="overflow:visible;"/>
		</clipPath>
		<path style="clip-path:url(#SVGID_00000041995517835651774390000008684795380617742253_);fill:#222221;" d="M53.3,261.7l-0.6-0.4
			V255h6.1v1.5h-4.5v3.2c0.4-0.3,0.9-0.5,1.6-0.5c1.1,0,2,0.4,2.6,1.1s0.9,1.7,0.9,3.1c0,3.3-1.4,4.9-4.1,4.9c-1.1,0-2.1-0.3-2.9-1
			l0.6-1.5c0.8,0.7,1.5,1,2.2,1c1.6,0,2.4-1,2.4-3.1c0-1.9-0.8-2.9-2.3-2.9C54.6,260.6,53.9,261,53.3,261.7"/>
	</g>
	<g>
		<defs>
			<rect id="SVGID_00000173849409498917240790000013920873785151163050_" y="0" width="312.2" height="306.6"/>
		</defs>
		<clipPath id="SVGID_00000093882371895842812610000011760872066561480122_">
			<use xlink:href="#SVGID_00000173849409498917240790000013920873785151163050_"  style="overflow:visible;"/>
		</clipPath>
		<path style="clip-path:url(#SVGID_00000093882371895842812610000011760872066561480122_);fill:#222221;" d="M65.3,260.2
			c0.8-0.8,1.1-1.5,1.1-2.3c0-0.5-0.2-0.9-0.5-1.2c-0.3-0.3-0.7-0.4-1.2-0.4c-1.1,0-1.6,0.5-1.6,1.6
			C63.1,258.7,63.8,259.5,65.3,260.2 M64.5,261.5c-1.2,0.7-1.8,1.7-1.8,2.9c0,0.6,0.2,1.2,0.6,1.6c0.4,0.4,0.9,0.7,1.5,0.7
			c0.6,0,1.1-0.2,1.5-0.6s0.6-1,0.6-1.6c0-0.5-0.1-0.9-0.4-1.4S65.5,262.1,64.5,261.5 M63.2,260.8c-0.5-0.3-0.9-0.7-1.3-1.2
			c-0.3-0.5-0.5-1.1-0.5-1.6c0-1,0.3-1.7,0.9-2.3c0.6-0.6,1.4-0.8,2.4-0.8c1.1,0,1.9,0.3,2.5,0.8c0.6,0.6,0.9,1.3,0.9,2.3
			c0,0.6-0.2,1.1-0.5,1.7c-0.4,0.6-0.8,1-1.2,1.3c1.5,0.9,2.2,2,2.2,3.4c0,1.2-0.3,2.1-1,2.8c-0.7,0.7-1.6,1-2.8,1
			c-2.5,0-3.7-1.3-3.7-3.8c0-0.7,0.2-1.4,0.6-2.1C62.1,261.5,62.6,261.1,63.2,260.8"/>
	</g>
</g>
<polygon class="st4" points="72.1,268 70.8,268 75.2,255 76.6,255 "/>
<g>
	<g>
		<defs>
			<rect id="SVGID_00000035496942044922925090000015856832891030026403_" y="0" width="312.2" height="306.6"/>
		</defs>
		<clipPath id="SVGID_00000045614886330296658030000005911326158275044019_">
			<use xlink:href="#SVGID_00000035496942044922925090000015856832891030026403_"  style="overflow:visible;"/>
		</clipPath>
		<path style="clip-path:url(#SVGID_00000045614886330296658030000005911326158275044019_);fill:#222221;" d="M78.7,268v-0.4
			l3.9-6.2c0.8-1.3,1.2-2.4,1.2-3.3c0-1.2-0.6-1.8-1.9-1.8c-0.5,0-0.9,0.1-1.3,0.4s-0.7,0.6-0.9,1l-1.1-0.9c0.2-0.6,0.6-1,1.1-1.4
			c0.6-0.3,1.2-0.5,2-0.5c1.2,0,2.1,0.3,2.8,0.9c0.7,0.6,1,1.4,1,2.4s-0.4,2.2-1.3,3.7l-2.8,4.6h4.8v1.6h-7.5V268z"/>
	</g>
	<g>
		<defs>
			<rect id="SVGID_00000060746858688651890550000013422931550322851207_" y="0" width="312.2" height="306.6"/>
		</defs>
		<clipPath id="SVGID_00000013892014659937538430000012763025849062612610_">
			<use xlink:href="#SVGID_00000060746858688651890550000013422931550322851207_"  style="overflow:visible;"/>
		</clipPath>
		<path style="clip-path:url(#SVGID_00000013892014659937538430000012763025849062612610_);fill:#222221;" d="M89.2,261.3
			c0,3.6,0.7,5.4,2.2,5.4c0.8,0,1.4-0.4,1.8-1.2c0.4-0.8,0.6-2.2,0.6-4.2c0-1.4-0.1-2.4-0.2-3s-0.4-1.1-0.7-1.5
			c-0.3-0.3-0.8-0.5-1.3-0.5C90,256.3,89.2,257.9,89.2,261.3 M87.6,261.1c0-1.9,0.4-3.4,1.1-4.6c0.7-1.2,1.7-1.8,3-1.8
			s2.2,0.5,2.9,1.5c0.6,1,1,2.7,1,5.1c0,2.1-0.3,3.8-1,5s-1.7,1.8-3,1.8s-2.3-0.5-3-1.5S87.6,263.9,87.6,261.1"/>
	</g>
	<g>
		<defs>
			<rect id="SVGID_00000126306138986279343590000018361319190189005473_" y="0" width="312.2" height="306.6"/>
		</defs>
		<clipPath id="SVGID_00000015327830455984639750000017786336520636107706_">
			<use xlink:href="#SVGID_00000126306138986279343590000018361319190189005473_"  style="overflow:visible;"/>
		</clipPath>
		<path style="clip-path:url(#SVGID_00000015327830455984639750000017786336520636107706_);fill:#222221;" d="M100.1,268v-10
			l-2.5,1.6V258c0.6-0.3,1.3-0.8,2-1.4s1.3-1.2,1.7-1.7h0.5v13L100.1,268L100.1,268z"/>
	</g>
	<g>
		<defs>
			<rect id="SVGID_00000034048745281694976850000015601113796052223403_" y="0" width="312.2" height="306.6"/>
		</defs>
		<clipPath id="SVGID_00000113352172496131584470000000139547077444865435_">
			<use xlink:href="#SVGID_00000034048745281694976850000015601113796052223403_"  style="overflow:visible;"/>
		</clipPath>
		<path style="clip-path:url(#SVGID_00000113352172496131584470000000139547077444865435_);fill:#222221;" d="M108.4,268h-1.9
			c0.4-1.4,1.1-3.2,2.1-5.5s1.9-4.2,2.7-5.8h-5.8V255h8v0.7l-1.1,2.2c-0.4,0.8-0.7,1.6-1.1,2.5s-0.8,1.8-1.2,2.8
			c-0.4,0.9-0.7,1.8-1,2.6C108.8,266.6,108.6,267.4,108.4,268"/>
	</g>
	<g>
		<defs>
			<rect id="SVGID_00000139977295924604383710000007837121410623604635_" y="0" width="312.2" height="306.6"/>
		</defs>
		<clipPath id="SVGID_00000032638720353060432350000004306849778352497831_">
			<use xlink:href="#SVGID_00000139977295924604383710000007837121410623604635_"  style="overflow:visible;"/>
		</clipPath>
		<path style="clip-path:url(#SVGID_00000032638720353060432350000004306849778352497831_);fill:#FFFFFF;" d="M89.6,24.8
			c0,1.4-0.2,3.3-1.2,4.9c-1.1,1.6-2.6,2.4-4.6,2.4s-3.6-0.8-4.8-2.3c-0.9-1.1-1.3-2.8-1.3-5.1c0-6.8,4.6-7.3,5.9-7.3
			C89.2,17.4,89.6,23,89.6,24.8 M90.4,18.2c-1.6-1.9-3.9-2.9-6.8-2.9c-2,0-4.8,0.5-6.8,2.8c-1.6,1.8-2.3,3.9-2.3,6.9
			c0,5.6,3.6,9.2,9.1,9.2c2.8,0,5.1-1,6.6-2.7c0.6-0.8,1.2-1.8,1.6-3.1c0.4-1.4,0.5-2.3,0.5-3.6C92.5,22.9,92.2,20.3,90.4,18.2"/>
	</g>
</g>
<path class="st0" d="M23.8,26.1l3.1-8.2l3.1,8.2L23.8,26.1z M37.2,17.9h2.6v13.6h-5l-6.4-16h-3.1l-6.5,16h-2v2.3h7.5v-2.3h-2.4
	l1.3-3.5h7.1l1.3,3.5h-2.4v2.3h23.4v-6.2H50v3.9h-7.2v-5.8h3.1v2.6h2.6v-7.7h-2.6v2.7h-3.1v-5.5H50v3.6h2.7v-6H37.2V17.9z"/>
<polygon class="st0" points="66.7,17.9 69.3,17.9 69.3,29.8 61.7,15.6 55.2,15.6 55.2,17.9 57.8,17.9 57.8,31.6 55.2,31.6 
	55.2,33.9 63.2,33.9 63.2,31.6 60.5,31.6 60.5,19.2 68.4,33.9 72.1,33.9 72.1,17.9 74.6,17.9 74.6,15.6 66.7,15.6 "/>
<g>
	<g>
		<defs>
			<rect id="SVGID_00000144304978551596039470000003523330244570443426_" y="0" width="312.2" height="306.6"/>
		</defs>
		<clipPath id="SVGID_00000025442275367863336820000017970115221871084706_">
			<use xlink:href="#SVGID_00000144304978551596039470000003523330244570443426_"  style="overflow:visible;"/>
		</clipPath>
		<path style="clip-path:url(#SVGID_00000025442275367863336820000017970115221871084706_);fill:#FFFFFF;" d="M103.5,23.5
			c-0.9,0.7-2.3,0.7-3.4,0.7h-2.5V18h3.2c0.9,0,2.1,0,2.8,0.6c0.7,0.6,1.1,1.4,1.1,2.5C104.7,21.7,104.5,22.8,103.5,23.5
			 M107.3,31.6l-1.1-3.7c-0.4-1.4-0.7-2.2-1.8-2.7c1.8-0.7,2.9-2.3,2.9-4.7c0-1.7-0.8-3.3-2.1-4.1c-1.2-0.7-2.8-0.8-4.3-0.8h-8.6
			v2.3H95v13.6h-2.6v2.3h8.1v-2.3H98v-5.4h2.2c0.6,0,1.3,0,1.8,0.2c0.8,0.4,1.1,1.3,1.4,2.1l1.5,5.2l0.1,0.3h4.4v-2.3L107.3,31.6z"
			/>
	</g>
	<g>
		<defs>
			<rect id="SVGID_00000069373934241136576140000012051890361814764165_" y="0" width="312.2" height="306.6"/>
		</defs>
		<clipPath id="SVGID_00000116954773358201786450000015714845552643734146_">
			<use xlink:href="#SVGID_00000069373934241136576140000012051890361814764165_"  style="overflow:visible;"/>
		</clipPath>
		<path style="clip-path:url(#SVGID_00000116954773358201786450000015714845552643734146_);fill:#222221;" d="M1.9,305.5l0.9-2.2
			c0.4,0.3,1,0.6,1.7,0.8c0.7,0.2,1.3,0.3,1.8,0.3c0.9,0,1.7-0.3,2.3-0.8s0.9-1.2,0.9-2c0-0.6-0.2-1.1-0.5-1.7
			c-0.3-0.5-1.1-1.1-2.4-1.7l-1.4-0.7c-1.2-0.6-2-1.2-2.5-2C2.1,295,1.8,294,1.8,293c0-1.3,0.5-2.4,1.4-3.3s2.1-1.3,3.6-1.3
			c1.9,0,3.3,0.3,4.1,1l-0.7,2.1c-0.3-0.2-0.8-0.5-1.5-0.7s-1.3-0.3-1.8-0.3c-0.8,0-1.5,0.2-1.9,0.7c-0.5,0.5-0.7,1.1-0.7,1.8
			c0,0.4,0.1,0.9,0.3,1.2c0.2,0.4,0.4,0.7,0.7,0.9c0.3,0.2,0.9,0.6,1.8,1l1.4,0.7c1.2,0.6,2,1.2,2.5,2s0.7,1.8,0.7,3
			c0,1.3-0.5,2.4-1.6,3.4c-1.1,0.9-2.5,1.4-4.3,1.4C4.3,306.6,3,306.2,1.9,305.5"/>
	</g>
	<g>
		<defs>
			<rect id="SVGID_00000102516606728814506890000002457910528009836437_" y="0" width="312.2" height="306.6"/>
		</defs>
		<clipPath id="SVGID_00000139270958252373934570000016016908810523255703_">
			<use xlink:href="#SVGID_00000102516606728814506890000002457910528009836437_"  style="overflow:visible;"/>
		</clipPath>
		<path style="clip-path:url(#SVGID_00000139270958252373934570000016016908810523255703_);fill:#222221;" d="M19.6,295.1
			c-1,0-1.9,0.3-2.6,1c-0.7,0.6-1,1.4-1.1,2.3H23c0-0.9-0.3-1.7-0.9-2.3C21.6,295.4,20.7,295.1,19.6,295.1 M25.2,300.1h-9.3
			c0,1.5,0.4,2.7,1.2,3.5c0.7,0.7,1.7,1.1,2.8,1.1c1.3,0,2.4-0.4,3.3-1.1l1,1.6c-0.4,0.4-0.9,0.7-1.6,0.9c-0.9,0.3-1.9,0.5-3.1,0.5
			c-1.6,0-3-0.5-4.1-1.6c-1.3-1.2-1.9-2.8-1.9-4.9s0.6-3.8,1.9-5.1c1.2-1.1,2.5-1.7,4.1-1.7c1.8,0,3.3,0.5,4.3,1.6
			c1,1,1.5,2.3,1.5,4C25.4,299.2,25.3,299.7,25.2,300.1"/>
	</g>
	<g>
		<defs>
			<rect id="SVGID_00000027604050875480144980000010078309609585408927_" y="0" width="312.2" height="306.6"/>
		</defs>
		<clipPath id="SVGID_00000153686073603177361450000012576898698213095834_">
			<use xlink:href="#SVGID_00000027604050875480144980000010078309609585408927_"  style="overflow:visible;"/>
		</clipPath>
		<path style="clip-path:url(#SVGID_00000153686073603177361450000012576898698213095834_);fill:#222221;" d="M34.8,295.6
			c-0.5-0.3-1-0.5-1.5-0.5c-0.8,0-1.5,0.4-2.1,1.1s-0.9,1.6-0.9,2.7v7.4H28v-12.9h2.3v2.1c0.8-1.5,2.1-2.3,3.7-2.3
			c0.4,0,1,0.1,1.8,0.2L34.8,295.6z"/>
	</g>
</g>
<polygon class="st4" points="45.2,293.4 41.8,302.4 38.4,293.4 35.9,293.4 41.4,306.5 42,306.5 47.6,293.4 "/>
<g>
	<g>
		<defs>
			<rect id="SVGID_00000172433408718696443420000002385670309037745855_" y="0" width="312.2" height="306.6"/>
		</defs>
		<clipPath id="SVGID_00000157295812210436759990000004805192697432529566_">
			<use xlink:href="#SVGID_00000172433408718696443420000002385670309037745855_"  style="overflow:visible;"/>
		</clipPath>
		<path style="clip-path:url(#SVGID_00000157295812210436759990000004805192697432529566_);fill:#222221;" d="M51.8,288.6
			c0.4,0,0.7,0.1,1,0.4s0.4,0.6,0.4,1s-0.1,0.7-0.4,1c-0.3,0.3-0.6,0.4-1,0.4s-0.7-0.1-1-0.4s-0.4-0.6-0.4-1s0.1-0.7,0.4-1
			C51,288.7,51.4,288.6,51.8,288.6 M50.5,306.3v-11h-1.8v-1.9h4.1v12.9H50.5z"/>
	</g>
	<g>
		<defs>
			<rect id="SVGID_00000084506864362004165280000002487537730615723937_" y="0" width="312.2" height="306.6"/>
		</defs>
		<clipPath id="SVGID_00000029026110039552443910000011607718485236241814_">
			<use xlink:href="#SVGID_00000084506864362004165280000002487537730615723937_"  style="overflow:visible;"/>
		</clipPath>
		<path style="clip-path:url(#SVGID_00000029026110039552443910000011607718485236241814_);fill:#222221;" d="M66.1,294.5l-1.1,1.6
			c-0.2-0.2-0.6-0.5-1.2-0.7c-0.6-0.2-1.2-0.3-1.7-0.3c-1.2,0-2.2,0.4-3,1.3c-0.7,0.9-1.1,2.1-1.1,3.6s0.4,2.7,1.1,3.4
			c0.7,0.8,1.8,1.2,3.1,1.2c1,0,2.1-0.4,3.1-1.2l0.9,1.9c-1.2,0.8-2.7,1.2-4.6,1.2c-1.8,0-3.2-0.6-4.4-1.8c-1.1-1.2-1.7-2.8-1.7-4.8
			c0-2.1,0.6-3.7,1.8-4.9c1.2-1.2,2.8-1.9,4.9-1.9c0.7,0,1.4,0.1,2.2,0.4C65.2,293.9,65.8,294.2,66.1,294.5"/>
	</g>
	<g>
		<defs>
			<rect id="SVGID_00000137126949669483433790000000961037978250781852_" y="0" width="312.2" height="306.6"/>
		</defs>
		<clipPath id="SVGID_00000182510233746228898910000017660742781962737551_">
			<use xlink:href="#SVGID_00000137126949669483433790000000961037978250781852_"  style="overflow:visible;"/>
		</clipPath>
		<path style="clip-path:url(#SVGID_00000182510233746228898910000017660742781962737551_);fill:#222221;" d="M71,288.6
			c0.4,0,0.7,0.1,1,0.4s0.4,0.6,0.4,1s-0.1,0.7-0.4,1s-0.6,0.4-1,0.4s-0.7-0.1-1-0.4s-0.4-0.6-0.4-1s0.1-0.7,0.4-1
			C70.2,288.7,70.6,288.6,71,288.6 M69.7,306.3v-11H68v-1.9h4v12.9H69.7z"/>
	</g>
	<g>
		<defs>
			<rect id="SVGID_00000164491959185218311010000010532300247599020953_" y="0" width="312.2" height="306.6"/>
		</defs>
		<clipPath id="SVGID_00000052823991770082837840000018362089405306741159_">
			<use xlink:href="#SVGID_00000164491959185218311010000010532300247599020953_"  style="overflow:visible;"/>
		</clipPath>
		<path style="clip-path:url(#SVGID_00000052823991770082837840000018362089405306741159_);fill:#222221;" d="M77.2,299.8
			c0,3.2,1.1,4.8,3.4,4.8c1.1,0,1.9-0.4,2.5-1.3s0.9-2,0.9-3.5c0-3.2-1.1-4.8-3.4-4.8c-1,0-1.9,0.4-2.5,1.3
			C77.5,297.2,77.2,298.3,77.2,299.8 M74.8,299.8c0-2,0.5-3.6,1.6-4.8c1.1-1.2,2.5-1.8,4.2-1.8c1.8,0,3.3,0.6,4.3,1.8
			c1,1.2,1.5,2.8,1.5,4.9s-0.5,3.7-1.6,4.9c-1,1.2-2.5,1.8-4.3,1.8s-3.3-0.6-4.3-1.8C75.3,303.5,74.8,301.9,74.8,299.8"/>
	</g>
	<g>
		<defs>
			<rect id="SVGID_00000177476667056672954930000017511132787157371065_" y="0" width="312.2" height="306.6"/>
		</defs>
		<clipPath id="SVGID_00000119813468077968416920000007147192030201391527_">
			<use xlink:href="#SVGID_00000177476667056672954930000017511132787157371065_"  style="overflow:visible;"/>
		</clipPath>
		<path style="clip-path:url(#SVGID_00000119813468077968416920000007147192030201391527_);fill:#222221;" d="M88,305.5l0.8-2.2
			c1.3,0.8,2.3,1.3,3.1,1.3c1.4,0,2.1-0.6,2.1-1.8c0-0.8-0.7-1.6-2-2.2c-1.1-0.5-1.8-0.8-2.1-1.1c-0.4-0.2-0.7-0.5-1-0.8
			s-0.5-0.7-0.6-1s-0.2-0.7-0.2-1.1c0-1.1,0.4-1.9,1.2-2.5c0.8-0.6,1.8-0.9,3-0.9c0.9,0,2.1,0.3,3.5,0.9l-0.7,2.1
			c-0.9-0.7-1.8-1.1-2.7-1.1c-0.5,0-1,0.1-1.4,0.4s-0.6,0.6-0.6,1c0,0.8,0.5,1.4,1.4,1.9l1.6,0.7c1,0.5,1.7,1,2.2,1.6
			s0.7,1.3,0.7,2.2c0,1.2-0.4,2.1-1.2,2.7c-0.8,0.7-1.9,1-3.4,1C90.5,306.5,89.2,306.2,88,305.5"/>
	</g>
	<g>
		<defs>
			<rect id="SVGID_00000165918208637234049530000004794612056646175395_" y="0" width="312.2" height="306.6"/>
		</defs>
		<clipPath id="SVGID_00000104667942312907106330000002642843381601627063_">
			<use xlink:href="#SVGID_00000165918208637234049530000004794612056646175395_"  style="overflow:visible;"/>
		</clipPath>
		<path style="clip-path:url(#SVGID_00000104667942312907106330000002642843381601627063_);fill:#222221;" d="M117.7,289.3l-0.8,2.1
			c-0.8-0.6-2-0.8-3.6-0.8c-1.5,0-2.8,0.7-3.7,2c-0.9,1.3-1.4,3-1.4,5.1c0,2,0.5,3.6,1.4,4.9c1,1.2,2.2,1.9,3.7,1.9
			c1.7,0,2.9-0.6,3.8-1.8l1.3,1.8c-1.4,1.4-3.2,2.1-5.4,2.1c-2.3,0-4.1-0.8-5.4-2.5s-2-3.8-2-6.6c0-2.6,0.7-4.8,2.1-6.6
			s3.2-2.6,5.5-2.6C115.1,288.4,116.6,288.7,117.7,289.3"/>
	</g>
	<g>
		<defs>
			<rect id="SVGID_00000096049289398393587420000011917372083692822969_" y="0" width="312.2" height="306.6"/>
		</defs>
		<clipPath id="SVGID_00000176750467877983914750000005986010137896602241_">
			<use xlink:href="#SVGID_00000096049289398393587420000011917372083692822969_"  style="overflow:visible;"/>
		</clipPath>
		<path style="clip-path:url(#SVGID_00000176750467877983914750000005986010137896602241_);fill:#222221;" d="M126.3,295.1
			c-1,0-1.9,0.3-2.6,1c-0.7,0.6-1,1.4-1.1,2.3h7.1c0-0.9-0.3-1.7-0.9-2.3C128.2,295.4,127.4,295.1,126.3,295.1 M131.8,300.1h-9.3
			c0,1.5,0.4,2.7,1.2,3.5c0.7,0.7,1.7,1.1,2.8,1.1c1.3,0,2.4-0.4,3.3-1.1l1,1.6c-0.4,0.4-0.9,0.7-1.6,0.9c-0.9,0.3-1.9,0.5-3.1,0.5
			c-1.6,0-3-0.5-4.1-1.6c-1.3-1.2-1.9-2.8-1.9-4.9s0.6-3.8,1.9-5.1c1.2-1.1,2.5-1.7,4.1-1.7c1.8,0,3.3,0.5,4.3,1.6
			c1,1,1.5,2.3,1.5,4C132,299.2,131.9,299.7,131.8,300.1"/>
	</g>
	<g>
		<defs>
			<rect id="SVGID_00000124867627816363311380000014453867861107675571_" y="0" width="312.2" height="306.6"/>
		</defs>
		<clipPath id="SVGID_00000000925041597706784190000014125809732969432200_">
			<use xlink:href="#SVGID_00000124867627816363311380000014453867861107675571_"  style="overflow:visible;"/>
		</clipPath>
		<path style="clip-path:url(#SVGID_00000000925041597706784190000014125809732969432200_);fill:#222221;" d="M142.3,306.3v-7.5
			c0-1.4-0.2-2.3-0.6-2.9c-0.4-0.5-1.1-0.8-2.1-0.8c-0.5,0-1.1,0.2-1.6,0.5c-0.6,0.3-1,0.7-1.3,1.2v9.6h-2.3v-12.9h1.6l0.7,1.7
			c0.8-1.3,2-1.9,3.7-1.9c2.8,0,4.2,1.7,4.2,5.1v8h-2.3V306.3z"/>
	</g>
	<g>
		<defs>
			<rect id="SVGID_00000049923021818466322510000013938532283515123348_" y="0" width="312.2" height="306.6"/>
		</defs>
		<clipPath id="SVGID_00000182508634807248824070000005972329267413062307_">
			<use xlink:href="#SVGID_00000049923021818466322510000013938532283515123348_"  style="overflow:visible;"/>
		</clipPath>
		<path style="clip-path:url(#SVGID_00000182508634807248824070000005972329267413062307_);fill:#222221;" d="M148.7,295.2h-1.5
			v-1.8h1.5v-2.7l2.3-0.9v3.6h3.5v1.8H151v6.4c0,1.1,0.2,1.9,0.5,2.3c0.4,0.5,1,0.7,1.8,0.7c0.6,0,1.2-0.1,1.8-0.4l0.3,2
			c-0.9,0.2-2,0.4-3.1,0.4c-1,0-1.9-0.4-2.6-1.1c-0.7-0.8-1.1-1.7-1.1-2.9v-7.4H148.7z"/>
	</g>
	<g>
		<defs>
			<rect id="SVGID_00000167358035505748597390000007759323684333188021_" y="0" width="312.2" height="306.6"/>
		</defs>
		<clipPath id="SVGID_00000109752541888148536360000011267504136446157455_">
			<use xlink:href="#SVGID_00000167358035505748597390000007759323684333188021_"  style="overflow:visible;"/>
		</clipPath>
		<path style="clip-path:url(#SVGID_00000109752541888148536360000011267504136446157455_);fill:#222221;" d="M164.6,295.6
			c-0.5-0.3-1-0.5-1.5-0.5c-0.8,0-1.5,0.4-2.1,1.1s-0.9,1.6-0.9,2.7v7.4h-2.3v-12.9h2.3v2.1c0.8-1.5,2.1-2.3,3.7-2.3
			c0.4,0,1,0.1,1.8,0.2L164.6,295.6z"/>
	</g>
	<g>
		<defs>
			<rect id="SVGID_00000023240744840033053740000009436379150971743165_" y="0" width="312.2" height="306.6"/>
		</defs>
		<clipPath id="SVGID_00000073679473555880534060000009580231583920762293_">
			<use xlink:href="#SVGID_00000023240744840033053740000009436379150971743165_"  style="overflow:visible;"/>
		</clipPath>
		<path style="clip-path:url(#SVGID_00000073679473555880534060000009580231583920762293_);fill:#222221;" d="M174.3,300
			c-0.7-0.2-1.2-0.2-1.5-0.2c-1.2,0-2.1,0.3-2.8,0.9s-1.1,1.3-1.1,2.1c0,1.3,0.8,2,2.4,2c1.2,0,2.2-0.5,3.1-1.6L174.3,300L174.3,300
			z M174.5,304.8c-0.9,1.1-2.3,1.7-4.2,1.7c-1,0-1.9-0.4-2.6-1.1c-0.7-0.7-1.1-1.6-1.1-2.7c0-1.3,0.6-2.4,1.7-3.3
			c1.1-0.9,2.6-1.4,4.4-1.4c0.5,0,1,0.1,1.6,0.3c0-2.1-0.9-3.1-2.8-3.1c-1.4,0-2.5,0.4-3.3,1.2l-1-1.9c0.4-0.4,1-0.7,1.8-0.9
			c0.8-0.3,1.5-0.4,2.2-0.4c1.9,0,3.2,0.4,4.1,1.3c0.8,0.8,1.3,2.2,1.3,4.1v4.6c0,1.1,0.3,1.9,1,2.3v1.1c-0.9,0-1.6-0.1-2.1-0.4
			C175,305.9,174.7,305.4,174.5,304.8"/>
	</g>
	<g>
		<defs>
			<rect id="SVGID_00000160179674919894956060000010377909472239533978_" y="0" width="312.2" height="306.6"/>
		</defs>
		<clipPath id="SVGID_00000034070839958806138540000006231097614206540189_">
			<use xlink:href="#SVGID_00000160179674919894956060000010377909472239533978_"  style="overflow:visible;"/>
		</clipPath>
		<path style="clip-path:url(#SVGID_00000034070839958806138540000006231097614206540189_);fill:#222221;" d="M180.3,302.7v-14.5
			h2.3v14.1c0,0.7,0.2,1.2,0.6,1.6c0.4,0.4,0.9,0.6,1.6,0.6v2C181.8,306.5,180.3,305.2,180.3,302.7"/>
	</g>
	<g>
		<defs>
			<rect id="SVGID_00000028311603262093033610000011446406764628131970_" y="0" width="312.2" height="306.6"/>
		</defs>
		<clipPath id="SVGID_00000034801176282097539890000003698589967059623828_">
			<use xlink:href="#SVGID_00000028311603262093033610000011446406764628131970_"  style="overflow:visible;"/>
		</clipPath>
		<path style="clip-path:url(#SVGID_00000034801176282097539890000003698589967059623828_);fill:#222221;" d="M192.7,295.1
			c-1,0-1.9,0.3-2.6,1c-0.7,0.6-1,1.4-1.1,2.3h7.1c0-0.9-0.3-1.7-0.9-2.3C194.7,295.4,193.8,295.1,192.7,295.1 M198.2,300.1H189
			c0,1.5,0.4,2.7,1.2,3.5c0.7,0.7,1.7,1.1,2.8,1.1c1.3,0,2.4-0.4,3.3-1.1l1,1.6c-0.4,0.4-0.9,0.7-1.6,0.9c-0.9,0.3-1.9,0.5-3.1,0.5
			c-1.6,0-3-0.5-4.1-1.6c-1.3-1.2-1.9-2.8-1.9-4.9s0.6-3.8,1.9-5.1c1.2-1.1,2.5-1.7,4.1-1.7c1.8,0,3.3,0.5,4.3,1.6
			c1,1,1.5,2.3,1.5,4C198.4,299.2,198.4,299.7,198.2,300.1"/>
	</g>
	<g>
		<defs>
			<rect id="SVGID_00000163047505889850397280000006381993346735792528_" y="0" width="312.2" height="306.6"/>
		</defs>
		<clipPath id="SVGID_00000158751142080047748820000011124130465287956659_">
			<use xlink:href="#SVGID_00000163047505889850397280000006381993346735792528_"  style="overflow:visible;"/>
		</clipPath>
		<path style="clip-path:url(#SVGID_00000158751142080047748820000011124130465287956659_);fill:#222221;" d="M200,305.5l0.8-2.2
			c1.3,0.8,2.3,1.3,3.1,1.3c1.4,0,2.1-0.6,2.1-1.8c0-0.8-0.7-1.6-2-2.2c-1.1-0.5-1.8-0.8-2.1-1.1c-0.4-0.2-0.7-0.5-1-0.8
			s-0.5-0.7-0.6-1c-0.1-0.4-0.2-0.7-0.2-1.1c0-1.1,0.4-1.9,1.2-2.5s1.8-0.9,3-0.9c0.9,0,2.1,0.3,3.5,0.9l-0.7,2.1
			c-0.9-0.7-1.8-1.1-2.7-1.1c-0.5,0-1,0.1-1.4,0.4s-0.6,0.6-0.6,1c0,0.8,0.5,1.4,1.4,1.9l1.6,0.7c1,0.5,1.7,1,2.2,1.6
			s0.7,1.3,0.7,2.2c0,1.2-0.4,2.1-1.2,2.7c-0.8,0.7-1.9,1-3.4,1C202.5,306.5,201.2,306.2,200,305.5"/>
	</g>
</g>
<path class="st4" d="M222.6,293.1l2.5,7.8h-5.2L222.6,293.1z M222.4,288.4l-7.2,17.9h2.7l1.3-3.7h6.6l1.2,3.7h2.7l-6.6-17.9H222.4z"
	/>
<g>
	<g>
		<defs>
			<rect id="SVGID_00000068647364962956510080000000721928127395744693_" y="0" width="312.2" height="306.6"/>
		</defs>
		<clipPath id="SVGID_00000030477062070661126930000007835031775062123703_">
			<use xlink:href="#SVGID_00000068647364962956510080000000721928127395744693_"  style="overflow:visible;"/>
		</clipPath>
		<path style="clip-path:url(#SVGID_00000030477062070661126930000007835031775062123703_);fill:#222221;" d="M248.9,289.3l-0.8,2.1
			c-0.8-0.6-2-0.8-3.6-0.8c-1.5,0-2.8,0.7-3.7,2s-1.4,3-1.4,5.1c0,2,0.5,3.6,1.4,4.9c1,1.2,2.2,1.9,3.7,1.9c1.7,0,2.9-0.6,3.8-1.8
			l1.3,1.8c-1.4,1.4-3.2,2.1-5.4,2.1c-2.3,0-4.1-0.8-5.4-2.5s-2-3.8-2-6.6c0-2.6,0.7-4.8,2.1-6.6c1.4-1.7,3.2-2.6,5.5-2.6
			C246.3,288.4,247.8,288.7,248.9,289.3"/>
	</g>
	<g>
		<defs>
			<rect id="SVGID_00000179625239048956925000000015581595474772771217_" y="0" width="312.2" height="306.6"/>
		</defs>
		<clipPath id="SVGID_00000183218817849244509710000001792258502340801709_">
			<use xlink:href="#SVGID_00000179625239048956925000000015581595474772771217_"  style="overflow:visible;"/>
		</clipPath>
		<path style="clip-path:url(#SVGID_00000183218817849244509710000001792258502340801709_);fill:#222221;" d="M253.7,299.8
			c0,3.2,1.1,4.8,3.4,4.8c1.1,0,1.9-0.4,2.5-1.3s0.9-2,0.9-3.5c0-3.2-1.1-4.8-3.4-4.8c-1,0-1.9,0.4-2.5,1.3
			C254,297.2,253.7,298.3,253.7,299.8 M251.3,299.8c0-2,0.5-3.6,1.6-4.8c1.1-1.2,2.5-1.8,4.2-1.8c1.8,0,3.3,0.6,4.3,1.8
			c1,1.2,1.5,2.8,1.5,4.9s-0.5,3.7-1.6,4.9c-1,1.2-2.5,1.8-4.3,1.8c-1.8,0-3.3-0.6-4.3-1.8C251.8,303.5,251.3,301.9,251.3,299.8"/>
	</g>
	<g>
		<defs>
			<rect id="SVGID_00000122681576199145914630000015957957928179926205_" y="0" width="312.2" height="306.6"/>
		</defs>
		<clipPath id="SVGID_00000140013580267256804390000000351181107603125157_">
			<use xlink:href="#SVGID_00000122681576199145914630000015957957928179926205_"  style="overflow:visible;"/>
		</clipPath>
		<path style="clip-path:url(#SVGID_00000140013580267256804390000000351181107603125157_);fill:#222221;" d="M272.4,295.6
			c-0.5-0.3-1-0.5-1.5-0.5c-0.8,0-1.5,0.4-2.1,1.1s-0.9,1.6-0.9,2.7v7.4h-2.3v-12.9h2.3v2.1c0.8-1.5,2.1-2.3,3.7-2.3
			c0.4,0,1,0.1,1.8,0.2L272.4,295.6z"/>
	</g>
	<g>
		<defs>
			<rect id="SVGID_00000043417634238923396660000017302930626528217488_" y="0" width="312.2" height="306.6"/>
		</defs>
		<clipPath id="SVGID_00000029724868096383136340000016017796619090781096_">
			<use xlink:href="#SVGID_00000043417634238923396660000017302930626528217488_"  style="overflow:visible;"/>
		</clipPath>
		<path style="clip-path:url(#SVGID_00000029724868096383136340000016017796619090781096_);fill:#222221;" d="M277.1,293.4v8.2
			c0,2,0.9,3,2.6,3c0.8,0,1.4-0.2,2.1-0.7c0.6-0.4,1-0.9,1.2-1.5v-9h2.3v12.9H283v-1.8c-0.3,0.5-0.8,1-1.5,1.4
			c-0.8,0.4-1.5,0.6-2.3,0.6c-1.4,0-2.5-0.4-3.2-1.2c-0.7-0.8-1.1-2-1.1-3.4v-8.5H277.1z"/>
	</g>
	<g>
		<defs>
			<rect id="SVGID_00000126319370960715051510000000117030056331691679_" y="0" width="312.2" height="306.6"/>
		</defs>
		<clipPath id="SVGID_00000041985932950241885500000015980290019727896997_">
			<use xlink:href="#SVGID_00000126319370960715051510000000117030056331691679_"  style="overflow:visible;"/>
		</clipPath>
		<path style="clip-path:url(#SVGID_00000041985932950241885500000015980290019727896997_);fill:#222221;" d="M297,288.4
			c-0.4,1.7-1.2,2.5-2.3,2.5c-0.5,0-1.1-0.2-1.7-0.5s-1-0.5-1.3-0.5c-0.6,0-1,0.3-1.3,0.9h-1.1c0.1-0.7,0.4-1.3,0.8-1.7
			c0.4-0.5,0.9-0.7,1.4-0.7c0.7,0,1.3,0.2,1.8,0.5c0.6,0.3,1,0.5,1.3,0.5c0.6,0,1.1-0.3,1.3-0.9L297,288.4L297,288.4z M296.3,306.3
			v-7.5c0-1.4-0.2-2.3-0.6-2.9c-0.4-0.5-1.1-0.8-2.1-0.8c-0.5,0-1.1,0.2-1.6,0.5c-0.6,0.3-1,0.7-1.3,1.2v9.6h-2.3v-12.9h1.6l0.7,1.7
			c0.8-1.3,2-1.9,3.7-1.9c2.8,0,4.2,1.7,4.2,5.1v8h-2.3V306.3z"/>
	</g>
	<g>
		<defs>
			<rect id="SVGID_00000094584138774339909600000001495235272764097196_" y="0" width="312.2" height="306.6"/>
		</defs>
		<clipPath id="SVGID_00000004507031374498531110000000396650493295844779_">
			<use xlink:href="#SVGID_00000094584138774339909600000001495235272764097196_"  style="overflow:visible;"/>
		</clipPath>
		<path style="clip-path:url(#SVGID_00000004507031374498531110000000396650493295844779_);fill:#222221;" d="M308.9,300
			c-0.7-0.2-1.2-0.2-1.5-0.2c-1.2,0-2.1,0.3-2.8,0.9c-0.7,0.6-1.1,1.3-1.1,2.1c0,1.3,0.8,2,2.4,2c1.2,0,2.2-0.5,3.1-1.6V300H308.9z
			 M309.1,304.8c-0.9,1.1-2.3,1.7-4.2,1.7c-1,0-1.9-0.4-2.6-1.1s-1.1-1.6-1.1-2.7c0-1.3,0.6-2.4,1.7-3.3s2.6-1.4,4.4-1.4
			c0.5,0,1,0.1,1.6,0.3c0-2.1-0.9-3.1-2.8-3.1c-1.4,0-2.5,0.4-3.3,1.2l-1-1.9c0.4-0.4,1-0.7,1.8-0.9c0.8-0.3,1.5-0.4,2.2-0.4
			c1.9,0,3.2,0.4,4.1,1.3c0.8,0.8,1.3,2.2,1.3,4.1v4.6c0,1.1,0.3,1.9,1,2.3v1.1c-0.9,0-1.6-0.1-2.1-0.4
			C309.7,305.9,309.3,305.4,309.1,304.8"/>
	</g>
	<g>
		<defs>
			<rect id="SVGID_00000085234780882909841030000000388868937278961592_" y="0" width="312.2" height="306.6"/>
		</defs>
		<clipPath id="SVGID_00000022550737982074983310000011660091953553378189_">
			<use xlink:href="#SVGID_00000085234780882909841030000000388868937278961592_"  style="overflow:visible;"/>
		</clipPath>
		<path style="clip-path:url(#SVGID_00000022550737982074983310000011660091953553378189_);fill:#284B96;" d="M299,107.9
			c-0.4,39.8-33,71.9-72.8,71.9s-72.4-31.9-73-71.9H175c0.6,27.6,23.5,50.1,51.2,50.1s50.4-22.5,50.8-50.1H299z"/>
	</g>
	<g>
		<defs>
			<rect id="SVGID_00000030470828739757916690000007203795469947716794_" y="0" width="312.2" height="306.6"/>
		</defs>
		<clipPath id="SVGID_00000137118105166469405620000017309331207998501269_">
			<use xlink:href="#SVGID_00000030470828739757916690000007203795469947716794_"  style="overflow:visible;"/>
		</clipPath>
		<path style="clip-path:url(#SVGID_00000137118105166469405620000017309331207998501269_);fill:#284B96;" d="M298.5,98.8
			c-4-36.5-35.3-64.7-72.4-64.7c-37,0-68.4,28.2-72.4,64.7l21.8,0.1c4-24.6,25.6-42.9,50.5-42.9c25,0,46.5,18.4,50.4,42.8H298.5z"/>
	</g>
</g>
<rect x="277.1" y="101.7" class="st64" width="22" height="3.7"/>
<rect x="153.3" y="101.7" class="st64" width="22" height="3.7"/>
<rect x="185" y="96.5" class="st64" width="5.4" height="20.6"/>
<polygon class="st64" points="221.6,104.5 231.4,117.2 234.9,117.2 234.9,96.6 230.5,96.6 230.5,109.1 221.3,96.6 217.2,96.6 
	217.2,117.2 221.5,117.2 "/>
<g>
	<g>
		<defs>
			<rect id="SVGID_00000077300168512077873580000008423278148397878147_" y="0" width="312.2" height="306.6"/>
		</defs>
		<clipPath id="SVGID_00000127011181208336629260000009472884543041548471_">
			<use xlink:href="#SVGID_00000077300168512077873580000008423278148397878147_"  style="overflow:visible;"/>
		</clipPath>
		<path style="clip-path:url(#SVGID_00000127011181208336629260000009472884543041548471_);fill:#6B696A;" d="M249.1,107.3l-6.3-0.1
			c-0.1-0.2-0.1-0.4-0.1-0.6c0-1.4,1.5-2.5,3.3-2.5s3.3,1.1,3.3,2.5C249.2,106.9,249.2,107.1,249.1,107.3 M242.3,109.9H254l-0.1-2.1
			l-0.6-2l-1-1.6c-0.2-0.4-0.5-0.6-0.9-0.9c-0.4-0.4-0.9-0.7-1.3-1c-0.5-0.3-1.1-0.4-1.6-0.7c-0.9-0.2-1.7-0.4-2.5-0.4
			c-0.6,0-1.2,0-1.8,0.1c-0.7,0.1-1.3,0.3-2,0.5c-0.4,0.1-0.9,0.4-1.3,0.6c-0.3,0.2-0.7,0.5-1,0.8c-0.4,0.4-0.9,0.9-1.2,1.3
			s-0.7,1-0.9,1.5c-0.2,0.6-0.5,1.2-0.6,1.8c-0.1,0.6-0.1,1.3-0.1,1.9s0.1,1.2,0.2,1.7c0.1,0.5,0.3,1.1,0.6,1.5
			c0.3,0.6,0.7,1.2,1.1,1.7c0.4,0.5,0.7,0.7,1.3,1.1c0.6,0.3,1.5,0.9,2.2,1.1s1.4,0.5,2.3,0.6c0.9,0.1,2.8,0.1,3.7,0s1.4-0.2,2-0.4
			c0.7-0.2,1.5-0.5,1.9-0.7s1.1-0.2,1.1-1v-3c0-0.8-0.9,0.6-1.3,1c-0.4,0.3-1.2,0.8-1.8,1s-1.7,0.5-2.4,0.5c-1.3,0-1.6-0.1-2-0.1
			c-0.6-0.1-1.4-0.4-2-0.8c-0.5-0.3-1-0.9-1.3-1.4c-0.2-0.4-0.4-0.9-0.4-1.3L242.3,109.9L242.3,109.9z"/>
	</g>
	<g>
		<defs>
			<rect id="SVGID_00000051356043080945857090000005479197994100437437_" y="0" width="312.2" height="306.6"/>
		</defs>
		<clipPath id="SVGID_00000133488822616764800440000003745680091557634435_">
			<use xlink:href="#SVGID_00000051356043080945857090000005479197994100437437_"  style="overflow:visible;"/>
		</clipPath>
		<path style="clip-path:url(#SVGID_00000133488822616764800440000003745680091557634435_);fill:#6B696A;" d="M261.3,101.4v-5.3
			l-7.1,7.6v1.2h2.1v8.1c0.1,0.3,0.1,0.7,0.2,1c0.1,0.4,0.3,0.8,0.6,1.1c0.2,0.3,0.5,0.8,0.9,1l1.1,0.8c0.6,0.1,1.1,0.3,1.6,0.4
			c0.7,0.1,1.4,0.2,2.1,0.2c0.6,0,1.2,0,1.7-0.1s1-0.1,1.6-0.4l1-0.6v-3.3c0-0.4-0.7,0.4-1,0.5c-0.4,0.2-1,0.4-1.5,0.4s-1,0-1.5,0
			c-0.5-0.1-1-0.3-1.4-0.6c-0.2-0.2-0.4-0.4-0.4-0.7v-7.8h5.9v-3.4L261.3,101.4L261.3,101.4z"/>
	</g>
</g>
<rect x="179.9" y="89.6" class="st64" width="92.4" height="3.6"/>
<polygon class="st67" points="207.6,98.8 206.3,97.8 207.9,97.7 208.5,96.2 209,97.7 210.7,97.8 209.4,98.8 209.9,100.3 208.5,99.4 
	207.2,100.3 "/>
<polygon class="st67" points="211,102.4 209.7,101.5 211.3,101.4 211.9,99.8 212.4,101.4 214,101.4 212.8,102.4 213.2,103.9 
	211.9,103.1 210.5,103.9 "/>
<polygon class="st67" points="212.2,107.3 210.9,106.3 212.5,106.2 213.1,104.7 213.6,106.2 215.2,106.3 213.9,107.3 214.4,108.8 
	213.1,107.9 211.7,108.8 "/>
<polygon class="st67" points="211,112 209.7,111.1 211.3,111 211.9,109.4 212.4,111 214,111 212.8,112 213.2,113.5 211.9,112.7 
	210.5,113.5 "/>
<polygon class="st67" points="207.4,115.6 206.2,114.6 207.8,114.5 208.3,113 208.9,114.5 210.5,114.6 209.2,115.6 209.7,117.1 
	208.3,116.2 207,117.1 "/>
<polygon class="st67" points="204.4,111.3 203.1,110.4 204.7,110.3 205.3,108.8 205.8,110.3 207.4,110.4 206.2,111.3 206.7,112.9 
	205.3,112 204,112.9 "/>
<polygon class="st67" points="197.9,115.5 196.6,114.5 198.2,114.4 198.8,112.9 199.4,114.4 201,114.5 199.7,115.5 200.2,117 
	198.8,116.1 197.5,117 "/>
<polygon class="st67" points="202.5,117.2 201.2,116.3 202.8,116.2 203.4,114.7 203.9,116.2 205.6,116.3 204.3,117.2 204.8,118.8 
	203.4,117.9 202.1,118.8 "/>
<polygon class="st67" points="194.3,112.1 193,111.2 194.6,111.1 195.2,109.5 195.7,111.1 197.3,111.2 196,112.1 196.5,113.7 
	195.2,112.8 193.8,113.7 "/>
<polygon class="st67" points="193.4,107.4 192.1,106.4 193.7,106.3 194.3,104.8 194.8,106.3 196.4,106.4 195.2,107.4 195.6,108.9 
	194.3,108 192.9,108.9 "/>
<polygon class="st67" points="194.7,102.4 193.4,101.5 195,101.4 195.6,99.9 196.1,101.4 197.7,101.5 196.5,102.4 196.9,104 
	195.6,103.1 194.2,104 "/>
<polygon class="st67" points="198,98.9 196.7,97.9 198.3,97.8 198.9,96.3 199.4,97.8 201,97.9 199.8,98.9 200.3,100.4 198.9,99.5 
	197.6,100.4 "/>
<polygon class="st67" points="202.7,97.8 201.4,96.8 203.1,96.7 203.6,95.2 204.2,96.7 205.8,96.8 204.5,97.8 205,99.3 203.6,98.4 
	202.3,99.3 "/>
<g>
	<g>
		<defs>
			<rect id="SVGID_00000170271700871310737360000005501022184457772991_" y="0" width="312.2" height="306.6"/>
		</defs>
		<clipPath id="SVGID_00000076579421561460653900000000700670582653697922_">
			<use xlink:href="#SVGID_00000170271700871310737360000005501022184457772991_"  style="overflow:visible;"/>
		</clipPath>
		<path style="clip-path:url(#SVGID_00000076579421561460653900000000700670582653697922_);fill:#FFFFFF;" d="M276.5,76.4
			c-0.2-0.4-0.3-0.6-0.3-0.8c0-0.2,0.1-0.3,0.3-0.4c0.3-0.2,0.6-0.2,0.8,0l0.1,0.1c0.2,0.1,0.4,0.1,0.7,0c0.3-0.1,0.9-0.4,1.6-0.9
			c1.3-0.8,2.2-1.4,2.6-1.8c0.4-0.3,0.7-0.6,0.7-0.8c0,0,0-0.1,0-0.2c-0.1-0.3,0-0.6,0.3-0.7c0.2-0.2,0.4-0.2,0.6-0.2
			c0.1,0,0.3,0.2,0.5,0.5c0,0.1,0.1,0.2,0.2,0.4c0.1,0.2,0.2,0.4,0.3,0.6c0.3,0.5,0.6,1.1,1,1.7s0.6,1,0.6,1.1c0.9,1.6,1.2,3,1,4.3
			c-0.2,1.2-1,2.3-2.3,3.1c-0.7,0.4-1.4,0.7-2.1,0.8c-0.7,0.1-1.4,0.1-2-0.2c-0.5-0.2-1-0.5-1.4-0.9s-0.9-1.1-1.3-1.9
			c-0.1-0.2-0.3-0.5-0.6-1.1s-0.5-1-0.7-1.3c-0.1-0.2-0.3-0.5-0.5-0.9C276.7,76.6,276.6,76.4,276.5,76.4 M283.6,75.9
			c-0.9,0.6-1.7,1.1-2.2,1.5s-1,0.7-1.2,0.9c-0.2,0.2-0.3,0.3-0.3,0.4s0,0.2,0.1,0.4c0.3,0.5,0.7,0.8,1.3,0.9c0.6,0,1.2-0.2,2-0.7
			c0.9-0.6,1.5-1.2,1.9-1.9c0.3-0.7,0.3-1.3,0-1.9c-0.1-0.1-0.2-0.2-0.3-0.2C284.6,75.3,284.2,75.5,283.6,75.9 M267.7,60.5l0.5-0.5
			c0.8-0.9,1.3-1.6,1.5-1.9c0.2-0.3,0.3-0.5,0.3-0.7c0-0.1,0-0.2-0.1-0.3c-0.1-0.3-0.1-0.6,0.1-0.9c0.2-0.2,0.3-0.3,0.5-0.3
			c0.1,0,0.3,0.1,0.5,0.3c0,0,0.1,0.1,0.3,0.3c0.7,0.7,1.3,1.3,1.9,1.9c1,1,2,1.9,2.9,2.8c0.1,0.1,0.2,0.2,0.2,0.2
			c0.2,0.2,0.3,0.3,0.3,0.5c0,0.1-0.1,0.3-0.3,0.5l-1.1,1.3l-0.1,0.1c-0.3,0.3-0.4,0.5-0.6,0.5c-0.1,0-0.3,0-0.4-0.2
			c-0.2-0.2-0.2-0.5,0-0.9c0-0.1,0.1-0.2,0.1-0.3c0.1-0.3,0.1-0.7,0-1s-0.4-0.7-0.9-1.1c-0.1-0.1-0.3-0.3-0.4-0.4c0,0,0,0-0.1-0.1
			s-0.2-0.2-0.3-0.2c-0.1,0-0.2,0.1-0.4,0.4l-0.2,0.2l-0.3,0.3c-0.2,0.3-0.4,0.5-0.4,0.6s0,0.2,0.2,0.3c0.1,0.1,0.2,0.2,0.3,0.2
			c0.1,0,0.2,0,0.3-0.1c0,0,0.1,0,0.1-0.1c0.3-0.2,0.6-0.2,0.9,0.1c0.2,0.2,0.2,0.3,0.2,0.5s-0.2,0.4-0.5,0.8l-0.4,0.4l-0.4,0.5
			c-0.1,0.2-0.3,0.3-0.4,0.5s-0.2,0.3-0.2,0.3c-0.2,0.2-0.4,0.4-0.5,0.4s-0.3-0.1-0.5-0.2c-0.1-0.1-0.2-0.3-0.2-0.4s0-0.3,0.1-0.6
			c0.2-0.3,0.2-0.6,0.2-0.7c0-0.2,0-0.3-0.2-0.4c-0.1-0.1-0.2-0.1-0.3-0.1c-0.1,0-0.3,0.2-0.5,0.4l-0.3,0.3
			c-0.4,0.5-0.6,0.9-0.6,1.1c0,0.3,0.1,0.5,0.4,0.8s0.7,0.5,1.1,0.7s0.7,0.2,1,0.2c0.1,0,0.3-0.1,0.5-0.2c0.4-0.2,0.7-0.2,0.9,0
			c0.1,0.1,0.2,0.3,0.2,0.4s-0.1,0.3-0.3,0.5c-0.2,0.3-0.5,0.6-0.8,0.9s-0.6,0.6-0.8,0.8c-0.2,0.1-0.3,0.2-0.4,0.2s-0.2-0.1-0.4-0.3
			c0,0-0.1-0.1-0.2-0.1c-0.4-0.4-0.8-0.8-1.2-1.2l-1.4-1.4c-0.1-0.1-0.5-0.4-1-1s-1.1-1.1-1.6-1.5c-0.2-0.2-0.3-0.4-0.4-0.6
			c0-0.2,0-0.3,0.2-0.5c0.2-0.3,0.5-0.4,0.7-0.3c0.1,0,0.2,0.1,0.3,0.1c0.1,0,0.3-0.1,0.6-0.4C266.6,61.9,267.1,61.3,267.7,60.5
			 M255.4,57.6c-0.7-0.4-1.2-0.7-1.5-0.9s-0.4-0.3-0.5-0.4s0-0.3,0.1-0.5c0.2-0.3,0.4-0.5,0.6-0.4c0.1,0,0.2,0,0.3,0
			s0.3-0.2,0.5-0.5s0.5-0.9,1-1.9l0.3-0.7c0.6-1.2,0.9-1.9,1.1-2.3c0.1-0.4,0.2-0.6,0.2-0.7c0-0.1-0.1-0.2-0.1-0.3
			c-0.2-0.3-0.2-0.6-0.1-0.9c0.1-0.2,0.2-0.4,0.4-0.4c0.1,0,0.3,0,0.6,0.2c0,0,0.2,0.1,0.6,0.3s0.7,0.4,1,0.6c0.3,0.2,0.7,0.4,1,0.6
			c0.4,0.2,0.6,0.3,0.6,0.3c0.3,0.1,0.4,0.3,0.4,0.4c0,0.1,0,0.4-0.1,0.6c-0.1,0.2-0.4,0.4-0.7,0.4c-0.1,0-0.2,0-0.3,0
			c-0.1,0-0.3,0.2-0.5,0.6c-0.2,0.3-0.6,1.1-1.2,2.2l-0.3,0.7c-0.4,0.9-0.7,1.5-0.9,1.9c-0.1,0.4-0.2,0.6-0.1,0.8
			c0,0.1,0.1,0.1,0.2,0.2c0.2,0.2,0.2,0.5,0,0.8c-0.1,0.2-0.2,0.3-0.4,0.4c-0.1,0-0.4-0.1-0.8-0.3l-0.2-0.1c-0.1,0-0.2-0.1-0.5-0.3
			C255.8,57.9,255.6,57.7,255.4,57.6 M240.4,51.5c-0.1,0-0.3-0.1-0.7-0.2c-0.3-0.1-0.6-0.2-0.9-0.3c-0.4-0.1-0.6-0.2-0.7-0.4
			c-0.1-0.1-0.1-0.3,0-0.5c0.1-0.4,0.3-0.5,0.5-0.6c0.1,0,0.2,0,0.3-0.1c0.1,0,0.3-0.3,0.4-0.6c0.1-0.4,0.4-1,0.6-2l0.2-0.7
			c0.3-1.3,0.5-2.1,0.6-2.5s0.1-0.7,0-0.8c0-0.1-0.1-0.1-0.2-0.2c-0.3-0.3-0.3-0.5-0.3-0.8c0.1-0.3,0.2-0.4,0.3-0.5s0.3-0.1,0.6,0
			c0,0,0.2,0.1,0.4,0.1c0.9,0.3,1.7,0.6,2.5,0.8c1.3,0.4,2.6,0.8,3.7,1.1c0.2,0,0.2,0.1,0.3,0.1c0.3,0.1,0.4,0.2,0.4,0.3
			s0,0.3,0,0.6L248,46v0.1c-0.1,0.4-0.2,0.6-0.3,0.7c-0.1,0.1-0.3,0.1-0.4,0c-0.3-0.1-0.4-0.3-0.4-0.7c0-0.2,0-0.3,0-0.4
			c-0.1-0.4-0.2-0.7-0.5-0.9c-0.2-0.2-0.7-0.4-1.3-0.6l-0.4-0.1c-0.2-0.1-0.4-0.1-0.5,0s-0.2,0.3-0.3,0.6l-0.2,0.6
			c-0.1,0.3-0.1,0.6-0.1,0.7c0,0.1,0.1,0.2,0.3,0.2c0.1,0,0.3,0,0.4,0c0.1,0,0.2-0.1,0.3-0.2l0.1-0.1c0.2-0.3,0.5-0.4,0.8-0.3
			c0.2,0.1,0.4,0.2,0.4,0.3c0,0.2,0,0.5-0.1,1l-0.1,0.6l-0.2,0.6c-0.1,0.2-0.1,0.4-0.2,0.7c-0.1,0.2-0.1,0.4-0.1,0.4
			c-0.1,0.3-0.2,0.5-0.3,0.6s-0.3,0.1-0.5,0s-0.3-0.1-0.4-0.3c-0.1-0.1-0.1-0.3-0.1-0.6c0-0.4,0-0.6-0.1-0.8s-0.2-0.3-0.3-0.3
			s-0.2,0-0.3,0.1s-0.1,0.3-0.2,0.6l-0.1,0.5l-0.1,0.5c-0.1,0.3-0.1,0.6-0.1,0.7c0,0.2,0,0.3,0.1,0.4c0,0.1,0.1,0.1,0.2,0.2
			c0.2,0.2,0.3,0.4,0.2,0.8c-0.1,0.2-0.2,0.4-0.3,0.4c-0.1,0.1-0.4,0-0.8-0.1l-0.3-0.1c-0.1,0-0.3-0.1-0.5-0.2
			C240.8,51.6,240.6,51.6,240.4,51.5 M227.8,49.6c-0.8,0-1.3-0.1-1.7-0.1c-0.3,0-0.5-0.1-0.6-0.2c-0.1-0.1-0.2-0.3-0.1-0.5
			c0-0.4,0.2-0.6,0.4-0.7c0.1,0,0.2-0.1,0.2-0.1c0.1-0.1,0.2-0.3,0.3-0.7s0.1-1.1,0.2-2.1v-0.7c0.1-1.3,0.1-2.2,0.1-2.6
			c0-0.4,0-0.7-0.1-0.7c0-0.1-0.1-0.1-0.2-0.2c-0.3-0.2-0.4-0.4-0.4-0.8c0-0.3,0.1-0.4,0.2-0.5c0.1-0.1,0.3-0.1,0.6-0.1
			c0,0,0.3,0,0.7,0.1c0.4,0,0.8,0.1,1.2,0.1s0.8,0.1,1.2,0.1s0.6,0,0.7,0c0.3,0,0.5,0.1,0.6,0.2c0.1,0.1,0.1,0.3,0.1,0.6
			s-0.2,0.5-0.5,0.6c-0.1,0.1-0.2,0.1-0.3,0.1c-0.1,0.1-0.2,0.3-0.2,0.7c-0.1,0.4-0.1,1.3-0.2,2.6v0.7c-0.1,1-0.1,1.7-0.1,2.1
			c0,0.4,0.1,0.6,0.2,0.7c0,0,0.1,0.1,0.2,0.1c0.2,0.1,0.3,0.4,0.3,0.7c0,0.2-0.1,0.4-0.2,0.5c-0.1,0.1-0.4,0.1-0.8,0.1h-0.3
			c-0.1,0-0.3,0-0.6,0C228.2,49.7,228,49.6,227.8,49.6 M207.2,44.6l-0.4-1.7c-0.1-0.3-0.1-0.6,0-0.7c0.1-0.1,0.2-0.2,0.4-0.3L215,40
			c0.2,0,0.3,0,0.4,0.1c0.1,0.1,0.2,0.3,0.2,0.5l0.5,2.3c0,0.1,0,0.2-0.1,0.3s-0.2,0.2-0.3,0.2c-0.3,0.1-0.5-0.1-0.8-0.4
			c-0.1-0.1-0.1-0.2-0.2-0.3c-0.2-0.3-0.4-0.5-0.6-0.6c-0.2-0.1-0.4-0.1-0.6-0.1c-0.2,0.1-0.4,0.2-0.4,0.5s0.1,0.9,0.3,1.8l0.4,1.6
			c0.2,1,0.4,1.8,0.5,2.1c0.1,0.4,0.3,0.6,0.4,0.7c0.1,0,0.1,0.1,0.3,0.1s0.4,0.2,0.5,0.6c0,0.2,0,0.4-0.1,0.5s-0.3,0.2-0.7,0.3
			l-0.3,0.1c-0.1,0-0.3,0.1-0.5,0.1c-0.3,0.1-0.5,0.1-0.7,0.2c-0.1,0-0.3,0.1-0.7,0.2c-0.3,0.1-0.6,0.2-0.9,0.2
			c-0.4,0.1-0.6,0.1-0.8,0c-0.1-0.1-0.2-0.2-0.3-0.5c-0.1-0.4,0-0.6,0.2-0.8c0.1-0.1,0.2-0.1,0.2-0.2c0.1-0.1,0.1-0.4,0.1-0.8
			c0-0.4-0.2-1.4-0.5-2.8c-0.3-1.4-0.5-2.3-0.7-2.6s-0.4-0.4-0.6-0.4c-0.2,0-0.4,0.2-0.5,0.4s-0.2,0.5-0.3,0.8c0,0.1,0,0.2-0.1,0.4
			c-0.1,0.5-0.2,0.8-0.5,0.8c-0.2,0-0.3,0-0.4-0.1S207.3,45,207.2,44.6 M194.6,51.3c0.3-0.2,0.6-0.4,0.6-0.7c0.1-0.3,0-0.6-0.1-1
			c-0.2-0.4-0.4-0.6-0.7-0.7c-0.3-0.1-0.6-0.1-0.9,0c-0.2,0.1-0.3,0.2-0.3,0.3s0,0.3,0.2,0.6l0.3,0.6c0,0.1,0.1,0.2,0.1,0.3
			c0.1,0.1,0.1,0.2,0.1,0.2c0.1,0.2,0.2,0.3,0.3,0.3C194.3,51.5,194.4,51.4,194.6,51.3 M199.6,55.1c-0.3,0.1-0.4,0.2-0.5,0.2
			s-0.3-0.1-0.5-0.2l-1.6-1.2c-0.2-0.1-0.4-0.3-0.6-0.5c-0.7-0.6-1.1-0.8-1.3-0.7c-0.1,0.1-0.2,0.1-0.2,0.2c0,0.1,0,0.3,0.2,0.5
			c0.4,0.8,0.6,1.2,0.8,1.4s0.4,0.3,0.6,0.2c0,0,0.1,0,0.2,0c0.4-0.1,0.6,0,0.8,0.3c0.1,0.3,0.2,0.5,0.1,0.7
			c-0.1,0.2-0.3,0.4-0.8,0.6c-0.1,0.1-0.3,0.2-0.6,0.3s-0.5,0.2-0.6,0.3c-0.2,0.1-0.5,0.3-0.8,0.5s-0.6,0.3-0.7,0.4l-0.2,0.1
			c-0.4,0.2-0.7,0.4-0.9,0.3c-0.2,0-0.3-0.1-0.4-0.4c-0.2-0.3-0.2-0.6,0-0.8c0.1-0.1,0.1-0.2,0.2-0.2c0.1-0.1,0-0.4-0.1-0.8
			c-0.1-0.4-0.4-1-0.8-1.9l-0.3-0.7c-0.6-1.2-0.9-1.9-1.1-2.3c-0.2-0.3-0.4-0.5-0.5-0.6c-0.1,0-0.2,0-0.3,0c-0.3,0-0.6-0.1-0.7-0.4
			c-0.1-0.2-0.1-0.4-0.1-0.6c0.1-0.1,0.3-0.3,0.7-0.5c0.2-0.1,0.5-0.2,0.8-0.4c0.4-0.2,0.6-0.3,0.7-0.4c0.4-0.2,0.9-0.5,1.4-0.8
			s0.8-0.4,0.9-0.5c1.1-0.6,2-0.8,2.8-0.7s1.4,0.6,1.8,1.5c0.2,0.4,0.3,0.8,0.3,1.2s-0.2,0.8-0.4,1.2l0,0c-0.1,0.1-0.1,0.2-0.1,0.3
			c0,0,0.1,0.1,0.2,0.1l0,0l2.8,1.2c0.1,0.1,0.4,0.1,0.7,0.1s0.5,0.1,0.6,0.3c0.2,0.3,0.2,0.6,0,0.9c-0.1,0.3-0.4,0.6-0.9,0.8
			L199.6,55.1z M177.9,65.6l-0.5-0.5c-0.8-0.9-1.3-1.6-1.6-1.8c-0.3-0.3-0.5-0.4-0.6-0.4s-0.2,0-0.3,0.1c-0.3,0.1-0.6,0-0.8-0.2
			s-0.2-0.4-0.2-0.5s0.1-0.3,0.3-0.5c0,0,0.1-0.1,0.3-0.3c0.7-0.6,1.3-1.3,2-1.9c1-1,2-1.9,2.9-2.8c0.1-0.1,0.2-0.2,0.2-0.2
			c0.2-0.2,0.3-0.3,0.5-0.3c0.1,0,0.2,0.1,0.4,0.3l1.1,1.3l0.1,0.1c0.3,0.3,0.4,0.5,0.4,0.7c0,0.1-0.1,0.3-0.2,0.4
			c-0.2,0.2-0.5,0.2-0.8,0c-0.1-0.1-0.2-0.1-0.3-0.1c-0.3-0.2-0.6-0.2-0.9-0.1c-0.3,0.1-0.7,0.4-1.1,0.8c-0.1,0.1-0.3,0.3-0.4,0.4
			c0,0,0,0-0.1,0.1s-0.2,0.2-0.2,0.4c0,0.1,0.1,0.3,0.3,0.5l0.2,0.2l0.3,0.3c0.2,0.3,0.4,0.4,0.5,0.5c0.1,0,0.2,0,0.3-0.1
			s0.2-0.2,0.2-0.3s0-0.3,0-0.4c0,0,0-0.1-0.1-0.2c-0.1-0.3-0.1-0.7,0.2-0.9c0.2-0.2,0.3-0.2,0.5-0.2c0.1,0,0.4,0.3,0.7,0.6l0.4,0.4
			l0.4,0.5c0.1,0.2,0.3,0.3,0.4,0.5c0.2,0.2,0.2,0.3,0.2,0.3c0.2,0.2,0.3,0.4,0.3,0.6c0,0.1-0.1,0.3-0.3,0.5
			c-0.1,0.1-0.3,0.2-0.4,0.2c-0.1,0-0.3-0.1-0.5-0.2c-0.3-0.2-0.5-0.3-0.7-0.3c-0.1,0-0.3,0-0.4,0.1c-0.1,0.1-0.1,0.2-0.1,0.3
			s0.1,0.3,0.4,0.5l0.3,0.3c0.4,0.5,0.8,0.8,1,0.8s0.5-0.1,0.8-0.4s0.6-0.7,0.8-1.1c0.2-0.4,0.3-0.8,0.3-1.1c0-0.1,0-0.3-0.1-0.6
			c-0.1-0.5-0.1-0.8,0.1-1c0.1-0.1,0.3-0.2,0.4-0.2c0.1,0,0.3,0.1,0.5,0.4c0.2,0.3,0.5,0.6,0.7,0.9c0.3,0.3,0.5,0.7,0.7,1
			c0.1,0.2,0.2,0.3,0.1,0.4c0,0.1-0.1,0.2-0.3,0.4c0,0-0.1,0.1-0.2,0.1c-0.4,0.4-0.8,0.8-1.2,1.2l-1.4,1.4c-0.1,0.1-0.5,0.5-1,1
			c-0.6,0.6-1.1,1.1-1.6,1.5c-0.2,0.2-0.4,0.3-0.6,0.3c-0.1,0-0.3-0.1-0.4-0.3c-0.2-0.3-0.3-0.5-0.2-0.8c0-0.1,0.1-0.2,0.1-0.3
			c0-0.1-0.1-0.4-0.3-0.7C179,66.9,178.5,66.4,177.9,65.6 M167.2,82.6c-1.3-0.9-2.1-2-2.4-3.2c-0.3-1.3,0-2.6,0.7-3.9
			c0.3-0.6,0.7-1.1,1.2-1.5c0.1-0.1,0.2-0.2,0.2-0.2c0-0.1,0.1-0.2,0.1-0.4c0-0.2,0.1-0.3,0.1-0.4c0.1-0.2,0.2-0.3,0.4-0.3
			s0.3,0,0.6,0c0.4,0.1,0.8,0.3,1.2,0.5s0.7,0.3,0.9,0.4s0.3,0.3,0.4,0.5c0.1,0.2,0,0.4-0.1,0.5c-0.2,0.3-0.5,0.4-1,0.5
			c-0.2,0-0.4,0-0.5,0.1c-0.4,0.1-0.7,0.2-1,0.3c-0.3,0.2-0.5,0.3-0.6,0.5c-0.3,0.5-0.3,1,0,1.5c0.2,0.5,0.7,1,1.4,1.5
			c0.9,0.6,1.7,0.9,2.5,0.9s1.3-0.3,1.7-0.8c0.2-0.3,0.2-0.5,0.2-0.8s-0.1-0.6-0.2-1c0,0,0-0.1-0.1-0.2c-0.2-0.4-0.2-0.8-0.1-1
			c0.1-0.2,0.2-0.3,0.3-0.3s0.3,0.1,0.6,0.3c0.6,0.4,1,0.7,1.1,0.9c0.1,0.2,0.2,0.4,0.2,0.6c0,0.3-0.1,0.7-0.3,1.3
			c-0.2,0.6-0.5,1.3-0.9,1.9c-0.9,1.5-1.9,2.4-3,2.7C169.6,83.7,168.4,83.4,167.2,82.6"/>
	</g>
</g>
<rect x="179.9" y="123" class="st64" width="92.4" height="2.2"/>
<polygon class="st67" points="210.5,119.7 209.2,118.8 210.8,118.7 211.4,117.1 211.9,118.7 213.5,118.8 212.3,119.7 212.8,121.2 
	211.4,120.4 210.1,121.2 "/>
<g>
	<g>
		<defs>
			<rect id="SVGID_00000144312313801773596050000005624089995144706964_" y="0" width="312.2" height="306.6"/>
		</defs>
		<clipPath id="SVGID_00000043419988911416421460000017898255951822829723_">
			<use xlink:href="#SVGID_00000144312313801773596050000005624089995144706964_"  style="overflow:visible;"/>
		</clipPath>
		<path style="clip-path:url(#SVGID_00000043419988911416421460000017898255951822829723_);fill:#FFFFFF;" d="M222.4,169.9v-0.6
			c0-1,0-1.6,0-1.9c0-0.3-0.1-0.5-0.1-0.5s-0.1-0.1-0.2-0.1c-0.3-0.1-0.4-0.3-0.4-0.6c0-0.2,0-0.3,0.1-0.4c0.1-0.1,0.2-0.1,0.5-0.1
			c0,0,0.1,0,0.3,0c0.7,0,1.5,0.1,2.2,0.1c1.1,0,2.2,0,3.2,0c0.1,0,0.2,0,0.2,0c0.2,0,0.4,0,0.4,0.1c0.1,0.1,0.1,0.2,0.1,0.4v1.4
			v0.1c0,0.3,0,0.5-0.1,0.6s-0.2,0.1-0.3,0.1c-0.2,0-0.4-0.2-0.5-0.5c0-0.1-0.1-0.2-0.1-0.2c-0.1-0.3-0.3-0.5-0.5-0.6
			s-0.6-0.2-1.1-0.2c-0.2,0-0.3,0-0.5,0h-0.1c-0.1,0-0.2,0-0.3,0.1s-0.1,0.2-0.1,0.5v0.2v0.3c0,0.3,0,0.5,0.1,0.5
			c0,0.1,0.1,0.1,0.3,0.1c0.1,0,0.2,0,0.3-0.1c0.1,0,0.1-0.1,0.2-0.2v-0.1c0.1-0.3,0.3-0.4,0.6-0.4c0.2,0,0.3,0.1,0.4,0.2
			c0.1,0.1,0.1,0.4,0.1,0.7v0.4v0.5c0,0.2,0,0.3,0,0.5s0,0.3,0,0.3c0,0.2,0,0.4-0.1,0.5s-0.2,0.1-0.4,0.1c-0.1,0-0.3,0-0.3-0.1
			c-0.1-0.1-0.1-0.2-0.2-0.4c-0.1-0.3-0.1-0.5-0.2-0.6c-0.1-0.1-0.2-0.1-0.3-0.1s-0.2,0-0.2,0.1s-0.1,0.2-0.1,0.5v0.3
			c0,0.5,0,0.9,0.2,1c0.1,0.2,0.4,0.2,0.7,0.2c0.4,0,0.7,0,1-0.2c0.3-0.1,0.6-0.3,0.7-0.5c0.1-0.1,0.1-0.2,0.2-0.4
			c0.2-0.3,0.4-0.5,0.6-0.5c0.2,0,0.3,0,0.3,0.1c0.1,0.1,0.1,0.2,0.1,0.5s0,0.6,0,0.9c0,0.3-0.1,0.6-0.1,0.9c0,0.2-0.1,0.3-0.1,0.3
			c-0.1,0-0.2,0.1-0.4,0.1c0,0-0.1,0-0.2,0c-0.4,0-0.9,0-1.3,0h-1.6c-0.1,0-0.5,0-1.2,0c-0.6,0-1.2,0-1.7,0c-0.2,0-0.4,0-0.5-0.1
			s-0.1-0.2-0.1-0.4c0-0.3,0.1-0.5,0.3-0.5c0.1,0,0.1-0.1,0.2-0.1c0.1-0.1,0.2-0.3,0.2-0.6C222.4,171.2,222.4,170.7,222.4,169.9
			 M213.3,164.7l1.1,3.7l0,0c0,0.1,0.1,0.2,0.2,0.2c0.1,0,0.7-0.5,1.6-1.7l0.1-0.2c0.2-0.2,0.3-0.4,0.6-0.7c0.4-0.5,0.7-0.8,1-0.7
			c0,0,0.1,0,0.4,0.1c0.3,0.1,0.5,0.1,0.7,0.2c0.3,0.1,0.6,0.1,0.9,0.2c0.1,0,0.1,0,0.1,0c0.2,0,0.3,0.1,0.4,0.2
			c0.1,0.1,0.1,0.3,0,0.5c0,0.2-0.2,0.3-0.4,0.3h-0.1c-0.2,0-0.3,0.1-0.4,0.2c-0.1,0.1-0.1,0.2-0.2,0.4c0,0.1,0,0.2-0.1,0.3
			c0,0.1,0,0.1,0,0.1l-0.5,3.5c0,0.2,0,0.4,0,0.5s0,0.2,0.1,0.3c0,0.1,0.1,0.1,0.2,0.2c0.2,0.2,0.3,0.4,0.2,0.6
			c0,0.2-0.1,0.3-0.2,0.3c-0.1,0-0.2,0-0.4,0c-0.1,0-0.2,0-0.3-0.1c-0.1,0-0.2,0-0.2,0c-0.1,0-0.3-0.1-0.6-0.1
			c-0.2-0.1-0.4-0.1-0.6-0.1c-0.5-0.1-0.9-0.2-1.4-0.3c-0.1,0-0.2,0-0.2,0c-0.1,0-0.3-0.1-0.3-0.2c0-0.1-0.1-0.2,0-0.4
			c0.1-0.3,0.3-0.4,0.6-0.4c0.1,0,0.2,0,0.3-0.1c0.1,0,0.1-0.1,0.2-0.3c0.1-0.1,0.2-0.5,0.3-1.1c0.1-0.5,0.2-0.9,0.2-1.2
			s0-0.5,0-0.5c-0.1,0-0.2,0.1-0.4,0.4c-0.1,0.1-0.1,0.1-0.1,0.2l-2,2.4c-0.2,0.3-0.4,0.5-0.6,0.6c-0.1,0.1-0.3,0.1-0.4,0.1
			c-0.2,0-0.4-0.4-0.5-1l0,0l-0.9-3.6l0,0c0-0.1-0.1-0.2-0.1-0.2s-0.1,0.1-0.2,0.3c-0.1,0.2-0.2,0.6-0.3,1.3l-0.1,0.3
			c-0.1,0.4-0.1,0.6-0.1,0.7c0,0.1,0,0.2,0.1,0.3c0,0.1,0.1,0.1,0.3,0.2c0.3,0.2,0.4,0.4,0.3,0.6c0,0.2-0.1,0.3-0.2,0.3
			c-0.1,0.1-0.2,0.1-0.4,0h-0.1c-0.3-0.1-0.6-0.2-0.9-0.2c-0.2,0-0.4-0.1-0.6-0.1c-0.2,0-0.4-0.1-0.4-0.1c-0.2,0-0.3-0.1-0.4-0.2
			c-0.1-0.1-0.1-0.2,0-0.4s0.2-0.4,0.4-0.4c0.1,0,0.1,0,0.1,0c0.1,0,0.2-0.1,0.3-0.2c0.1-0.1,0.2-0.2,0.2-0.4
			c0.1-0.2,0.2-0.6,0.4-1.3s0.4-1.4,0.6-2.2v-0.2c0.1-0.3,0.1-0.5,0.1-0.6s0-0.2-0.1-0.3s-0.2-0.2-0.3-0.3c-0.2-0.1-0.2-0.3-0.2-0.4
			c0.1-0.2,0.1-0.4,0.2-0.5c0.1-0.1,0.3-0.1,0.5,0c0,0,0.1,0,0.2,0c0.3,0.1,0.7,0.2,0.9,0.3c0.3,0.1,0.7,0.1,1,0.2
			c0.1,0,0.1,0,0.1,0c0.1,0,0.2,0.1,0.3,0.1C213.2,164.3,213.2,164.5,213.3,164.7 M201.1,164.9l0.2-0.5c0.4-0.9,0.6-1.5,0.6-1.8
			c0.1-0.3,0.1-0.5,0.1-0.6c0,0-0.1-0.1-0.1-0.2c-0.2-0.2-0.2-0.4-0.2-0.7c0.1-0.2,0.2-0.3,0.3-0.4c0.1,0,0.3,0,0.5,0.1
			c0,0,0.1,0,0.3,0.1c0.7,0.3,1.4,0.5,2,0.8c1.1,0.4,2,0.8,3,1.1c0.1,0,0.2,0.1,0.2,0.1c0.2,0.1,0.3,0.2,0.3,0.2
			c0,0.1,0,0.2-0.1,0.4l-0.5,1.3v0.1c-0.1,0.3-0.2,0.5-0.3,0.5c-0.1,0.1-0.2,0-0.4,0c-0.2-0.1-0.3-0.3-0.3-0.6c0-0.1,0-0.2,0-0.2
			c0-0.3-0.1-0.5-0.3-0.7s-0.5-0.4-1-0.6c-0.1-0.1-0.3-0.1-0.4-0.2c0,0,0,0-0.1,0c-0.1-0.1-0.2-0.1-0.3,0c-0.1,0-0.1,0.2-0.2,0.4
			l-0.1,0.2l-0.1,0.3c-0.1,0.3-0.1,0.4-0.1,0.5s0.1,0.1,0.2,0.2c0.1,0,0.2,0,0.3,0s0.2-0.1,0.3-0.1c0,0,0-0.1,0.1-0.1
			c0.2-0.2,0.4-0.3,0.7-0.2c0.2,0.1,0.3,0.2,0.3,0.3s0,0.4-0.2,0.7l-0.2,0.4l-0.2,0.5c-0.1,0.2-0.1,0.3-0.2,0.5
			c-0.1,0.2-0.1,0.3-0.1,0.3c-0.1,0.2-0.2,0.4-0.3,0.4c-0.1,0.1-0.2,0-0.4,0c-0.1-0.1-0.2-0.1-0.3-0.2c-0.1-0.1-0.1-0.2,0-0.4
			c0-0.3,0-0.5,0-0.6s-0.1-0.2-0.3-0.3c-0.1,0-0.2,0-0.2,0c-0.1,0.1-0.1,0.2-0.2,0.4l-0.1,0.3c-0.2,0.5-0.2,0.8-0.2,1
			c0.1,0.2,0.3,0.3,0.6,0.5c0.3,0.1,0.7,0.2,1,0.2s0.6-0.1,0.8-0.2c0.1-0.1,0.2-0.1,0.4-0.3c0.3-0.2,0.5-0.3,0.7-0.3
			c0.2,0.1,0.2,0.1,0.3,0.2c0,0.1,0,0.3-0.1,0.5c-0.1,0.3-0.2,0.5-0.4,0.8c-0.1,0.3-0.3,0.6-0.4,0.8c-0.1,0.1-0.2,0.2-0.2,0.3
			c-0.1,0-0.2,0-0.4-0.1c0,0-0.1,0-0.2-0.1c-0.4-0.2-0.8-0.3-1.2-0.5l-1.5-0.6c-0.1,0-0.5-0.2-1.1-0.4s-1.1-0.4-1.6-0.6
			c-0.2-0.1-0.4-0.2-0.4-0.3c-0.1-0.1-0.1-0.2,0-0.4c0.1-0.3,0.3-0.4,0.5-0.4c0.1,0,0.2,0,0.2,0c0.1,0,0.2-0.2,0.4-0.5
			C200.6,166.2,200.8,165.6,201.1,164.9 M191.6,159.2c0.6-1.1,1.4-1.8,2.4-2.1s2-0.2,3,0.4c0.6,0.3,1.1,0.7,1.7,1.2
			c0.1,0.1,0.2,0.2,0.2,0.2c0.1,0,0.2,0.1,0.4,0.1s0.3,0,0.4,0.1c0.2,0.1,0.2,0.3,0.2,0.6c-0.1,0.3-0.4,0.9-0.8,1.7
			c-0.1,0.2-0.2,0.3-0.3,0.3s-0.2,0-0.4-0.1s-0.3-0.3-0.3-0.7c0-0.2,0-0.4-0.1-0.5c-0.1-0.3-0.2-0.6-0.4-0.9
			c-0.2-0.3-0.4-0.5-0.7-0.6c-0.4-0.2-0.8-0.3-1.2-0.1s-0.7,0.6-1.1,1.3c-0.4,0.8-0.7,1.5-0.7,2.1s0.2,1,0.6,1.2
			c0.2,0.1,0.3,0.1,0.5,0.1c0.1,0,0.3-0.3,0.5-0.7c0.1-0.2,0.2-0.3,0.2-0.4c0-0.1,0-0.2,0-0.3s-0.1-0.2-0.2-0.2s-0.1-0.1-0.1-0.1
			c-0.1-0.1-0.1-0.2-0.1-0.2c0-0.1,0-0.2,0.1-0.3c0.1-0.2,0.2-0.3,0.4-0.3c0.1,0,0.3,0,0.6,0.2c0,0,0.1,0.1,0.2,0.1
			c0.4,0.2,0.8,0.5,1.1,0.7c0.3,0.1,0.5,0.3,0.8,0.4c0.3,0.1,0.4,0.2,0.4,0.2c0.2,0.1,0.3,0.2,0.3,0.3s0,0.2-0.1,0.4
			c-0.1,0.1-0.1,0.2-0.2,0.3c0,0-0.1,0.1-0.2,0.1c0,0,0,0-0.1,0c-0.4,0-0.6,0.1-0.8,0.5c-0.1,0.2-0.3,0.5-0.4,0.8
			c-0.1,0.3-0.2,0.4-0.2,0.5c-0.1,0.2-0.2,0.2-0.3,0.3c-0.1,0-0.2,0-0.4-0.1c0,0-0.1-0.1-0.2-0.1c-0.1,0-0.1-0.1-0.1-0.1
			c-0.1,0-0.5-0.2-1.2-0.3c-0.7-0.2-1.3-0.4-1.9-0.7c-1-0.6-1.7-1.3-1.9-2.2C190.9,161.2,191.1,160.2,191.6,159.2 M183.4,154.9
			l4.3-2.4c0.3-0.2,0.6-0.3,0.7-0.2c0.2,0,0.4,0.2,0.7,0.4c0.3,0.3,0.5,0.4,0.6,0.6c0.1,0.1,0.1,0.3,0,0.6l-1.2,5.1
			c0,0.1,0,0.1,0,0.2c-0.2,0.7-0.2,1.1-0.1,1.4c0.1,0.2,0.1,0.3,0.1,0.4c0,0.1,0,0.2-0.1,0.3c-0.1,0.2-0.3,0.3-0.4,0.3
			c-0.1,0-0.3-0.1-0.4-0.2l-0.1-0.1c-0.1-0.1-0.3-0.3-0.6-0.5s-0.5-0.4-0.6-0.5c-0.2-0.2-0.5-0.4-0.7-0.6c-0.3-0.2-0.5-0.3-0.5-0.4
			c-0.2-0.2-0.3-0.3-0.3-0.4s0-0.3,0.2-0.4c0.1-0.1,0.2-0.2,0.3-0.2s0.2,0,0.3,0c0,0,0,0,0.1,0c0.2,0,0.4,0,0.5-0.1s0.1-0.2,0.1-0.3
			s-0.2-0.3-0.4-0.4c-0.2-0.1-0.3-0.2-0.5-0.4h-0.1l-0.3-0.2c-0.4-0.3-0.7-0.5-0.9-0.5s-0.3,0-0.4,0.2c-0.1,0.2-0.1,0.3,0,0.5
			l0.1,0.1c0.1,0.1,0.1,0.2,0.1,0.3s0,0.2-0.1,0.3c-0.1,0.2-0.3,0.3-0.4,0.3c-0.1,0-0.3-0.1-0.5-0.2c-0.1-0.1-0.2-0.2-0.4-0.3
			s-0.3-0.3-0.4-0.3c-0.1-0.1-0.3-0.2-0.4-0.3c-0.2-0.1-0.3-0.2-0.3-0.2c-0.2-0.1-0.2-0.2-0.3-0.3c0-0.1,0-0.2,0.1-0.4
			c0.1-0.1,0.1-0.2,0.2-0.2c0.1,0,0.1-0.1,0.2,0l0,0c0.2,0.1,0.4,0.1,0.6,0.1C182.4,155.5,182.8,155.3,183.4,154.9L183.4,154.9z
			 M187.1,154.4H187c-0.1,0-0.1,0-0.2,0.1c-0.3,0.1-0.6,0.3-0.9,0.5c-0.3,0.2-0.4,0.3-0.5,0.4c0,0,0,0.1,0,0.2
			c0,0.1,0.1,0.1,0.3,0.3l0.3,0.3c0.2,0.1,0.3,0.2,0.3,0.2c0.1,0,0.1,0,0.2,0c0-0.1,0.1-0.2,0.2-0.4c0.1-0.2,0.2-0.5,0.3-0.7
			s0.1-0.3,0.1-0.4C187.1,154.5,187.1,154.4,187.1,154.4 M181.2,145.2l0.1,4.6l0,0c0,0.2,0,0.3,0,0.3s0.1,0.1,0.1,0
			c0,0,0.1-0.1,0.2-0.1l0.1-0.1c0.3-0.2,0.5-0.5,0.7-0.7s0.3-0.4,0.4-0.5c0.1-0.2,0.1-0.4,0-0.6l0,0c0,0,0-0.1-0.1-0.2
			c-0.1-0.3-0.1-0.5,0.1-0.7c0.2-0.1,0.3-0.2,0.4-0.2c0.1,0,0.3,0.1,0.4,0.3c0,0.1,0.1,0.2,0.3,0.4s0.3,0.3,0.4,0.5
			c0.1,0.1,0.2,0.2,0.3,0.4c0.2,0.2,0.3,0.3,0.4,0.4c0.2,0.2,0.3,0.4,0.3,0.5s-0.1,0.2-0.2,0.4c-0.2,0.2-0.4,0.2-0.7,0.1
			c-0.1-0.1-0.3-0.1-0.3-0.1c-0.1,0-0.2,0-0.3,0.1s-0.3,0.2-0.5,0.4l-0.2,0.2l-2.3,2.1l0,0c0,0-0.1,0.1-0.2,0.2
			c-0.1,0.1-0.3,0.3-0.4,0.4c-0.3,0.3-0.6,0.5-0.7,0.5c-0.2,0-0.3,0-0.4-0.2c-0.1-0.2-0.2-0.6-0.2-1.5l0,0l-0.1-4c0-0.1,0-0.2,0-0.3
			s0-0.1-0.1-0.1c0,0-0.1-0.1-0.2,0c-0.1,0-0.2,0.1-0.4,0.3c-0.4,0.4-0.7,0.7-0.8,0.9s-0.2,0.3-0.2,0.5c0,0.1,0.1,0.3,0.2,0.4
			c0,0.1,0.1,0.1,0.1,0.2c0.1,0.1,0.1,0.2,0.1,0.3s-0.1,0.2-0.2,0.3c-0.1,0.1-0.3,0.2-0.4,0.2s-0.2-0.1-0.3-0.2c0,0,0-0.1-0.1-0.1
			c-0.3-0.3-0.5-0.6-0.8-0.9c-0.2-0.2-0.3-0.4-0.5-0.6c-0.2-0.2-0.3-0.3-0.3-0.3c-0.2-0.2-0.2-0.3-0.2-0.4c0-0.1,0.1-0.2,0.2-0.3
			c0.2-0.2,0.4-0.2,0.7-0.1c0.3,0.1,0.4,0.1,0.5,0.1s0.4-0.1,0.7-0.4c0.3-0.3,0.8-0.6,1.4-1.1c0.6-0.6,1.1-1,1.2-1.2
			c0.2-0.2,0.3-0.4,0.3-0.5s0-0.3-0.1-0.5s0-0.4,0.1-0.6c0.2-0.2,0.3-0.2,0.5-0.2c0.1,0,0.3,0.1,0.4,0.2c0,0,0.1,0.1,0.2,0.2
			c0.1,0.1,0.2,0.2,0.2,0.3c0.1,0.1,0.2,0.2,0.3,0.3s0.2,0.2,0.2,0.2c0,0.1,0.1,0.1,0.1,0.2C181.2,144.9,181.2,145,181.2,145.2
			 M170.5,139.4l4.9-1c0.4-0.1,0.6-0.1,0.8,0c0.1,0.1,0.3,0.3,0.5,0.6s0.4,0.6,0.4,0.7c0,0.1,0,0.3-0.2,0.6l-2.7,4.5
			c0,0-0.1,0.1-0.1,0.2c-0.4,0.6-0.5,1-0.5,1.3c0,0.2,0,0.3,0,0.4c0,0.1-0.1,0.1-0.2,0.2c-0.2,0.1-0.4,0.2-0.5,0.2s-0.2-0.1-0.4-0.3
			l-0.1-0.1c-0.1-0.1-0.2-0.4-0.4-0.7s-0.3-0.5-0.4-0.7c-0.2-0.2-0.3-0.5-0.5-0.8s-0.3-0.5-0.4-0.5c-0.1-0.2-0.2-0.4-0.2-0.5
			s0.1-0.2,0.3-0.4c0.1-0.1,0.2-0.1,0.3-0.1s0.2,0,0.3,0.1c0,0,0,0,0.1,0c0.2,0.1,0.4,0.1,0.5,0s0.2-0.2,0.2-0.3s-0.1-0.3-0.2-0.5
			c-0.1-0.2-0.2-0.3-0.3-0.5v-0.1l-0.2-0.3c-0.3-0.4-0.5-0.7-0.6-0.8s-0.3-0.1-0.4,0c-0.2,0.1-0.2,0.3-0.1,0.5c0,0.1,0,0.1,0,0.1
			c0,0.1,0,0.2,0,0.3s-0.1,0.1-0.2,0.2c-0.2,0.1-0.3,0.2-0.5,0.1c-0.1,0-0.3-0.2-0.4-0.4c-0.1-0.1-0.2-0.3-0.3-0.5s-0.2-0.3-0.3-0.4
			c-0.1-0.1-0.2-0.3-0.3-0.4c-0.1-0.2-0.2-0.3-0.2-0.3c-0.1-0.2-0.2-0.3-0.1-0.4c0-0.1,0.1-0.2,0.2-0.3c0.1-0.1,0.2-0.1,0.3-0.1
			s0.2,0,0.2,0l0,0c0.2,0.1,0.4,0.2,0.5,0.2C169.4,139.6,169.8,139.5,170.5,139.4L170.5,139.4z M174.2,140.1c0,0-0.1,0-0.1-0.1
			c-0.1,0-0.1,0-0.2,0c-0.4,0-0.7,0.1-1,0.2c-0.3,0.1-0.5,0.1-0.6,0.2l-0.1,0.1c0,0,0.1,0.2,0.2,0.3l0.2,0.4
			c0.1,0.2,0.2,0.3,0.3,0.3s0.1,0,0.2,0c0.1,0,0.2-0.2,0.3-0.3c0.2-0.2,0.3-0.4,0.5-0.6c0.1-0.2,0.2-0.3,0.2-0.4
			C174.2,140.2,174.2,140.1,174.2,140.1 M170.2,129.5l-2.5,3l0,0c-0.1,0.1-0.1,0.2-0.1,0.2c0,0.1,0.8,0.3,2.3,0.4h0.2
			c0.2,0,0.6,0,0.9,0.1c0.7,0,1.1,0.2,1.2,0.5c0,0,0,0.1,0.1,0.4c0.1,0.2,0.2,0.5,0.3,0.7c0.1,0.3,0.2,0.5,0.3,0.8
			c0,0.1,0,0.1,0.1,0.1c0.1,0.2,0.1,0.3,0,0.4c-0.1,0.1-0.2,0.2-0.4,0.3s-0.4,0-0.5-0.2c0,0,0,0-0.1-0.1c-0.1-0.2-0.3-0.2-0.4-0.3
			c-0.1,0-0.2,0-0.4,0.1c-0.1,0-0.2,0.1-0.3,0.1h-0.1l-3.2,1.5c-0.2,0.1-0.3,0.2-0.4,0.2c-0.1,0.1-0.1,0.1-0.2,0.2
			c0,0.1-0.1,0.2-0.1,0.3c0,0.3-0.2,0.4-0.4,0.5s-0.3,0.1-0.4,0c-0.1,0-0.2-0.2-0.2-0.4c0-0.1-0.1-0.2-0.1-0.3s-0.1-0.2-0.1-0.2
			c0-0.1-0.1-0.3-0.2-0.5s-0.2-0.4-0.2-0.6c-0.2-0.4-0.3-0.9-0.5-1.3c0-0.1-0.1-0.2-0.1-0.2c-0.1-0.1-0.1-0.3,0-0.4
			c0-0.1,0.2-0.2,0.3-0.2c0.3-0.1,0.5,0,0.7,0.2c0.1,0.1,0.2,0.2,0.2,0.2c0.1,0,0.2,0,0.3,0c0.2,0,0.5-0.2,1-0.4s0.8-0.3,1.1-0.5
			c0.3-0.1,0.4-0.2,0.4-0.3s-0.2-0.1-0.6-0.1c-0.1,0-0.2,0-0.2,0l-3.1-0.3c-0.4,0-0.6-0.1-0.8-0.2c-0.2-0.1-0.3-0.2-0.3-0.3
			c-0.1-0.2,0.1-0.5,0.6-1l0,0l2.4-2.8l0,0c0.1-0.1,0.1-0.1,0.1-0.2c0,0-0.1,0-0.3,0c-0.2,0.1-0.6,0.2-1.3,0.5l-0.3,0.1
			c-0.3,0.1-0.6,0.2-0.7,0.3c-0.1,0.1-0.2,0.2-0.2,0.3s0,0.2,0,0.3c0,0.3-0.1,0.5-0.4,0.6c-0.2,0.1-0.3,0.1-0.4,0
			c-0.1,0-0.2-0.1-0.2-0.3v-0.1c-0.1-0.3-0.2-0.6-0.3-0.9c-0.1-0.2-0.2-0.4-0.2-0.6c-0.1-0.2-0.2-0.4-0.2-0.4
			c-0.1-0.2-0.1-0.3-0.1-0.4c0-0.1,0.1-0.2,0.3-0.2c0.2-0.1,0.4-0.1,0.6,0.1l0.1,0.1c0.1,0.1,0.2,0.1,0.3,0.1s0.3,0,0.4,0
			c0.2,0,0.6-0.2,1.3-0.4s1.4-0.5,2.2-0.8l0.1-0.1c0.3-0.1,0.5-0.2,0.6-0.3c0.1-0.1,0.2-0.2,0.2-0.2c0-0.1,0-0.2,0-0.4
			c0-0.2,0.1-0.3,0.3-0.4s0.4-0.1,0.5-0.1s0.2,0.2,0.3,0.4c0,0,0,0.1,0.1,0.2c0.1,0.3,0.2,0.6,0.3,0.9s0.3,0.6,0.4,1
			c0,0.1,0,0.1,0,0.1c0,0.1,0.1,0.2,0,0.3C170.4,129.2,170.3,129.4,170.2,129.5"/>
	</g>
	<g>
		<defs>
			<rect id="SVGID_00000152957153560808472460000007721636408809512125_" y="0" width="312.2" height="306.6"/>
		</defs>
		<clipPath id="SVGID_00000164505463925885438390000012577383145304731288_">
			<use xlink:href="#SVGID_00000152957153560808472460000007721636408809512125_"  style="overflow:visible;"/>
		</clipPath>
		<path style="clip-path:url(#SVGID_00000164505463925885438390000012577383145304731288_);fill:#FFFFFF;" d="M281.8,131.5l3.8-0.4
			l0,0c0.1,0,0.2,0,0.2-0.1c0.1-0.1-0.4-0.7-1.4-1.8l-0.1-0.2c-0.2-0.2-0.4-0.4-0.6-0.7c-0.5-0.5-0.6-0.9-0.5-1.1
			c0,0,0.1-0.1,0.2-0.4c0.1-0.2,0.2-0.5,0.3-0.7c0.1-0.3,0.2-0.5,0.3-0.8c0-0.1,0-0.1,0-0.1c0.1-0.2,0.2-0.3,0.3-0.3
			c0.1,0,0.3,0,0.5,0.1s0.3,0.2,0.3,0.5v0.1c0,0.2,0,0.4,0.1,0.4c0.1,0.1,0.2,0.2,0.4,0.2c0.1,0,0.2,0.1,0.3,0.1h0.1l3.3,1.1
			c0.2,0.1,0.4,0.1,0.5,0.1s0.2,0,0.3,0c0.1,0,0.2-0.1,0.3-0.2c0.2-0.2,0.4-0.2,0.6-0.1s0.3,0.2,0.3,0.2c0,0.1,0,0.2-0.1,0.4
			c0,0.1-0.1,0.2-0.1,0.3c0,0.1-0.1,0.2-0.1,0.2c0,0.1-0.1,0.3-0.2,0.5s-0.2,0.4-0.2,0.5c-0.2,0.4-0.4,0.9-0.5,1.3
			c0,0.1-0.1,0.2-0.1,0.2c-0.1,0.1-0.1,0.2-0.2,0.3c-0.1,0-0.2,0-0.4,0c-0.3-0.1-0.4-0.3-0.3-0.6c0-0.1,0-0.2,0-0.3
			s-0.1-0.1-0.2-0.2c-0.1-0.1-0.5-0.2-1-0.5c-0.5-0.2-0.8-0.3-1.1-0.4c-0.3-0.1-0.5-0.1-0.5-0.1c0,0.1,0.1,0.2,0.3,0.5
			c0.1,0.1,0.1,0.1,0.1,0.2l2,2.4c0.2,0.3,0.4,0.5,0.5,0.7s0.1,0.3,0,0.4c-0.1,0.2-0.4,0.3-1.1,0.3l0,0l-3.7,0.3l0,0
			c-0.1,0-0.2,0-0.2,0.1c0,0,0.1,0.1,0.2,0.2c0.2,0.1,0.6,0.3,1.2,0.6l0.3,0.1c0.3,0.1,0.6,0.2,0.7,0.2s0.3,0,0.3,0
			c0.1,0,0.2-0.1,0.3-0.2c0.2-0.2,0.4-0.3,0.7-0.2c0.2,0.1,0.3,0.2,0.3,0.3s0,0.2,0,0.4c0,0,0,0.1-0.1,0.1c-0.1,0.3-0.3,0.6-0.4,0.9
			c-0.1,0.2-0.2,0.4-0.2,0.6c-0.1,0.2-0.1,0.4-0.2,0.4c-0.1,0.2-0.2,0.3-0.3,0.3c-0.1,0-0.2,0-0.4,0c-0.2-0.1-0.3-0.2-0.4-0.5
			c0-0.1,0-0.1,0-0.1c0-0.1-0.1-0.2-0.1-0.3c-0.1-0.1-0.2-0.2-0.3-0.3c-0.2-0.1-0.6-0.3-1.2-0.6s-1.3-0.6-2.1-0.9l-0.1-0.1
			c-0.3-0.1-0.5-0.2-0.6-0.2s-0.2,0-0.3,0c-0.1,0.1-0.2,0.1-0.3,0.3c-0.1,0.1-0.3,0.2-0.5,0.1c-0.2-0.1-0.4-0.2-0.4-0.3s0-0.3,0-0.5
			c0,0,0-0.1,0.1-0.2c0.2-0.3,0.3-0.6,0.4-0.9c0.1-0.3,0.3-0.6,0.4-1c0-0.1,0-0.1,0-0.1c0-0.1,0.1-0.2,0.2-0.2
			C281.4,131.6,281.6,131.6,281.8,131.5 M279.3,143.2l-0.5-0.3c-0.8-0.5-1.4-0.9-1.6-1c-0.3-0.1-0.4-0.2-0.5-0.2s-0.1,0-0.2,0.1
			c-0.2,0.1-0.5,0.1-0.7,0s-0.3-0.2-0.3-0.3s0-0.3,0.2-0.5c0,0,0.1-0.1,0.2-0.3c0.4-0.6,0.8-1.2,1.2-1.8c0.6-0.9,1.2-1.8,1.7-2.7
			c0.1-0.1,0.1-0.2,0.1-0.2c0.1-0.2,0.2-0.3,0.3-0.3c0.1,0,0.2,0,0.4,0.2l1.1,0.7h0.1c0.3,0.2,0.4,0.3,0.4,0.4c0,0.1,0,0.2-0.1,0.4
			s-0.3,0.2-0.6,0.1c-0.1,0-0.2,0-0.2-0.1c-0.3-0.1-0.5,0-0.8,0.1c-0.2,0.1-0.5,0.4-0.7,0.8c-0.1,0.1-0.2,0.3-0.3,0.4c0,0,0,0,0,0.1
			c-0.1,0.1-0.1,0.2-0.1,0.3s0.1,0.2,0.3,0.3l0.2,0.1l0.3,0.2c0.2,0.2,0.4,0.2,0.5,0.2s0.2-0.1,0.2-0.2c0.1-0.1,0.1-0.2,0.1-0.3
			s0-0.2-0.1-0.3c0,0,0-0.1-0.1-0.1c-0.2-0.2-0.2-0.5,0-0.7c0.1-0.2,0.2-0.2,0.3-0.2c0.1,0,0.4,0.1,0.7,0.3l0.4,0.2l0.4,0.3
			c0.1,0.1,0.3,0.2,0.4,0.3c0.2,0.1,0.2,0.1,0.2,0.2c0.2,0.1,0.3,0.2,0.3,0.4c0,0.1,0,0.2-0.1,0.4c-0.1,0.1-0.2,0.2-0.3,0.2
			c-0.1,0-0.2,0-0.4,0c-0.3-0.1-0.5-0.1-0.6-0.1s-0.2,0.1-0.3,0.2c-0.1,0.1-0.1,0.2,0,0.2c0,0.1,0.2,0.2,0.4,0.3l0.3,0.2
			c0.4,0.3,0.8,0.4,1,0.4s0.4-0.2,0.6-0.5s0.3-0.6,0.4-1c0.1-0.3,0.1-0.6,0-0.9c0-0.1-0.1-0.2-0.2-0.4c-0.2-0.3-0.2-0.6-0.1-0.7
			c0.1-0.1,0.2-0.2,0.3-0.2c0.1,0,0.3,0,0.4,0.2c0.2,0.1,0.5,0.3,0.7,0.5c0.3,0.2,0.5,0.4,0.7,0.6c0.1,0.1,0.2,0.2,0.2,0.3
			s0,0.2-0.1,0.4c0,0,0,0.1-0.1,0.1c-0.3,0.4-0.5,0.7-0.7,1.1l-0.9,1.3c-0.1,0.1-0.3,0.4-0.6,1c-0.3,0.5-0.7,1-0.9,1.5
			c-0.1,0.2-0.3,0.3-0.4,0.4c-0.1,0-0.2,0-0.4-0.1c-0.2-0.2-0.3-0.3-0.3-0.5c0-0.1,0-0.2,0-0.2c0-0.1-0.1-0.3-0.4-0.5
			C280.4,143.9,279.9,143.6,279.3,143.2 M270.8,148.9l-1-0.9c-0.2-0.2-0.3-0.3-0.3-0.4c0-0.1,0-0.2,0.2-0.4l4.3-5
			c0.1-0.1,0.2-0.2,0.3-0.2c0.1,0,0.2,0.1,0.4,0.2l1.3,1.2c0.1,0.1,0.1,0.1,0.1,0.2c0,0.1,0,0.2-0.1,0.3c-0.1,0.2-0.4,0.2-0.7,0.1
			c-0.1,0-0.2-0.1-0.2-0.1c-0.3-0.1-0.5-0.1-0.7-0.1s-0.3,0.1-0.5,0.2c-0.1,0.1-0.1,0.3,0,0.5s0.4,0.5,1,1l1,0.8
			c0.6,0.5,1.1,0.9,1.3,1.1c0.3,0.2,0.4,0.3,0.6,0.2c0.1,0,0.1,0,0.2-0.1c0.2-0.1,0.4,0,0.6,0.1c0.1,0.1,0.2,0.2,0.2,0.4
			c0,0.1-0.1,0.3-0.3,0.6l-0.1,0.2c0,0-0.1,0.2-0.3,0.3c-0.2,0.2-0.3,0.3-0.4,0.5c-0.1,0.1-0.2,0.2-0.4,0.4
			c-0.2,0.2-0.3,0.4-0.5,0.5c-0.2,0.2-0.4,0.4-0.5,0.4s-0.2,0-0.4-0.2c-0.2-0.2-0.3-0.4-0.2-0.6c0-0.1,0-0.2,0-0.2
			c0-0.1-0.1-0.3-0.3-0.5c-0.2-0.2-0.8-0.7-1.6-1.5c-0.8-0.7-1.4-1.1-1.6-1.3c-0.2-0.1-0.4-0.1-0.6,0c-0.1,0.1-0.2,0.3-0.2,0.5
			s0,0.4,0.2,0.6c0,0.1,0.1,0.2,0.1,0.3c0.2,0.3,0.2,0.6,0.1,0.7c-0.1,0.1-0.2,0.2-0.3,0.2C271.2,149.3,271,149.1,270.8,148.9
			 M271.2,157.1c-0.4,0.4-0.9,0.7-1.4,0.9c-0.1,0-0.2,0.1-0.2,0.1l-0.1,0.1c0,0.1-0.1,0.1-0.1,0.1c-0.1,0.1-0.3,0.1-0.5,0
			s-0.5-0.4-0.8-0.8c-0.3-0.3-0.4-0.6-0.5-0.7c0-0.2,0-0.3,0.2-0.4c0.1-0.1,0.3-0.1,0.6,0c0.2,0.1,0.4,0.1,0.5,0.1
			c0.3,0,0.6,0,0.9-0.1s0.5-0.2,0.8-0.4c0.2-0.1,0.3-0.3,0.3-0.5s0-0.3-0.1-0.4c-0.2-0.2-0.6-0.2-1.2,0.1c-0.2,0.1-0.4,0.2-0.6,0.2
			c-0.7,0.2-1.3,0.3-1.8,0.2s-0.9-0.4-1.3-0.8c-0.5-0.6-0.8-1.3-0.7-2c0.1-0.7,0.4-1.4,1.1-1.9c0.2-0.2,0.4-0.3,0.7-0.5
			c0.3-0.1,0.4-0.2,0.5-0.3s0.1-0.2,0.2-0.3s0.1-0.2,0.2-0.3s0.2-0.1,0.3-0.1c0.1,0,0.2,0.1,0.4,0.2c0.3,0.3,0.6,0.5,0.8,0.7
			c0.2,0.2,0.4,0.3,0.4,0.4c0.1,0.1,0.1,0.2,0.1,0.3s-0.1,0.2-0.2,0.3s-0.3,0.1-0.5,0.1s-0.4-0.1-0.5-0.1c-0.3,0-0.6,0-0.8,0.1
			c-0.3,0.1-0.5,0.2-0.6,0.3s-0.2,0.2-0.3,0.4c0,0.1,0,0.3,0.1,0.4c0.1,0.2,0.5,0.1,1.1-0.1c0.3-0.1,0.5-0.2,0.6-0.2
			c0.8-0.2,1.5-0.3,1.9-0.2s0.9,0.4,1.3,0.8c0.6,0.7,0.8,1.3,0.6,2C272.5,155.8,272,156.4,271.2,157.1 M260.8,160.4
			c-0.1-0.1-0.3-0.2-0.5-0.3c-1.6-0.8-2.5-1.3-2.7-1.3c-0.1,0-0.2,0-0.3,0c-0.3,0.1-0.5,0-0.6-0.2s-0.2-0.4-0.1-0.5
			c0-0.1,0.1-0.2,0.3-0.3c0,0,0.1-0.1,0.2-0.1c0.6-0.3,1.1-0.6,1.6-1c0.2-0.2,0.5-0.3,0.7-0.5c0.3-0.2,0.4-0.3,0.4-0.3
			c0.2-0.1,0.3-0.1,0.4-0.1s0.2,0.1,0.3,0.2c0.1,0.2,0.1,0.3,0.1,0.4s0,0.2-0.1,0.3c0,0,0,0.1-0.1,0.1c-0.1,0.1-0.1,0.2,0,0.2
			c0,0,0.2,0.1,0.4,0.3h0.1c0.3,0.2,0.5,0.3,0.6,0.4c0.1,0.1,0.2,0.1,0.3,0.1c0.1,0,0.1-0.3,0.1-0.9v0.1c0-0.3,0-0.5,0-0.6
			s0-0.2,0-0.2s-0.2-0.1-0.4,0c-0.2,0-0.4,0-0.5-0.2s-0.2-0.3-0.1-0.5c0-0.1,0.2-0.2,0.4-0.4c0.1-0.1,0.2-0.1,0.4-0.3
			c0.2-0.1,0.4-0.2,0.5-0.3s0.3-0.2,0.5-0.3s0.3-0.2,0.3-0.2c0.2-0.1,0.3-0.1,0.4-0.1s0.2,0.1,0.3,0.3c0.1,0.2,0.1,0.5,0,0.7
			c-0.1,0.1-0.1,0.2-0.1,0.2c-0.1,0.2-0.3,1.1-0.4,2.6c0,0.5-0.1,0.8-0.1,1.1c0,0.1,0.1,0.1,0.1,0.2c0.1,0.2,0.2,0.3,0.2,0.3
			c0.3,0.5,0.5,0.8,0.8,1.1c0.2,0.3,0.4,0.4,0.5,0.4s0.1,0,0.2,0c0.2,0,0.4,0.1,0.5,0.3s0.1,0.3,0.1,0.4s-0.2,0.3-0.5,0.4l-0.2,0.1
			c-0.1,0-0.2,0.1-0.4,0.2c-0.2,0.1-0.4,0.2-0.5,0.3s-0.3,0.2-0.6,0.4c-0.3,0.2-0.5,0.3-0.6,0.4c-0.3,0.2-0.5,0.2-0.6,0.2
			s-0.2-0.1-0.3-0.3c-0.2-0.2-0.2-0.4,0-0.6c0.1-0.1,0.1-0.1,0.1-0.2c0-0.1,0-0.3-0.1-0.5c-0.1-0.3-0.3-0.6-0.6-1.1
			c0,0,0-0.1-0.1-0.1C260.9,160.6,260.8,160.5,260.8,160.4 M255.7,167.6c-0.5,0.2-1,0.4-1.6,0.5c-0.1,0-0.2,0-0.2,0s-0.1,0-0.1,0.1
			c-0.1,0-0.1,0.1-0.1,0.1c-0.2,0.1-0.3,0-0.5-0.1s-0.4-0.5-0.6-1c-0.2-0.4-0.3-0.7-0.2-0.8c0-0.2,0.1-0.3,0.3-0.4
			c0.1-0.1,0.4,0,0.6,0.1c0.2,0.1,0.3,0.2,0.4,0.2c0.3,0.1,0.5,0.2,0.8,0.2s0.6-0.1,0.8-0.2c0.2-0.1,0.4-0.2,0.4-0.4
			c0.1-0.1,0.1-0.3,0-0.4c-0.1-0.2-0.5-0.3-1.2-0.3c-0.3,0-0.5,0-0.6,0.1c-0.7,0-1.3,0-1.8-0.3c-0.4-0.2-0.8-0.6-1-1.1
			c-0.3-0.8-0.4-1.5-0.1-2.1c0.3-0.7,0.8-1.2,1.5-1.5c0.2-0.1,0.5-0.2,0.8-0.3s0.5-0.1,0.5-0.1c0.1,0,0.2-0.1,0.3-0.2
			c0.1-0.1,0.2-0.2,0.3-0.2s0.2,0,0.3,0s0.2,0.2,0.3,0.4c0.2,0.3,0.4,0.6,0.6,0.9c0.2,0.3,0.3,0.4,0.3,0.5s0,0.2,0,0.3
			c-0.1,0.1-0.2,0.2-0.3,0.3s-0.3,0-0.5-0.1s-0.4-0.2-0.5-0.2c-0.3-0.1-0.5-0.1-0.8-0.1s-0.5,0-0.7,0.1s-0.3,0.2-0.4,0.3
			c-0.1,0.1-0.1,0.3,0,0.4c0.1,0.2,0.5,0.3,1.1,0.3c0.3,0,0.5,0,0.7,0c0.9,0,1.5,0.1,1.9,0.3s0.8,0.6,1,1.1c0.4,0.8,0.4,1.5,0,2.1
			C257.3,166.6,256.6,167.2,255.7,167.6 M240.2,166.4l-0.4-1.3c-0.1-0.3-0.1-0.4,0-0.5c0-0.1,0.2-0.2,0.3-0.2l6.3-1.8
			c0.2,0,0.3,0,0.4,0c0.1,0.1,0.2,0.2,0.2,0.4l0.5,1.7c0,0.1,0,0.2,0,0.3c-0.1,0.1-0.1,0.1-0.3,0.2c-0.2,0.1-0.4,0-0.6-0.3
			c-0.1-0.1-0.1-0.2-0.2-0.2c-0.2-0.2-0.4-0.3-0.5-0.4c-0.2-0.1-0.4-0.1-0.5,0c-0.2,0.1-0.3,0.2-0.3,0.4s0.1,0.7,0.3,1.4l0.4,1.2
			c0.2,0.8,0.4,1.3,0.5,1.6s0.2,0.5,0.3,0.5s0.1,0,0.2,0c0.2,0,0.3,0.2,0.4,0.4c0.1,0.2,0,0.3,0,0.4c-0.1,0.1-0.3,0.2-0.6,0.3
			l-0.2,0.1c-0.1,0-0.2,0.1-0.4,0.1c-0.2,0.1-0.4,0.1-0.6,0.2c-0.1,0-0.3,0.1-0.6,0.2c-0.3,0.1-0.5,0.2-0.7,0.2
			c-0.3,0.1-0.5,0.1-0.6,0.1s-0.2-0.2-0.2-0.3c-0.1-0.3,0-0.5,0.1-0.6s0.1-0.1,0.2-0.2c0.1-0.1,0.1-0.3,0-0.6s-0.2-1-0.6-2.1
			c-0.3-1.1-0.5-1.7-0.7-1.9c-0.1-0.2-0.3-0.3-0.5-0.3s-0.3,0.1-0.4,0.3c-0.1,0.2-0.2,0.4-0.2,0.6c0,0.1,0,0.2,0,0.3
			c0,0.4-0.1,0.6-0.4,0.6c-0.2,0-0.3,0-0.4-0.1C240.3,166.9,240.3,166.7,240.2,166.4 M232.9,165.7l3.9,2.6l0,0
			c0.1,0.1,0.2,0.1,0.3,0.1s0.1,0,0.1-0.1c0,0,0-0.1,0-0.3v-0.1c0-0.4-0.1-0.7-0.2-1c-0.1-0.3-0.1-0.5-0.2-0.6
			c-0.1-0.2-0.3-0.3-0.5-0.3l0,0c0,0-0.1,0-0.2,0c-0.3-0.1-0.5-0.2-0.5-0.5c0-0.2,0-0.4,0.1-0.5s0.2-0.2,0.5-0.2c0.1,0,0.2,0,0.5,0
			c0.2,0,0.4,0,0.6-0.1c0.1,0,0.3,0,0.5-0.1c0.2,0,0.4-0.1,0.5-0.1c0.3,0,0.5,0,0.6,0c0.1,0.1,0.2,0.2,0.2,0.4
			c0,0.3-0.1,0.5-0.3,0.6c-0.1,0.1-0.2,0.2-0.3,0.2c-0.1,0.1-0.1,0.2-0.1,0.3s0,0.4,0,0.7v0.3l0.4,3.1v0.1c0,0,0,0.1,0,0.3
			s0,0.4,0.1,0.5c0.1,0.4,0.1,0.7,0,0.9s-0.2,0.2-0.4,0.3c-0.2,0-0.7-0.2-1.4-0.7l0,0l-3.3-2.2c-0.1-0.1-0.2-0.1-0.2-0.1
			c-0.1,0-0.1,0-0.1,0c-0.1,0-0.1,0-0.1,0.1s0,0.2,0,0.5c0.1,0.6,0.1,1,0.2,1.2c0.1,0.2,0.2,0.3,0.3,0.4c0.1,0.1,0.2,0.1,0.5,0.1
			c0.1,0,0.2,0,0.2,0c0.1,0,0.2,0.1,0.3,0.1c0.1,0.1,0.1,0.2,0.1,0.4s0,0.3-0.1,0.4c-0.1,0.1-0.2,0.1-0.4,0.2c0,0-0.1,0-0.2,0
			c-0.4,0-0.8,0.1-1.2,0.1c-0.2,0-0.5,0.1-0.8,0.1s-0.4,0.1-0.5,0.1c-0.2,0-0.4,0-0.5,0c-0.1-0.1-0.1-0.2-0.2-0.4
			c0-0.3,0.1-0.5,0.3-0.6c0.2-0.2,0.4-0.3,0.4-0.4c0.1-0.1,0.1-0.4,0.1-0.8c0-0.4-0.1-1-0.2-1.8c-0.1-0.9-0.2-1.4-0.3-1.7
			s-0.2-0.5-0.3-0.6s-0.2-0.1-0.5-0.2c-0.2-0.1-0.4-0.2-0.4-0.4s0-0.4,0.1-0.5s0.2-0.2,0.4-0.2c0,0,0.1,0,0.3,0c0.1,0,0.3,0,0.4,0
			c0.1,0,0.3,0,0.4-0.1c0.1,0,0.2,0,0.2,0c0.1,0,0.2,0,0.2,0C232.6,165.5,232.7,165.6,232.9,165.7"/>
	</g>
</g>
</svg>
