<?xml version="1.0" encoding="utf-8"?>
<!-- Generator: Adobe Illustrator 27.0.1, SVG Export Plug-In . SVG Version: 6.00 Build 0)  -->
<svg version="1.1" id="Capa_1" xmlns="http://www.w3.org/2000/svg" xmlns:xlink="http://www.w3.org/1999/xlink" x="0px" y="0px"
	 viewBox="0 0 216.7 205.1" style="enable-background:new 0 0 216.7 205.1;" xml:space="preserve">
<path d="M22.5,100.5c-3.4,0-6.2-1.3-6.2-6.6v-2.1c0-5.6,3.2-6.6,6.2-6.6c2.2,0,4.3,0.4,4.7,0.5v2.1c-1-0.1-3.2-0.2-4.3-0.2
	c-2.4,0-3.9,0.5-3.9,4.2v2.1c0,3.4,1.2,4.2,3.6,4.2c0.7,0,1.5,0,2-0.1v-5.7h2.6v7.7C26.5,100.3,24.6,100.5,22.5,100.5z M29.9,100.2
	V85.5h9.4v2.3h-6.6v3.7h6.2v2.2h-6.2v4.2h6.6v2.3H29.9z M46.2,100.5c-1.9,0-3.9-0.3-4.6-0.5V98c1.2,0.1,2.6,0.2,4.4,0.2
	c1.8,0,2.6-0.5,2.6-1.8c0-1-0.4-1.5-1.8-2.1l-2.2-0.9c-2.2-0.9-3.3-2.1-3.3-4.3c0-2.9,1.8-3.9,5.3-3.9c1.9,0,3.6,0.3,4.3,0.5v2.1
	c-1.1-0.1-2.6-0.3-4.2-0.3c-1.7,0-2.7,0.3-2.7,1.5c0,0.9,0.4,1.3,1.9,1.9l2,0.8c2.6,1,3.6,2.1,3.6,4.6
	C51.4,99,49.5,100.5,46.2,100.5z M60,87.8v12.4h-2.8V87.8h-4.4v-2.3h11.6v2.3H60z M66.4,100.2V85.5h2.8v14.7H66.4z M77.6,100.5
	c-3.7,0-6-2-6-6.8V92c0-4.8,2.3-6.8,6-6.8c3.7,0,6.1,2,6.1,6.8v1.7C83.7,98.5,81.4,100.5,77.6,100.5z M80.9,92
	c0-3.3-1.3-4.4-3.3-4.4c-2,0-3.3,1.1-3.3,4.4v1.7c0,3.3,1.3,4.4,3.3,4.4c2,0,3.3-1.1,3.3-4.4V92z M78.2,84.6h-2.5l2.6-3h3.1
	L78.2,84.6z M94.5,100.2l-4.7-8.7c-0.4-0.7-0.8-1.5-1.1-2.2h0c0,0.8,0.1,1.7,0.1,2.6v8.3h-2.5V85.5h3.2l4.7,8.6
	c0.4,0.7,0.8,1.5,1.1,2.2h0c-0.1-0.9-0.1-1.9-0.1-2.8v-8h2.6v14.7H94.5z M25.9,126l-1.3-4.1h-4.7l-1.3,4.1h-2.8l4.5-14.7h4.1
	l4.5,14.7H25.9z M22.8,115.5c-0.2-0.7-0.4-1.5-0.5-2.3h-0.2c-0.2,0.8-0.3,1.6-0.5,2.3l-1.2,4.1h3.7L22.8,115.5z M41.8,126v-8.2
	c0-0.9,0-1.6,0.1-2.5h0c-0.3,0.7-0.7,1.4-1,2l-2.2,4.1h-2.2l-2.1-4.1c-0.3-0.6-0.6-1.3-1-2h0c0,0.9,0.1,1.6,0.1,2.5v8.2h-2.7v-14.7
	h3l3,5.8c0.3,0.6,0.6,1.2,0.9,1.9h0c0.3-0.6,0.6-1.3,0.9-1.9l3-5.7h3V126H41.8z M51.7,126.1c-1.7,0-2.4,0-4.3-0.1v-14.7
	c1.9-0.1,2.7-0.1,4.3-0.1c3.9,0,6.4,0.7,6.4,4v0.2c0,1.3-0.6,2.5-1.9,3.1c1.4,0.6,1.9,1.8,1.9,3.1v0.2
	C58.2,125.4,55.5,126.1,51.7,126.1z M55.5,115.2c0-1.7-1.3-1.8-3.7-1.8h-1.6v4h2.5c2.3,0,2.8-0.8,2.8-2V115.2z M55.5,121.5
	c0-1.3-0.6-2.1-2.9-2.1h-2.5v4.4h0.8c3,0,4.6,0,4.6-2.1V121.5z M60.7,126v-14.7h2.8V126H60.7z M66.5,126v-14.7h9.4v2.3h-6.6v3.7h6.2
	v2.2h-6.2v4.2h6.6v2.3H66.5z M86.6,126l-4.7-8.7c-0.4-0.7-0.8-1.5-1.1-2.2h0c0,0.8,0.1,1.7,0.1,2.6v8.3h-2.5v-14.7h3.2l4.7,8.6
	c0.4,0.7,0.8,1.5,1.1,2.2h0c-0.1-0.9-0.1-1.9-0.1-2.8v-8h2.6V126H86.6z M99,113.5V126h-2.8v-12.4h-4.4v-2.3h11.6v2.3H99z M114.4,126
	l-1.3-4.1h-4.7l-1.3,4.1h-2.8l4.5-14.7h4.1l4.5,14.7H114.4z M111.4,115.5c-0.2-0.7-0.4-1.5-0.5-2.3h-0.2c-0.2,0.8-0.3,1.6-0.5,2.3
	l-1.2,4.1h3.7L111.4,115.5z M119.2,126v-14.7h2.8v12.4h6.2v2.3H119.2z M16.8,166.2v-11.5h2.2v11.5H16.8z M24.8,166.4
	c-1.5,0-3-0.2-3.6-0.4v-1.7c0.9,0.1,2,0.2,3.4,0.2c1.4,0,2.1-0.4,2.1-1.4c0-0.7-0.3-1.2-1.4-1.6l-1.7-0.7c-1.7-0.7-2.6-1.7-2.6-3.3
	c0-2.2,1.4-3,4.1-3c1.5,0,2.8,0.2,3.4,0.4v1.6c-0.9-0.1-2.1-0.2-3.3-0.2c-1.3,0-2.1,0.2-2.1,1.2c0,0.7,0.3,1.1,1.5,1.5l1.6,0.6
	c2,0.8,2.8,1.6,2.8,3.6C28.9,165.2,27.4,166.4,24.8,166.4z M35.1,166.4c-2.9,0-4.7-1.6-4.7-5.3v-1.3c0-3.7,1.8-5.3,4.7-5.3
	c2.9,0,4.7,1.6,4.7,5.3v1.3C39.8,164.8,38,166.4,35.1,166.4z M37.7,159.8c0-2.6-1-3.4-2.6-3.4c-1.6,0-2.6,0.9-2.6,3.4v1.3
	c0,2.6,1,3.4,2.6,3.4c1.6,0,2.6-0.9,2.6-3.4V159.8z M44.5,166.2v-1.6l2.6-0.1v-7.7l-2.6,0.7v-1.7l3.2-1.1h1.5v9.8l2.6,0.1v1.6H44.5z
	 M60.8,163.4v2.8h-2.1v-2.8h-5.4v-1.8l5.5-6.9h2v7h1.6v1.7H60.8z M58.7,157.3l-3.6,4.4h3.6V157.3z M68.3,166.4
	c-2.9,0-4.4-1.8-4.4-5.1v-1.7c0-3.3,1.5-5.1,4.4-5.1s4.4,1.8,4.4,5.1v1.7C72.7,164.6,71.2,166.4,68.3,166.4z M70.5,159.6
	c0-2.6-0.9-3.3-2.2-3.3c-1.3,0-2.2,0.7-2.2,3.3v1.7c0,2.6,0.9,3.3,2.2,3.3c1.3,0,2.2-0.7,2.2-3.3V159.6z M78.6,166.4
	c-2.9,0-4.4-1.8-4.4-5.1v-1.7c0-3.3,1.5-5.1,4.4-5.1s4.4,1.8,4.4,5.1v1.7C83,164.6,81.5,166.4,78.6,166.4z M80.9,159.6
	c0-2.6-0.9-3.3-2.2-3.3c-1.3,0-2.2,0.7-2.2,3.3v1.7c0,2.6,0.9,3.3,2.2,3.3c1.3,0,2.2-0.7,2.2-3.3V159.6z M84.7,166.2v-1.6l2.6-0.1
	v-7.7l-2.6,0.7v-1.7l3.2-1.1h1.5v9.8l2.6,0.1v1.6H84.7z M131.5,36.9c0-6.6,4.4-11.3,10.6-11.3s10.6,4.7,10.6,11.3
	c0,6.6-4.4,11.3-10.6,11.3S131.5,43.5,131.5,36.9z M216.7,0v183.2H0V0H216.7z M165.1,53.9h7.3V26.4h7.9c3.7,0,5.9,2,5.9,5.4
	c0,3.4-2.1,5.4-5.7,5.4h-4.2l9.4,16.6h7.9L186.6,42c5.2-1.3,7.4-5.5,7.4-10.2c0-7.5-5.1-12-13.7-12h-15.3V53.9z M123.5,36.9
	c0,10.7,7.7,18.3,18.5,18.3s18.5-7.6,18.5-18.3s-7.7-18.3-18.5-18.3S123.5,26.1,123.5,36.9z M86.7,53.9h16.6l-4.8-6.5h-4.4V30.9
	l17.1,23h7.8v-34h-16.6l4.8,6.5h4.5v16.5l-17.1-23h-7.8V53.9z M55.4,53.9h26.3l-2.3-6.5H62.7v-7.2h13.1v-6.5H62.7v-7.3h16.1l2.3-6.5
	H55.4V53.9z M16.9,53.9h7.8l10.2-27.6l5.2,14.3l-5.8,0L32,47.1h10.5l2.5,6.8h7.8l-13.3-34h-9.4L16.9,53.9z M211.1,143H5.5v34.7
	h205.6V143z M211.1,74.1l-205.6,0h0v63.2l205.6,0V74.1z"/>
<path d="M0.3,204.3l0.6-1.5c0.3,0.2,0.7,0.4,1.2,0.6s0.9,0.2,1.3,0.2c0.6,0,1.2-0.2,1.6-0.6s0.6-0.8,0.6-1.4c0-0.4-0.1-0.8-0.3-1.2
	c-0.2-0.3-0.8-0.8-1.7-1.2l-1-0.5c-0.8-0.4-1.4-0.8-1.7-1.4c-0.4-0.3-0.6-1-0.6-1.7c0-0.9,0.3-1.7,1-2.3c0.6-0.6,1.5-0.9,2.5-0.9
	c1.3,0,2.3,0.2,2.9,0.7L6,194.6c-0.2-0.1-0.6-0.3-1-0.5s-0.9-0.2-1.3-0.2c-0.6,0-1,0.1-1.3,0.5c-0.3,0.3-0.5,0.8-0.5,1.3
	c0,0.3,0.1,0.6,0.2,0.8c0.1,0.3,0.3,0.5,0.5,0.6c0.2,0.1,0.6,0.4,1.3,0.7l1,0.5c0.8,0.4,1.4,0.8,1.7,1.4s0.5,1.3,0.5,2.1
	c0,0.9-0.3,1.7-1.1,2.4c-0.8,0.6-1.7,1-3,1C1.9,205.1,1,204.8,0.3,204.3 M12.6,197.1c0.8,0,1.4,0.2,1.7,0.7c0.4,0.4,0.6,1,0.6,1.6
	h-5c0.1-0.6,0.3-1.2,0.8-1.6C11.3,197.3,11.9,197.1,12.6,197.1 M16.5,200.6c0.1-0.3,0.1-0.6,0.1-0.8c0-1.2-0.3-2.1-1-2.8
	c-0.7-0.8-1.7-1.1-3-1.1c-1.1,0-2,0.4-2.9,1.2c-0.9,0.9-1.3,2.1-1.3,3.6c0,1.5,0.4,2.6,1.3,3.4c0.8,0.8,1.7,1.1,2.9,1.1
	c0.8,0,1.5-0.1,2.2-0.3c0.5-0.1,0.8-0.3,1.1-0.6l-0.7-1.1c-0.6,0.5-1.4,0.8-2.3,0.8c-0.8,0-1.5-0.3-2-0.8c-0.6-0.6-0.8-1.4-0.8-2.4
	H16.5 M23.9,195.9c-0.6-0.1-1-0.1-1.3-0.1c-1.1,0-2,0.6-2.6,1.6v-1.5h-1.6v9h1.6v-5.2c0-0.8,0.2-1.4,0.6-1.9
	c0.4-0.5,0.9-0.8,1.5-0.8c0.3,0,0.7,0.1,1,0.3L23.9,195.9z M30.5,195.9l-2.4,6.3l-2.4-6.3H24l3.8,9.2h0.4l3.9-9.2H30.5z M35.1,192.5
	c-0.3,0-0.6,0.1-0.7,0.3c-0.2,0.2-0.3,0.4-0.3,0.7s0.1,0.5,0.3,0.7c0.2,0.2,0.4,0.3,0.7,0.3s0.5-0.1,0.7-0.3
	c0.2-0.2,0.3-0.4,0.3-0.7s-0.1-0.5-0.3-0.7C35.6,192.6,35.4,192.5,35.1,192.5 M35.8,204.9v-9h-2.9v1.3h1.3v7.7H35.8z M45.1,196.7
	c-0.2-0.2-0.6-0.4-1.2-0.7c-0.6-0.2-1-0.3-1.5-0.3c-1.5,0-2.6,0.5-3.4,1.3c-0.8,0.8-1.3,2-1.3,3.4c0,1.4,0.4,2.5,1.2,3.4
	c0.8,0.8,1.8,1.3,3.1,1.3c1.3,0,2.4-0.3,3.2-0.8l-0.6-1.3c-0.7,0.6-1.5,0.8-2.2,0.8c-0.9,0-1.7-0.3-2.2-0.8
	c-0.5-0.5-0.8-1.3-0.8-2.4c0-1,0.3-1.9,0.8-2.5c0.6-0.6,1.3-0.9,2.1-0.9c0.3,0,0.8,0.1,1.2,0.2c0.4,0.1,0.7,0.3,0.8,0.5L45.1,196.7
	 M48.5,192.5c-0.3,0-0.6,0.1-0.7,0.3c-0.2,0.2-0.3,0.4-0.3,0.7s0.1,0.5,0.3,0.7c0.2,0.2,0.4,0.3,0.7,0.3c0.3,0,0.5-0.1,0.7-0.3
	c0.2-0.2,0.3-0.4,0.3-0.7s-0.1-0.5-0.3-0.7C49,192.6,48.8,192.5,48.5,192.5 M49.2,204.9v-9h-2.8v1.3h1.2v7.7H49.2z M52.8,200.4
	c0-1,0.2-1.8,0.6-2.4c0.4-0.6,1-0.9,1.7-0.9c1.6,0,2.4,1.1,2.4,3.4c0,1-0.2,1.8-0.6,2.4c-0.4,0.6-1,0.9-1.7,0.9
	C53.6,203.7,52.8,202.6,52.8,200.4 M51.1,200.4c0,1.5,0.3,2.6,1,3.5c0.7,0.8,1.7,1.3,3,1.3c1.3,0,2.3-0.4,3-1.3
	c0.8-0.8,1.1-2,1.1-3.4c0-1.5-0.3-2.6-1-3.4c-0.7-0.8-1.7-1.3-3-1.3c-1.2,0-2.2,0.4-2.9,1.3C51.5,197.8,51.1,199,51.1,200.4
	 M60.4,204.3c0.8,0.5,1.7,0.7,2.6,0.8c1,0,1.8-0.2,2.4-0.7c0.6-0.4,0.8-1,0.8-1.9c0-0.6-0.1-1.1-0.5-1.5s-0.8-0.8-1.5-1.1l-1.1-0.5
	c-0.6-0.3-1-0.8-1-1.3c0-0.3,0.1-0.5,0.4-0.7c0.3-0.2,0.6-0.3,1-0.3c0.6,0,1.3,0.3,1.9,0.8l0.5-1.5c-1-0.4-1.8-0.6-2.4-0.6
	c-0.8,0-1.5,0.2-2.1,0.6c-0.6,0.4-0.8,1-0.8,1.7c0,0.3,0.1,0.6,0.1,0.8s0.2,0.5,0.4,0.7s0.4,0.4,0.7,0.6c0.2,0.2,0.7,0.4,1.5,0.8
	c0.9,0.4,1.4,1,1.4,1.5c0,0.8-0.5,1.3-1.5,1.3c-0.6,0-1.3-0.3-2.2-0.9L60.4,204.3 M81.1,193c-0.8-0.4-1.8-0.6-3.1-0.7
	c-1.6,0-2.9,0.6-3.8,1.8s-1.5,2.8-1.5,4.6c0,2,0.5,3.4,1.4,4.6c0.9,1.2,2.2,1.7,3.8,1.7c1.5,0,2.8-0.5,3.8-1.5l-0.9-1.3
	c-0.6,0.8-1.5,1.3-2.7,1.3c-1,0-1.9-0.5-2.6-1.3c-0.6-0.9-1-2-1-3.4c0-1.5,0.3-2.7,1-3.6c0.6-0.9,1.5-1.4,2.6-1.4
	c1.1,0,2,0.1,2.5,0.6L81.1,193 M87.1,197.1c0.8,0,1.3,0.2,1.7,0.7c0.4,0.4,0.6,1,0.6,1.6h-5c0.1-0.6,0.3-1.2,0.8-1.6
	C85.8,197.3,86.4,197.1,87.1,197.1 M90.9,200.6c0.1-0.3,0.1-0.6,0.1-0.8c0-1.2-0.3-2.1-1-2.8c-0.7-0.8-1.7-1.1-3-1.1
	c-1.1,0-2,0.4-2.9,1.2c-0.9,0.9-1.3,2.1-1.3,3.6c0,1.5,0.4,2.6,1.3,3.4c0.8,0.8,1.7,1.1,2.9,1.1c0.8,0,1.5-0.1,2.2-0.3
	c0.5-0.1,0.8-0.3,1.1-0.6l-0.7-1.1c-0.6,0.5-1.4,0.8-2.3,0.8c-0.8,0-1.5-0.3-2-0.8c-0.6-0.6-0.8-1.4-0.8-2.4H90.9 M98.3,205h1.6
	v-5.6c0-2.4-1-3.6-2.9-3.6c-1.2,0-2,0.4-2.6,1.3l-0.5-1.2h-1.1v9h1.6v-6.7c0.2-0.3,0.5-0.6,0.9-0.8c0.3-0.2,0.8-0.3,1.1-0.3
	c0.7,0,1.2,0.2,1.5,0.6c0.3,0.4,0.4,1,0.4,2V205L98.3,205z M102.6,197.1v5.2c0,0.8,0.3,1.5,0.8,2c0.5,0.5,1.1,0.8,1.8,0.8
	c0.8,0,1.5-0.1,2.2-0.3l-0.2-1.4c-0.4,0.2-0.8,0.3-1.3,0.3c-0.6,0-1-0.1-1.3-0.5c-0.2-0.3-0.3-0.8-0.3-1.6v-4.5h2.4v-1.3h-2.4v-2.5
	l-1.6,0.6v1.9h-1v1.3H102.6L102.6,197.1z M114.5,195.9c-0.6-0.1-1-0.1-1.3-0.1c-1.1,0-2,0.6-2.6,1.6v-1.5h-1.6v9h1.6v-5.2
	c0-0.8,0.2-1.4,0.6-1.9c0.4-0.5,0.9-0.8,1.5-0.8c0.3,0,0.7,0.1,1,0.3L114.5,195.9z M120.7,200.5v2.2c-0.6,0.8-1.3,1.1-2.2,1.1
	c-1.1,0-1.7-0.5-1.7-1.4c0-0.6,0.3-1,0.8-1.5s1.1-0.6,2-0.6C119.7,200.4,120.1,200.4,120.7,200.5L120.7,200.5z M120.7,203.9
	c0.1,0.4,0.3,0.8,0.7,1c0.3,0.2,0.8,0.3,1.5,0.3v-0.8c-0.5-0.3-0.7-0.8-0.7-1.6v-3.2c0-1.3-0.3-2.3-0.9-2.9
	c-0.6-0.6-1.5-0.9-2.9-0.9c-0.5,0-1,0.1-1.5,0.3c-0.6,0.1-1,0.3-1.3,0.6l0.7,1.3c0.6-0.6,1.3-0.8,2.3-0.8c1.3,0,2,0.7,2,2.2
	c-0.4-0.1-0.8-0.2-1.1-0.2c-1.3,0-2.3,0.3-3.1,1c-0.8,0.6-1.2,1.4-1.2,2.3c0,0.8,0.3,1.4,0.8,1.9c0.5,0.5,1.1,0.8,1.8,0.8
	C119.1,205,120.1,204.6,120.7,203.9 M124.8,202.4c0,1.7,1,2.7,3.1,2.7v-1.4c-0.5,0-0.8-0.1-1.1-0.4c-0.3-0.3-0.4-0.6-0.4-1.1v-9.9
	h-1.6V202.4 M133.4,197.1c0.8,0,1.4,0.2,1.7,0.7c0.4,0.4,0.6,1,0.6,1.6h-5c0.1-0.6,0.3-1.2,0.8-1.6
	C132.1,197.3,132.7,197.1,133.4,197.1 M137.3,200.6c0.1-0.3,0.1-0.6,0.1-0.8c0-1.2-0.3-2.1-1-2.8c-0.7-0.8-1.7-1.1-3-1.1
	c-1.1,0-2,0.4-2.9,1.2c-0.9,0.9-1.3,2.1-1.3,3.6c0,1.5,0.4,2.6,1.3,3.4c0.8,0.8,1.7,1.1,2.9,1.1c0.8,0,1.5-0.1,2.2-0.3
	c0.5-0.1,0.8-0.3,1.1-0.6l-0.7-1.1c-0.6,0.5-1.4,0.8-2.3,0.8c-0.8,0-1.5-0.3-2-0.8c-0.6-0.6-0.8-1.4-0.8-2.4H137.3 M138.5,204.3
	c0.8,0.5,1.7,0.7,2.6,0.8c1,0,1.8-0.2,2.4-0.7c0.6-0.4,0.8-1,0.8-1.9c0-0.6-0.1-1.1-0.5-1.5c-0.3-0.4-0.8-0.8-1.5-1.1l-1.1-0.5
	c-0.6-0.3-1-0.8-1-1.3c0-0.3,0.1-0.5,0.4-0.7s0.6-0.3,1-0.3c0.6,0,1.3,0.3,1.9,0.8l0.5-1.5c-1-0.4-1.8-0.6-2.4-0.6
	c-0.8,0-1.5,0.2-2.1,0.6c-0.6,0.4-0.8,1-0.8,1.7c0,0.3,0.1,0.5,0.1,0.8c0.1,0.2,0.2,0.5,0.4,0.7s0.4,0.4,0.7,0.6
	c0.2,0.2,0.7,0.4,1.5,0.8c0.9,0.4,1.4,1,1.4,1.5c0,0.8-0.5,1.3-1.5,1.3c-0.6,0-1.3-0.3-2.2-0.9L138.5,204.3 M152.4,201.1h3.6
	l-1.7-5.5L152.4,201.1z M154.6,192.4l4.6,12.5h-1.9l-0.8-2.6h-4.6l-0.9,2.6h-1.9l5-12.5H154.6z M172.7,193c-0.8-0.4-1.8-0.6-3.1-0.7
	c-1.6,0-2.9,0.6-3.8,1.8c-1,1.3-1.5,2.8-1.5,4.6c0,2,0.5,3.4,1.4,4.6c0.9,1.2,2.2,1.7,3.8,1.7c1.5,0,2.8-0.5,3.8-1.5l-0.9-1.3
	c-0.6,0.8-1.5,1.3-2.7,1.3c-1,0-1.9-0.5-2.6-1.3c-0.6-0.9-1-2-1-3.4c0-1.5,0.3-2.7,1-3.6c0.6-0.9,1.5-1.4,2.6-1.4
	c1.1,0,2,0.1,2.5,0.6L172.7,193 M176,200.4c0-1,0.2-1.8,0.6-2.4c0.4-0.6,1-0.9,1.7-0.9c1.6,0,2.4,1.1,2.4,3.4c0,1-0.2,1.8-0.6,2.4
	c-0.4,0.6-1,0.9-1.7,0.9C176.8,203.7,176,202.6,176,200.4 M174.3,200.4c0,1.5,0.3,2.6,1,3.5c0.7,0.8,1.7,1.3,3,1.3
	c1.3,0,2.3-0.4,3-1.3c0.8-0.8,1.1-2,1.1-3.4c0-1.5-0.3-2.6-1-3.4c-0.7-0.8-1.7-1.3-3-1.3c-1.2,0-2.2,0.4-2.9,1.3
	C174.7,197.8,174.3,199,174.3,200.4 M189.8,195.9c-0.6-0.1-1-0.1-1.3-0.1c-1.1,0-2,0.6-2.6,1.6v-1.5h-1.6v9h1.6v-5.2
	c0-0.8,0.2-1.4,0.6-1.9c0.4-0.5,0.9-0.8,1.5-0.8c0.3,0,0.7,0.1,1,0.3L189.8,195.9z M190.8,195.9v5.9c0,1,0.3,1.8,0.8,2.4
	c0.5,0.6,1.3,0.8,2.2,0.8c0.6,0,1-0.1,1.6-0.4c0.5-0.3,0.8-0.6,1-1v1.3h1.6v-9h-1.6v6.3c-0.1,0.4-0.4,0.8-0.8,1
	c-0.5,0.3-0.9,0.5-1.5,0.5c-1.2,0-1.8-0.7-1.8-2.1v-5.7H190.8z M206.2,192.5h-0.8c-0.1,0.4-0.5,0.6-0.9,0.6c-0.2,0-0.5-0.1-0.9-0.3
	c-0.3-0.2-0.8-0.3-1.3-0.3c-0.3,0-0.7,0.1-1,0.5c-0.3,0.3-0.5,0.7-0.6,1.2h0.8c0.2-0.4,0.5-0.6,0.9-0.6c0.2,0,0.5,0.1,0.9,0.3
	c0.4,0.2,0.8,0.3,1.2,0.3C205.4,194.1,206,193.6,206.2,192.5L206.2,192.5z M205.7,205h1.6v-5.6c0-2.4-1-3.6-2.9-3.6
	c-1.2,0-2,0.4-2.6,1.3l-0.5-1.2h-1.1v9h1.6v-6.7c0.2-0.3,0.5-0.6,0.9-0.8c0.3-0.2,0.8-0.3,1.1-0.3c0.7,0,1.2,0.2,1.5,0.6
	c0.3,0.4,0.4,1,0.4,2V205L205.7,205z M214.6,200.5v2.2c-0.6,0.8-1.3,1.1-2.2,1.1c-1.1,0-1.7-0.5-1.7-1.4c0-0.6,0.3-1,0.8-1.5
	c0.5-0.4,1.1-0.6,2-0.6C213.7,200.4,214,200.4,214.6,200.5L214.6,200.5z M214.7,203.9c0.1,0.4,0.4,0.8,0.7,1
	c0.3,0.2,0.8,0.3,1.5,0.3v-0.8c-0.5-0.3-0.7-0.8-0.7-1.6v-3.2c0-1.3-0.3-2.3-0.9-2.9c-0.6-0.6-1.5-0.9-2.9-0.9c-0.5,0-1,0.1-1.5,0.3
	c-0.6,0.1-1,0.3-1.3,0.6l0.7,1.3c0.6-0.6,1.3-0.8,2.3-0.8c1.3,0,2,0.7,2,2.2c-0.4-0.1-0.8-0.2-1.1-0.2c-1.3,0-2.3,0.3-3.1,1
	c-0.8,0.6-1.2,1.4-1.2,2.3c0,0.8,0.3,1.4,0.8,1.9c0.5,0.5,1.1,0.8,1.8,0.8C213.1,205,214,204.6,214.7,203.9"/>
</svg>
