<?xml version="1.0" encoding="UTF-8"?>
<svg id="Capa_2" data-name="Capa 2" xmlns="http://www.w3.org/2000/svg" viewBox="0 0 686.75 154.36">
  <defs>
    <style>
      .cls-1 {
        fill: #1d1d1b;
      }
    </style>
  </defs>
  <g id="Capa_1-2" data-name="Capa 1">
    <g>
      <path class="cls-1" d="M6.48,115.67l-5.93,12.98h1.43l1.55-3.47h7.24l1.55,3.47h1.45l-5.93-12.98h-1.35ZM4.02,124.07l3.12-6.98,3.12,6.98h-6.25Z"/>
      <path class="cls-1" d="M22.75,122.55c-.48-.25-1-.46-1.56-.62-.56-.16-1.13-.31-1.7-.44s-1.09-.29-1.57-.46c-.48-.17-.86-.41-1.15-.72-.29-.31-.44-.72-.44-1.22,0-.44.12-.84.36-1.2.24-.35.61-.63,1.12-.84s1.15-.32,1.93-.32c.58,0,1.18.09,1.81.26s1.21.44,1.77.82l.46-1.09c-.52-.36-1.14-.64-1.85-.84s-1.44-.31-2.17-.31c-1.1,0-2,.16-2.71.49-.71.33-1.23.76-1.57,1.3s-.51,1.13-.51,1.77c0,.69.15,1.25.44,1.68.29.43.67.77,1.15,1.03.48.26,1,.47,1.57.62.57.15,1.14.3,1.71.44.57.14,1.09.29,1.56.47.47.18.85.42,1.14.73.29.31.44.72.44,1.22,0,.42-.12.8-.36,1.15-.24.35-.62.62-1.13.83s-1.18.31-1.99.31-1.67-.15-2.44-.45c-.77-.3-1.39-.68-1.84-1.12l-.54,1.06c.48.49,1.17.9,2.05,1.21.88.32,1.81.47,2.77.47,1.11,0,2.02-.16,2.74-.49.71-.33,1.24-.76,1.58-1.3.35-.54.52-1.12.52-1.75,0-.68-.15-1.23-.44-1.65-.29-.42-.67-.76-1.15-1.01Z"/>
      <path class="cls-1" d="M37.86,117.43c-.61-.59-1.33-1.05-2.16-1.38s-1.73-.49-2.71-.49-1.9.16-2.73.49c-.83.33-1.55.79-2.16,1.39-.61.6-1.09,1.3-1.43,2.1-.34.8-.51,1.67-.51,2.62s.17,1.83.51,2.62c.34.8.82,1.5,1.43,2.09.61.6,1.33,1.06,2.17,1.39.83.33,1.74.49,2.72.49s1.88-.16,2.71-.49c.83-.33,1.55-.79,2.16-1.38.61-.59,1.09-1.29,1.43-2.1.34-.8.51-1.68.51-2.63s-.17-1.83-.51-2.63-.82-1.5-1.43-2.1ZM38.02,124.3c-.27.65-.65,1.22-1.14,1.71s-1.06.87-1.72,1.13c-.66.27-1.38.4-2.16.4s-1.5-.13-2.17-.4c-.67-.27-1.25-.64-1.73-1.13s-.87-1.06-1.15-1.71c-.28-.66-.42-1.37-.42-2.13s.14-1.49.42-2.14c.28-.65.66-1.22,1.15-1.71.49-.49,1.07-.87,1.73-1.13.67-.27,1.39-.4,2.17-.4s1.5.13,2.16.4c.66.27,1.24.64,1.72,1.13.49.49.87,1.06,1.14,1.71.27.65.41,1.36.41,2.14s-.14,1.49-.41,2.14Z"/>
      <path class="cls-1" d="M44.66,118.31c.49-.49,1.08-.87,1.74-1.13.67-.27,1.39-.4,2.17-.4s1.43.12,2.08.36,1.23.63,1.76,1.18l.87-.87c-.57-.63-1.27-1.1-2.09-1.42s-1.71-.47-2.65-.47-1.88.16-2.71.49c-.83.33-1.55.79-2.16,1.38-.61.59-1.09,1.29-1.43,2.1s-.51,1.68-.51,2.63.17,1.83.51,2.63c.34.8.81,1.5,1.42,2.1s1.32,1.05,2.15,1.38c.83.33,1.73.49,2.71.49s1.84-.16,2.67-.48,1.53-.8,2.09-1.43l-.87-.87c-.53.54-1.12.94-1.76,1.19s-1.33.37-2.08.37c-.78,0-1.5-.13-2.17-.4-.67-.27-1.25-.64-1.74-1.13s-.88-1.06-1.16-1.71c-.28-.65-.42-1.36-.42-2.14s.14-1.49.42-2.14c.28-.65.66-1.22,1.16-1.71Z"/>
      <rect class="cls-1" x="56.21" y="115.67" width="1.37" height="12.98"/>
      <path class="cls-1" d="M65.67,115.67l-5.93,12.98h1.43l1.55-3.47h7.24l1.55,3.47h1.45l-5.93-12.98h-1.35ZM63.21,124.07l3.12-6.98,3.12,6.98h-6.25Z"/>
      <path class="cls-1" d="M76.7,118.31c.49-.49,1.08-.87,1.74-1.13.67-.27,1.39-.4,2.17-.4s1.43.12,2.08.36,1.23.63,1.76,1.18l.87-.87c-.57-.63-1.27-1.1-2.09-1.42s-1.71-.47-2.65-.47-1.88.16-2.71.49c-.83.33-1.55.79-2.16,1.38-.61.59-1.09,1.29-1.43,2.1s-.51,1.68-.51,2.63.17,1.83.51,2.63c.34.8.81,1.5,1.42,2.1s1.32,1.05,2.15,1.38c.83.33,1.73.49,2.71.49s1.84-.16,2.67-.48,1.53-.8,2.09-1.43l-.87-.87c-.53.54-1.12.94-1.76,1.19s-1.33.37-2.08.37c-.78,0-1.5-.13-2.17-.4-.67-.27-1.25-.64-1.74-1.13s-.88-1.06-1.16-1.71c-.28-.65-.42-1.36-.42-2.14s.14-1.49.42-2.14c.28-.65.66-1.22,1.16-1.71Z"/>
      <rect class="cls-1" x="88.25" y="115.67" width="1.37" height="12.98"/>
      <polygon class="cls-1" points="102.62 112.31 100.86 112.31 98.32 114.61 99.62 114.61 102.62 112.31"/>
      <path class="cls-1" d="M104.39,117.43c-.61-.59-1.33-1.05-2.16-1.38s-1.73-.49-2.71-.49-1.9.16-2.73.49c-.83.33-1.55.79-2.16,1.39-.61.6-1.09,1.3-1.43,2.1-.34.8-.51,1.67-.51,2.62s.17,1.83.51,2.62c.34.8.82,1.5,1.43,2.09.61.6,1.33,1.06,2.17,1.39.83.33,1.74.49,2.72.49s1.88-.16,2.71-.49c.83-.33,1.55-.79,2.16-1.38.61-.59,1.09-1.29,1.43-2.1.34-.8.51-1.68.51-2.63s-.17-1.83-.51-2.63-.82-1.5-1.43-2.1ZM104.55,124.3c-.27.65-.65,1.22-1.14,1.71s-1.06.87-1.72,1.13c-.66.27-1.38.4-2.16.4s-1.5-.13-2.17-.4c-.67-.27-1.25-.64-1.73-1.13s-.87-1.06-1.15-1.71c-.28-.66-.42-1.37-.42-2.13s.14-1.49.42-2.14c.28-.65.66-1.22,1.15-1.71.49-.49,1.07-.87,1.73-1.13.67-.27,1.39-.4,2.17-.4s1.5.13,2.16.4c.66.27,1.24.64,1.72,1.13.49.49.87,1.06,1.14,1.71.27.65.41,1.36.41,2.14s-.14,1.49-.41,2.14Z"/>
      <polygon class="cls-1" points="118.9 126.19 110.54 115.67 109.41 115.67 109.41 128.65 110.78 128.65 110.78 118.12 119.12 128.65 120.25 128.65 120.25 115.67 118.9 115.67 118.9 126.19"/>
      <polygon class="cls-1" points="138.83 126.19 130.47 115.67 129.34 115.67 129.34 128.65 130.71 128.65 130.71 118.12 139.05 128.65 140.19 128.65 140.19 115.67 138.83 115.67 138.83 126.19"/>
      <path class="cls-1" d="M145.32,125.18h7.24l1.55,3.47h1.45l-5.93-12.98h-1.35l-5.93,12.98h1.43l1.55-3.47ZM148.94,117.08l3.12,6.98h-6.25l3.12-6.98Z"/>
      <path class="cls-1" d="M167.05,125.98c-.53.54-1.12.94-1.76,1.19s-1.33.37-2.08.37c-.78,0-1.5-.13-2.17-.4-.67-.27-1.25-.64-1.74-1.13s-.88-1.06-1.16-1.71c-.28-.65-.42-1.36-.42-2.14s.14-1.49.42-2.14c.28-.65.66-1.22,1.16-1.71.49-.49,1.08-.87,1.74-1.13.67-.27,1.39-.4,2.17-.4s1.43.12,2.08.36,1.23.63,1.76,1.18l.87-.87c-.57-.63-1.27-1.1-2.09-1.42s-1.71-.47-2.65-.47-1.88.16-2.71.49c-.83.33-1.55.79-2.16,1.38-.61.59-1.09,1.29-1.43,2.1s-.51,1.68-.51,2.63.17,1.83.51,2.63c.34.8.81,1.5,1.42,2.1s1.32,1.05,2.15,1.38c.83.33,1.73.49,2.71.49s1.84-.16,2.67-.48,1.53-.8,2.09-1.43l-.87-.87Z"/>
      <rect class="cls-1" x="170.85" y="115.67" width="1.37" height="12.98"/>
      <path class="cls-1" d="M187,126.88c.61-.59,1.09-1.29,1.43-2.1.34-.8.51-1.68.51-2.63s-.17-1.83-.51-2.63-.82-1.5-1.43-2.1c-.61-.59-1.33-1.05-2.16-1.38s-1.73-.49-2.71-.49-1.9.16-2.73.49c-.83.33-1.55.79-2.16,1.39-.61.6-1.09,1.3-1.43,2.1-.34.8-.51,1.67-.51,2.62s.17,1.83.51,2.62c.34.8.82,1.5,1.43,2.09.61.6,1.33,1.06,2.17,1.39.83.33,1.74.49,2.72.49s1.88-.16,2.71-.49c.83-.33,1.55-.79,2.16-1.38ZM182.13,127.53c-.78,0-1.5-.13-2.17-.4-.67-.27-1.25-.64-1.73-1.13s-.87-1.06-1.15-1.71c-.28-.66-.42-1.37-.42-2.13s.14-1.49.42-2.14c.28-.65.66-1.22,1.15-1.71.49-.49,1.07-.87,1.73-1.13.67-.27,1.39-.4,2.17-.4s1.5.13,2.16.4c.66.27,1.24.64,1.72,1.13.49.49.87,1.06,1.14,1.71.27.65.41,1.36.41,2.14s-.14,1.49-.41,2.14c-.27.65-.65,1.22-1.14,1.71s-1.06.87-1.72,1.13c-.66.27-1.38.4-2.16.4Z"/>
      <polygon class="cls-1" points="201.5 126.19 193.14 115.67 192.01 115.67 192.01 128.65 193.38 128.65 193.38 118.12 201.73 128.65 202.86 128.65 202.86 115.67 201.5 115.67 201.5 126.19"/>
      <path class="cls-1" d="M215.23,125.18l1.55,3.47h1.45l-5.93-12.98h-1.35l-5.93,12.98h1.43l1.55-3.47h7.24ZM211.61,117.08l3.12,6.98h-6.25l3.12-6.98Z"/>
      <polygon class="cls-1" points="221.75 115.67 220.38 115.67 220.38 128.65 229.02 128.65 229.02 127.46 221.75 127.46 221.75 115.67"/>
      <path class="cls-1" d="M245.09,127.82c1.04-.55,1.86-1.31,2.44-2.29s.87-2.1.87-3.38-.29-2.4-.87-3.37-1.39-1.74-2.44-2.29c-1.04-.55-2.26-.83-3.64-.83h-5.28v12.98h5.28c1.38,0,2.6-.28,3.64-.83ZM237.53,127.46v-10.61h3.84c1.15,0,2.15.23,2.99.68s1.5,1.07,1.98,1.86c.47.79.7,1.71.7,2.76s-.24,1.96-.7,2.75c-.47.8-1.13,1.42-1.98,1.87s-1.84.68-2.99.68h-3.84Z"/>
      <polygon class="cls-1" points="252.85 122.64 259.56 122.64 259.56 121.47 252.85 121.47 252.85 116.85 260.37 116.85 260.37 115.67 251.47 115.67 251.47 128.65 260.65 128.65 260.65 127.46 252.85 127.46 252.85 122.64"/>
      <path class="cls-1" d="M270.52,118.31c.49-.49,1.08-.87,1.74-1.13.67-.27,1.39-.4,2.17-.4s1.43.12,2.08.36,1.23.63,1.76,1.18l.87-.87c-.57-.63-1.27-1.1-2.09-1.42s-1.71-.47-2.65-.47-1.88.16-2.71.49c-.83.33-1.55.79-2.16,1.38-.61.59-1.09,1.29-1.43,2.1s-.51,1.68-.51,2.63.17,1.83.51,2.63c.34.8.81,1.5,1.42,2.1s1.32,1.05,2.15,1.38c.83.33,1.73.49,2.71.49s1.84-.16,2.67-.48,1.53-.8,2.09-1.43l-.87-.87c-.53.54-1.12.94-1.76,1.19s-1.33.37-2.08.37c-.78,0-1.5-.13-2.17-.4-.67-.27-1.25-.64-1.74-1.13s-.88-1.06-1.16-1.71c-.28-.65-.42-1.36-.42-2.14s.14-1.49.42-2.14c.28-.65.66-1.22,1.16-1.71Z"/>
      <polygon class="cls-1" points="283.44 122.64 290.15 122.64 290.15 121.47 283.44 121.47 283.44 116.85 290.97 116.85 290.97 115.67 282.07 115.67 282.07 128.65 291.25 128.65 291.25 127.46 283.44 127.46 283.44 122.64"/>
      <polygon class="cls-1" points="305.32 115.67 303.97 115.67 303.97 126.19 295.6 115.67 294.47 115.67 294.47 128.65 295.85 128.65 295.85 118.12 304.19 128.65 305.32 128.65 305.32 115.67"/>
      <polygon class="cls-1" points="307.51 116.85 312.07 116.85 312.07 128.65 313.44 128.65 313.44 116.85 318 116.85 318 115.67 307.51 115.67 307.51 116.85"/>
      <path class="cls-1" d="M321.56,124.53h3.49c.37,0,.71-.03,1.04-.07l2.96,4.18h1.5l-3.18-4.46c.17-.06.34-.12.51-.19.79-.35,1.4-.86,1.83-1.52.43-.66.64-1.45.64-2.36s-.21-1.74-.64-2.4c-.43-.66-1.04-1.17-1.83-1.52s-1.74-.53-2.84-.53h-4.86v12.98h1.37v-4.12ZM327.97,117.71c.67.57,1.01,1.37,1.01,2.41s-.34,1.82-1.01,2.39c-.67.57-1.66.85-2.96.85h-3.45v-6.51h3.45c1.3,0,2.28.28,2.96.85Z"/>
      <path class="cls-1" d="M345.57,119.52c-.34-.8-.82-1.5-1.43-2.1-.61-.59-1.33-1.05-2.16-1.38s-1.73-.49-2.71-.49-1.9.16-2.73.49c-.83.33-1.55.79-2.16,1.39-.61.6-1.09,1.3-1.43,2.1-.34.8-.51,1.67-.51,2.62s.17,1.83.51,2.62c.34.8.82,1.5,1.43,2.09.61.6,1.33,1.06,2.17,1.39.83.33,1.74.49,2.72.49s1.88-.16,2.71-.49c.83-.33,1.55-.79,2.16-1.38.61-.59,1.09-1.29,1.43-2.1.34-.8.51-1.68.51-2.63s-.17-1.83-.51-2.63ZM344.29,124.3c-.27.65-.65,1.22-1.14,1.71s-1.06.87-1.72,1.13c-.66.27-1.38.4-2.16.4s-1.5-.13-2.17-.4c-.67-.27-1.25-.64-1.73-1.13s-.87-1.06-1.15-1.71c-.28-.66-.42-1.37-.42-2.13s.14-1.49.42-2.14c.28-.65.66-1.22,1.15-1.71.49-.49,1.07-.87,1.73-1.13.67-.27,1.39-.4,2.17-.4s1.5.13,2.16.4c.66.27,1.24.64,1.72,1.13.49.49.87,1.06,1.14,1.71.27.65.41,1.36.41,2.14s-.14,1.49-.41,2.14Z"/>
      <path class="cls-1" d="M355.99,122.55c-.48-.25-1-.46-1.56-.62-.56-.16-1.13-.31-1.7-.44s-1.09-.29-1.57-.46c-.48-.17-.86-.41-1.15-.72-.29-.31-.44-.72-.44-1.22,0-.44.12-.84.36-1.2.24-.35.61-.63,1.12-.84s1.15-.32,1.93-.32c.58,0,1.18.09,1.81.26s1.21.44,1.77.82l.46-1.09c-.52-.36-1.14-.64-1.85-.84s-1.44-.31-2.17-.31c-1.1,0-2,.16-2.71.49-.71.33-1.23.76-1.57,1.3s-.51,1.13-.51,1.77c0,.69.15,1.25.44,1.68.29.43.67.77,1.15,1.03.48.26,1,.47,1.57.62.57.15,1.14.3,1.71.44.57.14,1.09.29,1.56.47.47.18.85.42,1.14.73.29.31.44.72.44,1.22,0,.42-.12.8-.36,1.15-.24.35-.62.62-1.13.83s-1.18.31-1.99.31-1.67-.15-2.44-.45c-.77-.3-1.39-.68-1.84-1.12l-.54,1.06c.48.49,1.17.9,2.05,1.21.88.32,1.81.47,2.77.47,1.11,0,2.02-.16,2.74-.49.71-.33,1.24-.76,1.58-1.3.35-.54.52-1.12.52-1.75,0-.68-.15-1.23-.44-1.65-.29-.42-.67-.76-1.15-1.01Z"/>
      <polygon class="cls-1" points="368.51 128.65 369.86 128.65 369.86 124.16 375.06 115.67 373.69 115.67 369.23 122.95 364.78 115.67 363.32 115.67 368.51 124.16 368.51 128.65"/>
      <path class="cls-1" d="M386.9,124.55c1.1,0,2.05-.18,2.84-.54s1.4-.87,1.83-1.53c.43-.66.64-1.45.64-2.36s-.21-1.74-.64-2.4c-.43-.66-1.04-1.17-1.83-1.52s-1.74-.53-2.84-.53h-4.86v12.98h1.37v-4.1h3.49ZM389.83,117.71c.67.57,1.01,1.37,1.01,2.41s-.34,1.82-1.01,2.38c-.67.56-1.66.84-2.96.84h-3.45v-6.49h3.45c1.3,0,2.28.28,2.96.85Z"/>
      <path class="cls-1" d="M404.04,128.65h1.5l-3.18-4.46c.17-.06.34-.12.51-.19.79-.35,1.4-.86,1.83-1.52.43-.66.64-1.45.64-2.36s-.21-1.74-.64-2.4c-.43-.66-1.04-1.17-1.83-1.52s-1.74-.53-2.84-.53h-4.86v12.98h1.37v-4.12h3.49c.37,0,.71-.03,1.04-.07l2.96,4.18ZM400,123.36h-3.45v-6.51h3.45c1.3,0,2.28.28,2.96.85.67.57,1.01,1.37,1.01,2.41s-.34,1.82-1.01,2.39c-.67.57-1.66.85-2.96.85Z"/>
      <path class="cls-1" d="M419.12,117.43c-.61-.59-1.33-1.05-2.16-1.38s-1.73-.49-2.71-.49-1.9.16-2.73.49c-.83.33-1.55.79-2.16,1.39-.61.6-1.09,1.3-1.43,2.1-.34.8-.51,1.67-.51,2.62s.17,1.83.51,2.62c.34.8.82,1.5,1.43,2.09.61.6,1.33,1.06,2.17,1.39.83.33,1.74.49,2.72.49s1.88-.16,2.71-.49c.83-.33,1.55-.79,2.16-1.38.61-.59,1.09-1.29,1.43-2.1.34-.8.51-1.68.51-2.63s-.17-1.83-.51-2.63-.82-1.5-1.43-2.1ZM419.28,124.3c-.27.65-.65,1.22-1.14,1.71s-1.06.87-1.72,1.13c-.66.27-1.38.4-2.16.4s-1.5-.13-2.17-.4c-.67-.27-1.25-.64-1.73-1.13s-.87-1.06-1.15-1.71c-.28-.66-.42-1.37-.42-2.13s.14-1.49.42-2.14c.28-.65.66-1.22,1.15-1.71.49-.49,1.07-.87,1.73-1.13.67-.27,1.39-.4,2.17-.4s1.5.13,2.16.4c.66.27,1.24.64,1.72,1.13.49.49.87,1.06,1.14,1.71.27.65.41,1.36.41,2.14s-.14,1.49-.41,2.14Z"/>
      <polygon class="cls-1" points="433.15 115.67 428.14 126.96 423.17 115.67 421.69 115.67 427.44 128.65 428.79 128.65 434.54 115.67 433.15 115.67"/>
      <polygon class="cls-1" points="437.78 122.64 444.5 122.64 444.5 121.47 437.78 121.47 437.78 116.85 445.31 116.85 445.31 115.67 436.41 115.67 436.41 128.65 445.59 128.65 445.59 127.46 437.78 127.46 437.78 122.64"/>
      <polygon class="cls-1" points="458 127.46 450.19 127.46 450.19 122.64 456.9 122.64 456.9 121.47 450.19 121.47 450.19 116.85 457.72 116.85 457.72 115.67 448.82 115.67 448.82 128.65 458 128.65 458 127.46"/>
      <path class="cls-1" d="M472.59,118.78c-.58-.98-1.39-1.74-2.44-2.29-1.04-.55-2.26-.83-3.64-.83h-5.28v12.98h5.28c1.38,0,2.6-.28,3.64-.83,1.04-.55,1.86-1.31,2.44-2.29s.87-2.1.87-3.38-.29-2.4-.87-3.37ZM471.4,124.91c-.47.8-1.13,1.42-1.98,1.87s-1.84.68-2.99.68h-3.84v-10.61h3.84c1.15,0,2.15.23,2.99.68s1.5,1.07,1.98,1.86c.47.79.7,1.71.7,2.76s-.24,1.96-.7,2.75Z"/>
      <path class="cls-1" d="M484.92,128.27c.83-.33,1.55-.79,2.16-1.38.61-.59,1.09-1.29,1.43-2.1.34-.8.51-1.68.51-2.63s-.17-1.83-.51-2.63-.82-1.5-1.43-2.1c-.61-.59-1.33-1.05-2.16-1.38s-1.73-.49-2.71-.49-1.9.16-2.73.49c-.83.33-1.55.79-2.16,1.39-.61.6-1.09,1.3-1.43,2.1-.34.8-.51,1.67-.51,2.62s.17,1.83.51,2.62c.34.8.82,1.5,1.43,2.09.61.6,1.33,1.06,2.17,1.39.83.33,1.74.49,2.72.49s1.88-.16,2.71-.49ZM478.31,126c-.49-.49-.87-1.06-1.15-1.71-.28-.66-.42-1.37-.42-2.13s.14-1.49.42-2.14c.28-.65.66-1.22,1.15-1.71.49-.49,1.07-.87,1.73-1.13.67-.27,1.39-.4,2.17-.4s1.5.13,2.16.4c.66.27,1.24.64,1.72,1.13.49.49.87,1.06,1.14,1.71.27.65.41,1.36.41,2.14s-.14,1.49-.41,2.14c-.27.65-.65,1.22-1.14,1.71s-1.06.87-1.72,1.13c-.66.27-1.38.4-2.16.4s-1.5-.13-2.17-.4c-.67-.27-1.25-.64-1.73-1.13Z"/>
      <path class="cls-1" d="M493.47,124.53h3.49c.37,0,.71-.03,1.04-.07l2.96,4.18h1.5l-3.18-4.46c.17-.06.34-.12.51-.19.79-.35,1.4-.86,1.83-1.52.43-.66.64-1.45.64-2.36s-.21-1.74-.64-2.4c-.43-.66-1.04-1.17-1.83-1.52s-1.74-.53-2.84-.53h-4.86v12.98h1.37v-4.12ZM499.87,117.71c.67.57,1.01,1.37,1.01,2.41s-.34,1.82-1.01,2.39c-.67.57-1.66.85-2.96.85h-3.45v-6.51h3.45c1.3,0,2.28.28,2.96.85Z"/>
      <polygon class="cls-1" points="514.68 127.46 506.87 127.46 506.87 122.64 513.58 122.64 513.58 121.47 506.87 121.47 506.87 116.85 514.4 116.85 514.4 115.67 505.5 115.67 505.5 128.65 514.68 128.65 514.68 127.46"/>
      <path class="cls-1" d="M524.22,128.27c.71-.33,1.24-.76,1.58-1.3.35-.54.52-1.12.52-1.75,0-.68-.15-1.23-.44-1.65-.29-.42-.67-.76-1.15-1.01-.48-.25-1-.46-1.56-.62-.56-.16-1.13-.31-1.7-.44s-1.09-.29-1.57-.46c-.48-.17-.86-.41-1.15-.72-.29-.31-.44-.72-.44-1.22,0-.44.12-.84.36-1.2.24-.35.61-.63,1.12-.84s1.15-.32,1.93-.32c.58,0,1.18.09,1.81.26s1.21.44,1.77.82l.46-1.09c-.52-.36-1.14-.64-1.85-.84s-1.44-.31-2.17-.31c-1.1,0-2,.16-2.71.49-.71.33-1.23.76-1.57,1.3s-.51,1.13-.51,1.77c0,.69.15,1.25.44,1.68.29.43.67.77,1.15,1.03.48.26,1,.47,1.57.62.57.15,1.14.3,1.71.44.57.14,1.09.29,1.56.47.47.18.85.42,1.14.73.29.31.44.72.44,1.22,0,.42-.12.8-.36,1.15-.24.35-.62.62-1.13.83s-1.18.31-1.99.31-1.67-.15-2.44-.45c-.77-.3-1.39-.68-1.84-1.12l-.54,1.06c.48.49,1.17.9,2.05,1.21.88.32,1.81.47,2.77.47,1.11,0,2.02-.16,2.74-.49Z"/>
      <path class="cls-1" d="M543.09,127.82c1.04-.55,1.86-1.31,2.44-2.29s.87-2.1.87-3.38-.29-2.4-.87-3.37-1.39-1.74-2.44-2.29c-1.04-.55-2.26-.83-3.64-.83h-5.28v12.98h5.28c1.38,0,2.6-.28,3.64-.83ZM535.54,127.46v-10.61h3.84c1.15,0,2.15.23,2.99.68s1.5,1.07,1.98,1.86c.47.79.7,1.71.7,2.76s-.24,1.96-.7,2.75c-.47.8-1.13,1.42-1.98,1.87s-1.84.68-2.99.68h-3.84Z"/>
      <polygon class="cls-1" points="558.66 127.46 550.85 127.46 550.85 122.64 557.57 122.64 557.57 121.47 550.85 121.47 550.85 116.85 558.38 116.85 558.38 115.67 549.48 115.67 549.48 128.65 558.66 128.65 558.66 127.46"/>
      <polygon class="cls-1" points="568.12 122.64 574.83 122.64 574.83 121.47 568.12 121.47 568.12 116.85 575.64 116.85 575.64 115.67 566.74 115.67 566.74 128.65 575.92 128.65 575.92 127.46 568.12 127.46 568.12 122.64"/>
      <rect class="cls-1" x="577.78" y="123.05" width="4.86" height="1.15"/>
      <polygon class="cls-1" points="587.23 115.67 585.86 115.67 585.86 128.65 594.5 128.65 594.5 127.46 587.23 127.46 587.23 115.67"/>
      <polygon class="cls-1" points="598.15 122.64 604.87 122.64 604.87 121.47 598.15 121.47 598.15 116.85 605.68 116.85 605.68 115.67 596.78 115.67 596.78 128.65 605.96 128.65 605.96 127.46 598.15 127.46 598.15 122.64"/>
      <path class="cls-1" d="M613.04,115.67l-5.93,12.98h1.43l1.55-3.47h7.24l1.55,3.47h1.45l-5.93-12.98h-1.35ZM610.59,124.07l3.12-6.98,3.12,6.98h-6.25Z"/>
      <path class="cls-1" d="M630.18,124c.79-.35,1.4-.86,1.83-1.52.43-.66.64-1.45.64-2.36s-.21-1.74-.64-2.4c-.43-.66-1.04-1.17-1.83-1.52s-1.74-.53-2.84-.53h-4.86v12.98h1.37v-4.12h3.49c.37,0,.71-.03,1.04-.07l2.96,4.18h1.5l-3.18-4.46c.17-.06.34-.12.51-.19ZM627.3,123.36h-3.45v-6.51h3.45c1.3,0,2.28.28,2.96.85.67.57,1.01,1.37,1.01,2.41s-.34,1.82-1.01,2.39c-.67.57-1.66.85-2.96.85Z"/>
      <polygon class="cls-1" points="645.38 126.19 637.02 115.67 635.89 115.67 635.89 128.65 637.26 128.65 637.26 118.12 645.6 128.65 646.73 128.65 646.73 115.67 645.38 115.67 645.38 126.19"/>
      <rect class="cls-1" x="650.96" y="115.67" width="1.37" height="12.98"/>
      <polygon class="cls-1" points="666.05 126.19 657.69 115.67 656.56 115.67 656.56 128.65 657.93 128.65 657.93 118.12 666.28 128.65 667.41 128.65 667.41 115.67 666.05 115.67 666.05 126.19"/>
      <path class="cls-1" d="M680.78,126.52c-.41.3-.83.53-1.29.68-.66.22-1.36.33-2.1.33-.79,0-1.52-.13-2.2-.4-.67-.27-1.26-.64-1.76-1.13-.5-.49-.89-1.06-1.17-1.71-.28-.66-.42-1.37-.42-2.13s.14-1.49.42-2.14c.28-.65.67-1.22,1.17-1.71.5-.49,1.09-.87,1.76-1.13.67-.27,1.41-.4,2.22-.4.75,0,1.46.12,2.11.35.66.23,1.25.62,1.8,1.17l.85-.87c-.58-.63-1.28-1.1-2.1-1.41-.82-.31-1.73-.46-2.72-.46s-1.9.16-2.74.49-1.56.79-2.18,1.38c-.62.59-1.1,1.29-1.44,2.1s-.51,1.68-.51,2.63.17,1.83.51,2.63c.34.8.82,1.5,1.43,2.1.61.59,1.33,1.05,2.17,1.38.83.33,1.75.49,2.74.49.9,0,1.77-.14,2.6-.42.83-.28,1.55-.69,2.17-1.23v-4.95h-1.32v4.36Z"/>
      <path class="cls-1" d="M135.68,138.34c-1.36-.73-2.94-1.09-4.73-1.09h-6.72v16.99h6.72c1.8,0,3.37-.36,4.73-1.09,1.36-.73,2.42-1.73,3.17-3.01s1.13-2.74,1.13-4.39-.38-3.12-1.13-4.39-1.81-2.28-3.17-3.01ZM137.77,149.56c-.65,1.11-1.56,1.98-2.74,2.61-1.18.63-2.57.95-4.18.95h-5.39v-14.76h5.39c1.6,0,2.99.32,4.18.95,1.18.63,2.1,1.5,2.74,2.61.65,1.11.97,2.38.97,3.82s-.32,2.71-.97,3.82Z"/>
      <path class="cls-1" d="M151.18,142.27c-.91-.53-1.95-.8-3.09-.8s-2.19.28-3.11.83c-.92.55-1.65,1.31-2.17,2.27-.53.96-.79,2.08-.79,3.34s.28,2.35.84,3.33c.56.97,1.33,1.73,2.31,2.28.98.55,2.11.83,3.39.83.97,0,1.87-.17,2.71-.52.83-.35,1.53-.86,2.08-1.54l-.7-.8c-.49.6-1.08,1.04-1.78,1.33-.7.29-1.46.44-2.27.44-1.04,0-1.96-.22-2.77-.67-.81-.44-1.44-1.07-1.91-1.87-.42-.74-.64-1.58-.68-2.51h10.89c0-.06,0-.12.01-.18s.01-.11.01-.16c0-1.26-.26-2.38-.79-3.34-.53-.96-1.25-1.71-2.16-2.25ZM143.84,145.05c.42-.79,1-1.4,1.74-1.84s1.57-.67,2.51-.67,1.8.22,2.52.67,1.31,1.06,1.74,1.84c.36.66.55,1.39.6,2.2h-9.71c.06-.81.25-1.54.6-2.2Z"/>
      <path class="cls-1" d="M163.96,148.23c-.5-.24-1.05-.42-1.65-.55-.6-.13-1.2-.25-1.8-.35s-1.15-.24-1.65-.41c-.5-.17-.9-.41-1.2-.73-.3-.32-.45-.74-.45-1.27,0-.68.29-1.25.86-1.7.57-.45,1.48-.68,2.71-.68.68,0,1.35.09,2.02.27.66.18,1.26.47,1.8.87l.56-.97c-.5-.37-1.15-.67-1.95-.9-.8-.23-1.6-.34-2.39-.34-1.07,0-1.96.16-2.67.47-.71.32-1.25.73-1.6,1.25-.36.52-.53,1.1-.53,1.75,0,.71.15,1.28.45,1.71s.7.76,1.2,1.01c.5.24,1.05.43,1.65.56.6.13,1.2.25,1.8.35.6.11,1.15.24,1.65.4.5.16.9.39,1.2.69s.45.71.45,1.23c0,.71-.29,1.29-.87,1.72-.58.44-1.54.66-2.86.66-.94,0-1.81-.15-2.62-.45s-1.46-.66-1.94-1.08l-.56.97c.5.47,1.21.86,2.12,1.17.91.31,1.9.46,2.95.46s2-.15,2.74-.44,1.31-.7,1.69-1.21c.38-.52.57-1.12.57-1.82s-.15-1.25-.45-1.66c-.3-.41-.7-.74-1.2-.97Z"/>
      <path class="cls-1" d="M178.58,144.48s0-.02-.01-.03c-.53-.96-1.24-1.69-2.14-2.21-.9-.52-1.91-.78-3.02-.78-1.18,0-2.25.27-3.19.81-.95.54-1.7,1.29-2.25,2.26s-.83,2.08-.83,3.36.28,2.38.83,3.35c.55.97,1.3,1.73,2.25,2.27.95.54,2.01.81,3.19.81s2.15-.26,3.05-.78c.9-.52,1.61-1.26,2.12-2.23,0-.02.02-.04.02-.05v2.97h1.19v-18.01h-1.21v8.26ZM177.91,150.69c-.45.81-1.05,1.44-1.82,1.88-.77.45-1.64.67-2.61.67s-1.84-.22-2.61-.67c-.77-.44-1.38-1.07-1.82-1.88s-.67-1.74-.67-2.79.22-2,.67-2.8c.45-.8,1.05-1.42,1.82-1.87s1.64-.67,2.61-.67,1.84.22,2.61.67,1.38,1.07,1.82,1.87c.44.8.67,1.74.67,2.8s-.22,1.98-.67,2.79Z"/>
      <path class="cls-1" d="M192.21,142.27c-.91-.53-1.95-.8-3.09-.8s-2.19.28-3.11.83c-.92.55-1.65,1.31-2.17,2.27-.53.96-.79,2.08-.79,3.34s.28,2.35.84,3.33c.56.97,1.33,1.73,2.31,2.28.98.55,2.11.83,3.39.83.97,0,1.87-.17,2.71-.52.83-.35,1.53-.86,2.08-1.54l-.7-.8c-.49.6-1.08,1.04-1.78,1.33-.7.29-1.46.44-2.27.44-1.04,0-1.96-.22-2.77-.67-.81-.44-1.44-1.07-1.91-1.87-.42-.74-.64-1.58-.68-2.51h10.89c0-.06,0-.12.01-.18s.01-.11.01-.16c0-1.26-.26-2.38-.79-3.34-.53-.96-1.25-1.71-2.16-2.25ZM184.87,145.05c.42-.79,1-1.4,1.74-1.84s1.57-.67,2.51-.67,1.8.22,2.52.67,1.31,1.06,1.74,1.84c.36.66.55,1.39.6,2.2h-9.71c.06-.81.25-1.54.6-2.2Z"/>
      <polygon class="cls-1" points="206.79 138.36 210.94 138.36 210.94 154.24 212.18 154.24 212.18 137.24 206.79 137.24 206.79 138.36"/>
      <path class="cls-1" d="M225.42,138.14c-1.01-.68-2.26-1.02-3.75-1.02-1.08,0-2.05.21-2.9.63s-1.52,1.02-2.01,1.78c-.49.77-.74,1.67-.74,2.71s.24,1.91.72,2.67c.48.76,1.14,1.35,1.99,1.76.85.41,1.84.62,2.97.62.99,0,1.88-.18,2.68-.53.8-.36,1.46-.86,1.98-1.52.33-.42.58-.91.74-1.45.03.2.07.41.08.62.05.57.07,1.04.07,1.43,0,2.48-.58,4.33-1.72,5.57-1.15,1.24-2.68,1.86-4.59,1.86-.63,0-1.24-.06-1.82-.18-.58-.12-1.09-.32-1.53-.59l-.51,1c.53.32,1.13.55,1.78.68.66.13,1.35.19,2.08.19,1.5,0,2.82-.33,3.96-.98,1.13-.66,2.01-1.63,2.65-2.93s.95-2.9.95-4.81c0-1.78-.26-3.31-.78-4.58s-1.28-2.25-2.29-2.92ZM225.98,144.23c-.4.62-.95,1.1-1.66,1.46s-1.53.53-2.45.53c-1.42,0-2.55-.36-3.37-1.09s-1.24-1.7-1.24-2.91c0-.83.19-1.54.57-2.14.38-.6.9-1.06,1.57-1.4.66-.33,1.44-.5,2.33-.5,1.07,0,1.96.19,2.67.58.71.39,1.25.89,1.63,1.49.37.61.56,1.24.56,1.91,0,.76-.2,1.45-.59,2.06Z"/>
      <polygon class="cls-1" points="230.5 141.61 231.72 141.61 231.72 138.36 241.26 138.36 234.02 154.24 235.38 154.24 242.69 138.12 242.69 137.24 230.5 137.24 230.5 141.61"/>
      <polygon class="cls-1" points="244.68 141.61 245.9 141.61 245.9 138.36 255.44 138.36 248.2 154.24 249.56 154.24 256.87 138.12 256.87 137.24 244.68 137.24 244.68 141.61"/>
      <path class="cls-1" d="M271.62,141.47c-.97,0-1.9.16-2.79.47-.89.32-1.65.76-2.28,1.32l.61.87c.53-.47,1.18-.85,1.93-1.15.75-.3,1.57-.45,2.44-.45,1.23,0,2.16.31,2.8.92.64.62.96,1.51.96,2.69v1.02h-4.35c-1.17,0-2.1.17-2.79.5-.7.33-1.19.76-1.49,1.29-.3.53-.45,1.11-.45,1.76,0,.71.18,1.34.55,1.89.36.55.89.98,1.58,1.28.69.3,1.5.45,2.44.45,1.26,0,2.3-.27,3.12-.81.62-.41,1.1-.93,1.44-1.56v2.27h1.17v-8.04c0-1.57-.42-2.75-1.26-3.54-.84-.79-2.05-1.19-3.62-1.19ZM273.65,152.61c-.74.49-1.64.73-2.71.73s-1.98-.24-2.6-.73c-.62-.49-.92-1.13-.92-1.94,0-.73.26-1.33.79-1.82.53-.49,1.45-.73,2.76-.73h4.32v2.38c-.36.92-.9,1.63-1.64,2.11Z"/>
      <rect class="cls-1" x="281.36" y="136.22" width="1.21" height="18.01"/>
      <path class="cls-1" d="M301.79,148.23c-.5-.24-1.05-.42-1.65-.55-.6-.13-1.2-.25-1.8-.35s-1.15-.24-1.65-.41c-.5-.17-.9-.41-1.2-.73-.3-.32-.45-.74-.45-1.27,0-.68.29-1.25.86-1.7.57-.45,1.48-.68,2.71-.68.68,0,1.35.09,2.02.27.66.18,1.26.47,1.8.87l.56-.97c-.5-.37-1.15-.67-1.95-.9-.8-.23-1.6-.34-2.39-.34-1.07,0-1.96.16-2.67.47-.71.32-1.25.73-1.6,1.25-.36.52-.53,1.1-.53,1.75,0,.71.15,1.28.45,1.71s.7.76,1.2,1.01c.5.24,1.05.43,1.65.56.6.13,1.2.25,1.8.35.6.11,1.15.24,1.65.4.5.16.9.39,1.2.69s.45.71.45,1.23c0,.71-.29,1.29-.87,1.72-.58.44-1.54.66-2.86.66-.94,0-1.81-.15-2.62-.45s-1.46-.66-1.94-1.08l-.56.97c.5.47,1.21.86,2.12,1.17.91.31,1.9.46,2.95.46s2-.15,2.74-.44,1.31-.7,1.69-1.21c.38-.52.57-1.12.57-1.82s-.15-1.25-.45-1.66c-.3-.41-.7-.74-1.2-.97Z"/>
      <path class="cls-1" d="M314.01,142.27c-.91-.53-1.95-.8-3.09-.8s-2.19.28-3.11.83c-.92.55-1.65,1.31-2.17,2.27-.53.96-.79,2.08-.79,3.34s.28,2.35.84,3.33c.56.97,1.33,1.73,2.31,2.28.98.55,2.11.83,3.39.83.97,0,1.87-.17,2.71-.52.83-.35,1.53-.86,2.08-1.54l-.7-.8c-.49.6-1.08,1.04-1.78,1.33-.7.29-1.46.44-2.27.44-1.04,0-1.96-.22-2.77-.67-.81-.44-1.44-1.07-1.91-1.87-.42-.74-.64-1.58-.68-2.51h10.89c0-.06,0-.12.01-.18s.01-.11.01-.16c0-1.26-.26-2.38-.79-3.34-.53-.96-1.25-1.71-2.16-2.25ZM306.67,145.05c.42-.79,1-1.4,1.74-1.84s1.57-.67,2.51-.67,1.8.22,2.52.67,1.31,1.06,1.74,1.84c.36.66.55,1.39.6,2.2h-9.71c.06-.81.25-1.54.6-2.2Z"/>
      <path class="cls-1" d="M321.28,144.37v-2.8h-1.17v12.67h1.21v-6.6c0-1.57.4-2.79,1.19-3.68.79-.88,1.89-1.32,3.3-1.32.05,0,.1,0,.15.01.05,0,.1.01.15.01v-1.19c-1.26,0-2.31.28-3.16.83-.76.5-1.31,1.2-1.67,2.08Z"/>
      <polygon class="cls-1" points="333.27 152.91 328.22 141.56 326.94 141.56 332.64 154.24 333.88 154.24 339.61 141.56 338.37 141.56 333.27 152.91"/>
      <rect class="cls-1" x="341.65" y="141.56" width="1.21" height="12.67"/>
      <path class="cls-1" d="M342.25,136.51c-.28,0-.51.1-.7.29-.19.19-.29.43-.29.7,0,.26.1.49.29.68s.43.29.7.29c.29,0,.53-.1.72-.29.19-.19.28-.43.28-.7s-.09-.51-.28-.69c-.19-.19-.42-.28-.72-.28Z"/>
      <path class="cls-1" d="M349.74,143.23c.78-.45,1.67-.67,2.66-.67.79,0,1.53.15,2.21.46.68.31,1.25.79,1.7,1.43l.9-.66c-.52-.78-1.19-1.36-2.03-1.75-.83-.39-1.76-.58-2.78-.58-1.23,0-2.33.27-3.29.81-.96.54-1.72,1.3-2.28,2.27-.56.97-.84,2.09-.84,3.35s.28,2.35.84,3.33c.56.97,1.32,1.73,2.28,2.28.96.55,2.06.83,3.29.83,1.02,0,1.95-.19,2.78-.58.83-.39,1.51-.97,2.03-1.75l-.9-.66c-.45.65-1.02,1.12-1.7,1.43-.68.31-1.42.46-2.21.46-.99,0-1.87-.22-2.66-.67-.79-.44-1.4-1.07-1.85-1.87-.45-.8-.67-1.74-.67-2.8s.22-2,.67-2.8c.45-.8,1.06-1.42,1.85-1.87Z"/>
      <path class="cls-1" d="M360.63,136.51c-.28,0-.51.1-.7.29-.19.19-.29.43-.29.7,0,.26.1.49.29.68s.43.29.7.29c.29,0,.53-.1.72-.29.19-.19.28-.43.28-.7s-.09-.51-.28-.69c-.19-.19-.42-.28-.72-.28Z"/>
      <rect class="cls-1" x="360.02" y="141.56" width="1.21" height="12.67"/>
      <path class="cls-1" d="M373.96,142.29c-.96-.55-2.04-.83-3.25-.83s-2.29.28-3.24.83c-.95.55-1.7,1.31-2.26,2.27-.56.96-.84,2.08-.84,3.34s.28,2.35.84,3.33c.56.97,1.31,1.73,2.26,2.28.95.55,2.03.83,3.24.83s2.3-.27,3.25-.83c.96-.55,1.71-1.31,2.26-2.28.55-.97.83-2.08.83-3.33s-.28-2.38-.83-3.34c-.55-.96-1.3-1.72-2.26-2.27ZM375.15,150.69c-.44.81-1.04,1.44-1.82,1.88-.78.45-1.65.67-2.62.67s-1.84-.22-2.61-.67c-.77-.44-1.38-1.07-1.82-1.88s-.67-1.74-.67-2.79.22-2,.67-2.8c.45-.8,1.05-1.42,1.82-1.87s1.64-.67,2.61-.67,1.84.22,2.62.67c.78.45,1.38,1.07,1.82,1.87.44.8.66,1.74.66,2.8s-.22,1.98-.66,2.79Z"/>
      <path class="cls-1" d="M398.2,144.48s0-.02-.01-.03c-.53-.96-1.24-1.69-2.14-2.21-.9-.52-1.91-.78-3.02-.78-1.18,0-2.25.27-3.19.81-.95.54-1.7,1.29-2.25,2.26s-.83,2.08-.83,3.36.28,2.38.83,3.35c.55.97,1.3,1.73,2.25,2.27.95.54,2.01.81,3.19.81s2.15-.26,3.05-.78c.9-.52,1.61-1.26,2.12-2.23,0-.02.02-.04.02-.05v2.97h1.19v-18.01h-1.21v8.26ZM397.53,150.69c-.45.81-1.05,1.44-1.82,1.88-.77.45-1.64.67-2.61.67s-1.84-.22-2.61-.67c-.77-.44-1.38-1.07-1.82-1.88s-.67-1.74-.67-2.79.22-2,.67-2.8c.45-.8,1.05-1.42,1.82-1.87s1.64-.67,2.61-.67,1.84.22,2.61.67,1.38,1.07,1.82,1.87c.44.8.67,1.74.67,2.8s-.22,1.98-.67,2.79Z"/>
      <path class="cls-1" d="M411.71,142.27c-.91-.53-1.95-.8-3.09-.8s-2.19.28-3.11.83c-.92.55-1.65,1.31-2.17,2.27-.53.96-.79,2.08-.79,3.34s.28,2.35.84,3.33c.56.97,1.33,1.73,2.31,2.28.98.55,2.11.83,3.39.83.97,0,1.87-.17,2.71-.52.83-.35,1.53-.86,2.08-1.54l-.7-.8c-.49.6-1.08,1.04-1.78,1.33-.7.29-1.46.44-2.27.44-1.04,0-1.96-.22-2.77-.67-.81-.44-1.44-1.07-1.91-1.87-.42-.74-.64-1.58-.68-2.51h10.89c0-.06,0-.12.01-.18s.01-.11.01-.16c0-1.26-.26-2.38-.79-3.34-.53-.96-1.25-1.71-2.16-2.25ZM404.36,145.05c.42-.79,1-1.4,1.74-1.84s1.57-.67,2.51-.67,1.8.22,2.52.67,1.31,1.06,1.74,1.84c.36.66.55,1.39.6,2.2h-9.71c.06-.81.25-1.54.6-2.2Z"/>
      <rect class="cls-1" x="425.7" y="136.22" width="1.21" height="18.01"/>
      <path class="cls-1" d="M435.7,141.47c-.97,0-1.9.16-2.79.47-.89.32-1.65.76-2.28,1.32l.61.87c.53-.47,1.18-.85,1.93-1.15.75-.3,1.57-.45,2.44-.45,1.23,0,2.16.31,2.8.92.64.62.96,1.51.96,2.69v1.02h-4.35c-1.17,0-2.1.17-2.79.5-.7.33-1.19.76-1.49,1.29-.3.53-.45,1.11-.45,1.76,0,.71.18,1.34.55,1.89.36.55.89.98,1.58,1.28.69.3,1.5.45,2.44.45,1.26,0,2.3-.27,3.12-.81.62-.41,1.1-.93,1.44-1.56v2.27h1.17v-8.04c0-1.57-.42-2.75-1.26-3.54-.84-.79-2.05-1.19-3.62-1.19ZM437.73,152.61c-.74.49-1.64.73-2.71.73s-1.98-.24-2.6-.73c-.62-.49-.92-1.13-.92-1.94,0-.73.26-1.33.79-1.82.53-.49,1.45-.73,2.76-.73h4.32v2.38c-.36.92-.9,1.63-1.64,2.11Z"/>
      <path class="cls-1" d="M453.25,139.72c0-.84.2-1.48.61-1.91s1-.64,1.77-.64c.39,0,.75.06,1.09.17.34.11.63.29.87.53l.49-.92c-.29-.28-.66-.48-1.12-.62-.45-.14-.91-.21-1.38-.21-1.13,0-2,.32-2.61.96-.61.64-.91,1.49-.91,2.54v1.94h-2.33v1.04h2.33v11.63h1.21v-11.63h4.03v-1.04h-4.05v-1.84Z"/>
      <path class="cls-1" d="M467.15,142.29c-.96-.55-2.04-.83-3.25-.83s-2.29.28-3.24.83c-.95.55-1.7,1.31-2.26,2.27-.56.96-.84,2.08-.84,3.34s.28,2.35.84,3.33c.56.97,1.31,1.73,2.26,2.28.95.55,2.03.83,3.24.83s2.3-.27,3.25-.83c.96-.55,1.71-1.31,2.26-2.28.55-.97.83-2.08.83-3.33s-.28-2.38-.83-3.34c-.55-.96-1.3-1.72-2.26-2.27ZM468.34,150.69c-.44.81-1.04,1.44-1.82,1.88-.78.45-1.65.67-2.62.67s-1.84-.22-2.61-.67c-.77-.44-1.38-1.07-1.82-1.88s-.67-1.74-.67-2.79.22-2,.67-2.8c.45-.8,1.05-1.42,1.82-1.87s1.64-.67,2.61-.67,1.84.22,2.62.67c.78.45,1.38,1.07,1.82,1.87.44.8.66,1.74.66,2.8s-.22,1.98-.66,2.79Z"/>
      <path class="cls-1" d="M474.56,144.37v-2.8h-1.17v12.67h1.21v-6.6c0-1.57.4-2.79,1.19-3.68.79-.88,1.89-1.32,3.3-1.32.05,0,.1,0,.15.01.05,0,.1.01.15.01v-1.19c-1.26,0-2.31.28-3.16.83-.76.5-1.31,1.2-1.67,2.08Z"/>
      <path class="cls-1" d="M500.57,142.06c-.75-.4-1.64-.59-2.66-.59-1.34,0-2.48.34-3.42,1.01-.77.55-1.33,1.25-1.69,2.08-.28-.9-.76-1.62-1.45-2.12-.87-.64-1.93-.96-3.19-.96s-2.28.29-3.16.86c-.76.5-1.32,1.17-1.7,1.98v-2.74h-1.17v12.67h1.21v-6.75c0-1.02.19-1.89.56-2.62.37-.73.91-1.29,1.6-1.7.7-.41,1.52-.61,2.48-.61,1.25,0,2.22.37,2.91,1.12.7.74,1.04,1.83,1.04,3.25v7.31h1.21v-6.75c0-1.02.19-1.89.56-2.62.37-.73.91-1.29,1.6-1.7.7-.41,1.52-.61,2.48-.61,1.25,0,2.22.37,2.91,1.12.7.74,1.04,1.83,1.04,3.25v7.31h1.21v-7.4c0-1.18-.21-2.17-.63-2.97s-1.01-1.4-1.76-1.8Z"/>
      <path class="cls-1" d="M511.63,141.47c-.97,0-1.9.16-2.79.47-.89.32-1.65.76-2.28,1.32l.61.87c.53-.47,1.18-.85,1.93-1.15.75-.3,1.57-.45,2.44-.45,1.23,0,2.16.31,2.8.92.64.62.96,1.51.96,2.69v1.02h-4.35c-1.17,0-2.1.17-2.79.5-.7.33-1.19.76-1.49,1.29-.3.53-.45,1.11-.45,1.76,0,.71.18,1.34.55,1.89.36.55.89.98,1.58,1.28.69.3,1.5.45,2.44.45,1.26,0,2.3-.27,3.12-.81.62-.41,1.1-.93,1.44-1.56v2.27h1.17v-8.04c0-1.57-.42-2.75-1.26-3.54-.84-.79-2.05-1.19-3.62-1.19ZM513.66,152.61c-.74.49-1.64.73-2.71.73s-1.98-.24-2.6-.73c-.62-.49-.92-1.13-.92-1.94,0-.73.26-1.33.79-1.82.53-.49,1.45-.73,2.76-.73h4.32v2.38c-.36.92-.9,1.63-1.64,2.11Z"/>
      <path class="cls-1" d="M523.27,143.23c.78-.45,1.67-.67,2.66-.67.79,0,1.53.15,2.21.46.68.31,1.25.79,1.7,1.43l.9-.66c-.52-.78-1.19-1.36-2.03-1.75-.83-.39-1.76-.58-2.78-.58-1.23,0-2.33.27-3.29.81-.96.54-1.72,1.3-2.28,2.27-.56.97-.84,2.09-.84,3.35s.28,2.35.84,3.33c.56.97,1.32,1.73,2.28,2.28.96.55,2.06.83,3.29.83,1.02,0,1.95-.19,2.78-.58.83-.39,1.51-.97,2.03-1.75l-.9-.66c-.45.65-1.02,1.12-1.7,1.43-.68.31-1.42.46-2.21.46-.99,0-1.87-.22-2.66-.67-.79-.44-1.4-1.07-1.85-1.87s-.67-1.74-.67-2.8.22-2,.67-2.8c.45-.8,1.06-1.42,1.85-1.87Z"/>
      <path class="cls-1" d="M534.16,136.51c-.28,0-.51.1-.7.29-.19.19-.29.43-.29.7,0,.26.1.49.29.68s.43.29.7.29c.29,0,.53-.1.72-.29.19-.19.28-.43.28-.7s-.09-.51-.28-.69c-.19-.19-.42-.28-.72-.28Z"/>
      <rect class="cls-1" x="533.55" y="141.56" width="1.21" height="12.67"/>
      <path class="cls-1" d="M547.48,142.29c-.96-.55-2.04-.83-3.25-.83s-2.29.28-3.24.83c-.95.55-1.7,1.31-2.26,2.27-.56.96-.84,2.08-.84,3.34s.28,2.35.84,3.33c.56.97,1.31,1.73,2.26,2.28.95.55,2.03.83,3.24.83s2.3-.27,3.25-.83c.96-.55,1.71-1.31,2.26-2.28.55-.97.83-2.08.83-3.33s-.28-2.38-.83-3.34c-.55-.96-1.3-1.72-2.26-2.27ZM548.67,150.69c-.44.81-1.04,1.44-1.82,1.88-.78.45-1.65.67-2.62.67s-1.84-.22-2.61-.67c-.77-.44-1.38-1.07-1.82-1.88s-.67-1.74-.67-2.79.22-2,.67-2.8c.45-.8,1.05-1.42,1.82-1.87s1.64-.67,2.61-.67,1.84.22,2.62.67c.78.45,1.38,1.07,1.82,1.87.44.8.66,1.74.66,2.8s-.22,1.98-.66,2.79Z"/>
      <polygon class="cls-1" points="542.85 139.5 544.16 139.5 547.97 136.64 546.22 136.64 542.85 139.5"/>
      <path class="cls-1" d="M562.62,142.06c-.77-.4-1.67-.59-2.71-.59-1.29,0-2.39.29-3.28.86-.78.5-1.35,1.18-1.75,2.01v-2.77h-1.17v12.67h1.21v-6.75c0-1.02.19-1.89.57-2.62.38-.73.93-1.29,1.66-1.7.73-.41,1.59-.61,2.57-.61,1.29,0,2.3.37,3.02,1.12.72.74,1.08,1.83,1.08,3.25v7.31h1.21v-7.4c0-1.18-.21-2.17-.64-2.97s-1.03-1.4-1.8-1.8Z"/>
    </g>
    <g>
      <path class="cls-1" d="M43.51,1.67L0,99.28h23.15l8.7-20.92h45.25l8.66,20.92h23.71L65.82,1.67h-22.31ZM38.98,61.21l15.53-37.36,15.47,37.36h-31.01Z"/>
      <polygon class="cls-1" points="185.87 60.89 137.35 1.67 118.66 1.67 118.66 99.28 140.97 99.28 140.97 40.04 189.64 99.28 208.18 99.28 208.18 1.67 185.87 1.67 185.87 60.89"/>
      <path class="cls-1" d="M255.87,27.89c2.79-2.79,6.09-4.93,9.9-6.41,3.81-1.49,7.99-2.23,12.55-2.23,4.83,0,9.29.95,13.39,2.86,4.09,1.91,7.81,4.76,11.16,8.58l14.5-13.39c-4.65-5.67-10.39-9.97-17.22-12.9-6.83-2.93-14.48-4.39-22.94-4.39-7.62,0-14.64,1.23-21.06,3.69-6.41,2.46-12.02,5.97-16.8,10.53-4.79,4.56-8.51,9.9-11.16,16.04-2.65,6.14-3.97,12.88-3.97,20.22s1.32,14.08,3.97,20.22,6.34,11.48,11.09,16.04c4.74,4.56,10.34,8.07,16.8,10.53,6.46,2.46,13.46,3.7,20.99,3.7,8.55,0,16.25-1.49,23.08-4.46,6.83-2.97,12.57-7.3,17.22-12.97l-14.5-13.39c-3.35,3.9-7.07,6.81-11.16,8.71-4.09,1.91-8.55,2.86-13.39,2.86-4.56,0-8.74-.74-12.55-2.23-3.81-1.49-7.11-3.63-9.9-6.41s-4.95-6.09-6.48-9.9c-1.53-3.81-2.3-8.04-2.3-12.69s.77-8.88,2.3-12.69c1.53-3.81,3.7-7.11,6.48-9.9Z"/>
      <polygon class="cls-1" points="393.22 1.67 367.09 45 341.07 1.67 317.09 1.67 354.88 64.49 354.88 99.28 377.47 99.28 377.47 64.72 415.4 1.67 393.22 1.67"/>
      <path class="cls-1" d="M487.77,5.93c-6.32-2.83-13.85-4.25-22.59-4.25h-42.25v97.61h22.59v-26.91h19.66c8.74,0,16.27-1.42,22.59-4.25,6.32-2.83,11.2-6.9,14.64-12.2,3.44-5.3,5.16-11.57,5.16-18.82s-1.72-13.67-5.16-18.96c-3.44-5.3-8.32-9.36-14.64-12.2ZM479.54,49.5c-3.44,2.98-8.64,4.46-15.62,4.46h-18.41V20.08h18.41c6.97,0,12.18,1.49,15.62,4.46,3.44,2.98,5.16,7.16,5.16,12.55s-1.72,9.44-5.16,12.41Z"/>
      <polygon class="cls-1" points="545.08 58.57 590.4 58.57 590.4 41 545.08 41 545.08 19.8 596.39 19.8 596.39 1.67 522.63 1.67 522.63 99.28 598.2 99.28 598.2 81.15 545.08 81.15 545.08 58.57"/>
      <polygon class="cls-1" points="637.8 80.88 637.8 1.67 615.21 1.67 615.21 99.28 686.75 99.28 686.75 80.88 637.8 80.88"/>
    </g>
  </g>
</svg>