<svg width="158" height="150" viewBox="0 0 158 150" fill="none" xmlns="http://www.w3.org/2000/svg">
<g clip-path="url(#clip0_739_518)">
<path d="M20.0698 130.851C20.0698 130.468 19.8142 130.213 19.4307 130.213C19.0472 130.213 18.7915 130.468 18.7915 130.851C18.7915 131.234 19.0472 131.489 19.4307 131.489C19.8142 131.489 20.0698 131.234 20.0698 130.851ZM19.0472 130.851C19.0472 130.596 19.3028 130.341 19.5585 130.341C19.8142 130.341 20.0698 130.596 20.0698 130.851C20.0698 131.107 19.8142 131.362 19.5585 131.362C19.175 131.362 19.0472 131.234 19.0472 130.851Z" fill="white"/>
<path d="M26.0775 80.6806L17.6406 80.4253V81.9572L26.2054 82.3402L26.0775 80.6806Z" fill="white"/>
<path d="M16.6183 133.404C16.6183 133.276 16.6183 133.276 16.4904 133.276H14.4451C14.4451 133.276 14.3173 133.276 14.3173 133.404V133.659C14.3173 133.659 14.3173 133.787 14.4451 133.787H15.8513L14.1895 136.596V136.723C14.1895 136.723 14.1895 136.851 14.3173 136.851H16.4904C16.4904 136.851 16.6183 136.851 16.6183 136.723V136.468C16.6183 136.468 16.6183 136.34 16.4904 136.34H14.9564L16.6183 133.404Z" fill="white"/>
<path d="M15.084 130.468C15.2118 130.468 15.3396 130.468 15.4675 130.596C15.3396 130.34 15.2118 130.34 15.084 130.468C14.7005 130.34 14.4448 130.596 14.4448 130.979C14.4448 131.362 14.7005 131.617 15.084 131.617C15.2118 131.617 15.3396 131.617 15.4675 131.489C15.3396 131.617 15.3396 131.617 15.084 131.617C14.8283 131.617 14.5727 131.362 14.5727 131.106C14.5727 130.596 14.8283 130.468 15.084 130.468Z" fill="white"/>
<path d="M36.1762 136.851H36.5597C36.6875 136.851 36.6875 136.851 36.6875 136.723L36.9432 136.213H38.4771L38.7328 136.723C38.7328 136.851 38.8606 136.851 38.8606 136.851H39.2441C39.372 136.851 39.372 136.723 39.372 136.723L37.838 133.276C37.838 133.276 37.838 133.276 37.7102 133.276H37.5823L36.0483 136.723C36.1762 136.723 36.1762 136.851 36.1762 136.851ZM37.838 134.553L38.3493 135.702H37.3267L37.838 134.553Z" fill="white"/>
<path d="M41.8008 130.468C41.9286 130.468 42.0564 130.468 42.1843 130.596C42.0564 130.34 41.9286 130.34 41.8008 130.468C41.4173 130.34 41.1616 130.596 41.1616 130.979C41.1616 131.362 41.4173 131.617 41.8008 131.617C41.9286 131.617 42.0564 131.617 42.1843 131.489C42.0564 131.617 42.0564 131.617 41.8008 131.617C41.5451 131.617 41.2895 131.362 41.2895 131.106C41.2895 130.596 41.4173 130.468 41.8008 130.468Z" fill="white"/>
<path d="M20.453 57.5746L22.1148 57.0639L21.3478 55.6597L19.686 56.0427L20.453 57.5746Z" fill="white"/>
<path d="M17.0015 135.064C17.0015 136.085 17.7685 136.851 18.7911 136.851C19.8138 136.851 20.5808 136.085 20.5808 135.064C20.5808 134.042 19.8138 133.276 18.7911 133.276C17.7685 133.276 17.0015 134.042 17.0015 135.064ZM20.1973 135.064C20.1973 135.83 19.5581 136.34 18.9189 136.34C18.152 136.34 17.6406 135.702 17.6406 135.064C17.6406 134.298 18.2798 133.787 18.9189 133.787C19.5581 133.787 20.1973 134.298 20.1973 135.064Z" fill="white"/>
<path d="M31.702 135.319V134.936C31.702 134.936 31.702 134.808 31.5742 134.808H30.2959V133.915H31.8299C31.8299 133.915 31.9577 133.915 31.9577 133.787V133.404C31.9577 133.404 31.9577 133.276 31.8299 133.276H29.7846C29.7846 133.276 29.6567 133.276 29.6567 133.404V136.723C29.6567 136.723 29.6567 136.851 29.7846 136.851H30.2959C30.2959 136.851 30.4237 136.851 30.4237 136.723V135.447L31.702 135.319C31.702 135.447 31.702 135.447 31.702 135.319Z" fill="white"/>
<path d="M33.3643 130.851C33.3643 130.468 33.1086 130.213 32.7251 130.213C32.3416 130.213 32.0859 130.468 32.0859 130.851C32.0859 131.234 32.3416 131.489 32.7251 131.489C33.1086 131.489 33.3643 131.234 33.3643 130.851ZM32.7251 131.362C32.4694 131.362 32.2138 131.107 32.2138 130.851C32.2138 130.596 32.4694 130.341 32.7251 130.341C32.9808 130.341 33.2364 130.596 33.2364 130.851C33.2364 131.234 32.9808 131.362 32.7251 131.362Z" fill="white"/>
<path d="M15.4677 80.0425L14.0615 81.0638L15.3398 82.2127L16.746 81.0638L15.4677 80.0425Z" fill="white"/>
<path d="M23.9043 138.638H21.9869C21.859 138.638 21.7312 138.766 21.7312 138.766L19.4302 143.872H19.3024L17.0014 138.766C17.0014 138.638 16.8736 138.638 16.7458 138.638H14.8283C14.5726 138.638 14.4448 138.766 14.5726 139.021L18.9189 148.468C18.9189 148.596 19.0467 148.596 19.1746 148.596H19.3024C19.4302 148.596 19.558 148.468 19.558 148.468L24.0322 139.021C24.16 138.766 24.0322 138.638 23.9043 138.638Z" fill="white"/>
<path d="M11.5047 142.851C9.84289 143.617 7.92542 142.979 7.15843 141.319C6.39144 139.66 7.0306 137.745 8.69241 136.979L5.75228 130.851C0.766843 133.277 -1.4063 139.277 1.02251 144.383C3.45131 149.362 9.4594 151.532 14.5727 149.106L11.5047 142.851Z" fill="white"/>
<path d="M23.9043 133.276L23.7765 135.83L21.6033 133.276H21.4755C21.4755 133.276 21.3477 133.276 21.3477 133.404V136.851C21.3477 136.851 21.3477 136.978 21.4755 136.978H21.859C21.859 136.978 21.9868 136.978 21.9868 136.851V134.425L24.16 137.106H24.2878C24.2878 137.106 24.4156 137.106 24.4156 136.978V133.532C24.4156 133.532 24.4156 133.404 24.2878 133.404H23.9043V133.276Z" fill="white"/>
<path d="M24.4159 130.34V131.234L23.6489 130.34V131.489V130.596L24.4159 131.617V130.34C24.5437 130.34 24.5437 130.34 24.4159 130.34Z" fill="white"/>
<path d="M8.69238 136.851L11.5047 142.723C13.1665 141.957 13.8057 139.915 13.0387 138.383C12.2717 136.723 10.3542 136.085 8.69238 136.851Z" fill="white"/>
<path d="M57.2686 33.8297L55.9903 31.2765C55.3512 29.8722 55.0955 28.851 55.0955 28.085C55.2233 27.319 55.6068 26.6807 56.5016 26.2978V24.6382H56.3738C56.3738 24.6382 56.246 24.6382 56.1182 24.7658C55.479 25.0212 54.9677 25.4041 54.712 25.9148C54.4563 26.4254 54.2007 26.9361 54.2007 27.702L53.4337 26.0424L52.2832 26.8084L55.8625 34.468L57.2686 33.8297Z" fill="white"/>
<path d="M27.6116 136.723C27.7394 136.851 27.7394 136.851 27.6116 136.723L27.9951 136.851C28.1229 136.851 28.1229 136.723 28.1229 136.723L26.589 133.276C26.589 133.276 26.589 133.276 26.4611 133.276H26.3333L24.7993 136.723C24.7993 136.851 24.7993 136.851 24.9271 136.851H25.3106C25.3106 136.851 25.4385 136.851 25.4385 136.723C25.5663 136.468 25.6941 136.213 25.6941 136.085H27.356L27.6116 136.723ZM25.9498 135.574L26.589 134.17L27.2281 135.574H25.9498Z" fill="white"/>
<path d="M35.537 134.298C35.537 133.66 35.0257 133.149 34.3865 133.149H32.9804C32.9804 133.149 32.8525 133.149 32.8525 133.277V136.596C32.8525 136.596 32.8525 136.723 32.9804 136.723H33.4917C33.4917 136.723 33.6195 136.723 33.6195 136.596V135.319H34.1309L34.77 136.723C34.77 136.723 34.77 136.723 34.8978 136.723H35.4092C35.537 136.723 35.537 136.596 35.537 136.596L34.8978 135.319C35.1535 135.191 35.537 134.808 35.537 134.298ZM34.2587 134.936H33.4917V133.915H34.2587C34.5143 133.915 34.77 134.17 34.77 134.426C34.77 134.681 34.6422 134.936 34.2587 134.936Z" fill="white"/>
<path d="M151.609 51.4468V143.617H69.6685V150H158V51.4468H151.609Z" fill="white"/>
<path d="M116.199 32.2977L117.094 42.6381L117.222 42.7658L125.275 32.4253L123.613 31.1487L118.756 37.4041L117.989 26.8083L117.861 26.6807L109.808 37.0211L111.469 38.2977L116.199 32.2977Z" fill="white"/>
<path d="M100.348 32.1701L102.521 30.1276L106.868 32.0425V32.9361C106.74 35.1063 106.74 35.234 108.657 35.8723C108.657 35.8723 108.657 35.8723 108.785 35.8723L109.169 24.8935L107.123 26.8084L106.995 30.1276L103.927 28.7233L106.995 25.7872C108.529 24.5106 109.424 22.851 109.041 21.1914L98.4307 31.2765L100.348 32.1701Z" fill="white"/>
<path d="M91.2721 16.085L88.2041 28.9786L91.6556 29.7445C96.2575 30.8935 98.8141 29.3616 99.8368 24.8935C100.859 20.4254 99.1976 17.9999 94.7235 16.8509L91.2721 16.085ZM97.2802 24.3828C96.5132 27.4467 94.9792 28.4679 92.1669 27.8296L90.7607 27.4467L92.806 18.6382L94.34 19.0211C97.1523 19.6594 98.0471 21.319 97.2802 24.3828Z" fill="white"/>
<path d="M6.64744 6.38298H98.4306V0H0.255859V88.5958H6.64744V6.38298Z" fill="white"/>
<path d="M142.788 75.1917C141.893 75.3194 141.254 75.7023 140.615 76.213C140.103 76.7236 139.72 77.4896 139.464 78.3832L141.126 79.4045C141.126 78.7662 141.254 78.3832 141.637 77.8726C142.021 77.4896 142.404 77.2343 143.044 77.1066C143.683 76.9789 144.194 77.1066 144.705 77.4896C145.217 77.8726 145.472 78.3832 145.6 79.0215C145.728 79.6598 145.6 80.1704 145.217 80.6811C144.833 81.1917 144.322 81.447 143.683 81.5747C143.171 81.7023 142.66 81.5747 142.149 81.3194C141.893 81.1917 141.637 81.064 141.382 80.9364C141.126 80.8087 140.87 80.6811 140.487 80.4257L134.223 76.4683L135.501 84.6385L137.419 84.7662L136.652 80.0428L139.72 82.0853C140.743 82.7236 141.51 83.2343 142.149 83.3619C142.788 83.6172 143.427 83.6172 144.066 83.6172C145.217 83.4896 146.111 82.8513 146.751 81.9577C147.39 81.064 147.645 80.0428 147.39 78.7662C147.134 77.4896 146.623 76.596 145.728 75.83C144.833 75.064 144.066 75.064 142.788 75.1917Z" fill="white"/>
<path d="M47.4258 138.511C44.6135 138.511 42.3125 140.809 42.3125 143.617C42.3125 146.426 44.6135 148.724 47.4258 148.724C50.2381 148.724 52.539 146.426 52.539 143.617C52.539 140.809 50.2381 138.511 47.4258 138.511ZM47.4258 146.426C45.8918 146.426 44.6135 145.149 44.6135 143.617C44.6135 142.085 45.8918 140.681 47.4258 140.681C48.9597 140.681 50.3659 141.958 50.3659 143.617C50.2381 145.149 48.9597 146.426 47.4258 146.426Z" fill="white"/>
<path d="M140.359 64.4679C139.465 64.7232 138.825 65.1062 138.314 65.6168C137.803 66.1274 137.419 66.8934 137.419 67.787L139.209 68.6806C139.209 68.0423 139.337 67.5317 139.592 67.1487C139.976 66.7657 140.359 66.3828 140.871 66.2551C141.51 66.1274 142.021 66.2551 142.533 66.5104C143.044 66.8934 143.427 67.2764 143.555 67.9147C143.683 68.553 143.555 69.0636 143.3 69.7019C142.916 70.2125 142.533 70.5955 141.893 70.7232C141.382 70.8508 140.871 70.7232 140.359 70.5955C140.104 70.4679 139.848 70.3402 139.592 70.2125C139.337 70.0849 139.081 69.9572 138.698 69.7019L132.178 66.2551L134.096 74.2977H136.013L134.863 69.5743L138.058 71.4891C139.081 72.1274 139.976 72.5104 140.615 72.6381C141.254 72.7657 142.021 72.8934 142.66 72.6381C143.811 72.3828 144.578 71.7445 145.217 70.8508C145.728 69.9572 145.856 68.8083 145.601 67.6594C145.345 66.3828 144.706 65.4891 143.811 64.8508C142.916 64.2125 141.51 64.0849 140.359 64.4679Z" fill="white"/>
<path d="M130.388 49.0214C130.133 48.5108 130.133 48.0001 130.26 47.4895C130.388 46.9788 130.772 46.5959 131.155 46.2129C131.667 45.8299 132.306 45.8299 132.817 45.9576C133.328 46.0852 133.968 46.4682 134.223 46.9788C134.607 47.4895 134.735 48.1278 134.607 48.6384C134.479 49.149 134.095 49.7873 133.584 50.0427C133.201 50.298 132.689 50.4256 132.05 50.4256C131.794 50.4256 131.411 50.4256 131.155 50.4256C130.9 50.4256 130.516 50.4256 130.133 50.298L122.846 49.2767L127.448 56.1703L129.238 55.4044L126.553 51.4469L130.133 52.0852C131.283 52.3405 132.178 52.3405 132.945 52.2129C133.712 52.0852 134.223 51.9576 134.862 51.5746C135.885 50.9363 136.396 50.0427 136.524 49.0214C136.652 48.0001 136.524 46.8512 135.757 45.9576C135.118 44.9363 134.095 44.298 133.073 44.0427C132.05 43.7873 130.9 44.0427 129.877 44.681C129.11 45.1916 128.599 45.8299 128.343 46.4682C128.087 47.2342 128.087 48.0001 128.215 48.8937L130.388 49.0214Z" fill="white"/>
<path d="M129.877 57.7019C129.11 58.8508 129.11 60.1274 129.622 61.5317C130.261 62.9359 131.155 63.7019 132.562 63.9572C133.968 64.2125 135.502 63.9572 137.419 63.1913C139.337 62.4253 140.615 61.404 141.382 60.1274C142.149 58.8508 142.149 57.7019 141.51 56.2976C140.871 54.8934 139.976 54.1274 138.57 53.8721C137.164 53.6168 135.63 53.8721 133.712 54.6381C131.922 55.5317 130.644 56.553 129.877 57.7019ZM137.931 56.0423C138.953 56.17 139.592 56.553 139.848 57.1913C140.104 57.8296 139.976 58.5955 139.337 59.3615C138.698 60.1274 137.803 60.7657 136.524 61.404C135.246 61.9147 134.223 62.17 133.201 62.0423C132.178 61.9147 131.539 61.5317 131.283 60.8934C131.028 60.2551 131.155 59.4891 131.795 58.7232C132.434 57.9572 133.329 57.3189 134.607 56.6806C135.885 56.17 137.036 55.9147 137.931 56.0423Z" fill="white"/>
<path d="M22.7539 58.2126L30.5516 61.787L31.063 60.2551L23.2652 56.6807L22.7539 58.2126Z" fill="white"/>
<path d="M43.3351 136.851L43.4629 133.404C43.4629 133.404 43.4629 133.277 43.3351 133.277H42.8237C42.8237 133.277 42.6959 133.277 42.6959 133.404V135.447L40.5228 133.149H40.3949C40.3949 133.149 40.2671 133.149 40.2671 133.277V136.723C40.2671 136.723 40.2671 136.851 40.3949 136.851H40.9062C40.9062 136.851 41.0341 136.851 41.0341 136.723V134.553L43.3351 136.851Z" fill="white"/>
<path d="M32.7247 56.6808C33.1082 56.2978 33.4917 55.9148 33.7474 55.4042C34.003 54.8936 34.2587 54.3829 34.2587 53.8723C34.2587 53.3616 34.2587 52.7233 34.1309 52.085L32.7247 52.3404C32.8525 52.7233 32.8525 53.234 32.8525 53.4893C32.8525 53.8723 32.7247 54.2553 32.469 54.5106C32.0855 55.1489 31.5742 55.5319 30.8072 55.7872C30.0402 55.9148 29.2733 55.9148 28.6341 55.4042C27.8671 55.0212 27.4836 54.3829 27.2279 53.7446C26.9723 52.9787 27.1001 52.3404 27.4836 51.5744C27.6114 51.3191 27.8671 50.9361 28.1228 50.8084C28.3784 50.5531 28.7619 50.4255 29.0176 50.2978L28.5063 48.8936C27.9949 49.0212 27.4836 49.2765 27.1001 49.6595C26.7166 50.0425 26.3331 50.4255 26.0775 50.9361C25.8218 51.4467 25.694 51.9574 25.5661 52.468C25.4383 52.9787 25.5661 53.617 25.694 54.1276C25.8218 54.7659 26.0775 55.2765 26.461 55.6595C26.8445 56.1701 27.2279 56.5531 27.7393 56.8084C28.2506 57.0638 28.7619 57.3191 29.4011 57.3191C30.0402 57.3191 30.5516 57.3191 31.1907 57.1914C31.8299 57.1914 32.3412 56.9361 32.7247 56.6808Z" fill="white"/>
<path d="M49.5987 38.0427C50.11 37.915 50.7492 37.6597 51.2605 37.4044C51.7718 37.0214 52.1553 36.6385 52.5388 36.2555C52.9223 35.8725 53.0501 35.2342 53.3058 34.7236C53.4336 34.0853 53.4336 33.5746 53.3058 32.9363C53.178 32.4257 53.0501 31.7874 52.6667 31.2768C52.2832 30.7661 51.8997 30.3831 51.3883 30.0002C50.877 29.6172 50.3657 29.4895 49.7265 29.3619C49.2152 29.2342 48.576 29.2342 48.0647 29.3619C47.4256 29.4895 46.9142 29.7448 46.4029 30.0002C45.8916 30.3831 45.5081 30.7661 45.1246 31.1491C44.7411 31.6597 44.6133 32.1704 44.3576 32.681C44.2298 33.3193 44.2298 33.8299 44.3576 34.4682C44.4854 34.9789 44.6133 35.6172 44.9968 36.1278C45.3802 36.6385 45.7637 37.0214 46.2751 37.4044C46.7864 37.7874 47.2977 37.915 47.9369 38.0427C48.4482 38.1704 48.9595 38.1704 49.5987 38.0427ZM46.4029 35.2342C45.8916 34.4682 45.7637 33.8299 45.8916 33.064C46.0194 32.298 46.5307 31.6597 47.1699 31.2768C47.8091 30.7661 48.576 30.6385 49.343 30.8938C50.11 31.0214 50.7492 31.5321 51.1327 32.1704C51.644 32.9363 51.7718 33.5746 51.5162 34.3406C51.3883 35.1065 50.877 35.7448 50.2378 36.1278C49.5987 36.5108 48.8317 36.7661 48.0647 36.5108C47.2977 36.2555 46.7864 36.0002 46.4029 35.2342Z" fill="white"/>
<path d="M39.4999 143.362H36.6876C36.5598 143.362 36.4319 143.489 36.4319 143.617V145.021C36.4319 145.149 36.5598 145.277 36.6876 145.277H37.5824V146.043C37.1989 146.17 36.6876 146.298 36.3041 146.298C34.7701 146.298 33.4918 145.021 33.4918 143.489C33.4918 141.958 34.7701 140.681 36.3041 140.681C36.9432 140.681 37.5824 140.809 38.0937 141.319C38.2216 141.447 38.3494 141.447 38.4772 141.319L39.6277 140.17C39.7555 140.043 39.7555 139.915 39.6277 139.787C38.6051 138.894 37.3267 138.511 36.1763 138.511C33.364 138.511 31.063 140.809 31.063 143.617C31.063 146.426 33.364 148.724 36.1763 148.724C38.2216 148.724 39.6277 147.83 39.6277 147.83C39.6277 147.83 39.7555 147.702 39.7555 147.575V143.745C39.7555 143.489 39.6277 143.362 39.4999 143.362Z" fill="white"/>
<path d="M41.9287 44.298C42.44 44.1703 42.9514 43.7873 43.3348 43.4043C43.7183 43.0214 44.1018 42.5107 44.3575 42.0001C44.6132 41.4895 44.741 40.9788 44.741 40.3405L45.6358 41.3618L46.6585 40.2129L38.7329 31.6597L37.7103 32.8086L40.6504 36.0001C40.0112 36.0001 39.4999 36.0001 38.9886 36.2554C38.4772 36.3831 37.9659 36.7661 37.5824 37.0214C37.1989 37.4043 36.8154 37.915 36.5598 38.4256C36.3041 38.9363 36.1763 39.4469 36.1763 40.0852C36.1763 40.7235 36.1763 41.2341 36.4319 41.7448C36.6876 42.2554 36.9433 42.7661 37.3268 43.2767C37.7103 43.6597 38.2216 44.0426 38.7329 44.298C39.2442 44.5533 39.8834 44.6809 40.3947 44.6809C40.906 44.5533 41.5452 44.5533 41.9287 44.298ZM38.4772 42.1278C37.9659 41.4895 37.5824 40.8512 37.5824 40.0852C37.5824 39.3192 37.8381 38.6809 38.4772 38.0426C39.1164 37.532 39.7556 37.2767 40.5225 37.2767C41.2895 37.2767 41.9287 37.6597 42.5679 38.298C43.0792 38.9363 43.4627 39.5746 43.4627 40.3405C43.4627 41.1065 43.207 41.7448 42.5679 42.3831C41.9287 42.8937 41.2895 43.149 40.5225 43.149C39.7556 43.0214 38.9886 42.6384 38.4772 42.1278Z" fill="white"/>
<path d="M86.1588 19.5321C86.2866 16.8513 84.6248 15.5747 82.0681 15.447L78.4889 15.3193L77.9775 28.4683L80.1507 28.5959L80.2785 23.3619H81.429L83.8578 28.5959L86.1588 28.7236L83.4743 22.9789C84.8805 22.7236 86.0309 21.83 86.1588 19.5321ZM81.9403 21.3193H80.4063L80.5342 17.6172H82.0681C83.2186 17.7449 83.9856 18.3832 83.9856 19.5321C83.9856 20.681 83.0908 21.3193 81.9403 21.3193Z" fill="white"/>
<path d="M65.0664 30.3829L67.2395 30L67.8787 27.1914L69.157 21.3191C69.6683 19.4042 69.4127 17.7446 68.39 16.5957L65.0664 30.3829Z" fill="white"/>
<path d="M68.7734 16.085C68.7734 16.085 70.9466 18.1275 70.1796 20.8084C69.0291 25.2764 68.7734 26.2977 70.8187 28.7233C70.3074 27.9573 69.6683 26.2977 71.2022 22.8509C72.6084 19.5318 70.1796 16.8509 68.7734 16.085Z" fill="white"/>
<path d="M39.6277 46.9789L35.5371 43.7874C34.6423 43.0214 33.7475 42.7661 33.1083 42.7661C32.3413 42.8938 31.7021 43.2767 31.063 44.1704C30.8073 44.4257 30.6795 44.8087 30.4238 45.064C30.1682 45.447 30.0403 45.8299 29.7847 46.2129L30.8073 47.4895C30.9352 46.9789 31.063 46.4682 31.3186 46.0853C31.4465 45.7023 31.7021 45.3193 31.9578 45.064C32.3413 44.5533 32.7248 44.1704 33.1083 44.1704C33.4918 44.0427 33.8753 44.1704 34.2588 44.4257L34.7701 44.8087C34.3866 44.9363 34.0031 45.064 33.6196 45.3193C33.2361 45.5746 32.9805 45.8299 32.7248 46.2129C32.2135 46.9789 31.9578 47.7448 32.0856 48.5108C32.2135 49.2768 32.597 50.0427 33.364 50.5533C34.1309 51.064 34.8979 51.3193 35.6649 51.1916C36.4319 51.064 37.0711 50.681 37.7102 49.915C37.9659 49.5321 38.2216 49.1491 38.3494 48.7661C38.4772 48.3831 38.4772 47.8725 38.4772 47.4895L39.2442 48.1278L39.6277 46.9789ZM36.5598 49.0214C36.1763 49.4044 35.7928 49.6597 35.4093 49.7874C35.0258 49.915 34.5144 49.7874 34.1309 49.4044C33.7475 49.1491 33.4918 48.6385 33.4918 48.2555C33.4918 47.7448 33.6196 47.3619 34.0031 46.8512C34.3866 46.3406 34.7701 46.0853 35.2814 45.9576C35.7928 45.8299 36.1763 45.9576 36.5598 46.3406C36.9432 46.5959 37.1989 47.1065 37.1989 47.4895C37.0711 48.0002 36.9432 48.5108 36.5598 49.0214Z" fill="white"/>
<path d="M73.6308 27.3191C74.9092 28.9786 74.9092 28.9786 76.6988 28.5957C76.6988 28.5957 76.6988 28.5957 76.8266 28.468C75.2926 26.4254 73.7587 24.5105 72.2247 22.3403C71.969 22.9786 71.8412 23.4893 71.7134 23.9999C71.5855 24.3829 71.5855 24.6382 71.8412 24.8935C72.4804 25.6595 72.9917 26.5531 73.6308 27.3191Z" fill="white"/>
<path d="M20.0695 73.4045C20.453 73.1492 20.9643 73.1492 21.7313 73.2768L26.9724 73.9151L27.1003 72.3832L22.1148 71.7449C20.8365 71.6172 19.9417 71.7449 19.3025 72.0002C18.6634 72.3832 18.2799 73.0215 18.1521 73.9151C18.1521 74.4258 18.1521 74.8087 18.2799 75.1917C18.4077 75.5747 18.6634 75.9577 19.0469 76.3406L17.7686 76.213V77.7449L26.2054 78.8938L26.3333 77.3619L21.7313 76.7236C20.8365 76.596 20.1974 76.3406 19.8139 75.9577C19.4304 75.5747 19.3025 75.0641 19.4304 74.4258C19.5582 74.0428 19.686 73.6598 20.0695 73.4045Z" fill="white"/>
<path d="M79.767 107.362C79 107.362 78.3608 107.617 77.8495 108.128C77.3382 108.638 77.0825 109.277 77.0825 110.043C77.0825 110.809 77.3382 111.447 77.8495 111.958C78.3608 112.468 79 112.724 79.767 112.724C80.534 112.724 81.1731 112.468 81.6845 111.958C82.1958 111.447 82.4515 110.809 82.4515 110.043C82.4515 109.277 82.1958 108.638 81.6845 108.128C81.0453 107.617 80.534 107.362 79.767 107.362Z" fill="white"/>
<path d="M48.1928 93.702C47.8093 93.4467 47.4258 93.1914 46.7866 93.1914C46.1475 93.1914 45.764 93.3191 45.3805 93.702C44.997 94.085 44.8691 94.468 44.8691 94.9786C44.8691 95.4893 44.997 95.8723 45.3805 96.2552C45.764 96.6382 46.2753 96.7659 46.7866 96.7659C47.4258 96.7659 47.8093 96.6382 48.1928 96.2552C48.5763 95.8723 48.7041 95.4893 48.7041 95.1063C48.7041 94.468 48.5763 94.085 48.1928 93.702Z" fill="white"/>
<path d="M93.4452 94.0853C92.9339 93.5747 92.2947 93.3193 91.5277 93.3193C90.7607 93.3193 90.1216 93.5747 89.6103 94.0853C89.0989 94.5959 88.8433 95.2342 88.8433 96.0002C88.8433 96.7661 89.0989 97.4044 89.6103 97.9151C90.1216 98.4257 90.7607 98.681 91.5277 98.681C92.2947 98.681 92.9339 98.4257 93.4452 97.9151C93.9565 97.4044 94.2122 96.7661 94.2122 96.0002C94.2122 95.2342 93.9565 94.5959 93.4452 94.0853Z" fill="white"/>
<path d="M96.6406 107.362C95.8736 107.362 95.2345 107.617 94.851 108.128C94.4675 108.638 94.084 109.277 94.084 110.17V110.298L98.0468 107.872C97.7911 107.745 97.6633 107.617 97.4076 107.489C97.1519 107.362 96.8963 107.362 96.6406 107.362Z" fill="white"/>
<path d="M80.4059 134.043C108.401 134.043 131.155 111.192 131.155 83.1066C131.155 55.0215 108.401 32.1704 80.4059 32.1704C52.4108 32.1704 29.6567 54.8938 29.6567 83.1066C29.6567 111.192 52.283 134.043 80.4059 134.043ZM54.0726 114L52.6664 114.128V112.851C52.283 113.234 51.8995 113.617 51.3881 113.745C50.8768 113.873 50.4933 114 49.8541 114C49.3428 114 48.8315 113.873 48.3202 113.745C47.8088 113.617 47.4253 113.234 47.0419 112.851C46.6584 112.468 46.2749 112.085 46.147 111.575C46.0192 111.064 45.8914 110.553 45.8914 110.043C45.8914 109.532 46.0192 108.894 46.147 108.511C46.2749 108.128 46.6584 107.617 47.0419 107.234C47.4253 106.851 47.8088 106.596 48.3202 106.341C48.8315 106.085 49.3428 106.085 49.8541 106.085C50.3655 106.085 50.8768 106.213 51.2603 106.341C51.6438 106.468 52.1551 106.851 52.5386 107.234V103.277L53.9448 103.149V114H54.0726ZM58.0354 112.468C58.4189 112.724 58.9302 112.851 59.3137 112.851C59.6972 112.851 60.2085 112.724 60.7198 112.596C61.2312 112.468 61.7425 112.085 62.2538 111.575L62.5095 112.979C61.9982 113.362 61.4868 113.617 60.8477 113.873C60.2085 114.128 59.825 114.128 59.1859 114.128C58.6745 114.128 58.0354 114 57.5241 113.873C57.0127 113.745 56.6292 113.362 56.2457 112.979C55.8622 112.596 55.4787 112.213 55.3509 111.702C55.2231 111.192 55.0952 110.681 55.0952 110.17C55.0952 109.66 55.2231 109.149 55.3509 108.638C55.4787 108.128 55.8622 107.745 56.2457 107.362C56.6292 106.979 57.0127 106.724 57.5241 106.468C58.0354 106.213 58.5467 106.213 59.058 106.213C59.825 106.213 60.4642 106.341 61.1033 106.724C61.7425 107.107 62.2538 107.617 62.5095 108.256L56.8849 111.702C57.3962 111.958 57.6519 112.213 58.0354 112.468ZM65.9609 99.9576L64.5548 100.085V95.2342C64.5548 94.4683 64.427 93.9576 64.1713 93.7023C63.9156 93.447 63.5321 93.1917 63.0208 93.1917C62.3817 93.1917 61.9982 93.447 61.6147 93.83C61.2312 94.213 61.2312 94.8513 61.2312 95.6172V99.83L59.825 99.9576V92.0427L61.2312 91.9151V93.1917C61.4868 92.8087 61.7425 92.5534 62.126 92.2981C62.5095 92.0428 62.893 92.0427 63.2765 92.0427C64.1713 92.0427 64.8105 92.2981 65.194 92.8087C65.5775 93.3193 65.8331 94.213 65.8331 95.3619V99.9576H65.9609ZM71.8412 107.362C70.9464 107.49 70.3072 107.745 69.9237 108.383C69.5402 109.021 69.4124 109.915 69.4124 111.319V114L67.8784 114.128V106.213L69.4124 106.085V107.745C69.6681 107.234 70.0516 106.724 70.5629 106.468C71.0742 106.213 71.5855 105.958 72.2247 105.958C72.3525 105.958 72.3525 105.958 72.4804 105.958C72.6082 105.958 72.6082 105.958 72.6082 105.958L71.8412 107.362ZM74.3978 114L72.8639 114.128V106.213L74.3978 106.085V114ZM73.6308 105.319L72.6082 104.043L73.6308 102.894L74.6535 104.043L73.6308 105.319ZM69.0289 97.5321C69.2846 97.9151 69.5402 98.1704 69.9237 98.4257C70.3072 98.681 70.8186 98.8087 71.202 98.8087C71.5855 98.8087 72.0969 98.681 72.6082 98.5534C73.1195 98.4257 73.6308 98.0427 74.1422 97.5321L74.3978 98.9364C73.8865 99.3193 73.3752 99.5747 72.736 99.83C72.0969 100.085 71.7134 100.085 71.0742 100.085C70.5629 100.085 69.9237 99.9576 69.4124 99.83C68.9011 99.7023 68.5176 99.3193 68.1341 98.9364C67.7506 98.5534 67.3671 98.1704 67.2393 97.6598C67.1114 97.1491 66.9836 96.6385 66.9836 96.1279C66.9836 95.6172 67.1114 95.1066 67.2393 94.5959C67.3671 94.0853 67.7506 93.7023 68.1341 93.3193C68.5176 92.9364 68.9011 92.681 69.4124 92.4257C69.9237 92.1704 70.4351 92.1704 70.9464 92.1704C71.7134 92.1704 72.3525 92.2981 72.9917 92.681C73.6308 93.064 74.1422 93.5747 74.3978 94.213L69.0289 97.5321ZM83.8574 116.681L82.4512 116.809V112.979C82.0677 113.362 81.6842 113.617 81.1729 113.873C80.6616 114.128 80.2781 114.128 79.7668 114.128C79.2554 114.128 78.7441 114 78.2328 113.873C77.7215 113.745 77.338 113.362 76.9545 112.979C76.571 112.596 76.1875 112.213 76.0597 111.702C75.9318 111.192 75.804 110.681 75.804 110.17C75.804 109.66 75.9318 109.149 76.0597 108.638C76.1875 108.128 76.571 107.745 76.9545 107.362C77.338 106.979 77.7215 106.724 78.2328 106.468C78.7441 106.213 79.1276 106.213 79.6389 106.213C80.1503 106.213 80.6616 106.341 81.1729 106.468C81.6842 106.596 82.0677 106.979 82.4512 107.362V106.341L83.8574 106.213V116.681ZM78.2328 92.4257C78.7441 92.1704 79.2554 92.0427 79.8946 92.0427C80.0224 92.0427 80.0224 92.0427 80.1503 92.0427C80.2781 92.0427 80.2781 92.0427 80.2781 92.0427L79.6389 93.447C78.7441 93.5747 78.105 93.83 77.7215 94.4683C77.338 95.1066 77.2101 96.0002 77.2101 97.4045V100.085L75.6762 100.213V92.2981L77.2101 92.1704V93.83C77.338 93.064 77.7215 92.681 78.2328 92.4257ZM95.3622 112.468C95.7457 112.724 96.2571 112.851 96.6406 112.851C97.0241 112.851 97.5354 112.724 98.0467 112.596C98.558 112.468 99.0694 112.085 99.5807 111.575L99.8364 112.979C99.325 113.362 98.8137 113.617 98.1745 113.873C97.5354 114.128 97.1519 114.128 96.5127 114.128C96.0014 114.128 95.3622 114 94.8509 113.873C94.3396 113.745 93.9561 113.362 93.5726 112.979C93.1891 112.596 92.8056 112.213 92.6778 111.702C92.5499 111.192 92.4221 110.681 92.4221 110.17C92.4221 109.66 92.5499 109.149 92.6778 108.638C92.8056 108.128 93.1891 107.745 93.5726 107.362C93.9561 106.979 94.3396 106.724 94.8509 106.468C95.3622 106.213 95.8736 106.213 96.3849 106.213C97.1519 106.213 97.791 106.341 98.4302 106.724C99.0694 107.107 99.5807 107.617 99.8364 108.256L94.2118 111.702C94.7231 111.958 94.9787 112.213 95.3622 112.468ZM92.9334 99.83C92.4221 100.085 92.0386 100.085 91.3995 100.085C90.8881 100.085 90.3768 99.9576 89.8655 99.83C89.3542 99.7023 88.9707 99.3193 88.5872 98.9364C88.2037 98.5534 87.8202 98.1704 87.6923 97.6598C87.5645 97.1491 87.4367 96.6385 87.4367 96.1279C87.4367 95.6172 87.5645 94.9789 87.6923 94.5959C87.8202 94.213 88.2037 93.7023 88.5872 93.3193C88.9707 92.9364 89.3542 92.681 89.8655 92.4257C90.3768 92.1704 90.8881 92.1704 91.3995 92.1704C91.9108 92.1704 92.4221 92.2981 92.8056 92.4257C93.1891 92.5534 93.7004 92.9364 94.0839 93.3193V89.3619L95.4901 89.2342V100.085L94.0839 100.213V98.9364C93.8283 99.3193 93.3169 99.5747 92.9334 99.83ZM96.7684 96.0002C96.7684 95.4896 96.8962 94.9789 97.0241 94.4683C97.1519 93.9576 97.5354 93.5747 97.9189 93.1917C98.3024 92.8087 98.8137 92.5534 99.1972 92.2981C99.5807 92.0428 100.22 92.0427 100.731 92.0427C101.243 92.0427 101.754 92.1704 102.265 92.2981C102.776 92.4257 103.16 92.8087 103.543 93.1917C103.927 93.5747 104.183 93.9576 104.438 94.4683C104.694 94.9789 104.694 95.4896 104.694 96.0002C104.694 96.5108 104.566 97.1491 104.438 97.5321C104.31 97.9151 103.927 98.4257 103.543 98.8087C103.16 99.1917 102.649 99.447 102.265 99.7023C101.882 99.9576 101.243 99.9576 100.731 99.9576C100.22 99.9576 99.5807 99.83 99.0694 99.7023C98.558 99.5747 98.1745 99.1917 97.791 98.8087C97.4075 98.4257 97.0241 98.0427 96.8962 97.5321C96.7684 97.0215 96.7684 96.6385 96.7684 96.0002ZM107.378 112.724L106.995 114H100.22L104.822 107.49H100.731L100.987 106.213H107.378L102.776 112.724H107.378ZM114.409 114L113.131 114.256V113.362C112.875 113.617 112.492 113.873 112.108 114C111.725 114.128 111.341 114.256 110.83 114.256C109.935 114.256 109.168 114 108.657 113.49C108.145 112.979 107.89 112.341 107.89 111.447C107.89 110.553 108.145 109.915 108.657 109.404C109.168 108.894 109.935 108.638 110.702 108.638C111.086 108.638 111.469 108.638 111.853 108.766C112.236 108.894 112.492 109.021 112.875 109.277V108.638C112.875 108.128 112.747 107.873 112.492 107.617C112.236 107.362 111.725 107.362 111.086 107.362C110.702 107.362 110.446 107.362 110.063 107.49C109.679 107.617 109.296 107.745 108.785 107.873L109.168 106.341C109.552 106.213 110.063 106.085 110.446 106.085C110.83 106.085 111.213 105.958 111.469 105.958C112.492 105.958 113.259 106.213 113.642 106.724C114.026 107.234 114.281 108 114.281 109.021V114H114.409ZM115.176 93.5747C114.92 93.3193 114.409 93.3193 113.77 93.3193C113.387 93.3193 113.131 93.3193 112.747 93.447C112.364 93.5747 111.98 93.7023 111.469 93.83L111.853 92.2981C112.236 92.1704 112.747 92.0427 113.131 92.0427C113.514 92.0427 113.898 91.9151 114.154 91.9151C115.176 91.9151 115.943 92.1704 116.327 92.681C116.71 93.1917 116.966 93.9576 116.966 94.9789V99.83L115.687 100.085V99.1917C115.432 99.447 115.048 99.7023 114.665 99.83C114.281 99.9576 113.898 100.085 113.387 100.085C112.492 100.085 111.725 99.83 111.213 99.3193C110.702 98.8087 110.446 98.1704 110.446 97.2768C110.446 96.3832 110.702 95.7449 111.213 95.2342C111.725 94.7236 112.492 94.4683 113.259 94.4683C113.642 94.4683 114.026 94.4683 114.409 94.5959C114.793 94.7236 115.048 94.8513 115.432 95.1066V94.4683C115.56 94.0853 115.432 93.83 115.176 93.5747ZM108.785 92.4257C109.296 92.1704 109.807 92.0427 110.446 92.0427C110.574 92.0427 110.574 92.0427 110.702 92.0427C110.83 92.0427 110.83 92.0427 110.83 92.0427L110.191 93.447C109.296 93.5747 108.657 93.83 108.273 94.4683C107.89 95.1066 107.762 96.0002 107.762 97.4045V100.085L106.228 100.213V92.2981L107.762 92.1704V93.83C108.018 93.064 108.401 92.681 108.785 92.4257ZM86.7975 50.0428H94.5953C99.325 50.0428 104.95 52.4683 104.95 59.6172C104.95 64.3406 102.265 66.8938 97.9189 67.9151L107.378 81.064L102.265 82.3406L91.2716 66.2555H91.1438V81.5747L86.6697 82.0853V50.0428H86.7975ZM87.0532 112.468C87.3088 112.724 87.6923 112.979 88.2037 112.979C88.8428 112.979 89.2263 112.724 89.6098 112.341C89.9933 111.958 89.9933 111.319 89.9933 110.553V106.341L91.3995 106.213V114.128L89.9933 114.256V113.107C89.7376 113.49 89.482 113.745 89.0985 114C88.715 114.256 88.3315 114.256 87.948 114.256C87.0532 114.256 86.414 114 86.0305 113.49C85.647 112.979 85.3914 112.085 85.3914 110.936V106.341L86.7975 106.213V111.064C86.7975 111.702 86.7975 112.213 87.0532 112.468ZM81.1729 92.2981C81.5564 92.1704 82.0677 92.0427 82.4512 92.0427C82.8347 92.0427 83.2182 91.9151 83.4739 91.9151C84.4965 91.9151 85.2635 92.1704 85.647 92.681C86.0305 93.1917 86.2862 93.9576 86.2862 94.9789V99.83L85.0079 100.085V99.1917C84.7522 99.447 84.3687 99.7023 83.9852 99.83C83.6017 99.9576 83.2182 100.085 82.7069 100.085C81.8121 100.085 81.0451 99.83 80.5338 99.3193C80.0224 98.8087 79.7668 98.1704 79.7668 97.2768C79.7668 96.3832 80.0224 95.7449 80.5338 95.2342C81.0451 94.7236 81.8121 94.4683 82.5791 94.4683C82.9626 94.4683 83.3461 94.4683 83.7296 94.5959C84.1131 94.7236 84.3687 94.8513 84.7522 95.1066V94.4683C84.7522 93.9576 84.6244 93.7023 84.3687 93.447C84.1131 93.1917 83.6017 93.1917 82.9626 93.1917C82.5791 93.1917 82.3234 93.1917 81.9399 93.3193C81.5564 93.447 81.1729 93.5747 80.6616 93.7023L81.1729 92.2981ZM68.9011 49.2768C73.2474 49.2768 77.5936 50.8087 80.4059 53.6172L77.7215 56.681C75.2927 54.8938 72.8639 53.3619 69.0289 53.3619C62.6373 53.3619 57.0127 58.8513 57.0127 66.1279C57.0127 71.4896 61.7425 78.1279 68.2619 78.1279C71.0742 78.1279 74.27 77.3619 76.3153 75.3193V67.7874H66.8558L68.3897 63.7023H80.7894V77.7449C78.7441 80.2981 73.8865 82.3406 68.3897 82.3406C59.9529 82.3406 52.5386 74.681 52.5386 66.2555C52.5386 57.064 59.5694 49.2768 68.9011 49.2768ZM51.6438 94.4683C51.8995 93.9576 52.1551 93.5747 52.5386 93.1917C52.9221 92.8087 53.3056 92.5534 53.8169 92.2981C54.3283 92.0428 54.8396 92.0427 55.3509 92.0427C56.1179 92.0427 56.7571 92.1704 57.3962 92.5534C58.0354 92.9364 58.5467 93.447 58.8024 94.0853L53.1778 97.5321C53.4334 97.9151 53.6891 98.1704 54.0726 98.4257C54.4561 98.681 54.9674 98.8087 55.3509 98.8087C55.7344 98.8087 56.2457 98.681 56.7571 98.5534C57.2684 98.4257 57.7797 98.0427 58.291 97.5321L58.5467 98.9364C58.0354 99.3193 57.5241 99.5747 56.8849 99.83C56.2457 100.085 55.8622 100.085 55.2231 100.085C54.7118 100.085 54.0726 99.9576 53.5613 99.83C53.0499 99.7023 52.6664 99.3193 52.283 98.9364C51.8995 98.5534 51.516 98.1704 51.3881 97.6598C51.2603 97.1491 51.1325 96.6385 51.1325 96.1279C51.2603 95.4896 51.3881 94.9789 51.6438 94.4683ZM43.0791 101.234L44.1017 100.341C44.4852 100.724 44.8687 101.107 45.2522 101.362C45.6357 101.617 46.147 101.617 46.5305 101.617C47.2975 101.617 47.8088 101.49 48.1923 101.107C48.5758 100.724 48.8315 100.341 48.8315 99.83C48.8315 99.3193 48.5758 98.8087 48.1923 98.4257C47.8088 98.0427 47.1697 97.9151 46.4027 97.9151C46.147 97.9151 45.8914 97.9151 45.6357 98.0428C45.38 98.1704 44.9965 98.1704 44.6131 98.4257L44.9965 97.4045C44.4852 97.1491 44.1017 96.7662 43.8461 96.3832C43.5904 96.0002 43.4626 95.4896 43.4626 94.9789C43.4626 94.0853 43.8461 93.447 44.4852 92.8087C45.1244 92.1704 46.0192 92.0427 47.1697 92.0427C47.2975 92.0427 47.5532 92.0427 47.681 92.0427C47.8088 92.0427 48.0645 92.0427 48.1923 92.0427C48.448 92.0427 48.8315 92.0427 49.0872 91.9151C49.3428 91.7874 49.7263 91.7874 49.982 91.6598L50.8768 91.4044L50.4933 92.8087L49.5985 92.9364C49.8541 93.1917 50.1098 93.447 50.2376 93.83C50.3655 94.213 50.4933 94.4683 50.4933 94.8513C50.4933 95.3619 50.3655 95.7449 50.1098 96.1279C49.8542 96.5108 49.215 97.0215 48.5758 97.2768C49.0872 97.5321 49.5985 97.9151 49.8541 98.4257C50.1098 98.9364 50.2376 99.3193 50.2376 99.83C50.2376 100.724 49.8541 101.49 49.215 102C48.5758 102.511 47.681 102.894 46.5305 102.894C45.7635 102.894 45.1244 102.766 44.4852 102.511C43.8461 102.256 43.4626 101.873 43.0791 101.234Z" fill="white"/>
<path d="M100.987 98.8085C101.754 98.8085 102.393 98.5532 102.905 98.0425C103.416 97.5319 103.672 96.8936 103.672 96.1276C103.672 95.3617 103.416 94.7234 102.905 94.2127C102.393 93.7021 101.754 93.4468 100.987 93.4468C100.22 93.4468 99.581 93.7021 99.0697 94.2127C98.5584 94.7234 98.3027 95.3617 98.3027 96.1276C98.3027 96.8936 98.5584 97.5319 99.0697 98.0425C99.581 98.5532 100.22 98.8085 100.987 98.8085Z" fill="white"/>
<path d="M83.2184 95.7446C82.707 95.7446 82.1957 95.8723 81.94 96.1276C81.5565 96.3829 81.4287 96.7659 81.4287 97.2765C81.4287 97.7872 81.5565 98.0425 81.94 98.4255C82.1957 98.6808 82.707 98.8085 83.2184 98.8085C83.8575 98.8085 84.241 98.6808 84.6245 98.4255C85.008 98.1702 85.1358 97.7872 85.1358 97.2765C85.1358 96.7659 85.008 96.3829 84.6245 96.1276C84.241 95.8723 83.7297 95.7446 83.2184 95.7446Z" fill="white"/>
<path d="M113.77 95.7446C113.259 95.7446 112.747 95.8723 112.492 96.1276C112.236 96.3829 111.98 96.7659 111.98 97.2765C111.98 97.7872 112.108 98.0425 112.492 98.4255C112.875 98.8085 113.259 98.8085 113.77 98.8085C114.409 98.8085 114.793 98.6808 115.176 98.4255C115.56 98.1702 115.688 97.7872 115.688 97.2765C115.688 96.7659 115.56 96.3829 115.176 96.1276C114.793 95.8723 114.409 95.7446 113.77 95.7446Z" fill="white"/>
<path d="M111.341 109.787C110.83 109.787 110.319 109.915 110.063 110.17C109.807 110.425 109.552 110.808 109.552 111.319C109.552 111.83 109.68 112.085 110.063 112.468C110.447 112.851 110.83 112.851 111.341 112.851C111.981 112.851 112.364 112.723 112.748 112.468C113.131 112.213 113.259 111.83 113.259 111.319C113.259 110.808 113.131 110.425 112.748 110.17C112.364 109.915 111.853 109.787 111.341 109.787Z" fill="white"/>
<path d="M56.1181 93.447C55.8624 93.3193 55.6067 93.3193 55.3511 93.3193C54.5841 93.3193 53.9449 93.5747 53.5614 94.0853C53.1779 94.5959 52.7944 95.2342 52.7944 96.1279V96.2555L56.7572 93.83C56.5016 93.7023 56.3737 93.5747 56.1181 93.447Z" fill="white"/>
<path d="M100.476 59.6168C100.476 55.9147 98.0472 54.1274 94.5957 54.1274H91.3999V65.2338H94.5957C97.6637 65.3615 100.476 63.0636 100.476 59.6168Z" fill="white"/>
<path d="M28.251 138.638H26.5892C26.4613 138.638 26.3335 138.766 26.3335 138.894V148.213C26.3335 148.34 26.4613 148.468 26.5892 148.468H28.251C28.3788 148.468 28.5066 148.34 28.5066 148.213V138.894C28.5066 138.766 28.3788 138.638 28.251 138.638Z" fill="white"/>
<path d="M18.408 59.6172L18.1523 61.2768L22.243 62.5534C21.7316 62.8087 21.2203 63.1917 20.9646 63.5746C20.5811 63.9576 20.3255 64.4683 20.1977 64.9789C20.0698 65.4895 19.942 66.1278 20.0698 66.6385C20.0698 67.1491 20.3255 67.7874 20.5811 68.298C20.8368 68.8087 21.2203 69.3193 21.6038 69.7023C21.9873 70.0853 22.6265 70.3406 23.1378 70.4683C23.7769 70.5959 24.2883 70.7236 24.9274 70.5959C25.5666 70.5959 26.0779 70.3406 26.5892 70.0853C27.1006 69.83 27.4841 69.447 27.8676 69.064C28.251 68.681 28.5067 68.1704 28.6345 67.6597C28.7624 67.1491 28.8902 66.5108 28.7624 66.0002C28.6345 65.4895 28.5067 64.9789 28.2511 64.3406L29.5294 64.7236L29.785 63.1917L18.408 59.6172ZM27.2284 66.8938C26.9727 67.6597 26.5892 68.1704 25.8222 68.5534C25.1831 68.9363 24.4161 68.9363 23.5213 68.681C22.7543 68.4257 22.1151 67.9151 21.7316 67.2768C21.3481 66.6385 21.2203 65.8725 21.476 65.1065C21.7316 64.3406 22.1151 63.83 22.8821 63.447C23.6491 63.064 24.2883 63.064 25.1831 63.3193C25.9501 63.5746 26.5892 64.0853 26.9727 64.7236C27.3562 65.4895 27.4841 66.1278 27.2284 66.8938Z" fill="white"/>
<path d="M50.4936 130.851C50.4936 130.468 50.238 130.213 49.8545 130.213C49.471 130.213 49.2153 130.468 49.2153 130.851C49.2153 131.234 49.471 131.489 49.8545 131.489C50.1102 131.489 50.4936 131.234 50.4936 130.851ZM49.3432 130.851C49.3432 130.596 49.5988 130.341 49.8545 130.341C50.1102 130.341 50.3658 130.596 50.3658 130.851C50.3658 131.107 50.1102 131.362 49.8545 131.362C49.5988 131.362 49.3432 131.234 49.3432 130.851Z" fill="white"/>
<path d="M49.9823 107.362C49.2153 107.362 48.5762 107.617 48.0648 108.128C47.5535 108.638 47.2979 109.277 47.2979 110.043C47.2979 110.809 47.5535 111.447 48.0648 111.958C48.5762 112.468 49.2153 112.724 49.9823 112.724C50.7493 112.724 51.3885 112.468 51.8998 111.958C52.4111 111.447 52.6668 110.809 52.6668 110.043C52.6668 109.277 52.4111 108.638 51.8998 108.128C51.3885 107.617 50.7493 107.362 49.9823 107.362Z" fill="white"/>
<path d="M44.4854 135.064C44.4854 136.085 45.2523 136.851 46.275 136.851C46.7863 136.851 47.1698 136.724 47.5533 136.341V136.213L47.2977 135.83H47.1698C46.9142 135.958 46.6585 136.085 46.4028 136.085C45.7637 136.085 45.2523 135.575 45.2523 134.936C45.2523 134.298 45.7637 133.787 46.4028 133.787C46.6585 133.787 46.9142 133.915 47.1698 134.043H47.2977L47.5533 133.66V133.532C47.1698 133.277 46.7863 133.021 46.275 133.021C45.2523 133.277 44.4854 134.043 44.4854 135.064Z" fill="white"/>
<path d="M45.7636 131.489V130.34H45.6357V131.489C45.6357 131.489 45.6357 131.489 45.7636 131.489Z" fill="white"/>
<path d="M48.1928 136.851H48.5763C48.7041 136.851 48.7041 136.851 48.7041 136.723L48.9598 136.213H50.4937L50.7494 136.723C50.7494 136.851 50.8772 136.851 50.8772 136.851H51.2607C51.3886 136.851 51.3886 136.723 51.3886 136.723L49.8546 133.276C49.8546 133.276 49.8546 133.276 49.7268 133.276H49.5989L48.0649 136.723L48.1928 136.851ZM49.8546 134.553L50.3659 135.702H49.3433L49.8546 134.553Z" fill="white"/>
<path d="M59.314 107.362C58.547 107.362 57.9078 107.617 57.5243 108.128C57.1408 108.638 56.7573 109.277 56.7573 110.17V110.298L60.7201 107.872C60.4644 107.745 60.3366 107.617 60.0809 107.489C59.8253 107.362 59.5696 107.362 59.314 107.362Z" fill="white"/>
<path d="M37.7104 130.723C37.7104 130.468 37.5825 130.34 37.3269 130.34H36.9434V131.489H37.0712V131.106H37.4547L37.7104 131.489H37.8382L37.5825 131.106C37.5825 130.979 37.7104 130.851 37.7104 130.723ZM37.3269 130.979H36.9434V130.468H37.3269C37.4547 130.468 37.5825 130.596 37.5825 130.723C37.5825 130.851 37.4547 130.979 37.3269 130.979Z" fill="white"/>
<path d="M71.0742 93.3193C70.3072 93.3193 69.6681 93.5747 69.2846 94.0853C68.9011 94.5959 68.5176 95.2342 68.5176 96.1279V96.2555L72.4804 93.83C72.2247 93.7023 72.0969 93.5747 71.8412 93.447C71.5855 93.3193 71.3299 93.3193 71.0742 93.3193Z" fill="white"/>
<path d="M28.3786 130.851C28.2508 130.851 28.1229 130.724 28.1229 130.596C28.1229 130.468 28.123 130.468 28.3786 130.468C28.123 130.468 27.9951 130.596 27.9951 130.724C27.9951 130.851 28.123 130.851 28.3786 130.851C28.5064 131.107 28.6343 131.107 28.6343 131.234C28.6343 131.362 28.5064 131.362 28.3786 131.362C28.2508 131.362 28.1229 131.234 28.1229 131.234C28.1229 131.234 28.2508 131.362 28.5064 131.362C28.7621 131.362 28.8899 131.234 28.8899 131.107C28.7621 130.979 28.6343 130.979 28.3786 130.851Z" fill="white"/>
</g>
<defs>
<clipPath id="clip0_739_518">
<rect width="158" height="150" fill="white"/>
</clipPath>
</defs>
</svg>
