<svg width="158" height="150" viewBox="0 0 158 150" fill="none" xmlns="http://www.w3.org/2000/svg">
<g clip-path="url(#clip0_739_456)">
<path d="M26.0775 80.6806L17.6406 80.4253V81.9572L26.2054 82.3402L26.0775 80.6806Z" fill="white"/>
<path d="M20.0693 130.851C20.0693 130.468 19.8137 130.213 19.4302 130.213C19.0467 130.213 18.791 130.468 18.791 130.851C18.791 131.234 19.0467 131.489 19.4302 131.489C19.8137 131.489 20.0693 131.234 20.0693 130.851ZM19.0467 130.851C19.0467 130.596 19.3023 130.341 19.558 130.341C19.8137 130.341 20.0693 130.596 20.0693 130.851C20.0693 131.107 19.8137 131.362 19.558 131.362C19.1745 131.362 19.0467 131.234 19.0467 130.851Z" fill="white"/>
<path d="M17.0015 135.064C17.0015 136.085 17.7685 136.851 18.7911 136.851C19.8138 136.851 20.5808 136.085 20.5808 135.064C20.5808 134.042 19.8138 133.276 18.7911 133.276C17.7685 133.276 17.0015 134.042 17.0015 135.064ZM20.1973 135.064C20.1973 135.83 19.5581 136.34 18.9189 136.34C18.152 136.34 17.6406 135.702 17.6406 135.064C17.6406 134.298 18.2798 133.787 18.9189 133.787C19.5581 133.787 20.1973 134.298 20.1973 135.064Z" fill="white"/>
<path d="M16.6178 133.404C16.6178 133.276 16.6178 133.276 16.4899 133.276H14.4446C14.4446 133.276 14.3168 133.276 14.3168 133.404V133.659C14.3168 133.659 14.3168 133.787 14.4446 133.787H15.8508L14.189 136.596V136.723C14.189 136.723 14.189 136.851 14.3168 136.851H16.4899C16.4899 136.851 16.6178 136.851 16.6178 136.723V136.468C16.6178 136.468 16.6178 136.34 16.4899 136.34H14.956L16.6178 133.404Z" fill="white"/>
<path d="M24.4159 130.34V131.234L23.6489 130.34V131.489V130.596L24.4159 131.617V130.34C24.5437 130.34 24.5437 130.34 24.4159 130.34Z" fill="white"/>
<path d="M27.6116 136.723C27.7394 136.851 27.7394 136.851 27.6116 136.723L27.9951 136.851C28.1229 136.851 28.1229 136.723 28.1229 136.723L26.589 133.276C26.589 133.276 26.589 133.276 26.4611 133.276H26.3333L24.7993 136.723C24.7993 136.851 24.7993 136.851 24.9271 136.851H25.3106C25.3106 136.851 25.4385 136.851 25.4385 136.723C25.5663 136.468 25.6941 136.213 25.6941 136.085H27.356L27.6116 136.723ZM25.9498 135.574L26.589 134.17L27.2281 135.574H25.9498Z" fill="white"/>
<path d="M15.084 130.468C15.2118 130.468 15.3396 130.468 15.4675 130.596C15.3396 130.34 15.2118 130.34 15.084 130.468C14.7005 130.34 14.4448 130.596 14.4448 130.979C14.4448 131.362 14.7005 131.617 15.084 131.617C15.2118 131.617 15.3396 131.617 15.4675 131.489C15.3396 131.617 15.3396 131.617 15.084 131.617C14.8283 131.617 14.5727 131.362 14.5727 131.106C14.5727 130.596 14.8283 130.468 15.084 130.468Z" fill="white"/>
<path d="M28.2505 138.638H26.5887C26.4608 138.638 26.333 138.766 26.333 138.894V148.213C26.333 148.34 26.4608 148.468 26.5887 148.468H28.2505C28.3783 148.468 28.5061 148.34 28.5061 148.213V138.894C28.5061 138.766 28.3783 138.638 28.2505 138.638Z" fill="white"/>
<path d="M23.9043 138.638H21.9869C21.859 138.638 21.7312 138.766 21.7312 138.766L19.4302 143.872H19.3024L17.0014 138.766C17.0014 138.638 16.8736 138.638 16.7458 138.638H14.8283C14.5726 138.638 14.4448 138.766 14.5726 139.021L18.9189 148.468C18.9189 148.596 19.0467 148.596 19.1746 148.596H19.3024C19.4302 148.596 19.558 148.468 19.558 148.468L24.0322 139.021C24.16 138.766 24.0322 138.638 23.9043 138.638Z" fill="white"/>
<path d="M15.4677 80.0425L14.0615 81.0638L15.3398 82.2127L16.746 81.0638L15.4677 80.0425Z" fill="white"/>
<path d="M8.69238 136.851L11.5047 142.724C13.1665 141.958 13.8057 139.915 13.0387 138.383C12.2717 136.851 10.3542 136.085 8.69238 136.851Z" fill="white"/>
<path d="M11.5047 142.851C9.84289 143.617 7.92542 142.979 7.15843 141.319C6.39144 139.66 7.0306 137.745 8.69241 136.979L5.75228 130.851C0.766843 133.277 -1.4063 139.277 1.02251 144.383C3.45131 149.362 9.4594 151.532 14.5727 149.106L11.5047 142.851Z" fill="white"/>
<path d="M68.7734 16.085C68.7734 16.085 70.9466 18.1275 70.1796 20.8084C69.0291 25.2764 68.7734 26.2977 70.8187 28.7233C70.3074 27.9573 69.6683 26.2977 71.2022 22.8509C72.6084 19.5318 70.1796 16.8509 68.7734 16.085Z" fill="white"/>
<path d="M100.348 32.1701L102.521 30.1276L106.867 32.0425V32.9361C106.739 35.1063 106.739 35.234 108.657 35.8723C108.657 35.8723 108.657 35.8723 108.785 35.8723L109.168 24.8935L107.123 26.8084L106.995 30.1276L103.927 28.7233L106.995 25.7872C108.529 24.5106 109.424 22.851 109.04 21.1914L98.4302 31.2765L100.348 32.1701Z" fill="white"/>
<path d="M91.2716 16.085L88.2036 28.9786L91.6551 29.7445C96.257 30.8935 98.8136 29.3616 99.8363 24.8935C100.859 20.4254 99.1971 17.9999 94.723 16.8509L91.2716 16.085ZM97.2797 24.3828C96.5127 27.4467 94.9787 28.4679 92.1664 27.8296L90.7602 27.4467L92.8056 18.6382L94.3395 19.0211C97.1518 19.6594 98.0467 21.319 97.2797 24.3828Z" fill="white"/>
<path d="M6.64696 6.38298H98.4301V0H0.255371V88.5958H6.64696V6.38298Z" fill="white"/>
<path d="M86.1583 19.5321C86.2861 16.8513 84.6243 15.5747 82.0677 15.447L78.4884 15.3193L77.9771 28.4683L80.1502 28.5959L80.278 23.3619H81.4285L83.8573 28.5959L86.1583 28.7236L83.4738 22.9789C84.88 22.7236 86.0305 21.83 86.1583 19.5321ZM81.9398 21.3193H80.4059L80.5337 17.6172H82.0677C83.2181 17.7449 83.9851 18.3832 83.9851 19.5321C83.9851 20.681 83.0903 21.3193 81.9398 21.3193Z" fill="white"/>
<path d="M116.199 32.2977L117.094 42.6381L117.221 42.7658L125.275 32.4253L123.613 31.1487L118.755 37.4041L117.988 26.8083L117.861 26.6807L109.807 37.0211L111.469 38.2977L116.199 32.2977Z" fill="white"/>
<path d="M20.0695 73.4045C20.453 73.1492 20.9643 73.1492 21.7313 73.2768L26.9724 73.9151L27.1003 72.3832L22.1148 71.7449C20.8365 71.6172 19.9417 71.7449 19.3025 72.0002C18.6634 72.3832 18.2799 73.0215 18.1521 73.9151C18.1521 74.4258 18.1521 74.8087 18.2799 75.1917C18.4077 75.5747 18.6634 75.9577 19.0469 76.3406L17.7686 76.213V77.7449L26.2054 78.8938L26.3333 77.3619L21.7313 76.7236C20.8365 76.596 20.1974 76.3406 19.8139 75.9577C19.4304 75.5747 19.3025 75.0641 19.4304 74.4258C19.5582 74.0428 19.686 73.6598 20.0695 73.4045Z" fill="white"/>
<path d="M141.637 72.766C140.742 73.0213 140.103 73.4043 139.592 73.9149C139.081 74.4255 138.697 75.1915 138.697 76.0851L140.487 76.9787C140.487 76.3404 140.615 75.8298 140.87 75.4468C141.254 75.0638 141.637 74.6809 142.149 74.5532C142.788 74.4255 143.299 74.5532 143.81 74.8085C144.322 75.1915 144.705 75.5745 144.833 76.2128C144.961 76.8511 144.833 77.3617 144.577 78C144.194 78.5106 143.81 78.8936 143.171 79.0213C142.66 79.1489 142.149 79.0213 141.637 78.8936C141.382 78.766 141.126 78.6383 140.87 78.5106C140.615 78.383 140.359 78.2553 139.975 78L133.456 74.5532L135.374 82.5957H137.291L136.141 77.8723L139.336 79.7872C140.359 80.4255 141.254 80.8085 141.893 80.9362C142.532 81.0638 143.299 81.1915 143.938 80.9362C145.089 80.6809 145.856 80.0426 146.495 79.1489C147.006 78.2553 147.134 77.1064 146.878 75.9574C146.623 74.6809 145.984 73.7872 145.089 73.1489C144.194 72.5106 142.788 72.5106 141.637 72.766Z" fill="white"/>
<path d="M139.081 62.6808C138.186 62.9361 137.547 63.3191 137.035 63.8297C136.524 64.3403 136.141 65.1063 136.141 65.9999L137.93 66.8935C137.93 66.2552 138.058 65.7446 138.314 65.3616C138.697 64.9786 139.081 64.5957 139.592 64.468C140.231 64.3403 140.742 64.468 141.254 64.7233C141.765 65.1063 142.149 65.4893 142.276 66.1276C142.404 66.7659 142.276 67.2765 142.021 67.9148C141.637 68.4254 141.254 68.8084 140.615 68.9361C140.103 69.0637 139.592 68.9361 139.081 68.8084C138.825 68.6808 138.569 68.5531 138.314 68.4254C138.058 68.2978 137.802 68.1701 137.419 67.9148L130.899 64.468L132.817 72.5105H134.734L133.584 67.7871L136.78 69.702C137.802 70.3403 138.697 70.7233 139.336 70.851C139.975 70.9786 140.742 71.1063 141.382 70.851C142.532 70.5957 143.299 69.9574 143.938 69.0637C144.45 68.1701 144.577 67.0212 144.322 65.8722C144.066 64.5957 143.427 63.702 142.532 63.0637C141.637 62.4254 140.231 62.2978 139.081 62.6808Z" fill="white"/>
<path d="M28.3786 130.851C28.2508 130.851 28.1229 130.724 28.1229 130.596C28.1229 130.468 28.123 130.468 28.3786 130.468C28.123 130.468 27.9951 130.596 27.9951 130.724C27.9951 130.851 28.123 130.851 28.3786 130.851C28.5064 131.107 28.6343 131.107 28.6343 131.234C28.6343 131.362 28.5064 131.362 28.3786 131.362C28.2508 131.362 28.1229 131.234 28.1229 131.234C28.1229 131.234 28.2508 131.362 28.5064 131.362C28.7621 131.362 28.8899 131.234 28.8899 131.107C28.7621 130.979 28.6343 130.979 28.3786 130.851Z" fill="white"/>
<path d="M129.11 47.234C128.854 46.7234 128.854 46.2127 128.982 45.7021C129.11 45.1915 129.493 44.8085 129.877 44.4255C130.388 44.0425 131.027 44.0425 131.539 44.1702C132.05 44.2978 132.689 44.6808 132.945 45.1915C133.328 45.7021 133.456 46.3404 133.328 46.851C133.201 47.3617 132.817 48 132.306 48.2553C131.922 48.5106 131.411 48.6383 130.772 48.6383C130.516 48.6383 130.133 48.6383 129.877 48.6383C129.621 48.6383 129.238 48.6383 128.854 48.5106L121.568 47.4893L126.17 54.3829L127.959 53.617L125.275 49.5319L128.854 50.1702C130.005 50.4255 130.9 50.4255 131.667 50.2978C132.434 50.1702 132.945 50.0425 133.584 49.6595C134.607 49.0212 135.118 48.1276 135.246 47.1063C135.374 46.0851 135.246 44.9361 134.479 44.0425C133.84 43.0212 132.817 42.3829 131.794 42.1276C130.772 41.8723 129.621 42.1276 128.599 42.7659C127.832 43.2766 127.32 43.9149 127.065 44.5532C126.809 45.3191 126.809 46.0851 126.937 46.9787L129.11 47.234Z" fill="white"/>
<path d="M128.726 56.0427C127.959 57.1917 127.959 58.4683 128.471 59.8725C129.11 61.2768 130.005 62.0427 131.411 62.298C132.817 62.5534 134.351 62.298 136.268 61.5321C138.186 60.7661 139.464 59.7448 140.231 58.4682C140.998 57.1917 140.998 56.0427 140.359 54.6385C139.72 53.2342 138.825 52.4683 137.419 52.2129C136.013 51.9576 134.479 52.2129 132.561 52.9789C130.772 53.7448 129.365 54.7661 128.726 56.0427ZM136.78 54.2555C137.802 54.3831 138.441 54.7661 138.697 55.4044C138.953 56.0427 138.825 56.8087 138.186 57.5746C137.547 58.3406 136.652 58.9789 135.374 59.6172C134.095 60.1278 133.073 60.3831 132.05 60.2555C131.027 60.1278 130.388 59.7448 130.132 59.1065C129.877 58.4682 130.005 57.7023 130.644 56.9363C131.283 56.1704 132.178 55.5321 133.456 54.8938C134.607 54.3831 135.757 54.1278 136.78 54.2555Z" fill="white"/>
<path d="M41.9287 44.298C42.44 44.1703 42.9514 43.7873 43.3348 43.4043C43.7183 43.0214 44.1018 42.5107 44.3575 42.0001C44.6132 41.4895 44.741 40.9788 44.741 40.3405L45.6358 41.3618L46.6585 40.2129L38.7329 31.6597L37.7103 32.8086L40.6504 36.0001C40.0112 36.0001 39.4999 36.0001 38.9886 36.2554C38.4772 36.3831 37.9659 36.7661 37.5824 37.0214C37.1989 37.4043 36.8154 37.915 36.5598 38.4256C36.3041 38.9363 36.1763 39.4469 36.1763 40.0852C36.1763 40.7235 36.1763 41.2341 36.4319 41.7448C36.6876 42.2554 36.9433 42.7661 37.3268 43.2767C37.7103 43.6597 38.2216 44.0426 38.7329 44.298C39.2442 44.5533 39.8834 44.6809 40.3947 44.6809C40.906 44.5533 41.5452 44.5533 41.9287 44.298ZM38.4772 42.1278C37.9659 41.4895 37.5824 40.8512 37.5824 40.0852C37.5824 39.3192 37.8381 38.6809 38.4772 38.0426C39.1164 37.532 39.7556 37.2767 40.5225 37.2767C41.2895 37.2767 41.9287 37.6597 42.5679 38.298C43.0792 38.9363 43.4627 39.5746 43.4627 40.3405C43.4627 41.1065 43.207 41.7448 42.5679 42.3831C41.9287 42.8937 41.2895 43.149 40.5225 43.149C39.7556 43.0214 38.9886 42.6384 38.4772 42.1278Z" fill="white"/>
<path d="M49.5987 38.0427C50.11 37.915 50.7492 37.6597 51.2605 37.4044C51.7718 37.0214 52.1553 36.6385 52.5388 36.2555C52.9223 35.7448 53.0501 35.2342 53.3058 34.7236C53.4336 34.0853 53.4336 33.5746 53.3058 32.9363C53.178 32.4257 53.0501 31.7874 52.6667 31.2768C52.2832 30.7661 51.8997 30.3831 51.3883 30.0002C50.877 29.6172 50.3657 29.4895 49.7265 29.3619C49.2152 29.2342 48.576 29.2342 48.0647 29.3619C47.4256 29.4895 46.9142 29.7448 46.4029 30.0002C45.8916 30.3831 45.5081 30.7661 45.1246 31.1491C44.7411 31.6597 44.6133 32.1704 44.3576 32.681C44.2298 33.3193 44.2298 33.8299 44.3576 34.4682C44.4854 34.9789 44.6133 35.6172 44.9968 36.1278C45.3802 36.6385 45.7637 37.0214 46.2751 37.4044C46.7864 37.7874 47.2977 37.915 47.9369 38.0427C48.4482 38.1704 48.9595 38.1704 49.5987 38.0427ZM46.4029 35.2342C45.8916 34.4682 45.7637 33.8299 45.8916 33.064C46.0194 32.298 46.5307 31.6597 47.1699 31.2768C47.8091 30.7661 48.576 30.6385 49.343 30.8938C50.11 31.0214 50.7492 31.5321 51.1327 32.1704C51.644 32.9363 51.7718 33.5746 51.5162 34.3406C51.3883 35.1065 50.877 35.7448 50.2378 36.1278C49.5987 36.5108 48.8317 36.7661 48.0647 36.5108C47.2977 36.2555 46.7864 36.0002 46.4029 35.2342Z" fill="white"/>
<path d="M57.2686 33.8297L55.9903 31.2765C55.3512 29.8722 55.0955 28.851 55.0955 28.085C55.2233 27.319 55.6068 26.6807 56.5016 26.2978V24.6382H56.3738C56.3738 24.6382 56.246 24.6382 56.1182 24.7658C55.479 25.0212 54.9677 25.4041 54.712 25.9148C54.4563 26.4254 54.2007 26.9361 54.2007 27.702L53.4337 26.0424L52.2832 26.8084L55.8625 34.468L57.2686 33.8297Z" fill="white"/>
<path d="M20.453 57.5746L22.1148 57.0639L21.3478 55.6597L19.686 56.0427L20.453 57.5746Z" fill="white"/>
<path d="M39.6277 46.9789L35.5371 43.7874C34.6423 43.0214 33.7475 42.7661 33.1083 42.7661C32.3413 42.8938 31.7021 43.2767 31.063 44.1704C30.8073 44.4257 30.6795 44.8087 30.4238 45.064C30.1682 45.447 30.0403 45.8299 29.7847 46.2129L30.8073 47.4895C30.9352 46.9789 31.063 46.4682 31.3186 46.0853C31.4465 45.7023 31.7021 45.3193 31.9578 45.064C32.3413 44.5533 32.7248 44.1704 33.1083 44.1704C33.4918 44.1704 33.8753 44.1704 34.2588 44.4257L34.7701 44.8087C34.3866 44.9363 34.0031 45.064 33.6196 45.3193C33.2361 45.5746 32.9805 45.8299 32.7248 46.2129C32.2135 46.9789 31.9578 47.7448 32.0856 48.5108C32.2135 49.2768 32.597 50.0427 33.364 50.5533C34.1309 51.064 34.8979 51.3193 35.6649 51.1916C36.4319 51.064 37.0711 50.681 37.7102 49.915C37.9659 49.5321 38.2216 49.1491 38.3494 48.7661C38.4772 48.3831 38.4772 47.8725 38.4772 47.4895L39.2442 48.1278L39.6277 46.9789ZM36.5598 49.0214C36.1763 49.4044 35.7928 49.6597 35.4093 49.7874C35.0258 49.915 34.5144 49.7874 34.1309 49.4044C33.7475 49.1491 33.4918 48.6385 33.4918 48.2555C33.4918 47.7448 33.6196 47.3619 34.0031 46.8512C34.3866 46.3406 34.7701 46.0853 35.2814 45.9576C35.7928 45.8299 36.1763 45.9576 36.5598 46.3406C36.9432 46.5959 37.1989 47.1065 37.1989 47.4895C37.0711 48.0002 36.9432 48.5108 36.5598 49.0214Z" fill="white"/>
<path d="M65.0664 30.3829L67.2395 30L67.8787 27.1914L69.157 21.3191C69.6683 19.4042 69.4127 17.7446 68.39 16.5957L65.0664 30.3829Z" fill="white"/>
<path d="M73.6308 27.3191C74.9092 28.9786 74.9092 28.9786 76.6988 28.5957C76.6988 28.5957 76.6988 28.5957 76.8266 28.468C75.2926 26.4254 73.7587 24.5105 72.2247 22.3403C71.969 22.9786 71.8412 23.4893 71.7134 23.9999C71.5855 24.3829 71.5855 24.6382 71.8412 24.8935C72.4804 25.6595 72.9917 26.5531 73.6308 27.3191Z" fill="white"/>
<path d="M22.7539 58.2126L30.5516 61.787L31.063 60.2551L23.2652 56.6807L22.7539 58.2126Z" fill="white"/>
<path d="M32.7247 56.6808C33.1082 56.2978 33.4917 55.9148 33.7474 55.4042C34.003 54.8936 34.2587 54.3829 34.2587 53.8723C34.2587 53.3616 34.2587 52.7233 34.1309 52.085L32.7247 52.3404C32.8525 52.7233 32.8525 53.234 32.8525 53.4893C32.8525 53.8723 32.7247 54.2553 32.469 54.5106C32.0855 55.1489 31.5742 55.5319 30.8072 55.7872C30.0402 55.9148 29.2733 55.9148 28.6341 55.4042C27.8671 55.0212 27.4836 54.3829 27.2279 53.7446C26.9723 52.9787 27.1001 52.3404 27.4836 51.5744C27.6114 51.3191 27.8671 50.9361 28.1228 50.8084C28.3784 50.5531 28.7619 50.4255 29.0176 50.2978L28.5063 48.8936C27.9949 49.0212 27.4836 49.2765 27.1001 49.6595C26.7166 50.0425 26.3331 50.4255 26.0775 50.9361C25.8218 51.4467 25.694 51.9574 25.5661 52.468C25.4383 52.9787 25.5661 53.617 25.694 54.1276C25.8218 54.7659 26.0775 55.2765 26.461 55.6595C26.8445 56.1701 27.2279 56.5531 27.7393 56.8084C28.2506 57.0638 28.7619 57.3191 29.4011 57.3191C29.9124 57.4467 30.5516 57.3191 31.1907 57.1914C31.8299 57.1914 32.3412 56.9361 32.7247 56.6808Z" fill="white"/>
<path d="M23.9043 133.276L23.7765 135.83L21.6033 133.276H21.4755C21.4755 133.276 21.3477 133.276 21.3477 133.404V136.851C21.3477 136.851 21.3477 136.978 21.4755 136.978H21.859C21.859 136.978 21.9868 136.978 21.9868 136.851V134.425L24.16 137.106H24.2878C24.2878 137.106 24.4156 137.106 24.4156 136.978V133.532C24.4156 133.532 24.4156 133.404 24.2878 133.404H23.9043V133.276Z" fill="white"/>
<path d="M45.7636 131.489V130.34H45.6357V131.489C45.6357 131.489 45.6357 131.489 45.7636 131.489Z" fill="white"/>
<path d="M50.4932 130.851C50.4932 130.468 50.2375 130.213 49.854 130.213C49.4705 130.213 49.2148 130.468 49.2148 130.851C49.2148 131.234 49.4705 131.489 49.854 131.489C50.1097 131.489 50.4932 131.234 50.4932 130.851ZM49.3427 130.851C49.3427 130.596 49.5983 130.341 49.854 130.341C50.1097 130.341 50.3653 130.596 50.3653 130.851C50.3653 131.107 50.1097 131.362 49.854 131.362C49.5983 131.362 49.3427 131.234 49.3427 130.851Z" fill="white"/>
<path d="M44.4854 135.064C44.4854 136.085 45.2523 136.851 46.275 136.851C46.7863 136.851 47.1698 136.724 47.5533 136.341V136.213L47.2977 135.83H47.1698C46.9142 135.958 46.6585 136.085 46.4028 136.085C45.7637 136.085 45.2523 135.575 45.2523 134.936C45.2523 134.298 45.7637 133.787 46.4028 133.787C46.6585 133.787 46.9142 133.915 47.1698 134.043H47.2977L47.5533 133.66V133.532C47.1698 133.277 46.7863 133.021 46.275 133.021C45.2523 133.277 44.4854 134.043 44.4854 135.064Z" fill="white"/>
<path d="M104.055 59.1064C104.055 55.2766 100.859 54 97.4075 54H93.9561V65.234H97.4075C101.626 65.234 104.055 63.5745 104.055 59.1064Z" fill="white"/>
<path d="M45.6359 112.851C46.2751 112.851 46.9142 112.596 47.2977 112.085C47.8091 111.574 47.9369 111.064 47.9369 110.298C47.9369 109.532 47.6812 109.021 47.2977 108.511C46.7864 108 46.2751 107.745 45.6359 107.745C44.9968 107.745 44.3576 108 43.9741 108.511C43.4628 109.021 43.335 109.532 43.335 110.298C43.335 111.064 43.5906 111.574 43.9741 112.085C44.3576 112.723 44.8689 112.851 45.6359 112.851Z" fill="white"/>
<path d="M87.9479 98.8085C88.5871 98.8085 88.9706 98.6808 89.3541 98.4255C89.7376 98.1702 89.8654 97.7872 89.8654 97.2765C89.8654 96.7659 89.7376 96.3829 89.3541 96.1276C88.9706 95.8723 88.5871 95.7446 88.0758 95.7446C87.5645 95.7446 87.0531 95.8723 86.7975 96.1276C86.5418 96.3829 86.2861 96.7659 86.2861 97.2765C86.2861 97.7872 86.414 98.0425 86.7975 98.4255C87.181 98.8085 87.4366 98.8085 87.9479 98.8085Z" fill="white"/>
<path d="M48.1923 136.851H48.5758C48.7036 136.851 48.7036 136.851 48.7036 136.723L48.9593 136.213H50.4933L50.7489 136.723C50.7489 136.851 50.8768 136.851 50.8768 136.851H51.2602C51.3881 136.851 51.3881 136.723 51.3881 136.723L49.8541 133.276C49.8541 133.276 49.8541 133.276 49.7263 133.276H49.5984L48.0645 136.723L48.1923 136.851ZM49.8541 134.553L50.3654 135.702H49.3428L49.8541 134.553Z" fill="white"/>
<path d="M68.1343 58.085L63.6602 67.1488H72.6084L68.1343 58.085Z" fill="white"/>
<path d="M41.9286 106.851L43.2069 106.723V107.872C43.5904 107.489 43.9739 107.234 44.3574 106.979C44.7409 106.851 45.2522 106.723 45.7635 106.723C46.2749 106.723 46.6584 106.851 47.0418 106.979C47.4253 107.106 47.8088 107.362 48.1923 107.745C48.5758 108.128 48.8315 108.511 49.0872 108.893C49.3428 109.276 49.3428 109.787 49.3428 110.298C49.3428 110.808 49.215 111.319 49.0872 111.702C48.9593 112.213 48.5758 112.596 48.1923 112.851C47.8088 113.234 47.4253 113.489 47.0418 113.617C46.6584 113.745 46.147 113.872 45.6357 113.872C45.1244 113.872 44.7409 113.745 44.3574 113.617C43.9739 113.489 43.5904 113.106 43.2069 112.723V116.042L42.0564 116.17C51.3881 126.893 65.0661 133.659 80.2781 133.659C108.273 133.659 131.027 110.808 131.027 82.7233C131.027 54.6382 108.273 31.7871 80.2781 31.7871C52.2829 31.7871 29.6567 54.8935 29.6567 83.1063C29.6567 95.7446 34.2587 107.362 41.9286 116.298V106.851ZM60.8477 111.83C60.7198 112.34 60.3363 112.723 59.9529 112.979C59.5694 113.362 59.1859 113.617 58.6745 113.745C58.1632 113.872 57.7797 114 57.2684 114C56.7571 114 56.2457 113.872 55.8622 113.745C55.4787 113.617 54.9674 113.362 54.5839 112.979C54.2004 112.596 53.9448 112.213 53.6891 111.83C53.4334 111.447 53.4334 110.936 53.4334 110.425C53.4334 109.915 53.5613 109.404 53.6891 109.021C53.9448 108.511 54.2004 108.128 54.5839 107.872C54.9674 107.489 55.3509 107.234 55.8622 107.106C56.3736 106.979 56.7571 106.851 57.2684 106.851C57.7797 106.851 58.291 106.979 58.6745 107.106C59.1859 107.234 59.5694 107.489 59.9529 107.872C60.3363 108.255 60.592 108.638 60.8477 109.021C61.1033 109.532 61.1033 109.915 61.1033 110.425C61.1033 110.936 60.9755 111.447 60.8477 111.83ZM68.7732 114L67.4949 114.128V112.979C67.1114 113.362 66.7279 113.617 66.3444 113.872C65.9609 114 65.4496 114.128 64.9383 114.128C64.427 114.128 64.0435 114 63.5321 113.872C63.1486 113.745 62.7651 113.489 62.3817 113.106C61.9982 112.723 61.7425 112.34 61.4868 111.957C61.2312 111.447 61.2312 111.064 61.2312 110.553C61.2312 110.042 61.359 109.532 61.4868 109.149C61.6147 108.638 61.9982 108.255 62.3817 108C62.7651 107.617 63.1486 107.362 63.5321 107.234C63.9156 107.106 64.427 106.979 64.9383 106.979C65.4496 106.979 65.8331 107.106 66.2166 107.234C66.6001 107.362 66.9836 107.745 67.3671 108V104.425L68.6454 104.298V114H68.7732ZM75.2927 114L74.0143 114.128V113.106C73.7587 113.489 73.503 113.745 73.1195 113.872C72.736 114 72.3525 114.128 71.969 114.128C71.202 114.128 70.5629 113.872 70.1794 113.362C69.7959 112.851 69.5402 112.085 69.5402 111.064V106.851L70.8185 106.723V111.191C70.8185 111.83 70.9464 112.34 71.0742 112.596C71.3299 112.851 71.5855 112.979 72.0969 112.979C72.6082 112.979 73.1195 112.851 73.3752 112.468C73.6308 112.085 73.7587 111.574 73.7587 110.808V106.979L75.037 106.851V114H75.2927ZM75.5483 99.9573L74.27 100.213V99.319C74.0143 99.5743 73.6308 99.8297 73.2473 99.9573C72.8639 100.085 72.4804 100.213 71.969 100.213C71.0742 100.213 70.3072 99.9573 69.7959 99.4467C69.2846 98.9361 69.0289 98.2978 69.0289 97.4041C69.0289 96.5105 69.2846 95.8722 69.7959 95.3616C70.3072 94.8509 71.0742 94.5956 71.8412 94.5956C72.2247 94.5956 72.6082 94.5956 72.9917 94.7233C73.3752 94.8509 73.6308 94.9786 74.0143 95.2339V94.5956C74.0143 94.085 73.8865 93.8297 73.6308 93.5743C73.3752 93.319 72.8639 93.319 72.2247 93.319C71.8412 93.319 71.5855 93.319 71.202 93.4467C70.8185 93.5743 70.4351 93.702 69.9237 93.8297L70.3072 92.2978C70.6907 92.1701 71.202 92.0424 71.5855 92.0424C71.969 92.0424 72.3525 91.9148 72.6082 91.9148C73.6308 91.9148 74.3978 92.1701 74.7813 92.6807C75.1648 93.1914 75.4205 93.9573 75.4205 94.9786V99.9573H75.5483ZM86.0305 114C85.9027 114 85.7749 114 85.647 114C85.5192 114 85.3914 114 85.2635 114C84.3687 114 83.7295 113.745 83.3461 113.362C82.9626 112.851 82.8347 112.085 82.8347 110.936V108.128H81.8121L81.3007 108.638C81.0451 108.383 80.7894 108.255 80.5338 108.128C80.2781 108 80.0224 108 79.6389 108C78.9998 108 78.3606 108.255 77.9771 108.638C77.5936 109.021 77.338 109.659 77.338 110.425C77.338 111.064 77.5936 111.702 77.9771 112.213C78.4885 112.723 78.9998 112.979 79.6389 112.979C80.0224 112.979 80.2781 112.979 80.5338 112.851C80.7894 112.723 81.0451 112.468 81.4286 112.213L82.3234 113.106C81.9399 113.489 81.4286 113.745 81.0451 114C80.6616 114.128 80.1503 114.255 79.6389 114.255C79.1276 114.255 78.7441 114.128 78.3606 114C77.9771 113.872 77.5936 113.617 77.2101 113.234C76.8266 112.851 76.571 112.468 76.3153 111.957C76.1875 111.447 76.0596 111.064 76.0596 110.553C76.0596 110.042 76.1875 109.532 76.3153 109.149C76.571 108.638 76.8266 108.255 77.2101 108C77.5936 107.617 77.9771 107.362 78.3606 107.234C78.8719 107.106 79.2554 106.979 79.7668 106.979C80.2781 106.979 80.7894 107.106 81.1729 107.234C81.5564 107.362 81.8121 107.617 82.0677 107.872L82.3234 107.234H82.9626V105.447L84.3687 105.064V107.234H86.2862V108.383H84.3687V111.191C84.3687 112.085 84.4965 112.596 84.6244 112.851C84.88 113.106 85.2635 113.234 85.7749 113.234C85.9027 113.234 86.0305 113.234 86.1584 113.234C86.2862 113.234 86.414 113.234 86.5418 113.106L86.0305 114ZM77.2101 100.085V89.2339L78.7441 89.1063V99.9573L77.2101 100.085ZM87.948 114L86.5418 114.128V106.851L87.948 106.723V114ZM86.414 104.936L87.3088 103.787L88.2037 104.936L87.3088 105.957L86.414 104.936ZM91.3995 114.255L87.948 106.979L89.2263 106.723L91.1438 110.808C91.2716 110.936 91.2716 111.191 91.2716 111.319C91.2716 111.447 91.3995 111.574 91.3995 111.702C91.3995 111.574 91.5273 111.447 91.5273 111.191C91.5273 111.064 91.6551 110.936 91.6551 110.808L93.4448 106.596L94.7231 106.851L91.3995 114.255ZM96.2571 114L94.8509 114.128V106.851L96.2571 106.723V114ZM95.6179 105.957L94.5952 104.936L95.4901 103.787L96.3849 104.936L95.6179 105.957ZM104.438 114L103.16 114.128V112.979C102.776 113.362 102.393 113.617 102.009 113.872C101.626 114 101.115 114.128 100.603 114.128C100.092 114.128 99.7085 114 99.1972 113.872C98.8137 113.745 98.4302 113.489 98.0467 113.106C97.6632 112.723 97.4075 112.34 97.1519 111.957C96.8962 111.447 96.8962 111.064 96.8962 110.553C96.8962 110.042 97.024 109.532 97.1519 109.149C97.2797 108.638 97.6632 108.255 98.0467 108C98.4302 107.617 98.8137 107.362 99.1972 107.234C99.5807 107.106 100.092 106.979 100.603 106.979C101.115 106.979 101.498 107.106 101.882 107.234C102.265 107.362 102.649 107.745 103.032 108V104.425L104.31 104.298V114H104.438ZM111.597 109.021C111.725 108.511 112.108 108.128 112.492 107.872C112.875 107.489 113.259 107.234 113.642 107.106C114.026 106.979 114.537 106.851 115.048 106.851C115.56 106.851 115.943 106.979 116.327 107.106C116.71 107.234 117.094 107.617 117.477 107.872V104.298L118.755 104.17V114.128L117.477 114.255V113.106C117.094 113.489 116.71 113.745 116.327 114C115.943 114.128 115.432 114.255 114.92 114.255C114.409 114.255 114.026 114.128 113.514 114C113.131 113.872 112.747 113.617 112.364 113.234C111.98 112.851 111.725 112.468 111.469 112.085C111.213 111.574 111.213 111.191 111.213 110.681C111.341 109.915 111.341 109.404 111.597 109.021ZM110.83 109.532V114L109.679 114.255V113.489C109.424 113.745 109.168 114 108.785 114.128C108.401 114.255 108.018 114.383 107.634 114.383C106.867 114.383 106.1 114.128 105.717 113.745C105.205 113.234 104.95 112.723 104.95 111.83C104.95 111.064 105.205 110.425 105.717 109.915C106.228 109.404 106.867 109.149 107.634 109.149C108.018 109.149 108.401 109.149 108.657 109.276C108.912 109.404 109.296 109.532 109.552 109.787V109.276C109.552 108.893 109.424 108.511 109.168 108.383C108.912 108.255 108.529 108.128 107.89 108.128C107.634 108.128 107.251 108.128 106.995 108.255C106.739 108.383 106.228 108.511 105.844 108.638L106.228 107.234C106.611 107.106 106.995 107.106 107.378 106.979C107.762 106.979 108.018 106.851 108.401 106.851C109.296 106.851 110.063 107.106 110.446 107.489C110.574 107.872 110.83 108.511 110.83 109.532ZM89.3541 49.7871H97.791C104.183 49.7871 108.401 53.6169 108.401 59.1063C108.401 66.8935 103.032 69.319 96.1292 69.319H93.7004V81.4467L89.2263 81.9573V49.7871H89.3541ZM85.647 95.3616C86.1584 94.8509 86.9253 94.5956 87.6923 94.5956C88.0758 94.5956 88.4593 94.5956 88.8428 94.7233C89.2263 94.8509 89.482 94.9786 89.8655 95.2339V94.5956C89.8655 94.085 89.7376 93.8297 89.482 93.5743C89.2263 93.319 88.715 93.319 88.0758 93.319C87.6923 93.319 87.4367 93.319 87.0532 93.4467C86.6697 93.5743 86.2862 93.702 85.7749 93.8297L86.1584 92.2978C86.5418 92.1701 87.0532 92.0424 87.4367 92.0424C87.8202 92.0424 88.2037 91.9148 88.4593 91.9148C89.482 91.9148 90.249 92.1701 90.6325 92.6807C91.016 93.1914 91.2716 93.9573 91.2716 94.9786V99.8297L89.9933 100.085V99.1914C89.7376 99.4467 89.3541 99.702 88.9706 99.8297C88.5872 99.9573 88.2037 100.085 87.6923 100.085C86.7975 100.085 86.0305 99.8297 85.5192 99.319C85.0079 98.8084 84.7522 98.1701 84.7522 97.2765C84.7522 96.5105 85.0079 95.8722 85.647 95.3616ZM84.113 99.9573C83.9852 99.9573 83.7296 99.9573 83.6017 99.9573C83.4739 99.9573 83.3461 99.9573 83.2182 99.9573C82.1956 99.9573 81.5564 99.702 81.1729 99.1914C80.7894 98.6807 80.5338 97.7871 80.5338 96.5105V93.4467H79.3833L79.7668 92.1701H80.5338V90.2552L82.0677 89.8722V92.1701H84.113V93.4467H82.0677V96.5105C82.0677 97.4041 82.1956 98.0424 82.4512 98.2978C82.7069 98.5531 83.0904 98.6807 83.7296 98.6807C83.8574 98.6807 83.9852 98.6807 84.113 98.6807C84.2409 98.6807 84.3687 98.6807 84.4965 98.5531L84.113 99.9573ZM68.2619 49.0212L84.3687 81.319L79.8946 82.2126L74.5257 71.3616H61.8703L56.5014 82.2126L52.283 81.319L68.2619 49.0212ZM49.982 106.851L51.3881 106.723V108.255C51.6438 107.745 52.0273 107.362 52.4108 107.106C52.7943 106.851 53.3056 106.723 53.9448 106.723C54.0726 106.723 54.0726 106.723 54.0726 106.723H54.2004L53.5613 108C52.7943 108.128 52.1551 108.383 51.7716 108.893C51.3881 109.404 51.2603 110.298 51.2603 111.574V114L49.8541 114.128V106.851H49.982Z" fill="white"/>
<path d="M41.8008 130.468C41.9286 130.468 42.0564 130.468 42.1843 130.596C42.0564 130.34 41.9286 130.34 41.8008 130.468C41.4173 130.34 41.1616 130.596 41.1616 130.979C41.1616 131.362 41.4173 131.617 41.8008 131.617C41.9286 131.617 42.0564 131.617 42.1843 131.489C42.0564 131.617 42.0564 131.617 41.8008 131.617C41.5451 131.617 41.2895 131.362 41.2895 131.106C41.2895 130.596 41.4173 130.468 41.8008 130.468Z" fill="white"/>
<path d="M39.4999 143.362H36.6876C36.5598 143.362 36.4319 143.489 36.4319 143.617V145.021C36.4319 145.149 36.5598 145.277 36.6876 145.277H37.5824V146.043C37.1989 146.17 36.6876 146.298 36.3041 146.298C34.7701 146.298 33.4918 145.021 33.4918 143.489C33.4918 141.958 34.7701 140.681 36.3041 140.681C36.9432 140.681 37.5824 140.809 38.0937 141.319C38.2216 141.447 38.3494 141.447 38.4772 141.319L39.6277 140.17C39.7555 140.043 39.7555 139.915 39.6277 139.787C38.6051 138.894 37.3267 138.511 36.1763 138.511C33.364 138.511 31.063 140.809 31.063 143.617C31.063 146.426 33.364 148.724 36.1763 148.724C38.2216 148.724 39.6277 147.83 39.6277 147.83C39.6277 147.83 39.7555 147.702 39.7555 147.575V143.745C39.7555 143.489 39.6277 143.362 39.4999 143.362Z" fill="white"/>
<path d="M47.4253 138.511C44.613 138.511 42.312 140.809 42.312 143.617C42.312 146.426 44.613 148.724 47.4253 148.724C50.2376 148.724 52.5385 146.426 52.5385 143.617C52.5385 140.809 50.2376 138.511 47.4253 138.511ZM47.4253 146.426C45.8913 146.426 44.613 145.149 44.613 143.617C44.613 142.085 45.8913 140.681 47.4253 140.681C48.9593 140.681 50.3654 141.958 50.3654 143.617C50.2376 145.149 48.9593 146.426 47.4253 146.426Z" fill="white"/>
<path d="M43.3346 136.851L43.4624 133.404C43.4624 133.404 43.4624 133.277 43.3346 133.277H42.8232C42.8232 133.277 42.6954 133.277 42.6954 133.404V135.447L40.5223 133.149H40.3944C40.3944 133.149 40.2666 133.149 40.2666 133.277V136.723C40.2666 136.723 40.2666 136.851 40.3944 136.851H40.9058C40.9058 136.851 41.0336 136.851 41.0336 136.723V134.553L43.3346 136.851Z" fill="white"/>
<path d="M151.608 51.4468V143.617H69.668V150H158V51.4468H151.608Z" fill="white"/>
<path d="M36.1762 136.851H36.5597C36.6875 136.851 36.6875 136.851 36.6875 136.723L36.9432 136.213H38.4771L38.7328 136.723C38.7328 136.851 38.8606 136.851 38.8606 136.851H39.2441C39.372 136.851 39.372 136.723 39.372 136.723L37.838 133.276C37.838 133.276 37.838 133.276 37.7102 133.276H37.5823L36.0483 136.723C36.1762 136.723 36.1762 136.851 36.1762 136.851ZM37.838 134.553L38.3493 135.702H37.3267L37.838 134.553Z" fill="white"/>
<path d="M35.537 134.298C35.537 133.66 35.0257 133.149 34.3865 133.149H32.9804C32.9804 133.149 32.8525 133.149 32.8525 133.277V136.596C32.8525 136.596 32.8525 136.723 32.9804 136.723H33.4917C33.4917 136.723 33.6195 136.723 33.6195 136.596V135.319H34.1309L34.77 136.723C34.77 136.723 34.77 136.723 34.8978 136.723H35.4092C35.537 136.723 35.537 136.596 35.537 136.596L34.8978 135.319C35.1535 135.191 35.537 134.808 35.537 134.298ZM34.2587 134.936H33.4917V133.915H34.2587C34.5143 133.915 34.77 134.17 34.77 134.426C34.77 134.681 34.6422 134.936 34.2587 134.936Z" fill="white"/>
<path d="M37.7104 130.723C37.7104 130.468 37.5825 130.34 37.3269 130.34H36.9434V131.489H37.0712V131.106H37.4547L37.7104 131.489H37.8382L37.5825 131.106C37.5825 130.979 37.7104 130.851 37.7104 130.723ZM37.3269 130.979H36.9434V130.468H37.3269C37.4547 130.468 37.5825 130.596 37.5825 130.723C37.5825 130.851 37.4547 130.979 37.3269 130.979Z" fill="white"/>
<path d="M33.3638 130.851C33.3638 130.468 33.1081 130.213 32.7246 130.213C32.3411 130.213 32.0854 130.468 32.0854 130.851C32.0854 131.234 32.3411 131.489 32.7246 131.489C33.1081 131.489 33.3638 131.234 33.3638 130.851ZM32.7246 131.362C32.4689 131.362 32.2133 131.107 32.2133 130.851C32.2133 130.596 32.4689 130.341 32.7246 130.341C32.9803 130.341 33.2359 130.596 33.2359 130.851C33.2359 131.234 32.9803 131.362 32.7246 131.362Z" fill="white"/>
<path d="M31.702 135.319V134.936C31.702 134.936 31.702 134.808 31.5742 134.808H30.2959V133.915H31.8299C31.8299 133.915 31.9577 133.915 31.9577 133.787V133.404C31.9577 133.404 31.9577 133.276 31.8299 133.276H29.7846C29.7846 133.276 29.6567 133.276 29.6567 133.404V136.723C29.6567 136.723 29.6567 136.851 29.7846 136.851H30.2959C30.2959 136.851 30.4237 136.851 30.4237 136.723V135.447L31.702 135.319C31.702 135.447 31.702 135.447 31.702 135.319Z" fill="white"/>
<path d="M107.89 110.17C107.379 110.17 106.995 110.298 106.739 110.553C106.484 110.809 106.228 111.192 106.228 111.575C106.228 111.958 106.356 112.341 106.612 112.596C106.867 112.851 107.251 112.979 107.762 112.979C108.273 112.979 108.785 112.851 109.04 112.596C109.296 112.341 109.552 111.958 109.552 111.575C109.552 111.192 109.424 110.809 109.04 110.553C108.785 110.298 108.401 110.17 107.89 110.17Z" fill="white"/>
<path d="M72.3526 95.7446C71.8413 95.7446 71.33 95.8723 71.0743 96.1276C70.8186 96.3829 70.563 96.7659 70.563 97.2765C70.563 97.7872 70.6908 98.0425 71.0743 98.4255C71.4578 98.8085 71.8413 98.8085 72.3526 98.8085C72.9918 98.8085 73.3753 98.6808 73.7588 98.4255C74.1423 98.1702 74.2701 97.7872 74.2701 97.2765C74.2701 96.7659 74.1423 96.3829 73.7588 96.1276C73.3753 95.8723 72.9918 95.7446 72.3526 95.7446Z" fill="white"/>
<path d="M115.049 112.851C115.688 112.851 116.327 112.596 116.71 112.085C117.222 111.574 117.35 111.064 117.35 110.298C117.35 109.532 117.094 109.021 116.71 108.511C116.199 108 115.688 107.745 115.049 107.745C114.409 107.745 113.77 108 113.387 108.511C112.875 109.021 112.748 109.532 112.748 110.298C112.748 111.064 113.003 111.574 113.387 112.085C113.77 112.723 114.409 112.851 115.049 112.851Z" fill="white"/>
<path d="M65.0661 108C64.427 108 63.7878 108.255 63.4043 108.766C62.893 109.277 62.7651 109.787 62.7651 110.553C62.7651 111.319 63.0208 111.83 63.4043 112.34C63.9156 112.851 64.427 113.106 65.0661 113.106C65.7053 113.106 66.3444 112.851 66.7279 112.34C67.2392 111.83 67.3671 111.319 67.3671 110.553C67.3671 109.787 67.1114 109.277 66.7279 108.766C66.3444 108.128 65.7053 108 65.0661 108Z" fill="white"/>
<path d="M57.2686 107.873C56.6295 107.873 55.9903 108.128 55.479 108.639C54.9677 109.149 54.8398 109.66 54.8398 110.426C54.8398 111.192 55.0955 111.702 55.479 112.213C55.9903 112.724 56.5017 112.979 57.2686 112.979C58.0356 112.979 58.547 112.724 59.0583 112.213C59.5696 111.702 59.8253 111.192 59.8253 110.426C59.8253 109.66 59.5696 109.149 59.1861 108.639C58.547 108.128 58.0356 107.873 57.2686 107.873Z" fill="white"/>
<path d="M18.4075 59.6172L18.1519 61.2768L22.2425 62.5534C21.7311 62.8087 21.2198 63.1917 20.9642 63.5746C20.5807 63.9576 20.325 64.4683 20.1972 64.9789C20.0693 65.4895 19.9415 66.1278 20.0693 66.6385C20.0693 67.1491 20.325 67.7874 20.5807 68.298C20.8363 68.8087 21.2198 69.3193 21.6033 69.7023C21.9868 70.0853 22.626 70.3406 23.1373 70.4683C23.7765 70.5959 24.2878 70.7236 24.9269 70.5959C25.5661 70.5959 26.0774 70.3406 26.5887 70.0853C27.1001 69.83 27.4836 69.447 27.8671 69.064C28.2506 68.681 28.5062 68.1704 28.6341 67.6597C28.7619 67.1491 28.8897 66.5108 28.7619 66.0002C28.6341 65.4895 28.5062 64.9789 28.2506 64.3406L29.5289 64.7236L29.7845 63.1917L18.4075 59.6172ZM27.2279 66.8938C26.9722 67.6597 26.5888 68.1704 25.8218 68.5534C25.1826 68.9363 24.4156 68.9363 23.5208 68.681C22.7538 68.4257 22.1146 67.9151 21.7311 67.2768C21.3476 66.6385 21.2198 65.8725 21.4755 65.1065C21.7311 64.3406 22.1146 63.83 22.8816 63.447C23.5208 63.064 24.2878 63.064 25.1826 63.3193C25.9496 63.5746 26.5887 64.0853 26.9722 64.7236C27.3557 65.4895 27.4836 66.1278 27.2279 66.8938Z" fill="white"/>
<path d="M100.603 108C99.9641 108 99.3249 108.255 98.9414 108.766C98.4301 109.277 98.3022 109.787 98.3022 110.553C98.3022 111.319 98.5579 111.83 98.9414 112.34C99.4527 112.851 99.9641 113.106 100.603 113.106C101.242 113.106 101.882 112.851 102.265 112.34C102.776 111.83 102.904 111.319 102.904 110.553C102.904 109.787 102.649 109.277 102.265 108.766C101.882 108.128 101.37 108 100.603 108Z" fill="white"/>
</g>
<defs>
<clipPath id="clip0_739_456">
<rect width="158" height="150" fill="white"/>
</clipPath>
</defs>
</svg>
