<svg width="158" height="150" viewBox="0 0 158 150" fill="none" xmlns="http://www.w3.org/2000/svg">
<g clip-path="url(#clip0_739_396)">
<path d="M17.0015 135.064C17.0015 136.085 17.7685 136.851 18.7911 136.851C19.8138 136.851 20.5808 136.085 20.5808 135.064C20.5808 134.042 19.8138 133.276 18.7911 133.276C17.7685 133.276 17.0015 134.042 17.0015 135.064ZM20.1973 135.064C20.1973 135.83 19.5581 136.34 18.9189 136.34C18.152 136.34 17.6406 135.702 17.6406 135.064C17.6406 134.298 18.2798 133.787 18.9189 133.787C19.5581 133.787 20.1973 134.298 20.1973 135.064Z" fill="white"/>
<path d="M33.3638 130.851C33.3638 130.468 33.1081 130.213 32.7246 130.213C32.3411 130.213 32.0854 130.468 32.0854 130.851C32.0854 131.234 32.3411 131.489 32.7246 131.489C33.1081 131.489 33.3638 131.234 33.3638 130.851ZM32.7246 131.362C32.4689 131.362 32.2133 131.107 32.2133 130.851C32.2133 130.596 32.4689 130.341 32.7246 130.341C32.9803 130.341 33.2359 130.596 33.2359 130.851C33.2359 131.234 32.9803 131.362 32.7246 131.362Z" fill="white"/>
<path d="M20.0693 130.851C20.0693 130.468 19.8137 130.213 19.4302 130.213C19.0467 130.213 18.791 130.468 18.791 130.851C18.791 131.234 19.0467 131.489 19.4302 131.489C19.8137 131.489 20.0693 131.234 20.0693 130.851ZM19.0467 130.851C19.0467 130.596 19.3023 130.341 19.558 130.341C19.8137 130.341 20.0693 130.596 20.0693 130.851C20.0693 131.107 19.8137 131.362 19.558 131.362C19.3023 131.362 19.0467 131.234 19.0467 130.851Z" fill="white"/>
<path d="M31.702 135.319V134.936C31.702 134.936 31.702 134.808 31.5742 134.808H30.2959V133.915H31.8299C31.8299 133.915 31.9577 133.915 31.9577 133.787V133.404C31.9577 133.404 31.9577 133.276 31.8299 133.276H29.7846C29.7846 133.276 29.6567 133.276 29.6567 133.404V136.723C29.6567 136.723 29.6567 136.851 29.7846 136.851H30.2959C30.2959 136.851 30.4237 136.851 30.4237 136.723V135.447L31.702 135.319C31.702 135.447 31.702 135.447 31.702 135.319Z" fill="white"/>
<path d="M20.453 57.5746L22.1148 57.0639L21.3478 55.6597L19.686 56.0427L20.453 57.5746Z" fill="white"/>
<path d="M57.2686 33.8297L55.9903 31.2765C55.3512 29.8722 55.0955 28.851 55.0955 28.085C55.2233 27.319 55.6068 26.6807 56.5016 26.2978V24.6382H56.3738C56.3738 24.6382 56.246 24.6382 56.1182 24.7658C55.479 25.0212 54.9677 25.4041 54.712 25.9148C54.4563 26.4254 54.2007 26.9361 54.2007 27.702L53.4337 26.0424L52.2832 26.8084L55.8625 34.468L57.2686 33.8297Z" fill="white"/>
<path d="M26.0775 80.6806L17.6406 80.4253V81.9572L26.2054 82.3402L26.0775 80.6806Z" fill="white"/>
<path d="M20.0695 73.4045C20.453 73.1492 20.9643 73.1492 21.7313 73.2768L26.9724 73.9151L27.1003 72.3832L22.1148 71.7449C20.8365 71.6172 19.9417 71.7449 19.3025 72.0002C18.6634 72.3832 18.2799 73.0215 18.1521 73.9151C18.1521 74.4258 18.1521 74.8087 18.2799 75.1917C18.4077 75.5747 18.6634 75.9577 19.0469 76.3406L17.7686 76.213V77.7449L26.2054 78.8938L26.3333 77.3619L21.7313 76.7236C20.8365 76.596 20.1974 76.3406 19.8139 75.9577C19.4304 75.5747 19.3025 75.0641 19.4304 74.4258C19.5582 74.0428 19.686 73.6598 20.0695 73.4045Z" fill="white"/>
<path d="M16.6178 133.404C16.6178 133.276 16.6178 133.276 16.4899 133.276H14.4446C14.4446 133.276 14.3168 133.276 14.3168 133.404V133.659C14.3168 133.659 14.3168 133.787 14.4446 133.787H15.8508L14.189 136.596V136.723C14.189 136.723 14.189 136.851 14.3168 136.851H16.4899C16.4899 136.851 16.6178 136.851 16.6178 136.723V136.468C16.6178 136.468 16.6178 136.34 16.4899 136.34H14.956L16.6178 133.404Z" fill="white"/>
<path d="M8.69238 136.851L11.5047 142.723C13.1665 141.957 13.8057 139.915 13.0387 138.383C12.2717 136.723 10.3542 136.085 8.69238 136.851Z" fill="white"/>
<path d="M49.5987 38.0427C50.11 37.915 50.7492 37.6597 51.2605 37.4044C51.7718 37.0214 52.1553 36.6385 52.5388 36.2555C52.9223 35.7448 53.0501 35.2342 53.3058 34.7236C53.4336 34.0853 53.4336 33.5746 53.3058 32.9363C53.178 32.4257 53.0501 31.7874 52.6667 31.2768C52.2832 30.7661 51.8997 30.3831 51.3883 30.0002C50.877 29.6172 50.3657 29.4895 49.7265 29.3619C49.2152 29.2342 48.576 29.2342 48.0647 29.3619C47.4256 29.4895 46.9142 29.7448 46.4029 30.0002C45.8916 30.3831 45.5081 30.7661 45.1246 31.1491C44.7411 31.6597 44.6133 32.1704 44.3576 32.681C44.2298 33.3193 44.2298 33.8299 44.3576 34.4682C44.4854 34.9789 44.6133 35.6172 44.9968 36.1278C45.3802 36.6385 45.7637 37.0214 46.2751 37.4044C46.7864 37.7874 47.2977 37.915 47.9369 38.0427C48.4482 38.1704 48.9595 38.1704 49.5987 38.0427ZM46.4029 35.2342C45.8916 34.4682 45.7637 33.8299 45.8916 33.064C46.0194 32.298 46.5307 31.6597 47.1699 31.2768C47.8091 30.7661 48.576 30.6385 49.343 30.8938C50.11 31.0214 50.7492 31.5321 51.1327 32.1704C51.644 32.9363 51.7718 33.5746 51.5162 34.3406C51.3883 35.1065 50.877 35.7448 50.2378 36.1278C49.5987 36.5108 48.8317 36.7661 48.0647 36.5108C47.4256 36.3831 46.7864 36.0002 46.4029 35.2342Z" fill="white"/>
<path d="M35.537 134.298C35.537 133.66 35.0257 133.149 34.3865 133.149H32.9804C32.9804 133.149 32.8525 133.149 32.8525 133.277V136.596C32.8525 136.596 32.8525 136.723 32.9804 136.723H33.4917C33.4917 136.723 33.6195 136.723 33.6195 136.596V135.319H34.1309L34.77 136.723C34.77 136.723 34.77 136.723 34.8978 136.723H35.4092C35.537 136.723 35.537 136.596 35.537 136.596L34.8978 135.319C35.1535 135.191 35.537 134.808 35.537 134.298ZM34.2587 134.936H33.4917V133.915H34.2587C34.5143 133.915 34.77 134.17 34.77 134.426C34.77 134.681 34.6422 134.936 34.2587 134.936Z" fill="white"/>
<path d="M11.5047 142.851C9.84289 143.617 7.92542 142.979 7.15843 141.319C6.39144 139.66 7.0306 137.745 8.69241 136.979L5.75228 130.851C0.766843 133.277 -1.4063 139.277 1.02251 144.383C3.45131 149.362 9.4594 151.532 14.5727 149.106L11.5047 142.851Z" fill="white"/>
<path d="M143.555 74.5531C142.66 74.8084 142.021 75.1914 141.509 75.8297C140.998 76.468 140.742 77.2339 140.615 78.1276L142.404 78.8935C142.404 78.2552 142.532 77.7446 142.788 77.3616C143.043 76.851 143.555 76.5956 144.066 76.468C144.705 76.3403 145.216 76.468 145.728 76.7233C146.239 77.1063 146.623 77.4893 146.75 78.1276C146.878 78.7659 146.878 79.2765 146.495 79.9148C146.111 80.4254 145.728 80.8084 145.089 80.9361C144.577 81.0637 144.066 81.0637 143.555 80.8084C143.299 80.6808 143.043 80.5531 142.788 80.5531C142.532 80.4254 142.276 80.2978 141.893 80.1701L135.246 76.851L137.291 84.8935L139.208 84.7659L138.058 80.0425L141.254 81.8297C142.276 82.3403 143.171 82.7233 143.81 82.9786C144.449 83.1063 145.216 83.1063 145.856 82.9786C147.006 82.7233 147.773 82.085 148.284 81.0637C148.796 80.0425 148.924 79.0212 148.668 77.8722C148.412 76.5956 147.773 75.702 146.75 75.1914C145.728 74.4254 144.705 74.2978 143.555 74.5531Z" fill="white"/>
<path d="M15.084 130.468C15.2118 130.468 15.3396 130.468 15.4675 130.596C15.3396 130.34 15.2118 130.34 15.084 130.468C14.7005 130.34 14.4448 130.596 14.4448 130.979C14.4448 131.362 14.7005 131.617 15.084 131.617C15.2118 131.617 15.3396 131.617 15.4675 131.489C15.3396 131.617 15.3396 131.617 15.084 131.617C14.8283 131.617 14.5727 131.362 14.5727 131.106C14.5727 130.596 14.8283 130.468 15.084 130.468Z" fill="white"/>
<path d="M15.4677 80.0425L14.0615 81.0638L15.3398 82.2127L16.746 81.0638L15.4677 80.0425Z" fill="white"/>
<path d="M23.9043 138.638H21.9869C21.859 138.638 21.7312 138.766 21.7312 138.766L19.4302 143.872H19.3024L17.0014 138.766C17.0014 138.638 16.8736 138.638 16.7458 138.638H14.8283C14.5726 138.638 14.4448 138.766 14.5726 139.021L18.9189 148.468C18.9189 148.596 19.0467 148.596 19.1746 148.596H19.3024C19.4302 148.596 19.558 148.468 19.558 148.468L24.0322 139.021C24.16 138.766 24.0322 138.638 23.9043 138.638Z" fill="white"/>
<path d="M140.359 64.4679C139.464 64.7232 138.825 65.1062 138.314 65.6168C137.802 66.1274 137.419 66.8934 137.419 67.787L139.208 68.6806C139.208 68.0423 139.336 67.5317 139.592 67.1487C139.975 66.7657 140.359 66.3828 140.87 66.2551C141.509 66.1274 142.021 66.2551 142.532 66.5104C143.043 66.8934 143.427 67.2764 143.555 67.9147C143.683 68.553 143.555 69.0636 143.299 69.7019C142.916 70.2125 142.532 70.5955 141.893 70.7232C141.382 70.8508 140.87 70.7232 140.359 70.5955C140.103 70.4679 139.848 70.3402 139.592 70.2125C139.336 70.0849 139.081 69.9572 138.697 69.7019L132.178 66.2551L134.095 74.2977H136.013L134.862 69.5743L138.058 71.4891C139.081 72.1274 139.975 72.5104 140.615 72.6381C141.254 72.7657 142.021 72.8934 142.66 72.6381C143.81 72.3828 144.577 71.7445 145.217 70.8508C145.728 69.9572 145.856 68.8083 145.6 67.6594C145.344 66.3828 144.705 65.4891 143.81 64.8508C142.916 64.2125 141.509 64.0849 140.359 64.4679Z" fill="white"/>
<path d="M73.6308 27.3191C74.9092 28.9786 74.9092 28.9786 76.6988 28.5957C76.6988 28.5957 76.6988 28.5957 76.8266 28.468C75.2926 26.4254 73.7587 24.5105 72.2247 22.3403C71.969 22.9786 71.8412 23.4893 71.7134 23.9999C71.5855 24.3829 71.5855 24.6382 71.8412 24.8935C72.4804 25.6595 72.9917 26.5531 73.6308 27.3191Z" fill="white"/>
<path d="M91.2716 16.085L88.2036 28.9786L91.6551 29.7445C96.257 30.8935 98.8136 29.3616 99.8363 24.8935C100.859 20.4254 99.1971 17.9999 94.723 16.8509L91.2716 16.085ZM97.2797 24.3828C96.5127 27.4467 94.9787 28.4679 92.1664 27.8296L90.7602 27.4467L92.8056 18.6382L94.3395 19.0211C97.1518 19.6594 98.0467 21.319 97.2797 24.3828Z" fill="white"/>
<path d="M86.1583 19.5321C86.2861 16.8513 84.6243 15.5747 82.0677 15.447L78.4884 15.3193L77.9771 28.4683L80.1502 28.5959L80.278 23.3619H81.4285L83.8573 28.5959L86.1583 28.7236L83.4738 22.9789C84.88 22.7236 86.0305 21.83 86.1583 19.5321ZM81.9398 21.3193H80.4059L80.5337 17.6172H82.0677C83.2181 17.7449 83.9851 18.3832 83.9851 19.5321C83.9851 20.681 83.0903 21.3193 81.9398 21.3193Z" fill="white"/>
<path d="M41.8008 130.468C41.9286 130.468 42.0564 130.468 42.1843 130.596C42.0564 130.34 41.9286 130.34 41.8008 130.468C41.4173 130.34 41.1616 130.596 41.1616 130.979C41.1616 131.362 41.4173 131.617 41.8008 131.617C41.9286 131.617 42.0564 131.617 42.1843 131.489C42.0564 131.617 42.0564 131.617 41.8008 131.617C41.5451 131.617 41.2895 131.362 41.2895 131.106C41.2895 130.596 41.4173 130.468 41.8008 130.468Z" fill="white"/>
<path d="M151.608 51.4468V143.617H69.668V150H158V51.4468H151.608Z" fill="white"/>
<path d="M6.64696 6.38298H98.4301V0H0.255371V88.5958H6.64696V6.38298Z" fill="white"/>
<path d="M130.388 49.0214C130.133 48.5108 130.133 48.0001 130.26 47.4895C130.388 46.9788 130.772 46.5959 131.155 46.2129C131.667 45.8299 132.306 45.8299 132.817 45.9576C133.328 46.0852 133.968 46.4682 134.223 46.9788C134.607 47.4895 134.735 48.1278 134.607 48.6384C134.479 49.149 134.095 49.7873 133.584 50.0427C133.201 50.298 132.689 50.4256 132.05 50.4256C131.794 50.4256 131.411 50.4256 131.155 50.4256C130.9 50.4256 130.516 50.4256 130.133 50.298L122.846 49.2767L127.448 56.1703L129.238 55.4044L126.553 51.4469L130.133 52.0852C131.283 52.3405 132.178 52.3405 132.945 52.2129C133.712 52.0852 134.223 51.9576 134.862 51.5746C135.885 50.9363 136.396 50.0427 136.524 49.0214C136.652 48.0001 136.524 46.8512 135.757 45.9576C135.118 44.9363 134.095 44.298 133.073 44.0427C132.05 43.7873 130.9 44.0427 129.877 44.681C129.11 45.1916 128.599 45.8299 128.343 46.4682C128.087 47.2342 128.087 48.0001 128.215 48.8937L130.388 49.0214Z" fill="white"/>
<path d="M100.348 32.1701L102.521 30.1276L106.867 32.0425V32.9361C106.739 35.1063 106.739 35.234 108.657 35.8723C108.657 35.8723 108.657 35.8723 108.785 35.8723L109.168 24.8935L107.123 26.8084L106.995 30.1276L103.927 28.7233L106.995 25.7872C108.529 24.5106 109.424 22.851 109.04 21.1914L98.4302 31.2765L100.348 32.1701Z" fill="white"/>
<path d="M116.199 32.2977L117.094 42.6381L117.221 42.7658L125.275 32.4253L123.613 31.1487L118.755 37.4041L117.988 26.8083L117.861 26.6807L109.807 37.0211L111.469 38.2977L116.199 32.2977Z" fill="white"/>
<path d="M65.0664 30.3829L67.2395 30L67.8787 27.1914L69.157 21.3191C69.6683 19.4042 69.4127 17.7446 68.39 16.5957L65.0664 30.3829Z" fill="white"/>
<path d="M22.7539 58.2126L30.5516 61.787L31.063 60.2551L23.2652 56.6807L22.7539 58.2126Z" fill="white"/>
<path d="M68.7734 16.085C68.7734 16.085 70.9466 18.1275 70.1796 20.8084C69.0291 25.2764 68.7734 26.2977 70.8187 28.7233C70.3074 27.9573 69.6683 26.2977 71.2022 22.8509C72.6084 19.5318 70.1796 16.8509 68.7734 16.085Z" fill="white"/>
<path d="M43.3346 136.851L43.4624 133.404C43.4624 133.404 43.4624 133.277 43.3346 133.277H42.8232C42.8232 133.277 42.6954 133.277 42.6954 133.404V135.447L40.5223 133.149H40.3944C40.3944 133.149 40.2666 133.149 40.2666 133.277V136.723C40.2666 136.723 40.2666 136.851 40.3944 136.851H40.9058C40.9058 136.851 41.0336 136.851 41.0336 136.723V134.553L43.3346 136.851Z" fill="white"/>
<path d="M41.9287 44.298C42.44 44.1703 42.9514 43.7873 43.3348 43.4043C43.7183 43.0214 44.1018 42.5107 44.3575 42.0001C44.6132 41.4895 44.741 40.9788 44.741 40.3405L45.6358 41.3618L46.6585 40.2129L38.7329 31.6597L37.7103 32.8086L40.6504 36.0001C40.0112 36.0001 39.4999 36.0001 38.9886 36.2554C38.4772 36.3831 37.9659 36.7661 37.5824 37.0214C37.1989 37.4043 36.8154 37.915 36.5598 38.4256C36.3041 38.9363 36.1763 39.4469 36.1763 40.0852C36.1763 40.7235 36.1763 41.2341 36.4319 41.7448C36.6876 42.2554 36.9433 42.7661 37.3268 43.2767C37.7103 43.6597 38.2216 44.0426 38.7329 44.298C39.2442 44.5533 39.8834 44.6809 40.3947 44.6809C40.906 44.5533 41.5452 44.5533 41.9287 44.298ZM38.4772 42.1278C37.9659 41.4895 37.5824 40.8512 37.5824 40.0852C37.5824 39.3192 37.8381 38.6809 38.4772 38.0426C39.1164 37.532 39.7556 37.2767 40.5225 37.2767C41.2895 37.2767 41.9287 37.6597 42.5679 38.298C43.207 38.9363 43.4627 39.5746 43.4627 40.3405C43.4627 41.1065 43.207 41.7448 42.5679 42.3831C41.9287 42.8937 41.2895 43.149 40.5225 43.149C39.7556 43.0214 38.9886 42.6384 38.4772 42.1278Z" fill="white"/>
<path d="M32.7247 56.6808C33.1082 56.2978 33.4917 55.9148 33.7474 55.4042C34.003 54.8936 34.2587 54.3829 34.2587 53.8723C34.2587 53.3616 34.2587 52.7233 34.1309 52.085L32.7247 52.3404C32.8525 52.7233 32.8525 53.234 32.8525 53.4893C32.8525 53.8723 32.7247 54.2553 32.469 54.5106C32.0855 55.1489 31.5742 55.5319 30.8072 55.7872C30.0402 55.9148 29.2733 55.9148 28.6341 55.4042C27.8671 55.0212 27.4836 54.3829 27.2279 53.7446C26.9723 52.9787 27.1001 52.3404 27.4836 51.5744C27.6114 51.3191 27.8671 50.9361 28.1228 50.8084C28.3784 50.5531 28.7619 50.4255 29.0176 50.2978L28.5063 48.8936C27.9949 49.0212 27.4836 49.2765 27.1001 49.6595C26.7166 50.0425 26.3331 50.4255 26.0775 50.9361C25.8218 51.4467 25.694 51.9574 25.5661 52.468C25.4383 52.9787 25.5661 53.617 25.694 54.1276C25.8218 54.7659 26.0775 55.2765 26.461 55.6595C26.8445 56.1701 27.2279 56.5531 27.7393 56.8084C28.2506 57.0638 28.7619 57.3191 29.4011 57.3191C29.9124 57.4467 30.5516 57.3191 31.1907 57.1914C31.8299 57.1914 32.3412 56.9361 32.7247 56.6808Z" fill="white"/>
<path d="M39.4999 143.362H36.6876C36.5598 143.362 36.4319 143.489 36.4319 143.617V145.021C36.4319 145.149 36.5598 145.277 36.6876 145.277H37.5824V146.043C37.1989 146.17 36.6876 146.298 36.3041 146.298C34.7701 146.298 33.4918 145.021 33.4918 143.489C33.4918 141.958 34.7701 140.681 36.3041 140.681C36.9432 140.681 37.5824 140.809 38.0937 141.319C38.2216 141.447 38.3494 141.447 38.4772 141.319L39.6277 140.17C39.7555 140.043 39.7555 139.915 39.6277 139.787C38.6051 138.894 37.3267 138.511 36.1763 138.511C33.364 138.511 31.063 140.809 31.063 143.617C31.063 146.426 33.364 148.724 36.1763 148.724C38.2216 148.724 39.6277 147.83 39.6277 147.83C39.6277 147.83 39.7555 147.702 39.7555 147.575V143.745C39.7555 143.489 39.6277 143.362 39.4999 143.362Z" fill="white"/>
<path d="M39.6277 46.9789L35.5371 43.7874C34.6423 43.0214 33.7475 42.7661 33.1083 42.7661C32.3413 42.8938 31.7021 43.2767 31.063 44.1704C30.8073 44.4257 30.6795 44.8087 30.4238 45.064C30.1682 45.447 30.0403 45.8299 29.7847 46.2129L30.8073 47.4895C30.9352 46.9789 31.063 46.4682 31.3186 46.0853C31.4465 45.7023 31.7021 45.3193 31.9578 45.064C32.3413 44.5533 32.7248 44.1704 33.1083 44.1704C33.4918 44.1704 33.8753 44.1704 34.2588 44.4257L34.7701 44.8087C34.3866 44.9363 34.0031 45.064 33.6196 45.3193C33.2361 45.5746 32.9805 45.8299 32.7248 46.2129C32.2135 46.9789 31.9578 47.7448 32.0856 48.5108C32.2135 49.2768 32.597 50.0427 33.364 50.5533C34.1309 51.064 34.8979 51.3193 35.6649 51.1916C36.4319 51.064 37.0711 50.681 37.7102 49.915C37.9659 49.5321 38.2216 49.1491 38.3494 48.7661C38.4772 48.3831 38.4772 47.8725 38.4772 47.4895L39.2442 48.1278L39.6277 46.9789ZM36.5598 49.0214C36.1763 49.4044 35.7928 49.6597 35.4093 49.7874C35.0258 49.915 34.5144 49.7874 34.1309 49.4044C33.7475 49.1491 33.4918 48.6385 33.4918 48.2555C33.4918 47.7448 33.6196 47.3619 34.0031 46.8512C34.3866 46.3406 34.7701 46.0853 35.2814 45.9576C35.7928 45.8299 36.1763 45.9576 36.5598 46.3406C36.9432 46.5959 37.1989 47.1065 37.1989 47.4895C37.0711 48.0002 36.9432 48.5108 36.5598 49.0214Z" fill="white"/>
<path d="M129.877 57.7019C129.11 58.8508 129.11 60.1274 129.621 61.5317C130.26 62.9359 131.155 63.7019 132.561 63.9572C133.967 64.2125 135.501 63.9572 137.419 63.1913C139.336 62.4253 140.615 61.404 141.382 60.1274C142.149 58.8508 142.149 57.7019 141.509 56.2976C140.87 54.8934 139.975 54.1274 138.569 53.8721C137.163 53.6168 135.629 53.8721 133.712 54.6381C131.922 55.5317 130.644 56.553 129.877 57.7019ZM137.93 56.0423C138.953 56.17 139.592 56.553 139.848 57.1913C140.103 57.8296 139.975 58.5955 139.336 59.3615C138.697 60.1274 137.802 60.7657 136.524 61.404C135.246 61.9147 134.223 62.17 133.2 62.0423C132.178 61.9147 131.538 61.5317 131.283 60.8934C131.027 60.2551 131.155 59.4891 131.794 58.7232C132.433 57.9572 133.328 57.3189 134.606 56.6806C135.885 56.17 137.035 55.9147 137.93 56.0423Z" fill="white"/>
<path d="M47.4253 138.511C44.613 138.511 42.312 140.809 42.312 143.617C42.312 146.426 44.613 148.724 47.4253 148.724C50.2376 148.724 52.5385 146.426 52.5385 143.617C52.5385 140.809 50.2376 138.511 47.4253 138.511ZM47.4253 146.426C45.8913 146.426 44.613 145.149 44.613 143.617C44.613 142.085 45.8913 140.681 47.4253 140.681C48.9593 140.681 50.3654 141.958 50.3654 143.617C50.2376 145.149 48.9593 146.426 47.4253 146.426Z" fill="white"/>
<path d="M67.4951 58.2129L63.021 67.1491H72.0971L67.4951 58.2129Z" fill="white"/>
<path d="M80.4059 134.043C108.401 134.043 131.155 111.192 131.155 83.1066C131.155 55.0215 108.401 32.1704 80.4059 32.1704C52.4108 32.1704 29.6567 54.8938 29.6567 83.1066C29.6567 111.192 52.283 134.043 80.4059 134.043ZM61.2312 114L59.825 114.128V109.277C59.825 108.511 59.6972 108 59.4415 107.745C59.1859 107.49 58.8024 107.234 58.291 107.234C57.6519 107.234 57.2684 107.49 56.8849 107.873C56.5014 108.256 56.5014 108.894 56.5014 109.66V113.873L55.0952 114V106.085L56.5014 105.958V107.234C56.7571 106.851 57.0127 106.596 57.3962 106.341C57.7797 106.085 58.1632 106.085 58.5467 106.085C59.4415 106.085 60.0807 106.341 60.4642 106.851C60.8477 107.362 61.1033 108.256 61.1033 109.404V114H61.2312ZM70.5629 114L69.0289 114.128V112.851C68.6454 113.234 68.2619 113.617 67.7506 113.745C67.2393 113.873 66.8558 114 66.2166 114C65.7053 114 65.194 113.873 64.6826 113.745C64.1713 113.617 63.7878 113.234 63.4043 112.851C63.0208 112.468 62.6373 112.085 62.5095 111.575C62.3817 111.064 62.2538 110.553 62.2538 110.043C62.2538 109.532 62.3817 108.894 62.5095 108.511C62.6373 108.128 63.0208 107.617 63.4043 107.234C63.7878 106.851 64.1713 106.596 64.6826 106.341C65.194 106.085 65.7053 106.085 66.2166 106.085C66.7279 106.085 67.2393 106.213 67.6228 106.341C68.0063 106.468 68.5176 106.851 68.9011 107.234V103.277L70.3072 103.149V114H70.5629ZM73.6308 114L72.0969 114.128V106.213L73.6308 106.085V114ZM72.9917 105.319L71.969 104.043L72.9917 102.894L74.0143 104.043L72.9917 105.319ZM74.7813 99.9576L73.503 100.213V99.3193C73.2474 99.5747 72.8639 99.83 72.4804 99.9576C72.0969 100.085 71.7134 100.213 71.202 100.213C70.3072 100.213 69.5402 99.9576 69.0289 99.447C68.5176 98.9364 68.2619 98.2981 68.2619 97.4045C68.2619 96.5108 68.5176 95.8725 69.0289 95.3619C69.5402 94.8513 70.3072 94.5959 71.0742 94.5959C71.4577 94.5959 71.8412 94.5959 72.2247 94.7236C72.6082 94.8513 72.8639 94.9789 73.2474 95.2342V94.5959C73.2474 94.0853 73.1195 93.83 72.8639 93.5747C72.6082 93.3193 72.0969 93.3193 71.4577 93.3193C71.0742 93.3193 70.8185 93.3193 70.4351 93.447C70.0516 93.5747 69.6681 93.7023 69.1567 93.83L69.5402 92.2981C69.9237 92.1704 70.4351 92.0427 70.8186 92.0427C71.202 92.0427 71.5855 91.9151 71.8412 91.9151C72.8639 91.9151 73.6309 92.1704 74.0143 92.681C74.3978 93.1917 74.6535 93.9576 74.6535 94.9789V99.9576H74.7813ZM85.5192 114L84.1131 114.128V109.277C84.1131 108.511 83.9852 108 83.8574 107.745C83.7296 107.49 83.3461 107.234 82.8347 107.234C82.3234 107.234 81.8121 107.49 81.5564 107.873C81.3008 108.256 81.1729 108.894 81.1729 109.787V114L79.7668 114.128V109.277C79.7668 108.511 79.6389 108 79.5111 107.745C79.3833 107.49 78.9998 107.234 78.4885 107.234C77.9771 107.234 77.4658 107.49 77.2101 107.873C76.9545 108.256 76.6988 108.894 76.6988 109.787V114L75.2927 114.128V106.213L76.6988 106.085V107.234C76.9545 106.851 77.2101 106.596 77.5936 106.341C77.9771 106.085 78.3606 106.085 78.7441 106.085C79.1276 106.085 79.6389 106.213 79.8946 106.468C80.1503 106.724 80.5338 106.979 80.7894 107.362C81.0451 106.979 81.4286 106.596 81.8121 106.468C82.1956 106.341 82.5791 106.213 82.9626 106.213C83.7296 106.213 84.3687 106.468 84.7522 106.979C85.1357 107.49 85.3914 108.383 85.3914 109.532V114H85.5192ZM76.4431 100.085V89.2342L77.9771 89.1066V99.9576L76.4431 100.085ZM83.3461 92.1704V93.447H81.3008V96.5108C81.3008 97.4044 81.4286 98.0427 81.6842 98.2981C81.9399 98.5534 82.3234 98.681 82.9626 98.681C83.0904 98.681 83.2182 98.681 83.3461 98.681C83.4739 98.681 83.6017 98.681 83.7296 98.5534L83.3461 99.9576C83.2182 99.9576 82.9626 99.9576 82.8347 99.9576C82.7069 99.9576 82.5791 99.9576 82.4512 99.9576C81.4286 99.9576 80.7894 99.7023 80.4059 99.1917C80.0224 98.681 79.7668 97.7874 79.7668 96.5108V93.447H78.6163L78.9998 92.1704H79.7668V90.2555L81.3008 89.8725V92.1704H83.3461ZM88.715 114L87.181 114.128V106.213L88.715 106.085V114ZM87.948 105.319L86.9253 104.043L87.948 102.894L88.9707 104.043L87.948 105.319ZM92.8056 112.468C93.1891 112.724 93.7004 112.851 94.0839 112.851C94.4674 112.851 94.9787 112.724 95.4901 112.596C96.0014 112.468 96.5127 112.085 97.0241 111.575L97.2797 112.979C96.7684 113.362 96.2571 113.617 95.6179 113.873C94.9788 114.128 94.5953 114.128 93.9561 114.128C93.4448 114.128 92.8056 114 92.2943 113.873C91.7829 113.745 91.3995 113.362 91.016 112.979C90.6325 112.596 90.249 112.213 90.1211 111.702C89.9933 111.192 89.8655 110.681 89.8655 110.17C89.8655 109.66 89.9933 109.149 90.1211 108.638C90.249 108.128 90.6325 107.745 91.016 107.362C91.3995 106.979 91.7829 106.724 92.2943 106.468C92.8056 106.213 93.3169 106.213 93.8283 106.213C94.5953 106.213 95.2344 106.341 95.8736 106.724C96.5127 107.107 97.0241 107.617 97.2797 108.256L91.6551 111.702C92.0386 111.958 92.4221 112.213 92.8056 112.468ZM104.694 114L103.288 114.128V109.277C103.288 108.511 103.16 108 102.904 107.745C102.649 107.49 102.265 107.234 101.754 107.234C101.115 107.234 100.731 107.49 100.348 107.873C99.9642 108.256 99.9642 108.894 99.9642 109.66V113.873L98.4302 114.128V106.213L99.8364 106.085V107.234C100.092 106.851 100.348 106.596 100.731 106.341C101.115 106.085 101.498 106.085 101.882 106.085C102.776 106.085 103.416 106.341 103.799 106.851C104.183 107.362 104.438 108.256 104.438 109.404V114H104.694ZM110.958 108.511C111.213 108 111.469 107.617 111.853 107.234C112.236 106.851 112.747 106.596 113.131 106.341C113.514 106.085 114.154 106.085 114.665 106.085C115.176 106.085 115.687 106.213 116.199 106.341C116.71 106.468 117.094 106.851 117.477 107.234C117.861 107.617 118.116 108 118.372 108.511C118.628 109.021 118.628 109.532 118.628 110.043C118.628 110.553 118.5 111.192 118.372 111.575C118.244 111.958 117.861 112.468 117.477 112.851C117.094 113.234 116.582 113.49 116.199 113.745C115.815 114 115.176 114 114.665 114C114.154 114 113.514 113.873 113.003 113.745C112.492 113.617 112.108 113.234 111.725 112.851C111.341 112.468 110.958 112.085 110.83 111.575C110.702 111.064 110.574 110.553 110.574 110.043C110.574 109.532 110.702 109.021 110.958 108.511ZM108.273 112.468C108.529 112.724 108.912 112.851 109.552 112.851C109.679 112.851 109.807 112.851 109.935 112.851C110.063 112.851 110.191 112.851 110.319 112.724L109.935 114C109.807 114 109.552 114 109.424 114C109.296 114 109.168 114 109.04 114C108.018 114 107.378 113.745 106.995 113.234C106.611 112.724 106.356 111.83 106.356 110.553V107.49H105.205L105.589 106.213H106.356V104.298L107.89 103.915V106.213H109.935V107.49H107.89V110.553C107.89 111.575 108.018 112.213 108.273 112.468ZM88.4593 49.9151H96.2571C100.987 49.9151 106.611 52.3406 106.611 59.4896C106.611 64.213 103.927 66.7662 99.5807 67.7874L109.04 81.064L103.927 82.3406L92.9334 66.2555H92.8056V81.5747L88.3315 82.0853V49.9151H88.4593ZM84.3687 94.4683C84.6244 93.9576 84.88 93.5747 85.2635 93.1917C85.647 92.8087 86.1584 92.5534 86.5418 92.2981C86.9253 92.0428 87.5645 92.0427 88.0758 92.0427C88.5872 92.0427 89.0985 92.1704 89.6098 92.2981C90.1211 92.4257 90.5046 92.8087 90.8881 93.1917C91.2716 93.5747 91.5273 93.9576 91.783 94.4683C92.0386 94.9789 92.0386 95.4896 92.0386 96.0002C92.0386 96.5108 91.9108 97.1491 91.783 97.5321C91.6551 97.9151 91.2716 98.4257 90.8881 98.8087C90.5046 99.1917 89.9933 99.447 89.6098 99.7023C89.2263 99.9576 88.5872 99.9576 88.0758 99.9576C87.5645 99.9576 86.9253 99.83 86.414 99.7023C85.9027 99.5747 85.5192 99.1917 85.1357 98.8087C84.7522 98.4257 84.3687 98.0427 84.2409 97.5321C84.1131 97.0215 83.9852 96.5108 83.9852 96.0002C83.9852 95.4896 84.1131 94.9789 84.3687 94.4683ZM67.6228 49.1491L83.7296 81.3193L79.2554 82.213L73.8865 71.3619H61.2312L55.8622 82.213L51.6438 81.3193L67.6228 49.1491ZM47.8088 107.234C48.1923 106.851 48.5758 106.596 49.0872 106.341C49.5985 106.085 50.1098 106.085 50.6211 106.085C51.3881 106.085 52.0273 106.213 52.6664 106.596C53.3056 106.979 53.8169 107.49 54.0726 108.128L48.448 111.575C48.7037 111.958 48.9593 112.213 49.3428 112.468C49.7263 112.724 50.2376 112.851 50.6211 112.851C51.0046 112.851 51.516 112.724 52.0273 112.596C52.5386 112.468 53.0499 112.085 53.5613 111.575L53.8169 112.979C53.3056 113.362 52.7943 113.617 52.1551 113.873C51.516 114.128 51.1325 114.128 50.4933 114.128C49.982 114.128 49.3428 114 48.8315 113.873C48.3202 113.745 47.9367 113.362 47.5532 112.979C47.1697 112.596 46.7862 112.213 46.6584 111.702C46.5305 111.192 46.4027 110.681 46.4027 110.17C46.4027 109.66 46.5305 109.149 46.6584 108.638C46.7862 108.128 47.2975 107.617 47.8088 107.234ZM43.7182 111.319V114L42.1842 114.128V106.213L43.7182 106.085V107.745C43.9739 107.234 44.3574 106.724 44.8687 106.468C45.38 106.213 45.8914 106.085 46.5305 106.085C46.6584 106.085 46.6584 106.085 46.7862 106.085C46.914 106.085 46.914 106.085 46.914 106.085L46.2749 107.49C45.38 107.617 44.7409 107.873 44.3574 108.511C43.9739 109.149 43.7182 109.915 43.7182 111.319Z" fill="white"/>
<path d="M51.3881 107.489C51.1324 107.362 50.8768 107.362 50.6211 107.362C49.8541 107.362 49.2149 107.617 48.8314 108.128C48.448 108.638 48.0645 109.277 48.0645 110.17V110.298L52.0272 107.872C51.7716 107.745 51.5159 107.617 51.3881 107.489Z" fill="white"/>
<path d="M88.2035 98.8085C88.9705 98.8085 89.6097 98.5532 90.121 98.0425C90.6323 97.5319 90.888 96.8936 90.888 96.1276C90.888 95.3617 90.6323 94.7234 90.121 94.2127C89.6097 93.7021 88.9705 93.4468 88.2035 93.4468C87.4365 93.4468 86.7974 93.7021 86.286 94.2127C85.7747 94.7234 85.519 95.3617 85.519 96.1276C85.519 96.8936 85.7747 97.5319 86.286 98.0425C86.7974 98.5532 87.4365 98.8085 88.2035 98.8085Z" fill="white"/>
<path d="M102.01 59.4894C102.01 55.7872 99.5808 54 96.1294 54H92.9336V65.1064H96.1294C99.1973 65.1064 102.01 62.9362 102.01 59.4894Z" fill="white"/>
<path d="M114.793 112.851C115.56 112.851 116.199 112.596 116.71 112.085C117.222 111.574 117.477 110.936 117.477 110.17C117.477 109.404 117.222 108.766 116.71 108.255C116.199 107.745 115.56 107.489 114.793 107.489C114.026 107.489 113.387 107.745 112.875 108.255C112.364 108.766 112.108 109.404 112.108 110.17C112.108 110.936 112.364 111.574 112.875 112.085C113.387 112.596 114.026 112.851 114.793 112.851Z" fill="white"/>
<path d="M37.7104 130.723C37.7104 130.468 37.5825 130.34 37.3269 130.34H36.9434V131.489H37.0712V131.106H37.4547L37.7104 131.489H37.8382L37.5825 131.106C37.5825 130.979 37.7104 130.851 37.7104 130.723ZM37.3269 130.979H36.9434V130.468H37.3269C37.4547 130.468 37.5825 130.596 37.5825 130.723C37.5825 130.851 37.4547 130.979 37.3269 130.979Z" fill="white"/>
<path d="M93.956 107.362C93.1891 107.362 92.5499 107.617 92.1664 108.128C91.7829 108.638 91.3994 109.277 91.3994 110.17V110.298L95.3622 107.872C95.1065 107.745 94.9787 107.617 94.723 107.489C94.4674 107.362 94.2117 107.362 93.956 107.362Z" fill="white"/>
<path d="M45.7636 131.489V130.34H45.6357V131.489C45.6357 131.489 45.6357 131.489 45.7636 131.489Z" fill="white"/>
<path d="M23.9043 133.276L23.7765 135.83L21.6033 133.276H21.4755C21.4755 133.276 21.3477 133.276 21.3477 133.404V136.851C21.3477 136.851 21.3477 136.978 21.4755 136.978H21.859C21.859 136.978 21.9868 136.978 21.9868 136.851V134.425L24.16 137.106H24.2878C24.2878 137.106 24.4156 137.106 24.4156 136.978V133.532C24.4156 133.532 24.4156 133.404 24.2878 133.404H23.9043V133.276Z" fill="white"/>
<path d="M48.1923 136.851H48.5758C48.7036 136.851 48.7036 136.851 48.7036 136.723L48.9593 136.213H50.4933L50.7489 136.723C50.7489 136.851 50.8768 136.851 50.8768 136.851H51.2602C51.3881 136.851 51.3881 136.723 51.3881 136.723L49.8541 133.276C49.8541 133.276 49.8541 133.276 49.7263 133.276H49.5984L48.0645 136.723L48.1923 136.851ZM49.8541 134.553L50.3654 135.702H49.3428L49.8541 134.553Z" fill="white"/>
<path d="M50.4932 130.851C50.4932 130.468 50.2375 130.213 49.854 130.213C49.4705 130.213 49.2148 130.468 49.2148 130.851C49.2148 131.234 49.4705 131.489 49.854 131.489C50.1097 131.489 50.4932 131.234 50.4932 130.851ZM49.3427 130.851C49.3427 130.596 49.5983 130.341 49.854 130.341C50.1097 130.341 50.3653 130.596 50.3653 130.851C50.3653 131.107 50.1097 131.362 49.854 131.362C49.5983 131.362 49.3427 131.234 49.3427 130.851Z" fill="white"/>
<path d="M44.4854 135.064C44.4854 136.085 45.2523 136.851 46.275 136.851C46.7863 136.851 47.1698 136.724 47.5533 136.341V136.213L47.2977 135.83H47.1698C46.9142 135.958 46.6585 136.085 46.4028 136.085C45.7637 136.085 45.2523 135.575 45.2523 134.936C45.2523 134.298 45.7637 133.787 46.4028 133.787C46.6585 133.787 46.9142 133.915 47.1698 134.043H47.2977L47.5533 133.66V133.532C47.1698 133.277 46.7863 133.021 46.275 133.021C45.2523 133.277 44.4854 134.043 44.4854 135.064Z" fill="white"/>
<path d="M28.3786 130.851C28.2508 130.851 28.1229 130.724 28.1229 130.596C28.1229 130.468 28.123 130.468 28.3786 130.468C28.123 130.468 27.9951 130.596 27.9951 130.724C27.9951 130.851 28.123 130.851 28.3786 130.851C28.5064 131.107 28.6343 131.107 28.6343 131.234C28.6343 131.362 28.5064 131.362 28.3786 131.362C28.2508 131.362 28.1229 131.234 28.1229 131.234C28.1229 131.234 28.2508 131.362 28.5064 131.362C28.7621 131.362 28.8899 131.234 28.8899 131.107C28.7621 130.979 28.6343 130.979 28.3786 130.851Z" fill="white"/>
<path d="M28.2505 138.638H26.5887C26.4608 138.638 26.333 138.766 26.333 138.894V148.213C26.333 148.34 26.4608 148.468 26.5887 148.468H28.2505C28.3783 148.468 28.5061 148.34 28.5061 148.213V138.894C28.5061 138.766 28.3783 138.638 28.2505 138.638Z" fill="white"/>
<path d="M18.4075 59.6172L18.1519 61.2768L22.2425 62.5534C21.7311 62.8087 21.2198 63.1917 20.9642 63.5746C20.5807 63.9576 20.325 64.4683 20.1972 64.9789C20.0693 65.4895 19.9415 66.1278 20.0693 66.6385C20.0693 67.1491 20.325 67.7874 20.5807 68.298C20.8363 68.8087 21.2198 69.3193 21.6033 69.7023C21.9868 70.0853 22.626 70.3406 23.1373 70.4683C23.7765 70.5959 24.2878 70.7236 24.9269 70.5959C25.5661 70.5959 26.0774 70.3406 26.5887 70.0853C27.1001 69.83 27.4836 69.447 27.8671 69.064C28.2506 68.681 28.5062 68.1704 28.6341 67.6597C28.7619 67.1491 28.8897 66.5108 28.7619 66.0002C28.6341 65.4895 28.5062 64.9789 28.2506 64.3406L29.5289 64.7236L29.7845 63.1917L18.4075 59.6172ZM27.2279 66.8938C26.9722 67.6597 26.5888 68.1704 25.8218 68.5534C25.1826 68.9363 24.4156 68.9363 23.5208 68.681C22.7538 68.4257 22.1146 67.9151 21.7311 67.2768C21.3476 66.6385 21.2198 65.8725 21.4755 65.1065C21.7311 64.3406 22.1146 63.83 22.8816 63.447C23.6486 63.064 24.2878 63.064 25.1826 63.3193C25.9496 63.5746 26.5887 64.0853 26.9722 64.7236C27.3557 65.4895 27.4836 66.1278 27.2279 66.8938Z" fill="white"/>
<path d="M27.6116 136.723C27.7394 136.851 27.7394 136.851 27.6116 136.723L27.9951 136.851C28.1229 136.851 28.1229 136.723 28.1229 136.723L26.589 133.276C26.589 133.276 26.589 133.276 26.4611 133.276H26.3333L24.7993 136.723C24.7993 136.851 24.7993 136.851 24.9271 136.851H25.3106C25.3106 136.851 25.4385 136.851 25.4385 136.723C25.5663 136.468 25.6941 136.213 25.6941 136.085H27.356L27.6116 136.723ZM25.9498 135.574L26.589 134.17L27.2281 135.574H25.9498Z" fill="white"/>
<path d="M24.4159 130.34V131.234L23.6489 130.34V131.489V130.596L24.4159 131.617V130.34C24.5437 130.34 24.5437 130.34 24.4159 130.34Z" fill="white"/>
<path d="M66.4726 107.362C65.7056 107.362 65.0664 107.617 64.5551 108.128C64.0437 108.638 63.7881 109.277 63.7881 110.043C63.7881 110.809 64.0437 111.447 64.5551 111.958C65.0664 112.468 65.7056 112.724 66.4726 112.724C67.2395 112.724 67.8787 112.468 68.39 111.958C68.9014 111.447 69.157 110.809 69.157 110.043C69.157 109.277 68.9014 108.638 68.39 108.128C67.8787 107.617 67.2395 107.362 66.4726 107.362Z" fill="white"/>
<path d="M36.1762 136.851H36.5597C36.6875 136.851 36.6875 136.851 36.6875 136.723L36.9432 136.213H38.4771L38.7328 136.723C38.7328 136.851 38.8606 136.851 38.8606 136.851H39.2441C39.372 136.851 39.372 136.723 39.372 136.723L37.838 133.276C37.838 133.276 37.838 133.276 37.7102 133.276H37.5823L36.0483 136.723C36.1762 136.723 36.1762 136.851 36.1762 136.851ZM37.838 134.553L38.3493 135.702H37.3267L37.838 134.553Z" fill="white"/>
<path d="M71.5855 95.7446C71.0742 95.7446 70.5629 95.8723 70.3072 96.1276C70.0516 96.3829 69.7959 96.7659 69.7959 97.2765C69.7959 97.7872 69.9237 98.0425 70.3072 98.4255C70.6907 98.8085 71.0742 98.8085 71.5855 98.8085C72.2247 98.8085 72.6082 98.6808 72.9917 98.4255C73.3752 98.1702 73.503 97.7872 73.503 97.2765C73.503 96.7659 73.3752 96.3829 72.9917 96.1276C72.6082 95.8723 72.0969 95.7446 71.5855 95.7446Z" fill="white"/>
</g>
<defs>
<clipPath id="clip0_739_396">
<rect width="158" height="150" fill="white"/>
</clipPath>
</defs>
</svg>
