<svg width="160" height="152" viewBox="0 0 160 152" fill="none" xmlns="http://www.w3.org/2000/svg">
<g clip-path="url(#clip0_739_596)">
<path d="M40.0002 145.273H37.1523C37.0229 145.273 36.8934 145.403 36.8934 145.532V146.955C36.8934 147.084 37.0229 147.214 37.1523 147.214H38.0585V147.99C37.6701 148.119 37.1523 148.248 36.764 148.248C35.2106 148.248 33.9161 146.955 33.9161 145.403C33.9161 143.85 35.2106 142.557 36.764 142.557C37.4112 142.557 38.0585 142.686 38.5763 143.203C38.7057 143.333 38.8352 143.333 38.9646 143.203L40.1297 142.039C40.2591 141.91 40.2591 141.78 40.1297 141.651C39.0941 140.746 37.7996 140.357 36.6345 140.357C33.7866 140.357 31.4565 142.686 31.4565 145.532C31.4565 148.378 33.7866 150.706 36.6345 150.706C38.7057 150.706 40.1297 149.801 40.1297 149.801C40.1297 149.801 40.2591 149.671 40.2591 149.542V145.661C40.2591 145.403 40.1297 145.273 40.0002 145.273Z" fill="white"/>
<path d="M42.5889 44.8884C43.1067 44.759 43.6245 44.3709 44.0129 43.9828C44.4012 43.5947 44.7896 43.0773 45.0485 42.5598C45.3074 42.0424 45.4368 41.5249 45.4368 40.8781L46.343 41.913L47.3786 40.7488L39.3527 32.0815L38.3171 33.2458L41.2944 36.4798C40.6472 36.4798 40.1294 36.4798 39.6116 36.7386C39.0938 36.8679 38.576 37.256 38.1876 37.5147C37.7993 37.9028 37.4109 38.4203 37.152 38.9377C36.8931 39.4552 36.7637 39.9726 36.7637 40.6194C36.7637 41.2662 36.7637 41.7837 37.0226 42.3011C37.2815 42.8186 37.5404 43.336 37.9287 43.8535C38.3171 44.2415 38.8349 44.6296 39.3527 44.8884C39.8705 45.1471 40.5177 45.2764 41.0355 45.2764C41.4239 45.1471 42.0711 45.1471 42.5889 44.8884ZM38.9643 42.6892C38.4465 42.0424 38.0582 41.3956 38.0582 40.6194C38.0582 39.8432 38.3171 39.1964 38.9643 38.5496C39.6116 38.0322 40.2588 37.7735 41.0355 37.7735C41.8122 37.7735 42.4595 38.1615 43.1067 38.8084C43.754 39.4552 44.0129 40.102 44.0129 40.8781C44.0129 41.6543 43.754 42.3011 43.1067 42.9479C42.4595 43.4654 41.8122 43.7241 41.0355 43.7241C40.2588 43.5947 39.4821 43.2067 38.9643 42.6892Z" fill="white"/>
<path d="M23.042 58.9889L30.9384 62.611L31.4562 61.0587L23.5598 57.4365L23.042 58.9889Z" fill="white"/>
<path d="M50.2268 38.5499C50.7446 38.4205 51.3918 38.1618 51.9096 37.9031C52.4274 37.515 52.8158 37.1269 53.2041 36.7388C53.5925 36.2214 53.7219 35.7039 53.9808 35.1865C54.1103 34.5397 54.1103 34.0222 53.9808 33.3754C53.8514 32.858 53.7219 32.2111 53.3336 31.6937C52.9452 31.1763 52.5569 30.7882 52.0391 30.4001C51.5213 30.012 51.0035 29.8826 50.3562 29.7533C49.8384 29.6239 49.1912 29.6239 48.6734 29.7533C48.0261 29.8826 47.5083 30.1414 46.9905 30.4001C46.4727 30.7882 46.0844 31.1762 45.6961 31.5643C45.3077 32.0818 45.1783 32.5992 44.9194 33.1167C44.7899 33.7635 44.7899 34.2809 44.9194 34.9277C45.0488 35.4452 45.1783 36.092 45.5666 36.6094C45.955 37.1269 46.3433 37.515 46.8611 37.9031C47.3789 38.2911 47.8967 38.4205 48.5439 38.5499C49.0617 38.6792 49.5795 38.6792 50.2268 38.5499ZM46.9905 35.7039C46.4727 34.9277 46.3433 34.2809 46.4728 33.5048C46.6022 32.7286 47.12 32.0818 47.7673 31.6937C48.4145 31.1763 49.1912 31.0469 49.9679 31.3056C50.7446 31.435 51.3918 31.9524 51.7802 32.5992C52.298 33.3754 52.4274 34.0222 52.1685 34.7984C51.9096 35.5745 51.5213 36.2214 50.874 36.6094C50.2268 36.9975 49.4501 37.2563 48.6734 36.9975C47.8967 36.7388 47.3789 36.4801 46.9905 35.7039Z" fill="white"/>
<path d="M43.8837 138.676L44.0131 135.183C44.0131 135.183 44.0131 135.054 43.8837 135.054H43.3659C43.3659 135.054 43.2364 135.054 43.2364 135.183V137.253L41.0358 134.924H40.9063C40.9063 134.924 40.7769 134.924 40.7769 135.054V138.546C40.7769 138.546 40.7769 138.676 40.9063 138.676H41.4241C41.4241 138.676 41.5536 138.676 41.5536 138.546V136.347L43.8837 138.676Z" fill="white"/>
<path d="M32.1034 137.123V136.735C32.1034 136.735 32.1034 136.606 31.974 136.606H30.6795V135.701H32.2329C32.2329 135.701 32.3623 135.701 32.3623 135.571V135.183C32.3623 135.183 32.3623 135.054 32.2329 135.054H30.1617C30.1617 135.054 30.0322 135.054 30.0322 135.183V138.546C30.0322 138.546 30.0322 138.676 30.1617 138.676H30.6795C30.6795 138.676 30.8089 138.676 30.8089 138.546V137.253L32.1034 137.123C32.1034 137.253 32.1034 137.253 32.1034 137.123Z" fill="white"/>
<path d="M57.9934 34.2808L56.6989 31.6936C56.0516 30.2706 55.7927 29.2357 55.7927 28.4596C55.9222 27.6834 56.3105 27.0366 57.2167 26.6485V24.9668H57.0872C57.0872 24.9668 56.9578 24.9668 56.8283 25.0962C56.1811 25.3549 55.6633 25.743 55.4044 26.2604C55.1455 26.7779 54.8866 27.2953 54.8866 28.0715L54.1099 26.3898L52.9448 27.1659L56.5694 34.9276L57.9934 34.2808Z" fill="white"/>
<path d="M20.3238 132.596C20.3238 132.207 20.0649 131.949 19.6765 131.949C19.2882 131.949 19.0293 132.207 19.0293 132.596C19.0293 132.984 19.2882 133.242 19.6765 133.242C20.0649 133.242 20.3238 132.984 20.3238 132.596ZM19.2882 132.596C19.2882 132.337 19.5471 132.078 19.806 132.078C20.0649 132.078 20.3238 132.337 20.3238 132.596C20.3238 132.854 20.0649 133.113 19.806 133.113C19.4176 133.113 19.2882 132.984 19.2882 132.596Z" fill="white"/>
<path d="M17.2168 136.865C17.2168 137.9 17.9935 138.676 19.0291 138.676C20.0647 138.676 20.8414 137.9 20.8414 136.865C20.8414 135.83 20.0647 135.054 19.0291 135.054C17.9935 135.054 17.2168 135.83 17.2168 136.865ZM20.453 136.865C20.453 137.641 19.8058 138.158 19.1585 138.158C18.3818 138.158 17.864 137.512 17.864 136.865C17.864 136.089 18.5113 135.571 19.1585 135.571C19.8058 135.571 20.453 136.089 20.453 136.865Z" fill="white"/>
<path d="M33.7862 132.596C33.7862 132.207 33.5273 131.949 33.1389 131.949C32.7506 131.949 32.4917 132.207 32.4917 132.596C32.4917 132.984 32.7506 133.242 33.1389 133.242C33.5273 133.242 33.7862 132.984 33.7862 132.596ZM33.1389 133.113C32.88 133.113 32.6211 132.854 32.6211 132.596C32.6211 132.337 32.88 132.078 33.1389 132.078C33.3978 132.078 33.6567 132.337 33.6567 132.596C33.6567 132.984 33.3978 133.113 33.1389 133.113Z" fill="white"/>
<path d="M26.4079 81.7568L17.8643 81.498V83.0504L26.5374 83.4385L26.4079 81.7568Z" fill="white"/>
<path d="M20.3237 74.3828C20.7121 74.1241 21.2299 74.1241 22.0066 74.2535L27.314 74.9003L27.4435 73.3479L22.3949 72.7011C21.1004 72.5718 20.1943 72.7011 19.5471 72.9599C18.8998 73.3479 18.5115 73.9948 18.382 74.9003C18.382 75.4177 18.382 75.8058 18.5115 76.1939C18.6409 76.582 18.8998 76.9701 19.2882 77.3582L17.9937 77.2288V78.7811L26.5373 79.9454L26.6668 78.3931L22.0066 77.7462C21.1004 77.6169 20.4532 77.3582 20.0649 76.9701C19.6765 76.582 19.5471 76.0645 19.6765 75.4177C19.806 75.0296 19.9354 74.6416 20.3237 74.3828Z" fill="white"/>
<path d="M33.1392 57.4365C33.5276 57.0484 33.9159 56.6603 34.1748 56.1429C34.4337 55.6254 34.6926 55.108 34.6926 54.5905C34.6926 54.0731 34.6926 53.4263 34.5632 52.7795L33.1392 53.0382C33.2687 53.4263 33.2687 53.9437 33.2687 54.2024C33.2687 54.5905 33.1392 54.9786 32.8803 55.2373C32.492 55.8841 31.9742 56.2722 31.1975 56.5309C30.4208 56.6603 29.6441 56.6603 28.9968 56.1429C28.2201 55.7548 27.8318 55.108 27.5729 54.4612C27.314 53.685 27.4434 53.0382 27.8318 52.262C27.9612 52.0033 28.2201 51.6152 28.479 51.4858C28.7379 51.2271 29.1263 51.0978 29.3852 50.9684L28.8674 49.5454C28.3496 49.6748 27.8318 49.9335 27.4434 50.3216C27.0551 50.7097 26.6667 51.0978 26.4078 51.6152C26.1489 52.1326 26.0195 52.6501 25.89 53.1675C25.7606 53.685 25.89 54.3318 26.0195 54.8492C26.1489 55.4961 26.4078 56.0135 26.7962 56.4016C27.1845 56.919 27.5729 57.3071 28.0907 57.5658C28.6085 57.8246 29.1263 58.0833 29.7735 58.0833C30.2913 58.2126 30.9386 58.0833 31.5858 57.9539C32.2331 57.9539 32.7509 57.6952 33.1392 57.4365Z" fill="white"/>
<path d="M20.7118 58.3423L22.3946 57.8248L21.6179 56.4019L19.9351 56.7899L20.7118 58.3423Z" fill="white"/>
<path d="M117.67 32.7285L118.576 43.2068L118.705 43.3362L126.861 32.8579L125.178 31.5643L120.259 37.903L119.482 27.166L119.353 27.0366L111.197 37.5149L112.88 38.8085L117.67 32.7285Z" fill="white"/>
<path d="M153.528 52.1328V145.532H70.5503V152H160V52.1328H153.528Z" fill="white"/>
<path d="M132.039 49.675C131.78 49.1576 131.78 48.6401 131.909 48.1227C132.039 47.6052 132.427 47.2171 132.816 46.8291C133.333 46.441 133.981 46.441 134.498 46.5703C135.016 46.6997 135.664 47.0878 135.922 47.6052C136.311 48.1227 136.44 48.7695 136.311 49.2869C136.181 49.8044 135.793 50.4512 135.275 50.7099C134.887 50.9686 134.369 51.098 133.722 51.098C133.463 51.098 133.075 51.098 132.816 51.098C132.557 51.098 132.168 51.098 131.78 50.9686L124.401 49.9337L129.062 56.9193L130.874 56.1431L128.155 52.1329L131.78 52.7797C132.945 53.0384 133.851 53.0384 134.628 52.9091C135.405 52.7797 135.922 52.6503 136.57 52.2622C137.605 51.6154 138.123 50.7099 138.253 49.675C138.382 48.6401 138.252 47.4759 137.476 46.5703C136.829 45.5354 135.793 44.8886 134.757 44.6299C133.722 44.3712 132.557 44.6299 131.521 45.2767C130.744 45.7942 130.227 46.441 129.968 47.0878C129.709 47.8639 129.709 48.6401 129.838 49.5456L132.039 49.675Z" fill="white"/>
<path d="M101.618 32.5992L103.819 30.5294L108.22 32.4699V33.3754C108.091 35.5745 108.091 35.7039 110.032 36.3507C110.032 36.3507 110.032 36.3507 110.162 36.3507L110.55 25.2256L108.479 27.166L108.349 30.5294L105.243 29.1065L108.349 26.1311C109.903 24.8375 110.809 23.1558 110.421 21.4741L99.6763 31.6937L101.618 32.5992Z" fill="white"/>
<path d="M131.521 58.4715C130.744 59.6358 130.744 60.9294 131.262 62.3524C131.909 63.7754 132.816 64.5515 134.24 64.8102C135.664 65.069 137.217 64.8102 139.159 64.0341C141.1 63.2579 142.395 62.223 143.172 60.9294C143.948 59.6358 143.948 58.4715 143.301 57.0485C142.654 55.6256 141.748 54.8494 140.324 54.5907C138.9 54.332 137.346 54.5907 135.405 55.3668C133.592 56.2724 132.298 57.3073 131.521 58.4715ZM139.676 56.7898C140.712 56.9192 141.359 57.3073 141.618 57.9541C141.877 58.6009 141.748 59.3771 141.1 60.1532C140.453 60.9294 139.547 61.5762 138.253 62.223C136.958 62.7405 135.922 62.9992 134.887 62.8698C133.851 62.7405 133.204 62.3524 132.945 61.7056C132.686 61.0588 132.816 60.2826 133.463 59.5064C134.11 58.7302 135.016 58.0834 136.311 57.4366C137.605 56.9192 138.77 56.6605 139.676 56.7898Z" fill="white"/>
<path d="M144.337 76.4528C143.431 76.5822 142.783 76.9702 142.136 77.6171C141.618 78.1345 141.23 78.9107 141.1 79.8162L142.783 80.7217C142.783 80.0749 142.913 79.5575 143.301 79.1694C143.689 78.7813 144.078 78.5226 144.725 78.3932C145.372 78.2639 145.89 78.3932 146.408 78.7813C146.926 79.1694 147.185 79.6868 147.314 80.3336C147.444 80.9805 147.314 81.4979 146.926 82.0154C146.537 82.5328 146.02 82.9209 145.372 82.9209C144.855 83.0502 144.337 82.9209 143.819 82.6622C143.56 82.5328 143.301 82.4034 143.042 82.2741C142.783 82.1447 142.524 82.0153 142.136 81.7566L135.664 77.8758L137.217 86.1549H139.159L138.253 81.3685L141.359 83.4383C142.395 84.0851 143.172 84.4732 143.948 84.7319C144.596 84.9907 145.243 84.9907 146.02 84.8613C147.185 84.6026 148.091 84.0851 148.609 83.1796C149.256 82.2741 149.385 81.2392 149.126 79.9456C148.867 78.6519 148.35 77.7464 147.444 77.0996C146.537 76.4528 145.502 76.3234 144.337 76.4528Z" fill="white"/>
<path d="M42.3304 132.208C42.4598 132.208 42.5893 132.208 42.7187 132.337C42.5893 132.078 42.4598 132.078 42.3304 132.208C41.942 132.078 41.6831 132.337 41.6831 132.725C41.6831 133.113 41.942 133.372 42.3304 133.372C42.4598 133.372 42.5893 133.372 42.7187 133.242C42.5893 133.372 42.5893 133.372 42.3304 133.372C42.0715 133.372 41.8126 133.113 41.8126 132.854C41.8126 132.337 41.942 132.208 42.3304 132.208Z" fill="white"/>
<path d="M6.73128 6.46809H99.6763V0H0.258789V89.777H6.73128V6.46809Z" fill="white"/>
<path d="M92.4271 16.2998L89.3203 29.3653L92.8155 30.1415C97.4756 31.3058 100.065 29.7534 101.1 25.2258C102.136 20.6981 100.453 18.2402 95.9223 17.076L92.4271 16.2998ZM98.5112 24.7083C97.7345 27.813 96.1812 28.8479 93.3333 28.2011L91.9093 27.813L93.9805 18.887L95.5339 19.2751C98.3818 19.9219 99.2879 21.6036 98.5112 24.7083Z" fill="white"/>
<path d="M69.644 16.2998C69.644 16.2998 71.8447 18.3696 71.068 21.0862C69.9029 25.6138 69.644 26.6487 71.7152 29.1066C71.1974 28.3304 70.5502 26.6487 72.1036 23.156C73.5275 19.7926 71.068 17.076 69.644 16.2998Z" fill="white"/>
<path d="M74.5629 27.6833C75.8574 29.365 75.8574 29.365 77.6697 28.9769C77.6697 28.9769 77.6697 28.9769 77.7992 28.8475C76.2458 26.7778 74.6924 24.8373 73.139 22.6382C72.8801 23.285 72.7506 23.8024 72.6212 24.3199C72.4917 24.708 72.4917 24.9667 72.7506 25.2254C73.3979 26.0016 73.9157 26.9071 74.5629 27.6833Z" fill="white"/>
<path d="M65.8901 30.788L68.0908 30.3999L68.738 27.5539L70.0325 21.6033C70.5503 19.6629 70.2914 17.9811 69.2558 16.8169L65.8901 30.788Z" fill="white"/>
<path d="M40.1293 47.6049L35.9869 44.3708C35.0807 43.5947 34.1746 43.3359 33.5273 43.3359C32.7506 43.4653 32.1034 43.8534 31.4561 44.7589C31.1972 45.0176 31.0678 45.4057 30.8089 45.6644C30.55 46.0525 30.4205 46.4406 30.1616 46.8287L31.1972 48.1223C31.3267 47.6049 31.4561 47.0874 31.715 46.6993C31.8445 46.3113 32.1034 45.9232 32.3623 45.6644C32.7506 45.147 33.139 44.7589 33.5273 44.7589C33.9157 44.6296 34.304 44.7589 34.6924 45.0176L35.2102 45.4057C34.8218 45.5351 34.4335 45.6644 34.0451 45.9232C33.6568 46.1819 33.3979 46.4406 33.139 46.8287C32.6212 47.6049 32.3623 48.381 32.4917 49.1572C32.6212 49.9334 33.0095 50.7096 33.7862 51.227C34.5629 51.7444 35.3396 52.0032 36.1163 51.8738C36.893 51.7444 37.5403 51.3564 38.1875 50.5802C38.4464 50.1921 38.7053 49.804 38.8348 49.4159C38.9642 49.0279 38.9642 48.5104 38.9642 48.1223L39.7409 48.7691L40.1293 47.6049ZM37.0225 49.6747C36.6341 50.0627 36.2458 50.3215 35.8574 50.4508C35.4691 50.5802 34.9513 50.4508 34.5629 50.0627C34.1746 49.804 33.9157 49.2866 33.9157 48.8985C33.9157 48.381 34.0451 47.993 34.4335 47.4755C34.8218 46.9581 35.2102 46.6993 35.728 46.57C36.2458 46.4406 36.6341 46.57 37.0225 46.9581C37.4108 47.2168 37.6697 47.7342 37.6697 48.1223C37.5403 48.6398 37.4108 49.1572 37.0225 49.6747Z" fill="white"/>
<path d="M87.2491 19.7924C87.3786 17.0758 85.6957 15.7822 83.1067 15.6528L79.4822 15.5234L78.9644 28.8477L81.165 28.9771L81.2945 23.6732H82.4595L84.919 28.9771L87.2491 29.1064L84.5307 23.2851C85.9547 23.0264 87.1197 22.1209 87.2491 19.7924ZM82.9773 21.6034H81.4239L81.5534 17.8519H83.1067C84.2718 17.9813 85.0485 18.6281 85.0485 19.7924C85.0485 20.9566 84.1423 21.6034 82.9773 21.6034Z" fill="white"/>
<path d="M48.0261 140.357C45.1782 140.357 42.8481 142.686 42.8481 145.532C42.8481 148.378 45.1782 150.706 48.0261 150.706C50.874 150.706 53.2041 148.378 53.2041 145.532C53.2041 142.686 50.874 140.357 48.0261 140.357ZM48.0261 148.378C46.4727 148.378 45.1782 147.084 45.1782 145.532C45.1782 143.98 46.4727 142.557 48.0261 142.557C49.5795 142.557 51.0035 143.85 51.0035 145.532C50.874 147.084 49.5795 148.378 48.0261 148.378Z" fill="white"/>
<path d="M142.136 65.3277C141.23 65.5864 140.582 65.9745 140.065 66.4919C139.547 67.0094 139.159 67.7855 139.159 68.6911L140.971 69.5966C140.971 68.9498 141.1 68.4324 141.359 68.0443C141.748 67.6562 142.136 67.2681 142.654 67.1387C143.301 67.0094 143.819 67.1387 144.337 67.3975C144.854 67.7855 145.243 68.1736 145.372 68.8204C145.502 69.4672 145.372 69.9847 145.113 70.6315C144.725 71.1489 144.337 71.537 143.689 71.6664C143.171 71.7958 142.654 71.6664 142.136 71.537C141.877 71.4077 141.618 71.2783 141.359 71.1489C141.1 71.0196 140.841 70.8902 140.453 70.6315L133.851 67.1387L135.793 75.2885H137.735L136.57 70.5021L139.806 72.4426C140.841 73.0894 141.748 73.4775 142.395 73.6068C143.042 73.7362 143.819 73.8655 144.466 73.6068C145.631 73.3481 146.408 72.7013 147.055 71.7958C147.573 70.8902 147.702 69.726 147.443 68.5617C147.184 67.2681 146.537 66.3626 145.631 65.7158C144.725 65.0689 143.301 64.9396 142.136 65.3277Z" fill="white"/>
<path d="M98.5115 100.255C97.9937 100.255 97.4759 100.385 97.217 100.643C96.9581 100.902 96.6992 101.29 96.6992 101.808C96.6992 102.325 96.8287 102.584 97.217 102.972C97.6054 103.36 97.9937 103.36 98.5115 103.36C99.1588 103.36 99.5471 103.231 99.9355 102.972C100.324 102.713 100.453 102.325 100.453 101.808C100.453 101.29 100.324 100.902 99.9355 100.643C99.5471 100.385 99.1588 100.255 98.5115 100.255Z" fill="white"/>
<path d="M81.4238 135.83C109.773 135.83 132.815 112.674 132.815 84.2144C132.815 55.7549 109.773 32.5991 81.4238 32.5991C53.0743 32.5991 30.0322 55.6255 30.0322 84.2144C30.0322 112.674 52.9449 135.83 81.4238 135.83ZM75.0808 104.395L73.7863 104.654V103.748C73.5274 104.007 73.139 104.265 72.7507 104.395C72.3623 104.524 71.974 104.654 71.4562 104.654C70.55 104.654 69.7733 104.395 69.2555 103.877C68.7377 103.36 68.6083 102.713 68.6083 101.808C68.6083 100.902 68.8672 100.255 69.385 99.7378C69.9028 99.2204 70.6795 98.9617 71.4562 98.9617C71.8445 98.9617 72.2329 98.9617 72.6212 99.091C73.0096 99.2204 73.2685 99.3498 73.6568 99.6085V98.9617C73.6568 98.4442 73.5274 98.1855 73.2685 97.9268C73.0096 97.6681 72.4918 97.6681 71.8445 97.6681C71.4562 97.6681 71.1973 97.6681 70.8089 97.7974C70.4206 97.9268 70.0322 98.0561 69.5144 98.1855L69.9028 96.6332C70.2911 96.5038 70.8089 96.3744 71.1973 96.3744C71.5856 96.3744 71.974 96.2451 72.2329 96.2451C73.2685 96.2451 74.0452 96.5038 74.4335 97.0212C74.8219 97.5387 75.0808 98.3149 75.0808 99.3498V104.395ZM81.8122 104.266C81.2944 104.524 80.7766 104.524 80.2588 104.524C79.741 104.524 79.2232 104.395 78.8348 104.266C78.4465 104.136 77.9287 103.748 77.5403 103.36C77.152 102.972 76.7636 102.454 76.6342 102.066C76.5047 101.678 76.3753 101.031 76.3753 100.514C76.3753 99.9966 76.5047 99.4791 76.6342 98.9617C76.7636 98.4442 77.152 98.0561 77.5403 97.6681C77.9287 97.28 78.317 97.0213 78.8348 96.7625C79.3526 96.5038 79.8704 96.5038 80.3882 96.5038C80.906 96.5038 81.4238 96.6332 81.9416 96.7625C82.4594 96.8919 82.8478 97.28 83.2361 97.5387L82.33 98.5736C82.0711 98.3149 81.8122 98.1855 81.5533 98.0561C81.2944 97.9268 80.906 97.9268 80.6471 97.9268C79.8704 97.9268 79.2232 98.1855 78.8348 98.703C78.4465 99.2204 78.0581 99.8672 78.0581 100.643C78.0581 101.42 78.317 102.066 78.8348 102.584C79.3526 103.101 79.8704 103.36 80.6471 103.36C81.0355 103.36 81.2944 103.231 81.6827 103.101C82.0711 102.972 82.33 102.713 82.5889 102.454L83.495 103.489C82.7183 103.748 82.2005 104.136 81.8122 104.266ZM86.6018 102.843C86.9902 103.101 87.508 103.231 87.8963 103.231C88.2847 103.231 88.8025 103.101 89.3203 102.972C89.8381 102.843 90.3558 102.454 90.8736 101.937L91.1326 103.36C90.6148 103.748 90.097 104.007 89.4497 104.266C88.8025 104.524 88.4141 104.524 87.7669 104.524C87.2491 104.524 86.6018 104.395 86.084 104.266C85.5662 104.136 85.1779 103.748 84.7895 103.36C84.4012 102.972 84.0128 102.584 83.8834 102.066C83.7539 101.549 83.6245 101.031 83.6245 100.514C83.6245 99.9966 83.7539 99.4791 83.8834 98.9617C84.0128 98.4442 84.4012 98.0561 84.7895 97.6681C85.1779 97.28 85.5662 97.0213 86.084 96.7625C86.6018 96.5038 87.1196 96.5038 87.6374 96.5038C88.4141 96.5038 89.0614 96.6332 89.7086 97.0212C90.3559 97.4093 90.8737 97.9268 91.1326 98.5736L85.4368 102.066C85.8251 102.325 86.084 102.713 86.6018 102.843ZM93.9804 104.395L92.4271 104.524V93.5285L93.9804 93.3991V104.395ZM99.8057 98.0561C99.5468 97.7974 99.029 97.7974 98.3817 97.7974C97.9934 97.7974 97.7345 97.7974 97.3461 97.9268C96.9578 98.0561 96.5694 98.1855 96.0516 98.3149L96.44 96.7625C96.8283 96.6332 97.3461 96.5038 97.7345 96.5038C98.1228 96.5038 98.5112 96.3744 98.7701 96.3744C99.8057 96.3744 100.582 96.6332 100.971 97.1506C101.359 97.6681 101.618 98.4442 101.618 99.4791V104.395L100.323 104.654V103.748C100.065 104.007 99.6762 104.265 99.2879 104.395C98.8995 104.524 98.5112 104.654 97.9934 104.654C97.0872 104.654 96.3105 104.395 95.7927 103.877C95.2749 103.36 95.016 102.713 95.016 101.808C95.016 100.902 95.2749 100.255 95.7927 99.7378C96.3105 99.2204 97.0872 98.9617 97.8639 98.9617C98.2523 98.9617 98.6406 98.9617 99.029 99.091C99.4173 99.2204 99.6762 99.3498 100.065 99.6085V98.9617C100.323 98.5736 100.194 98.1855 99.8057 98.0561ZM67.5727 60.1532C68.3494 58.0834 69.5144 56.2723 71.1973 54.72C72.7507 53.1676 74.563 52.0034 76.6342 51.2272C78.7054 50.451 80.906 50.063 83.3656 50.063C85.6957 50.063 87.8963 50.451 89.8381 51.2272C91.7798 52.0034 93.4626 53.0383 94.7571 54.4612L91.7798 57.5659C90.6148 56.4017 89.3203 55.6255 87.8963 54.9787C86.4724 54.3319 84.919 54.2025 83.2361 54.2025C79.741 54.2025 76.8931 55.3668 74.563 57.6953C72.2329 60.0238 71.1973 63.1285 71.1973 66.7506C71.1973 70.3727 72.3623 73.3481 74.563 75.6766C76.7636 78.0051 79.6115 79.1693 82.9772 79.1693C84.4012 79.1693 85.8251 78.9106 87.1196 78.5225C88.4141 78.1344 89.7086 77.4876 90.7442 76.5821V68.8204H80.7766L82.4594 64.8102H95.2749V79.1693C93.4626 80.7217 91.5209 81.8859 89.5792 82.5327C87.6374 83.1795 85.4368 83.697 83.2361 83.697C80.7766 83.697 78.5759 83.3089 76.5047 82.5327C74.4335 81.7566 72.7507 80.5923 71.0678 79.04C69.5144 77.4876 68.3494 75.6766 67.4432 73.6068C66.5371 71.537 66.2782 69.3378 66.2782 66.88C66.4076 64.2927 66.796 62.0936 67.5727 60.1532ZM65.5015 102.972C64.9837 102.584 64.4659 102.454 63.6892 102.454C63.4303 102.454 63.1714 102.454 62.9125 102.584C62.6536 102.713 62.2652 102.713 61.8769 102.972L62.2652 101.937C61.7474 101.678 61.3591 101.29 61.1002 100.902C60.8413 100.514 60.7118 99.9966 60.7118 99.4791C60.7118 98.5736 61.1002 97.9268 61.7474 97.28C62.3947 96.6332 63.3008 96.5038 64.4659 96.5038C64.5953 96.5038 64.8542 96.5038 64.9837 96.5038C65.1131 96.5038 65.372 96.5038 65.5015 96.5038C65.7604 96.5038 66.1487 96.5038 66.4076 96.3744C66.6665 96.2451 67.0549 96.2451 67.3138 96.1157L68.2199 95.857L67.8316 97.28L66.9254 97.4093C67.1843 97.6681 67.4432 97.9268 67.5727 98.3149C67.7021 98.7029 67.8316 98.9617 67.8316 99.3498C67.8316 99.8672 67.7021 100.255 67.4432 100.643C67.1843 101.031 66.796 101.42 66.2782 101.678C66.796 101.937 67.3138 102.325 67.5727 102.843C67.8316 103.36 67.961 103.748 67.961 104.266C67.961 105.171 67.5727 105.947 66.9254 106.465C66.2782 106.982 65.372 107.37 64.207 107.37C63.4303 107.37 62.783 107.241 62.1358 106.982C61.4885 106.723 60.9707 106.335 60.5824 105.688L61.618 104.783C62.0063 105.171 62.3947 105.559 62.783 105.818C63.1714 106.077 63.6892 106.077 64.0775 106.077C64.8542 106.077 65.372 105.947 65.7604 105.559C66.1487 105.171 66.4076 104.783 66.4076 104.266C66.4076 103.748 66.0193 103.36 65.5015 102.972Z" fill="white"/>
<path d="M87.7672 97.668C86.9905 97.668 86.3433 97.9267 85.9549 98.4441C85.5666 98.9616 85.1782 99.6084 85.1782 100.514V100.643L89.1912 98.1854C88.9323 98.0561 88.8028 97.9267 88.5439 97.7973C88.285 97.668 88.0261 97.668 87.7672 97.668Z" fill="white"/>
<path d="M65.5014 98.1854C65.1131 97.9267 64.7247 97.668 64.0775 97.668C63.4302 97.668 63.0419 97.7973 62.6535 98.1854C62.2652 98.5735 62.1357 98.9616 62.1357 99.479C62.1357 99.9965 62.2652 100.385 62.6535 100.773C63.0419 101.161 63.5597 101.29 64.0775 101.29C64.7247 101.29 65.1131 101.161 65.5014 100.773C65.8898 100.385 66.0192 99.9965 66.0192 99.6084C66.1487 98.8322 65.8898 98.4441 65.5014 98.1854Z" fill="white"/>
<path d="M71.9739 100.255C71.4561 100.255 70.9383 100.385 70.6794 100.643C70.4205 100.902 70.1616 101.29 70.1616 101.808C70.1616 102.325 70.2911 102.584 70.6794 102.972C71.0678 103.36 71.4561 103.36 71.9739 103.36C72.6212 103.36 73.0095 103.231 73.3979 102.972C73.7862 102.713 73.7862 102.196 73.7862 101.808C73.7862 101.29 73.6568 100.902 73.2684 100.643C72.8801 100.385 72.4917 100.255 71.9739 100.255Z" fill="white"/>
<path d="M18.6407 60.4121L18.3818 62.0938L22.5242 63.3874C22.0064 63.6462 21.4886 64.0342 21.2297 64.4223C20.8414 64.8104 20.5825 65.3279 20.453 65.8453C20.3236 66.3627 20.1941 67.0096 20.3236 67.527C20.3236 68.0444 20.5825 68.6913 20.8414 69.2087C21.1003 69.7262 21.4886 70.2436 21.877 70.6317C22.2653 71.0198 22.9126 71.2785 23.4304 71.4079C24.0776 71.5372 24.5954 71.6666 25.2427 71.5372C25.8899 71.5372 26.4077 71.2785 26.9255 71.0198C27.4433 70.761 27.8317 70.373 28.22 69.9849C28.6084 69.5968 28.8673 69.0793 28.9967 68.5619C29.1262 68.0444 29.2556 67.3976 29.1262 66.8802C28.9967 66.3627 28.8673 65.8453 28.6084 65.1985L29.9029 65.5866L30.1618 64.0342L18.6407 60.4121ZM27.5728 67.7857C27.3139 68.5619 26.9255 69.0793 26.1488 69.4674C25.5016 69.8555 24.7249 69.8555 23.8187 69.5968C23.042 69.3381 22.3948 68.8206 22.0064 68.1738C21.6181 67.527 21.4886 66.7508 21.7475 65.9747C22.0064 65.1985 22.3948 64.681 23.1715 64.293C23.8187 63.9049 24.5954 63.9049 25.5016 64.1636C26.2783 64.4223 26.9255 64.9398 27.3139 65.5866C27.7022 66.3627 27.8317 67.0096 27.5728 67.7857Z" fill="white"/>
<path d="M38.1878 132.466C38.1878 132.207 38.0584 132.078 37.7995 132.078H37.4111V133.242H37.5406V132.854H37.9289L38.1878 133.242H38.3173L38.0584 132.854C38.0584 132.725 38.1878 132.596 38.1878 132.466ZM37.7995 132.725H37.4111V132.207H37.7995C37.9289 132.207 38.0584 132.337 38.0584 132.466C38.0584 132.596 37.9289 132.725 37.7995 132.725Z" fill="white"/>
<path d="M16.8287 135.183C16.8287 135.054 16.8287 135.054 16.6992 135.054H14.628C14.628 135.054 14.4986 135.054 14.4986 135.183V135.442C14.4986 135.442 14.4986 135.571 14.628 135.571H16.052L14.3691 138.417V138.546C14.3691 138.546 14.3691 138.676 14.4986 138.676H16.6992C16.6992 138.676 16.8287 138.676 16.8287 138.546V138.288C16.8287 138.288 16.8287 138.158 16.6992 138.158H15.1458L16.8287 135.183Z" fill="white"/>
<path d="M45.0483 136.865C45.0483 137.9 45.825 138.676 46.8606 138.676C47.3784 138.676 47.7668 138.546 48.1551 138.158V138.029L47.8962 137.641H47.7668C47.5079 137.77 47.249 137.9 46.9901 137.9C46.3428 137.9 45.825 137.382 45.825 136.735C45.825 136.089 46.3428 135.571 46.9901 135.571C47.249 135.571 47.5079 135.7 47.7668 135.83H47.8962L48.1551 135.442V135.312C47.7668 135.054 47.3784 134.795 46.8606 134.795C45.825 135.054 45.0483 135.83 45.0483 136.865Z" fill="white"/>
<path d="M28.738 132.596C28.6085 132.596 28.4791 132.466 28.4791 132.337C28.4791 132.208 28.4791 132.208 28.738 132.208C28.4791 132.208 28.3496 132.337 28.3496 132.466C28.3496 132.596 28.4791 132.596 28.738 132.596C28.8674 132.854 28.9969 132.854 28.9969 132.984C28.9969 133.113 28.8674 133.113 28.738 133.113C28.6085 133.113 28.4791 132.984 28.4791 132.984C28.4791 132.984 28.6085 133.113 28.8674 133.113C29.1263 133.113 29.2558 132.984 29.2558 132.854C29.1263 132.725 28.9969 132.725 28.738 132.596Z" fill="white"/>
<path d="M51.1329 132.596C51.1329 132.207 50.874 131.949 50.4856 131.949C50.0973 131.949 49.8384 132.207 49.8384 132.596C49.8384 132.984 50.0973 133.242 50.4856 133.242C50.7445 133.242 51.1329 132.984 51.1329 132.596ZM49.9678 132.596C49.9678 132.337 50.2267 132.078 50.4856 132.078C50.7445 132.078 51.0034 132.337 51.0034 132.596C51.0034 132.854 50.7445 133.113 50.4856 133.113C50.2267 133.113 49.9678 132.984 49.9678 132.596Z" fill="white"/>
<path d="M48.8028 138.676H49.1911C49.3206 138.676 49.3206 138.676 49.3206 138.546L49.5795 138.029H51.1329L51.3918 138.546C51.3918 138.676 51.5212 138.676 51.5212 138.676H51.9096C52.039 138.676 52.039 138.546 52.039 138.546L50.4856 135.054C50.4856 135.054 50.4856 135.054 50.3562 135.054H50.2267L48.6733 138.546L48.8028 138.676ZM50.4856 136.347L51.0034 137.512H49.9678L50.4856 136.347Z" fill="white"/>
<path d="M46.3428 133.242V132.078H46.2134V133.242C46.2134 133.242 46.2134 133.242 46.3428 133.242Z" fill="white"/>
<path d="M24.2072 140.487H22.2654C22.136 140.487 22.0065 140.616 22.0065 140.616L19.6764 145.791H19.547L17.2169 140.616C17.2169 140.487 17.0874 140.487 16.958 140.487H15.0162C14.7573 140.487 14.6279 140.616 14.7573 140.875L19.1586 150.448C19.1586 150.577 19.2881 150.577 19.4175 150.577H19.547C19.6764 150.577 19.8059 150.448 19.8059 150.448L24.3366 140.875C24.4661 140.616 24.3366 140.487 24.2072 140.487Z" fill="white"/>
<path d="M28.6083 140.487H26.9254C26.796 140.487 26.6665 140.616 26.6665 140.746V150.189C26.6665 150.318 26.796 150.448 26.9254 150.448H28.6083C28.7377 150.448 28.8671 150.318 28.8671 150.189V140.746C28.8671 140.616 28.7377 140.487 28.6083 140.487Z" fill="white"/>
<path d="M11.6505 144.756C9.96765 145.532 8.02591 144.885 7.24921 143.203C6.47251 141.522 7.11976 139.581 8.80261 138.805L5.82526 132.596C0.776716 135.054 -1.42393 141.134 1.03562 146.308C3.49516 151.353 9.5793 153.552 14.7573 151.094L11.6505 144.756Z" fill="white"/>
<path d="M24.2072 135.054L24.0777 137.641L21.8771 135.054H21.7476C21.7476 135.054 21.6182 135.054 21.6182 135.183V138.676C21.6182 138.676 21.6182 138.805 21.7476 138.805H22.136C22.136 138.805 22.2654 138.805 22.2654 138.676V136.218L24.4661 138.935H24.5955C24.5955 138.935 24.725 138.935 24.725 138.805V135.312C24.725 135.312 24.725 135.183 24.5955 135.183H24.2072V135.054Z" fill="white"/>
<path d="M15.6632 81.1099L14.2393 82.1448L15.5338 83.309L16.9577 82.1448L15.6632 81.1099Z" fill="white"/>
<path d="M8.80273 138.676L11.6506 144.627C13.3335 143.85 13.9807 141.781 13.204 140.228C12.4273 138.547 10.4856 137.9 8.80273 138.676Z" fill="white"/>
<path d="M35.987 136.089C35.987 135.442 35.4692 134.924 34.822 134.924H33.398C33.398 134.924 33.2686 134.924 33.2686 135.054V138.417C33.2686 138.417 33.2686 138.546 33.398 138.546H33.9158C33.9158 138.546 34.0453 138.546 34.0453 138.417V137.123H34.5631L35.2103 138.546C35.2103 138.546 35.2103 138.546 35.3398 138.546H35.8576C35.987 138.546 35.987 138.417 35.987 138.417L35.3398 137.123C35.5986 136.994 35.987 136.606 35.987 136.089ZM34.6925 136.735H33.9158V135.7H34.6925C34.9514 135.7 35.2103 135.959 35.2103 136.218C35.2103 136.477 35.0809 136.735 34.6925 136.735Z" fill="white"/>
<path d="M36.6343 138.676H37.0227C37.1521 138.676 37.1521 138.676 37.1521 138.546L37.411 138.029H38.9644L39.2233 138.546C39.2233 138.676 39.3528 138.676 39.3528 138.676H39.7411C39.8706 138.676 39.8706 138.546 39.8706 138.546L38.3172 135.054C38.3172 135.054 38.3172 135.054 38.1877 135.054H38.0583L36.5049 138.546C36.6343 138.546 36.6343 138.676 36.6343 138.676ZM38.3172 136.347L38.835 137.512H37.7994L38.3172 136.347Z" fill="white"/>
<path d="M24.7249 132.078V132.984L23.9482 132.078V133.242V132.337L24.7249 133.372V132.078C24.8544 132.078 24.8544 132.078 24.7249 132.078Z" fill="white"/>
<path d="M15.2752 132.208C15.4046 132.208 15.5341 132.208 15.6635 132.337C15.5341 132.078 15.4046 132.078 15.2752 132.208C14.8868 132.078 14.6279 132.337 14.6279 132.725C14.6279 133.113 14.8868 133.372 15.2752 133.372C15.4046 133.372 15.5341 133.372 15.6635 133.242C15.5341 133.372 15.5341 133.372 15.2752 133.372C15.0163 133.372 14.7574 133.113 14.7574 132.854C14.7574 132.337 15.0163 132.208 15.2752 132.208Z" fill="white"/>
<path d="M27.9612 138.546C28.0906 138.676 28.0906 138.676 27.9612 138.546L28.3495 138.676C28.479 138.676 28.479 138.546 28.479 138.546L26.9256 135.054C26.9256 135.054 26.9256 135.054 26.7961 135.054H26.6667L25.1133 138.546C25.1133 138.676 25.1133 138.676 25.2427 138.676H25.6311C25.6311 138.676 25.7605 138.676 25.7605 138.546C25.89 138.288 26.0194 138.029 26.0194 137.9H27.7023L27.9612 138.546ZM26.2783 137.382L26.9256 135.959L27.5728 137.382H26.2783Z" fill="white"/>
</g>
<defs>
<clipPath id="clip0_739_596">
<rect width="160" height="152" fill="white"/>
</clipPath>
</defs>
</svg>
