<?xml version="1.0" encoding="utf-8"?>
<!-- Generator: Adobe Illustrator 27.9.3, SVG Export Plug-In . SVG Version: 9.03 Build 53313)  -->
<svg version="1.1" xmlns="http://www.w3.org/2000/svg" xmlns:xlink="http://www.w3.org/1999/xlink" x="0px" y="0px"
	 viewBox="0 0 136.94 200.26" style="enable-background:new 0 0 136.94 200.26;" xml:space="preserve">
<g id="Logo">
	<g>
		<path d="M48.27,66.42h19.98c4.86,0,11.27,0,14.58,2.01c3.63,2.16,6.48,6.09,6.48,11.5c0,5.86-3.08,10.26-8.18,12.34v0.16
			c6.79,1.39,10.49,6.48,10.49,13.27c0,8.1-5.79,15.82-16.74,15.82H48.27V66.42z M55.6,90.1h14.67c8.33,0,11.73-3.01,11.73-8.8
			c0-7.64-5.4-8.72-11.73-8.72H55.6V90.1z M55.6,115.33h18.37c6.32,0,10.34-3.86,10.34-9.87c0-7.18-5.79-9.18-11.96-9.18H55.6
			V115.33z"/>
		<path d="M110.37,93.98c0,23.14-18.76,41.9-41.91,41.9c-23.14,0-41.9-18.76-41.9-41.9c0-23.14,18.76-41.9,41.9-41.9
			C91.61,52.09,110.37,70.84,110.37,93.98z M68.47,45.7C41.81,45.7,20.2,67.3,20.2,93.96c0,26.65,21.61,48.26,48.26,48.26
			c26.66,0,48.27-21.61,48.27-48.26C116.74,67.3,95.13,45.7,68.47,45.7z"/>
	</g>
	<g>
		<rect x="20.3" y="152.41" width="96.33" height="6.33"/>
		<path d="M113.62,145.43c0.12,0,0.23-0.01,0.34-0.01c0.1-0.01,0.2-0.03,0.28-0.06c0.09-0.04,0.15-0.1,0.2-0.17
			c0.05-0.08,0.07-0.18,0.07-0.31c0-0.11-0.02-0.21-0.06-0.27c-0.04-0.07-0.1-0.12-0.17-0.15c-0.07-0.04-0.14-0.06-0.24-0.08
			c-0.09-0.01-0.17-0.01-0.27-0.01h-0.69v1.07H113.62z M113.85,143.94c0.4,0,0.69,0.08,0.89,0.24c0.19,0.16,0.29,0.4,0.29,0.73
			c0,0.31-0.09,0.52-0.25,0.67c-0.17,0.14-0.38,0.22-0.64,0.25l0.96,1.48h-0.56l-0.92-1.45h-0.55v1.45h-0.53v-3.36H113.85z
			 M111.49,146.58c0.11,0.3,0.28,0.57,0.5,0.79c0.21,0.22,0.46,0.39,0.75,0.52c0.28,0.12,0.6,0.18,0.93,0.18
			c0.34,0,0.65-0.06,0.93-0.18c0.29-0.13,0.54-0.3,0.75-0.52c0.21-0.22,0.38-0.48,0.49-0.79c0.12-0.3,0.19-0.62,0.19-0.97
			c0-0.35-0.06-0.67-0.19-0.97c-0.12-0.3-0.29-0.56-0.49-0.78c-0.22-0.22-0.47-0.39-0.75-0.51c-0.28-0.12-0.6-0.19-0.93-0.19
			c-0.33,0-0.65,0.07-0.93,0.19c-0.29,0.13-0.55,0.3-0.75,0.51c-0.22,0.22-0.38,0.48-0.5,0.78c-0.12,0.3-0.18,0.61-0.18,0.97
			C111.3,145.96,111.36,146.29,111.49,146.58 M111.01,144.47c0.15-0.35,0.36-0.64,0.62-0.9c0.26-0.26,0.57-0.45,0.92-0.6
			c0.35-0.15,0.73-0.22,1.11-0.22c0.4,0,0.77,0.07,1.13,0.22c0.34,0.15,0.65,0.34,0.9,0.6c0.26,0.26,0.48,0.56,0.62,0.9
			c0.16,0.35,0.23,0.73,0.23,1.14c0,0.41-0.07,0.79-0.23,1.14c-0.15,0.36-0.36,0.66-0.62,0.92c-0.26,0.27-0.56,0.46-0.9,0.61
			c-0.36,0.14-0.73,0.21-1.13,0.21c-0.39,0-0.76-0.07-1.11-0.21c-0.35-0.15-0.66-0.34-0.92-0.61c-0.26-0.26-0.47-0.56-0.62-0.92
			c-0.16-0.35-0.22-0.73-0.22-1.14C110.78,145.21,110.85,144.83,111.01,144.47"/>
	</g>
	<g>
		<polygon points="32.98,20.29 32.98,23.42 24.03,23.42 24.03,27.05 32.25,27.05 32.25,29.95 24.03,29.95 24.03,34.1 33.17,34.1 
			33.17,37.24 20.3,37.24 20.3,20.29 		"/>
		<path d="M38.42,24.96v1.66h0.05c0.44-0.63,0.98-1.12,1.6-1.47c0.63-0.35,1.34-0.52,2.15-0.52c0.77,0,1.48,0.15,2.12,0.45
			c0.64,0.3,1.13,0.83,1.46,1.59c0.36-0.54,0.86-1.01,1.48-1.43c0.63-0.41,1.37-0.62,2.22-0.62c0.65,0,1.25,0.08,1.8,0.24
			c0.55,0.16,1.03,0.41,1.43,0.76c0.4,0.35,0.7,0.8,0.93,1.36c0.22,0.56,0.33,1.24,0.33,2.03v8.22h-3.37v-6.96
			c0-0.41-0.02-0.8-0.05-1.16c-0.03-0.36-0.12-0.68-0.26-0.95c-0.14-0.27-0.35-0.48-0.63-0.64c-0.28-0.16-0.65-0.24-1.13-0.24
			c-0.48,0-0.86,0.09-1.15,0.27c-0.29,0.18-0.52,0.42-0.69,0.71c-0.17,0.29-0.28,0.63-0.33,1c-0.06,0.37-0.08,0.75-0.08,1.13v6.84
			h-3.37v-6.89c0-0.36-0.01-0.72-0.02-1.08c-0.02-0.36-0.08-0.69-0.2-0.99c-0.12-0.3-0.32-0.54-0.59-0.72
			c-0.28-0.18-0.69-0.27-1.22-0.27c-0.16,0-0.37,0.04-0.63,0.11c-0.26,0.07-0.52,0.21-0.76,0.4c-0.25,0.2-0.46,0.48-0.63,0.85
			c-0.17,0.37-0.26,0.86-0.26,1.46v7.12h-3.37V24.96H38.42z"/>
		<path d="M59.39,24.96v1.57h0.05c0.41-0.66,0.93-1.15,1.57-1.45c0.63-0.3,1.33-0.45,2.09-0.45c0.97,0,1.8,0.18,2.49,0.55
			c0.7,0.36,1.27,0.85,1.73,1.45c0.46,0.6,0.8,1.3,1.02,2.1c0.22,0.8,0.33,1.63,0.33,2.51c0,0.82-0.11,1.61-0.33,2.37
			c-0.22,0.76-0.56,1.43-1.01,2.02c-0.45,0.59-1.01,1.05-1.69,1.4c-0.67,0.35-1.46,0.52-2.36,0.52c-0.76,0-1.46-0.15-2.1-0.46
			c-0.64-0.31-1.17-0.76-1.58-1.36h-0.05v5.82h-3.37V24.96H59.39z M63.77,34.7c0.37-0.22,0.67-0.51,0.9-0.87
			c0.23-0.36,0.39-0.77,0.49-1.25c0.09-0.47,0.14-0.96,0.14-1.45c0-0.49-0.05-0.97-0.16-1.45c-0.1-0.48-0.27-0.9-0.51-1.27
			c-0.24-0.37-0.54-0.67-0.91-0.9c-0.37-0.23-0.83-0.34-1.37-0.34c-0.55,0-1.02,0.12-1.39,0.34c-0.37,0.23-0.67,0.53-0.9,0.89
			c-0.23,0.36-0.39,0.78-0.49,1.26c-0.1,0.47-0.14,0.97-0.14,1.47c0,0.49,0.05,0.97,0.15,1.45c0.1,0.47,0.27,0.89,0.5,1.25
			c0.23,0.36,0.53,0.65,0.91,0.87c0.38,0.22,0.84,0.33,1.38,0.33C62.93,35.03,63.4,34.92,63.77,34.7"/>
		<path d="M73.61,24.96v2.28h0.05c0.16-0.38,0.37-0.73,0.64-1.06c0.27-0.32,0.58-0.6,0.93-0.83c0.35-0.23,0.72-0.41,1.12-0.53
			c0.4-0.13,0.81-0.19,1.23-0.19c0.22,0,0.47,0.04,0.74,0.12v3.13c-0.16-0.03-0.35-0.06-0.57-0.08c-0.22-0.02-0.43-0.04-0.64-0.04
			c-0.62,0-1.14,0.1-1.57,0.31c-0.43,0.21-0.77,0.49-1.03,0.84c-0.26,0.36-0.45,0.77-0.56,1.25c-0.11,0.47-0.17,0.99-0.17,1.54v5.53
			H70.4V24.96H73.61z"/>
		<path d="M82.82,34.29c0.51,0.49,1.23,0.74,2.18,0.74c0.68,0,1.27-0.17,1.76-0.51c0.49-0.34,0.79-0.7,0.9-1.08h2.97
			c-0.48,1.47-1.2,2.53-2.18,3.16c-0.98,0.63-2.17,0.95-3.56,0.95c-0.97,0-1.84-0.15-2.61-0.46c-0.78-0.31-1.43-0.75-1.97-1.32
			c-0.54-0.57-0.95-1.25-1.25-2.04c-0.29-0.79-0.44-1.66-0.44-2.61c0-0.92,0.15-1.77,0.45-2.56c0.3-0.79,0.73-1.47,1.28-2.05
			c0.55-0.58,1.22-1.03,1.98-1.37c0.77-0.33,1.62-0.5,2.55-0.5c1.05,0,1.96,0.2,2.73,0.61c0.78,0.4,1.41,0.95,1.91,1.63
			c0.5,0.68,0.86,1.46,1.08,2.33c0.22,0.87,0.3,1.78,0.24,2.73h-8.86C82.04,33.01,82.31,33.8,82.82,34.29 M86.63,27.84
			c-0.4-0.44-1.02-0.66-1.84-0.66c-0.54,0-0.99,0.09-1.34,0.27c-0.36,0.18-0.64,0.41-0.85,0.68c-0.21,0.27-0.37,0.55-0.45,0.85
			c-0.09,0.3-0.14,0.57-0.15,0.81h5.48C87.31,28.93,87.03,28.28,86.63,27.84"/>
		<path d="M95.68,34.19c0.15,0.26,0.34,0.48,0.58,0.64c0.24,0.17,0.51,0.29,0.82,0.37c0.31,0.08,0.63,0.12,0.96,0.12
			c0.24,0,0.49-0.03,0.75-0.08c0.26-0.05,0.5-0.14,0.71-0.26c0.21-0.12,0.39-0.28,0.53-0.48c0.14-0.2,0.22-0.45,0.22-0.75
			c0-0.51-0.34-0.89-1.01-1.14c-0.67-0.25-1.61-0.51-2.81-0.76c-0.49-0.11-0.97-0.24-1.44-0.39c-0.47-0.15-0.88-0.35-1.25-0.59
			c-0.36-0.24-0.66-0.55-0.88-0.93c-0.22-0.37-0.33-0.83-0.33-1.37c0-0.79,0.15-1.44,0.46-1.95c0.31-0.51,0.72-0.91,1.22-1.2
			c0.51-0.29,1.07-0.5,1.71-0.62c0.63-0.12,1.28-0.18,1.95-0.18c0.67,0,1.31,0.06,1.94,0.19c0.62,0.13,1.18,0.34,1.67,0.64
			c0.49,0.3,0.9,0.7,1.22,1.2c0.32,0.5,0.52,1.13,0.58,1.89h-3.21c-0.05-0.65-0.29-1.09-0.74-1.32c-0.44-0.23-0.97-0.35-1.57-0.35
			c-0.19,0-0.4,0.01-0.62,0.04c-0.22,0.02-0.42,0.07-0.6,0.15c-0.18,0.08-0.34,0.19-0.46,0.34c-0.13,0.15-0.19,0.35-0.19,0.61
			c0,0.3,0.11,0.55,0.33,0.74c0.22,0.19,0.51,0.34,0.87,0.46c0.36,0.12,0.76,0.23,1.22,0.32c0.46,0.09,0.93,0.2,1.4,0.31
			c0.49,0.11,0.97,0.24,1.44,0.4c0.47,0.16,0.88,0.37,1.25,0.63c0.36,0.26,0.66,0.59,0.88,0.97c0.22,0.39,0.33,0.87,0.33,1.44
			c0,0.81-0.16,1.49-0.49,2.03c-0.32,0.55-0.75,0.98-1.27,1.32c-0.52,0.33-1.12,0.57-1.79,0.7c-0.67,0.14-1.36,0.2-2.05,0.2
			c-0.71,0-1.41-0.07-2.09-0.21c-0.68-0.14-1.29-0.38-1.82-0.71c-0.53-0.33-0.97-0.77-1.31-1.32c-0.34-0.55-0.53-1.23-0.56-2.05
			h3.21C95.45,33.61,95.53,33.93,95.68,34.19"/>
		<path d="M106.04,26.77c0.35-0.52,0.79-0.94,1.33-1.26c0.54-0.32,1.14-0.54,1.82-0.68c0.67-0.13,1.35-0.2,2.03-0.2
			c0.62,0,1.24,0.04,1.88,0.13c0.63,0.09,1.21,0.26,1.73,0.51c0.52,0.25,0.95,0.61,1.28,1.06c0.33,0.45,0.5,1.05,0.5,1.79v6.39
			c0,0.56,0.03,1.08,0.09,1.59c0.06,0.51,0.17,0.89,0.33,1.14h-3.42c-0.06-0.19-0.12-0.38-0.15-0.58c-0.04-0.2-0.07-0.4-0.08-0.61
			c-0.54,0.55-1.17,0.94-1.9,1.16c-0.73,0.22-1.47,0.33-2.23,0.33c-0.59,0-1.13-0.07-1.64-0.21c-0.51-0.14-0.95-0.36-1.33-0.67
			c-0.38-0.3-0.68-0.68-0.89-1.14c-0.21-0.46-0.32-1-0.32-1.64c0-0.7,0.12-1.27,0.37-1.72c0.25-0.45,0.56-0.81,0.95-1.08
			c0.39-0.27,0.83-0.47,1.33-0.61c0.5-0.13,1-0.24,1.51-0.32c0.51-0.08,1.01-0.14,1.5-0.19c0.49-0.05,0.93-0.12,1.31-0.21
			c0.38-0.09,0.68-0.23,0.9-0.42c0.22-0.18,0.32-0.45,0.31-0.8c0-0.36-0.06-0.65-0.18-0.87c-0.12-0.21-0.28-0.38-0.48-0.5
			c-0.2-0.12-0.43-0.2-0.69-0.24c-0.26-0.04-0.54-0.06-0.84-0.06c-0.67,0-1.19,0.14-1.57,0.43c-0.38,0.28-0.6,0.76-0.67,1.42h-3.37
			C105.49,27.95,105.69,27.29,106.04,26.77 M112.7,31.53c-0.21,0.07-0.44,0.13-0.69,0.18c-0.25,0.05-0.5,0.09-0.77,0.12
			c-0.27,0.03-0.54,0.07-0.81,0.12c-0.25,0.05-0.5,0.11-0.75,0.19c-0.25,0.08-0.46,0.19-0.64,0.32c-0.18,0.13-0.33,0.31-0.44,0.51
			c-0.11,0.21-0.17,0.47-0.17,0.78c0,0.3,0.05,0.55,0.17,0.76c0.11,0.21,0.26,0.37,0.45,0.49c0.19,0.12,0.41,0.2,0.67,0.25
			c0.25,0.05,0.51,0.07,0.78,0.07c0.67,0,1.18-0.11,1.54-0.33c0.36-0.22,0.63-0.49,0.81-0.8c0.17-0.31,0.28-0.62,0.32-0.94
			c0.04-0.32,0.06-0.57,0.06-0.76v-1.26C113.09,31.36,112.91,31.46,112.7,31.53"/>
	</g>
	<g>
		<path d="M29.49,169.86c-0.18-0.29-0.41-0.54-0.68-0.76c-0.27-0.22-0.58-0.39-0.92-0.51c-0.34-0.12-0.7-0.18-1.07-0.18
			c-0.68,0-1.26,0.13-1.74,0.4c-0.48,0.26-0.86,0.62-1.16,1.06c-0.3,0.44-0.51,0.95-0.65,1.52c-0.14,0.57-0.2,1.15-0.2,1.76
			c0,0.58,0.07,1.14,0.2,1.69c0.14,0.55,0.35,1.04,0.65,1.48c0.3,0.44,0.68,0.79,1.16,1.05c0.48,0.26,1.06,0.4,1.74,0.4
			c0.93,0,1.65-0.28,2.17-0.85c0.52-0.57,0.84-1.31,0.96-2.24h2.94c-0.08,0.86-0.28,1.64-0.6,2.34c-0.32,0.7-0.75,1.29-1.28,1.78
			c-0.53,0.49-1.15,0.86-1.86,1.12c-0.71,0.26-1.49,0.39-2.34,0.39c-1.06,0-2.01-0.18-2.85-0.55c-0.84-0.37-1.56-0.87-2.14-1.52
			c-0.58-0.64-1.02-1.4-1.33-2.27c-0.31-0.87-0.46-1.81-0.46-2.81c0-1.03,0.15-1.99,0.46-2.87c0.31-0.88,0.75-1.65,1.33-2.31
			c0.58-0.66,1.29-1.17,2.14-1.55c0.84-0.37,1.79-0.56,2.85-0.56c0.76,0,1.48,0.11,2.15,0.33c0.68,0.22,1.28,0.54,1.82,0.96
			c0.53,0.42,0.98,0.94,1.32,1.56c0.35,0.62,0.57,1.33,0.66,2.13h-2.94C29.79,170.46,29.67,170.14,29.49,169.86"/>
		<path d="M37.06,177.58c0.41,0.4,1,0.6,1.78,0.6c0.55,0,1.03-0.14,1.43-0.42c0.4-0.28,0.64-0.57,0.73-0.88h2.42
			c-0.39,1.2-0.98,2.05-1.78,2.57c-0.8,0.52-1.77,0.77-2.9,0.77c-0.79,0-1.5-0.13-2.13-0.38c-0.63-0.25-1.17-0.61-1.6-1.07
			c-0.44-0.46-0.78-1.02-1.01-1.66c-0.24-0.64-0.36-1.35-0.36-2.13c0-0.75,0.12-1.44,0.37-2.09c0.24-0.65,0.59-1.2,1.04-1.67
			c0.45-0.47,0.99-0.84,1.61-1.11c0.62-0.27,1.32-0.41,2.08-0.41c0.85,0,1.59,0.17,2.22,0.49c0.63,0.33,1.15,0.77,1.56,1.32
			c0.41,0.55,0.7,1.19,0.88,1.89c0.18,0.71,0.24,1.45,0.19,2.22h-7.21C36.42,176.53,36.65,177.18,37.06,177.58 M40.16,172.32
			c-0.33-0.36-0.83-0.54-1.5-0.54c-0.44,0-0.8,0.07-1.09,0.22c-0.29,0.15-0.52,0.33-0.7,0.55c-0.17,0.22-0.3,0.45-0.37,0.7
			c-0.07,0.24-0.11,0.46-0.13,0.66h4.46C40.72,173.21,40.49,172.68,40.16,172.32"/>
		<path d="M47.07,169.98v1.86h0.04c0.13-0.31,0.3-0.6,0.52-0.86c0.22-0.26,0.47-0.49,0.75-0.68c0.28-0.18,0.59-0.33,0.91-0.43
			c0.32-0.1,0.66-0.15,1-0.15c0.18,0,0.38,0.03,0.6,0.1v2.55c-0.13-0.02-0.28-0.05-0.46-0.07c-0.18-0.02-0.36-0.03-0.52-0.03
			c-0.5,0-0.93,0.08-1.28,0.25c-0.35,0.17-0.63,0.4-0.84,0.69c-0.21,0.29-0.36,0.63-0.45,1.01c-0.09,0.39-0.14,0.8-0.14,1.26v4.5
			h-2.74v-9.99H47.07z"/>
		<path d="M58.04,169.98v1.84h-2.01v4.95c0,0.46,0.08,0.77,0.23,0.93c0.15,0.15,0.46,0.23,0.93,0.23c0.15,0,0.3-0.01,0.44-0.02
			c0.14-0.01,0.28-0.03,0.41-0.06v2.13c-0.23,0.04-0.49,0.06-0.77,0.08s-0.56,0.02-0.83,0.02c-0.43,0-0.83-0.03-1.21-0.09
			c-0.38-0.06-0.72-0.17-1.01-0.34c-0.29-0.17-0.52-0.41-0.69-0.72c-0.17-0.31-0.25-0.72-0.25-1.22v-5.89h-1.66v-1.84h1.66v-3h2.74
			v3H58.04z"/>
		<path d="M59.62,166.17h2.74v2.26h-2.74V166.17z M62.36,179.97h-2.74v-9.99h2.74V179.97z"/>
		<path d="M63.54,171.82v-1.84h1.64v-0.77c0-0.89,0.28-1.62,0.83-2.18c0.55-0.57,1.39-0.85,2.51-0.85c0.24,0,0.49,0.01,0.73,0.03
			c0.24,0.02,0.48,0.04,0.72,0.05v2.05c-0.32-0.04-0.66-0.06-1.01-0.06c-0.37,0-0.64,0.09-0.8,0.26c-0.16,0.17-0.24,0.47-0.24,0.88
			v0.6h1.89v1.84h-1.89v8.16h-2.74v-8.16H63.54z"/>
		<path d="M71.17,166.17h2.74v2.26h-2.74V166.17z M73.92,179.97h-2.74v-9.99h2.74V179.97z"/>
		<path d="M80.08,171.78c-0.44,0-0.8,0.1-1.1,0.3c-0.3,0.2-0.54,0.46-0.73,0.77c-0.19,0.32-0.32,0.66-0.4,1.04
			c-0.08,0.38-0.12,0.76-0.12,1.13c0,0.36,0.04,0.73,0.12,1.1c0.08,0.37,0.2,0.71,0.38,1.01c0.17,0.3,0.41,0.55,0.71,0.75
			c0.3,0.19,0.66,0.29,1.08,0.29c0.66,0,1.16-0.18,1.52-0.55c0.35-0.37,0.58-0.86,0.67-1.48h2.65c-0.18,1.33-0.69,2.34-1.55,3.03
			c-0.85,0.7-1.94,1.04-3.27,1.04c-0.75,0-1.43-0.13-2.06-0.38c-0.63-0.25-1.16-0.6-1.59-1.05c-0.44-0.45-0.78-0.99-1.03-1.61
			c-0.24-0.62-0.37-1.31-0.37-2.06c0-0.77,0.11-1.49,0.34-2.15c0.23-0.66,0.56-1.24,1-1.72c0.44-0.48,0.97-0.86,1.6-1.13
			c0.63-0.27,1.35-0.41,2.16-0.41c0.59,0,1.16,0.08,1.71,0.23c0.55,0.15,1.04,0.39,1.47,0.71c0.43,0.32,0.78,0.71,1.05,1.18
			c0.27,0.47,0.43,1.03,0.46,1.67h-2.69C81.93,172.35,81.25,171.78,80.08,171.78"/>
		<path d="M86.38,171.45c0.28-0.43,0.64-0.77,1.08-1.02c0.44-0.26,0.93-0.44,1.48-0.55c0.55-0.11,1.1-0.16,1.65-0.16
			c0.5,0,1.01,0.04,1.53,0.11c0.51,0.07,0.99,0.21,1.41,0.41c0.43,0.21,0.77,0.49,1.04,0.86c0.27,0.37,0.41,0.85,0.41,1.46v5.2
			c0,0.45,0.02,0.88,0.08,1.29c0.05,0.41,0.14,0.72,0.27,0.93h-2.78c-0.05-0.15-0.09-0.31-0.13-0.47c-0.03-0.16-0.05-0.32-0.07-0.49
			c-0.44,0.45-0.95,0.77-1.55,0.95c-0.59,0.18-1.2,0.27-1.82,0.27c-0.48,0-0.92-0.06-1.33-0.17c-0.41-0.11-0.77-0.3-1.08-0.54
			c-0.31-0.24-0.55-0.55-0.72-0.93c-0.17-0.37-0.26-0.82-0.26-1.33c0-0.57,0.1-1.03,0.3-1.4c0.2-0.37,0.46-0.66,0.77-0.88
			c0.32-0.22,0.68-0.38,1.08-0.49c0.41-0.11,0.82-0.2,1.23-0.26c0.41-0.06,0.82-0.12,1.22-0.15c0.4-0.04,0.75-0.1,1.06-0.17
			c0.31-0.08,0.55-0.19,0.73-0.34c0.18-0.15,0.27-0.36,0.25-0.65c0-0.3-0.05-0.53-0.14-0.71c-0.1-0.17-0.23-0.31-0.39-0.41
			c-0.16-0.1-0.35-0.16-0.56-0.19c-0.21-0.03-0.44-0.05-0.69-0.05c-0.54,0-0.97,0.12-1.28,0.35c-0.31,0.23-0.49,0.62-0.54,1.16H85.9
			C85.94,172.41,86.1,171.87,86.38,171.45 M91.8,175.32c-0.17,0.06-0.36,0.11-0.56,0.14c-0.2,0.04-0.41,0.07-0.63,0.1
			c-0.22,0.03-0.44,0.06-0.66,0.1c-0.21,0.04-0.41,0.09-0.61,0.15c-0.2,0.07-0.38,0.15-0.52,0.26c-0.15,0.11-0.27,0.25-0.36,0.41
			c-0.09,0.17-0.13,0.38-0.13,0.64c0,0.24,0.04,0.45,0.13,0.62c0.09,0.17,0.21,0.3,0.37,0.4c0.15,0.1,0.33,0.16,0.54,0.2
			c0.21,0.04,0.42,0.06,0.64,0.06c0.54,0,0.96-0.09,1.26-0.27c0.3-0.18,0.52-0.4,0.66-0.65c0.14-0.25,0.23-0.51,0.26-0.76
			c0.03-0.26,0.05-0.46,0.05-0.62v-1.02C92.12,175.19,91.97,175.27,91.8,175.32"/>
		<path d="M103.43,178.7c-0.32,0.54-0.74,0.93-1.27,1.17c-0.52,0.24-1.11,0.36-1.77,0.36c-0.75,0-1.4-0.14-1.97-0.43
			c-0.57-0.29-1.03-0.68-1.4-1.18c-0.37-0.49-0.64-1.06-0.83-1.71c-0.19-0.64-0.28-1.31-0.28-2.01c0-0.67,0.09-1.32,0.28-1.94
			c0.19-0.62,0.46-1.18,0.83-1.65c0.37-0.48,0.83-0.86,1.38-1.15c0.55-0.29,1.2-0.43,1.93-0.43c0.59,0,1.16,0.13,1.69,0.38
			c0.53,0.25,0.96,0.62,1.27,1.11h0.04v-5.02h2.74v13.8h-2.61v-1.28H103.43z M103.31,173.76c-0.08-0.38-0.21-0.72-0.4-1.01
			c-0.19-0.29-0.43-0.52-0.72-0.71c-0.3-0.18-0.67-0.27-1.12-0.27c-0.45,0-0.83,0.09-1.14,0.27c-0.31,0.18-0.56,0.42-0.74,0.72
			c-0.19,0.3-0.32,0.63-0.41,1.02c-0.08,0.38-0.13,0.77-0.13,1.19c0,0.39,0.04,0.77,0.14,1.16c0.09,0.39,0.24,0.73,0.43,1.03
			c0.2,0.3,0.45,0.55,0.75,0.73c0.3,0.19,0.67,0.28,1.09,0.28c0.45,0,0.83-0.09,1.13-0.27c0.3-0.18,0.54-0.42,0.73-0.73
			c0.18-0.3,0.31-0.65,0.39-1.03c0.08-0.39,0.12-0.79,0.12-1.2C103.43,174.54,103.39,174.14,103.31,173.76"/>
		<path d="M108.09,171.45c0.28-0.43,0.64-0.77,1.08-1.02c0.44-0.26,0.93-0.44,1.48-0.55c0.55-0.11,1.1-0.16,1.65-0.16
			c0.5,0,1.01,0.04,1.53,0.11c0.52,0.07,0.99,0.21,1.41,0.41c0.43,0.21,0.77,0.49,1.04,0.86c0.27,0.37,0.41,0.85,0.41,1.46v5.2
			c0,0.45,0.03,0.88,0.08,1.29c0.05,0.41,0.14,0.72,0.27,0.93h-2.78c-0.05-0.15-0.09-0.31-0.13-0.47c-0.03-0.16-0.05-0.32-0.07-0.49
			c-0.44,0.45-0.95,0.77-1.55,0.95c-0.59,0.18-1.2,0.27-1.82,0.27c-0.48,0-0.92-0.06-1.33-0.17c-0.41-0.11-0.77-0.3-1.08-0.54
			c-0.31-0.24-0.55-0.55-0.72-0.93c-0.17-0.37-0.26-0.82-0.26-1.33c0-0.57,0.1-1.03,0.3-1.4c0.2-0.37,0.46-0.66,0.77-0.88
			c0.31-0.22,0.68-0.38,1.08-0.49c0.41-0.11,0.81-0.2,1.23-0.26c0.41-0.06,0.82-0.12,1.22-0.15c0.4-0.04,0.75-0.1,1.06-0.17
			c0.31-0.08,0.55-0.19,0.73-0.34c0.18-0.15,0.26-0.36,0.25-0.65c0-0.3-0.05-0.53-0.14-0.71c-0.1-0.17-0.23-0.31-0.39-0.41
			c-0.16-0.1-0.35-0.16-0.56-0.19c-0.21-0.03-0.44-0.05-0.69-0.05c-0.54,0-0.97,0.12-1.28,0.35c-0.31,0.23-0.49,0.62-0.54,1.16
			h-2.75C107.65,172.41,107.81,171.87,108.09,171.45 M113.52,175.32c-0.17,0.06-0.36,0.11-0.56,0.14c-0.2,0.04-0.41,0.07-0.63,0.1
			c-0.22,0.03-0.44,0.06-0.66,0.1c-0.21,0.04-0.41,0.09-0.61,0.15c-0.2,0.07-0.37,0.15-0.52,0.26c-0.15,0.11-0.27,0.25-0.36,0.41
			c-0.09,0.17-0.13,0.38-0.13,0.64c0,0.24,0.04,0.45,0.13,0.62c0.09,0.17,0.21,0.3,0.37,0.4c0.15,0.1,0.33,0.16,0.54,0.2
			c0.21,0.04,0.42,0.06,0.64,0.06c0.54,0,0.96-0.09,1.25-0.27c0.3-0.18,0.52-0.4,0.66-0.65c0.14-0.25,0.23-0.51,0.26-0.76
			c0.03-0.26,0.05-0.46,0.05-0.62v-1.02C113.83,175.19,113.69,175.27,113.52,175.32"/>
	</g>
</g>
<g id="Guides">
	<g>
	</g>
</g>
</svg>
