<?xml version="1.0" encoding="utf-8"?>
<!-- Generator: Adobe Illustrator 27.3.1, SVG Export Plug-In . SVG Version: 6.00 Build 0)  -->
<svg version="1.1" id="Capa_1" xmlns="http://www.w3.org/2000/svg" xmlns:xlink="http://www.w3.org/1999/xlink" x="0px" y="0px"
	 viewBox="0 0 225 225" style="enable-background:new 0 0 225 225;" xml:space="preserve">
<style type="text/css">
	.st0{fill:#016341;}
</style>
<path class="st0" d="M112.5,225.3c-62.2,0-112.8-50.6-112.8-112.8S50.3-0.3,112.5-0.3s112.8,50.6,112.8,112.8
	S174.7,225.3,112.5,225.3z M112.5,0.7C50.8,0.7,0.7,50.8,0.7,112.5c0,61.7,50.2,111.8,111.8,111.8s111.8-50.2,111.8-111.8
	C224.3,50.8,174.2,0.7,112.5,0.7z"/>
<path class="st0" d="M112.5,205.7c-51.4,0-93.2-41.8-93.2-93.2c0-51.4,41.8-93.2,93.2-93.2s93.2,41.8,93.2,93.2
	C205.7,163.9,163.9,205.7,112.5,205.7z M112.5,20.3c-50.8,0-92.2,41.4-92.2,92.2s41.4,92.2,92.2,92.2s92.2-41.4,92.2-92.2
	S163.3,20.3,112.5,20.3z"/>
<polygon class="st0" points="35.2,42.8 39,39.4 38.8,44.5 43.2,47.1 38.2,48.5 37.1,53.5 34.3,49.2 29.2,49.7 32.4,45.7 30.4,40.9 
	"/>
<path class="st0" d="M42.1,70.4L42.1,70.4c0-6.8,5.2-12.1,12.2-12.1c4.7,0,7.8,2,9.8,4.8l-4.8,3.7c-1.3-1.7-2.8-2.7-5-2.7
	c-3.2,0-5.5,2.7-5.5,6.1v0.1c0,3.5,2.3,6.2,5.5,6.2c2.4,0,3.8-1.1,5.2-2.8l4.8,3.4c-2.2,3-5.1,5.2-10.2,5.2
	C47.4,82.4,42.1,77.3,42.1,70.4z M66.6,58.8h18.6v5.4H72.9v3.5H84v5H72.9v3.7h12.4v5.4H66.6V58.8z M88.3,58.8h9.9
	c5.8,0,9.6,3,9.6,8.1V67c0,5.4-4.2,8.3-9.9,8.3h-3.2v6.6h-6.4V58.8z M97.7,70.3c2.3,0,3.7-1.2,3.7-3v-0.1c0-2-1.4-3-3.7-3h-3v6.1
	H97.7z M116.3,73.2l-8.8-14.5h7.3l4.8,8.4l4.8-8.4h7.2l-8.8,14.4v8.7h-6.4V73.2z M133.1,58.8h6.8l5.5,8.9l5.5-8.9h6.8v23.1h-6.4
	V68.6l-5.9,9h-0.1l-5.9-9v13.2h-6.3V58.8z M161.5,58.8H180v5.4h-12.2v3.5h11.1v5h-11.1v3.7h12.4v5.4h-18.7V58.8z"/>
<g>
	<path d="M82.6,141c0,8.9-2.2,16-6.6,21.2s-10.4,7.8-17.9,7.8c-6,0-11-2.1-14.9-6.4c-3.9-4.3-6.2-10.1-6.8-17.4h13.3
		c0.3,3.6,1.3,6.4,3,8.3c1.6,1.9,3.9,2.8,6.7,2.8c2.9,0,5.2-1.4,7-4.1c1.8-2.7,2.7-6.3,2.7-10.7c0-4.5-0.9-8.2-2.7-11
		c-1.8-2.8-4.2-4.2-7.2-4.2c-1.8,0-3.6,0.5-5.1,1.5c-1.6,1-2.8,2.4-3.7,4.1l-11.6-0.7L43.1,88h36.8v13.6H52.5l-2.3,17.3
		c3.7-2.8,7.7-4.2,12-4.2c6,0,10.9,2.5,14.7,7.4C80.7,127,82.6,133.3,82.6,141z"/>
	<path d="M95.2,159.9c-3.8-6.8-5.7-17.2-5.7-31.2c0-14.4,1.9-25,5.7-31.9c3.8-6.9,9.6-10.4,17.5-10.4c7.9,0,13.8,3.5,17.6,10.4
		c3.8,6.9,5.7,17.4,5.7,31.6v0.4c0,14.1-1.9,24.5-5.7,31.2c-3.8,6.8-9.7,10.2-17.6,10.2C104.8,170.1,99,166.7,95.2,159.9z
		 M120.1,150.7c1.4-4.3,2.2-11.7,2.2-22.1c0-10.7-0.7-18.2-2.1-22.6c-1.5-4.4-4-6.6-7.5-6.6c-3.5,0-6,2.2-7.4,6.6
		c-1.4,4.4-2.2,11.9-2.2,22.6c0,10.4,0.7,17.8,2.2,22.1c1.4,4.3,3.9,6.4,7.4,6.4C116.2,157.1,118.7,154.9,120.1,150.7z"/>
	<path d="M147.7,159.9c-3.8-6.8-5.7-17.2-5.7-31.2c0-14.4,1.9-25,5.7-31.9c3.8-6.9,9.6-10.4,17.5-10.4c7.9,0,13.8,3.5,17.6,10.4
		c3.8,6.9,5.7,17.4,5.7,31.6v0.4c0,14.1-1.9,24.5-5.7,31.2s-9.7,10.2-17.6,10.2C157.4,170.1,151.5,166.7,147.7,159.9z M172.7,150.7
		c1.4-4.3,2.2-11.7,2.2-22.1c0-10.7-0.7-18.2-2.1-22.6c-1.5-4.4-4-6.6-7.5-6.6c-3.5,0-6,2.2-7.4,6.6c-1.4,4.4-2.2,11.9-2.2,22.6
		c0,10.4,0.7,17.8,2.2,22.1s3.9,6.4,7.4,6.4C168.8,157.1,171.3,154.9,172.7,150.7z"/>
</g>
<path d="M57.7,32.9l-5.9-9l0.5-0.3l0.5-0.3l5.2,7.9l3.8-2.5l0.4,0.5l0.4,0.5L57.7,32.9z M61.5,16.7l0-2.4l1.2-0.6l-0.4,2.6
	L61.5,16.7z M62,17.7l0.5-0.3l0.5-0.3l5,9.5l-0.5,0.3L67,27.2L62,17.7z M69.4,14l0.6-0.2l2.8-1.1c1-0.4,2.1-0.3,3,0.4
	s1.8,1.8,2.4,3.3c0.6,1.5,0.8,2.9,0.5,4s-0.9,1.9-2,2.4L74,23.8L73.4,24L69.4,14z M74.1,22.4l2-0.8c0.8-0.3,1.3-0.9,1.5-1.7
	c0.2-0.8,0-1.9-0.5-3.1c-0.5-1.2-1.1-2.1-1.8-2.6c-0.7-0.5-1.4-0.6-2.2-0.3L71,14.7L74.1,22.4z M85.4,19.6L82.7,9.2L89,7.6l0.2,0.6
	l0.2,0.6l-5.1,1.3l0.8,3.2l4.7-1.2l0.2,0.6l0.2,0.6l-4.7,1.2l0.9,3.5l5.2-1.3l0.2,0.6l0.2,0.6L85.4,19.6z M95.8,6.3l0.6-0.1l3.5-0.4
	c0.9-0.1,1.7,0,2.2,0.5c0.5,0.4,0.9,1.1,1,2.1c0.1,0.9,0,1.7-0.5,2.3c-0.1,0.1-0.2,0.3-0.4,0.4l0.2,0.1c0.6,0.3,0.9,0.9,1.1,1.8
	l0.3,1.9c0,0.3,0.1,0.5,0.2,0.7c0.1,0.1,0.2,0.2,0.4,0.3l0,0.2l-1.5,0.2c0-0.1-0.1-0.3-0.2-0.7c-0.1-0.4-0.2-0.8-0.2-1.2l-0.1-0.8
	c-0.1-0.7-0.3-1.1-0.6-1.4c-0.3-0.3-0.7-0.3-1.3-0.3l-2.8,0.4l0.6,4.6l-0.6,0.1L97.1,17L95.8,6.3z M97.6,11l3-0.4
	c0.6-0.1,0.9-0.3,1.2-0.6c0.2-0.3,0.3-0.8,0.2-1.4c-0.1-0.6-0.3-1-0.6-1.3S100.6,7,100,7l-2.9,0.4L97.6,11z M108.6,15.9l-0.2-10.8
	l6.5-0.1l0,0.6l0,0.6l-5.3,0.1l0.1,3.3l4.8-0.1l0,0.6l0,0.6l-4.8,0.1l0.1,3.6l5.4-0.1l0,0.6l0,0.6L108.6,15.9z M125.5,9
	c0-0.7-0.1-1.2-0.5-1.6c-0.3-0.4-0.9-0.6-1.5-0.7c-0.7-0.1-1.2,0-1.6,0.3c-0.4,0.3-0.6,0.7-0.7,1.3c0,0.4,0,0.7,0.3,1
	c0.2,0.2,0.7,0.5,1.3,0.7l1.5,0.6c0.8,0.3,1.4,0.7,1.7,1.2c0.3,0.5,0.4,1.2,0.3,2c-0.1,1-0.5,1.7-1.1,2.2c-0.7,0.5-1.5,0.7-2.6,0.6
	c-1.2-0.1-2-0.5-2.6-1.3c-0.6-0.7-0.8-1.6-0.7-2.7l0-0.1l1.1,0.1c-0.1,0.8,0.1,1.4,0.5,1.9c0.4,0.5,1,0.7,1.8,0.8
	c0.7,0.1,1.3,0,1.7-0.3s0.6-0.7,0.7-1.3c0.1-0.5,0-0.9-0.3-1.2c-0.2-0.3-0.7-0.6-1.4-0.8l-1.5-0.6c-0.8-0.3-1.3-0.7-1.6-1.1
	c-0.3-0.4-0.4-1-0.3-1.7c0.1-1,0.5-1.8,1.1-2.3c0.6-0.5,1.4-0.8,2.4-0.7c1,0.1,1.8,0.5,2.3,1.1c0.5,0.7,0.8,1.5,0.7,2.6L125.5,9z
	 M137.2,19l3.1-10.3l6.2,1.9l-0.2,0.6l-0.2,0.6l-5.1-1.5l-0.9,3.2l4.6,1.4l-0.2,0.6l-0.2,0.6l-4.6-1.4l-1,3.5l5.1,1.5l-0.2,0.6
	l-0.2,0.6L137.2,19z M148.5,22.7l-0.5-0.2l-0.5-0.2l4.3-9.9l0.7,0.3L153,13l0.6,9.8l3.5-8l0.5,0.2l0.5,0.2l-4.3,9.9l-0.6-0.3
	l-0.6-0.3l-0.7-9.9L148.5,22.7z M173.3,32.2c-0.9,1-1.8,1.6-2.8,1.8c-1,0.2-1.9,0-2.8-0.6c-1-0.7-1.5-1.7-1.5-2.9s0.5-2.6,1.5-4
	c1-1.4,2.1-2.3,3.3-2.7c1.2-0.4,2.3-0.3,3.4,0.5c0.8,0.6,1.3,1.3,1.5,2.2c0.2,0.9,0,1.8-0.5,2.8l-1-0.7c0.3-0.6,0.4-1.3,0.3-1.8
	s-0.5-1-1-1.4c-0.7-0.5-1.5-0.6-2.4-0.2s-1.7,1.1-2.5,2.2c-0.8,1.2-1.2,2.2-1.3,3.1s0.3,1.6,1.1,2.1c0.6,0.4,1.2,0.5,1.8,0.3
	s1.3-0.6,2-1.3L173.3,32.2z M182,30.5l0.4,0.4l2.6,2.4c0.7,0.6,1.1,1.3,1.1,2s-0.3,1.4-0.9,2.1c-0.6,0.7-1.3,1.1-2.1,1.1
	c-0.2,0-0.4,0-0.5,0l0.1,0.2c0.1,0.6-0.1,1.3-0.6,2l-1.3,1.5c-0.2,0.2-0.3,0.4-0.4,0.6c-0.1,0.1,0,0.3,0,0.5l-0.2,0.2l-1.1-1
	c0-0.1,0.2-0.3,0.4-0.6c0.2-0.3,0.5-0.6,0.8-1l0.5-0.6c0.4-0.5,0.7-1,0.7-1.3c0-0.4-0.2-0.8-0.6-1.2l-2.1-1.9l-3.1,3.4l-0.4-0.4
	l-0.4-0.4L182,30.5z M179.6,34.9l2.2,2c0.4,0.4,0.8,0.5,1.2,0.5c0.4,0,0.8-0.3,1.2-0.8c0.4-0.5,0.6-0.9,0.6-1.3s-0.2-0.8-0.7-1.2
	l-2.1-1.9L179.6,34.9z M183.6,47l8.1-7l4.3,4.9l-0.5,0.4l-0.5,0.4l-3.5-4l-2.5,2.2l3.2,3.7l-0.5,0.4l-0.5,0.4l-3.2-3.7l-2.7,2.4
	l3.5,4.1l-0.5,0.4l-0.5,0.4L183.6,47z M198.3,59.8c-1.2,0.6-2.3,0.8-3.3,0.7c-1-0.1-1.8-0.7-2.4-1.5c-0.7-1-0.8-2.1-0.4-3.3
	s1.4-2.2,2.8-3.2s2.8-1.4,4.1-1.4c1.3,0.1,2.3,0.6,3,1.7c0.6,0.8,0.8,1.7,0.6,2.6c-0.2,0.9-0.7,1.7-1.5,2.4l-0.6-1
	c0.5-0.5,0.8-1,0.9-1.6c0.1-0.6-0.1-1.1-0.4-1.7c-0.5-0.7-1.2-1.1-2.2-1.1s-2,0.4-3.1,1.1c-1.2,0.8-2,1.6-2.3,2.4s-0.3,1.6,0.3,2.4
	c0.4,0.6,0.9,0.9,1.6,1c0.7,0.1,1.5-0.1,2.3-0.5L198.3,59.8z M207,61.3l0.3,0.5l0.3,0.5l-9.5,5.1l-0.3-0.5l-0.3-0.5L207,61.3z
	 M201.2,73.8l-0.2-0.5l-0.2-0.5l10-4l0.3,0.8l0.3,0.8l-7.6,5.8v0l9.4-1.1l0.3,0.8l0.3,0.8l-10,4l-0.2-0.5l-0.2-0.5l8.5-3.4l0,0
	l-9.4,1.1l-0.2-0.5l-0.2-0.5l7.5-5.7l0,0L201.2,73.8z M215.9,83.5l0.2,0.6l0.2,0.6l-10.4,2.8l-0.2-0.6l-0.2-0.6L215.9,83.5z
	 M207.3,93.4l10.6-1.8L219,98l-0.6,0.1l-0.6,0.1l-0.9-5.2l-3.2,0.5l0.8,4.8l-0.6,0.1l-0.6,0.1l-0.8-4.8l-3.6,0.6l0.9,5.3l-0.6,0.1
	l-0.6,0.1L207.3,93.4z M209,106.4l0-0.6l0-0.6l10.8-0.4l0,0.7l0,0.7l-8.6,4.8l8.7-0.3l0,0.6l0,0.6l-10.8,0.4l0-0.7l0-0.7l8.6-4.9
	L209,106.4z M218.3,121.1l0.3-3l0.6,0.1l0.6,0.1l-0.6,7.2l-0.6-0.1l-0.6-0.1l0.3-3l-9.4-0.8l0.1-0.6l0.1-0.6L218.3,121.1z
	 M208.8,130.4c1.2-0.6,2.6-0.7,4.3-0.3c1.7,0.4,2.9,1,3.8,2s1.1,2.1,0.9,3.4c-0.3,1.3-1,2.2-2.2,2.7s-2.6,0.7-4.3,0.3
	c-1.7-0.4-2.9-1-3.8-2c-0.8-1-1.1-2.1-0.9-3.4C206.9,131.9,207.6,131,208.8,130.4z M208.6,135.9c0.7,0.7,1.6,1.2,2.9,1.5
	c1.3,0.3,2.4,0.2,3.3-0.2c0.9-0.4,1.5-1,1.7-1.9c0.2-0.9,0-1.7-0.7-2.4c-0.7-0.7-1.6-1.2-2.9-1.5c-1.3-0.3-2.4-0.2-3.3,0.2
	c-0.9,0.4-1.5,1-1.7,1.9C207.7,134.3,207.9,135.1,208.6,135.9z M201.4,150.6l9.8,4.6l-2.8,5.9l-0.6-0.3l-0.6-0.3l2.2-4.8l-3-1.4
	l-2,4.4l-0.6-0.3l-0.6-0.3l2-4.4l-3.3-1.5l-2.3,4.9l-0.6-0.3l-0.6-0.3L201.4,150.6z M195.5,162.2l0.3-0.5l0.3-0.5l9.1,5.8l-0.5,0.7
	l-0.5,0.7l-9.1-2.8l0,0l6.3,7.1l-0.5,0.7l-0.5,0.7l-9.1-5.8l0.3-0.5l0.3-0.5l7.7,4.9l0,0l-6.3-7l0.3-0.5l0.3-0.5l9,2.8l0,0
	L195.5,162.2z M196.2,179.9l-0.4,0.5l-2.1,2.5c-0.6,0.7-1.2,1-1.9,1c-0.7,0-1.4-0.3-2.1-0.9c-0.8-0.7-1.2-1.4-1.3-2.1
	c-0.1-0.7,0.1-1.4,0.7-2.1c0.7-0.9,1.3-1.5,1.7-2l-3.4-2.9l0.4-0.5l0.4-0.5L196.2,179.9z M191.7,177.5l-1.5,1.8
	c-0.4,0.5-0.6,0.9-0.5,1.4c0.1,0.4,0.3,0.9,0.9,1.3c0.5,0.4,0.9,0.6,1.3,0.5c0.4,0,0.8-0.3,1.2-0.8l1.5-1.8L191.7,177.5z
	 M187.2,189.7l-0.4,0.4l-2.6,2.4c-0.7,0.6-1.4,0.9-2.1,0.9c-0.7,0-1.4-0.4-2-1.1c-0.6-0.7-0.9-1.4-0.9-2.2c0-0.2,0-0.4,0.1-0.5
	l-0.2,0c-0.7,0.1-1.3-0.2-1.9-0.8l-1.4-1.4c-0.2-0.2-0.4-0.4-0.5-0.4s-0.3-0.1-0.5,0l-0.2-0.2l1.1-1c0.1,0,0.3,0.2,0.5,0.4
	s0.6,0.5,0.9,0.9l0.6,0.6c0.5,0.5,0.9,0.7,1.3,0.8c0.4,0,0.8-0.1,1.2-0.5l2.1-1.9l-3.1-3.4l0.4-0.4l0.4-0.4L187.2,189.7z M183.1,187
	l-2.2,2c-0.4,0.4-0.6,0.8-0.6,1.1c0,0.4,0.2,0.8,0.7,1.3c0.4,0.5,0.8,0.7,1.2,0.7c0.4,0,0.8-0.2,1.2-0.5l2.1-1.9L183.1,187z
	 M170.3,190l6.2,8.8l-5.3,3.7l-0.4-0.5l-0.4-0.5l4.3-3l-1.9-2.7l-4,2.8l-0.4-0.5l-0.4-0.5l4-2.8l-2.1-3l-4.4,3.1l-0.4-0.5l-0.4-0.5
	L170.3,190z M159.2,205.8c0.4,0.6,0.8,0.9,1.3,1.1c0.5,0.1,1.1,0.1,1.6-0.2c0.6-0.3,1-0.7,1.1-1.1c0.2-0.4,0.1-0.9-0.2-1.5
	c-0.2-0.4-0.4-0.6-0.7-0.7c-0.3-0.1-0.8,0-1.5,0.1l-1.6,0.3c-0.8,0.2-1.5,0.1-2.1-0.1c-0.5-0.2-1-0.7-1.4-1.5
	c-0.5-0.9-0.5-1.7-0.3-2.5c0.3-0.8,0.9-1.4,1.8-1.9c1-0.5,2-0.7,2.9-0.4c0.9,0.3,1.6,0.9,2.1,1.9l0,0.1l-1,0.5
	c-0.4-0.7-0.9-1.1-1.5-1.3c-0.6-0.2-1.2-0.1-1.9,0.3c-0.7,0.3-1.1,0.7-1.3,1.2c-0.2,0.5-0.2,0.9,0.1,1.5c0.2,0.5,0.5,0.7,0.9,0.8
	c0.3,0.1,0.9,0.1,1.7-0.1l1.6-0.3c0.8-0.2,1.4-0.2,1.9,0c0.5,0.2,0.9,0.6,1.2,1.2c0.5,0.9,0.6,1.8,0.4,2.6c-0.2,0.8-0.8,1.4-1.6,1.9
	c-0.9,0.5-1.7,0.6-2.5,0.3c-0.8-0.3-1.5-0.8-2-1.8L159.2,205.8z M151,212.8l-0.6,0.2l-0.6,0.2l-6.8-8.9l0.6-0.2l0.6-0.2l1.9,2.6
	l3.3-1.3l-0.2-3.2l0.6-0.2l0.6-0.2L151,212.8z M149.5,206.6l-2.6,1l3,4l0,0L149.5,206.6z M140.6,216.3l-0.6,0.1l-3.4,0.8
	c-0.9,0.2-1.7,0.1-2.3-0.2s-1-1-1.2-2c-0.2-0.9-0.1-1.7,0.2-2.3c0.1-0.2,0.2-0.3,0.3-0.4l-0.2-0.1c-0.6-0.2-1-0.8-1.3-1.7l-0.5-1.9
	c-0.1-0.3-0.2-0.5-0.3-0.7c-0.1-0.1-0.2-0.2-0.4-0.3l-0.1-0.2l1.4-0.3c0.1,0.1,0.1,0.3,0.3,0.6c0.1,0.4,0.2,0.8,0.4,1.2l0.2,0.8
	c0.2,0.6,0.4,1.1,0.7,1.3s0.7,0.3,1.3,0.1l2.8-0.7l-1.1-4.5l0.6-0.1l0.6-0.1L140.6,216.3z M138.3,211.8l-2.9,0.7
	c-0.5,0.1-0.9,0.4-1.1,0.7c-0.2,0.3-0.2,0.8-0.1,1.5c0.1,0.6,0.4,1,0.7,1.2s0.8,0.3,1.4,0.1l2.8-0.7L138.3,211.8z M127,218.9
	l-0.6,0.1l-0.6,0.1l-1.4-10.7l0.6-0.1l0.6-0.1L127,218.9z M116.3,219.9l-0.7,0l-0.7,0l-3.5-10.7l0.6,0l0.6,0l1,3.1l3.5-0.1l0.8-3.1
	l0.6,0l0.6,0L116.3,219.9z M116.9,213.5l-2.8,0.1l1.5,4.7h0L116.9,213.5z M106.5,209l-0.9,10.7l-0.6-0.1l-0.6-0.1l0.8-9.4l-4.5-0.4
	l0.1-0.6l0.1-0.6L106.5,209z M80.2,211.5c0.2-0.7,0.6-1.3,1-1.7c0.5-0.4,1.2-0.7,2.2-1.1c1.1-0.3,1.9-0.7,2.4-1.2
	c0.2-0.2,0.4-0.4,0.6-0.7l-4.5-1.3l0.4-1.2l5.7,1.7l0,0c-0.3,1.1-0.8,1.9-1.4,2.4c-0.6,0.5-1.7,1-3.1,1.5c-0.7,0.2-1.2,0.5-1.5,0.7
	s-0.5,0.7-0.7,1.2c-0.2,0.5-0.1,1,0.1,1.5c0.2,0.4,0.6,0.7,1.1,0.9c0.5,0.2,1,0.1,1.4-0.3c0.4-0.3,0.8-0.9,1-1.7l1,0.3
	c-0.3,1.1-0.8,1.9-1.5,2.4s-1.5,0.6-2.4,0.3c-0.8-0.2-1.3-0.7-1.7-1.4C80,213.2,80,212.4,80.2,211.5z M76.6,203.5
	c0.1,1.1-0.2,2.4-0.8,4s-1.4,2.7-2.3,3.4c-0.8,0.7-1.7,0.8-2.6,0.4c-0.9-0.4-1.4-1.1-1.5-2.2s0.2-2.4,0.8-4c0.7-1.6,1.4-2.7,2.3-3.4
	c0.8-0.7,1.7-0.8,2.6-0.4C76,201.7,76.5,202.4,76.6,203.5z M73,202.9c-0.6,0.5-1.1,1.4-1.6,2.7c-0.6,1.3-0.8,2.3-0.8,3.1
	c0,0.8,0.3,1.3,0.9,1.5c0.6,0.2,1.1,0.1,1.7-0.4c0.6-0.5,1.1-1.4,1.7-2.7c0.5-1.3,0.8-2.3,0.8-3.1c0-0.8-0.3-1.3-0.8-1.5
	C74.1,202.2,73.5,202.3,73,202.9z M59.3,202c0.4-0.7,0.8-1.2,1.4-1.4c0.5-0.3,1.3-0.5,2.4-0.5c1.2-0.1,2.1-0.3,2.6-0.6
	c0.2-0.1,0.5-0.3,0.7-0.5l-4.1-2.3l0.6-1.1l5.2,2.9l0,0c-0.5,1-1.2,1.6-1.9,2c-0.7,0.4-1.9,0.6-3.4,0.8c-0.7,0.1-1.3,0.2-1.6,0.4
	s-0.7,0.5-0.9,1c-0.3,0.5-0.4,1-0.2,1.4c0.1,0.5,0.4,0.8,0.8,1.1c0.5,0.3,1,0.3,1.4,0c0.5-0.2,0.9-0.7,1.4-1.4l0.9,0.5
	c-0.6,1-1.2,1.7-2,2c-0.8,0.3-1.6,0.2-2.4-0.2c-0.7-0.4-1.1-1-1.3-1.7C58.7,203.6,58.9,202.8,59.3,202z M52.1,197.4l1.7,1.2
	l-0.6,0.9c-0.5-0.4-1-0.5-1.5-0.5c-0.5,0-1,0.3-1.6,0.8l-0.7-0.5l6.1-8.6l0.5,0.3l0.5,0.3L52.1,197.4z M40.4,183.9l-2.1-2.2l1-0.9
	l2.1,2.2L40.4,183.9z M25.3,162.9c1.2-0.6,2.3-0.8,3.3-0.6s1.8,0.7,2.4,1.6c0.7,1,0.7,2.1,0.3,3.3c-0.5,1.2-1.4,2.2-2.9,3.1
	c-1.5,0.9-2.8,1.3-4.1,1.3s-2.2-0.7-2.9-1.7c-0.5-0.8-0.7-1.7-0.5-2.6s0.7-1.7,1.6-2.4l0.6,1c-0.5,0.5-0.9,1-1,1.6
	c-0.1,0.6,0,1.1,0.4,1.7c0.5,0.8,1.2,1.1,2.1,1.2c1,0,2-0.3,3.1-1c1.2-0.8,2-1.6,2.4-2.4s0.3-1.6-0.2-2.4c-0.4-0.6-0.9-0.9-1.6-1
	s-1.5,0-2.3,0.4L25.3,162.9z M25.9,155.6l-9.8,4.5l-2.7-5.9L14,154l0.6-0.3l2.2,4.8l3-1.4l-2-4.4l0.6-0.3l0.6-0.3l2,4.4l3.3-1.5
	l-2.2-4.9l0.6-0.3l0.6-0.3L25.9,155.6z M10.8,147.2l-0.2-0.6l-1-3.1c-0.3-0.8-0.2-1.5,0.2-2.2c0.4-0.6,1-1.1,1.9-1.3
	c1-0.3,1.8-0.3,2.5,0c0.7,0.3,1.2,0.9,1.4,1.7c0.3,1.1,0.6,1.9,0.8,2.6l4.3-1.3l0.2,0.6l0.2,0.6L10.8,147.2z M15.2,144.6l-0.7-2.3
	c-0.2-0.6-0.5-1-0.9-1.2c-0.4-0.2-0.9-0.2-1.6,0c-0.6,0.2-1,0.4-1.1,0.8c-0.2,0.4-0.2,0.8,0,1.4l0.7,2.3L15.2,144.6z M13.1,130.3
	l-5.8,4.4L7.2,134l-0.1-0.7l4.7-3.4l0,0l-5.6-1.6l-0.1-0.7L6,126.9l7,2.2l4.2-0.7l0.1,0.6l0.1,0.6L13.1,130.3z M16,118.6l0,0.6
	l0,0.6l-10.8,0.3l0-0.9l0-0.9l9.1-2.8l-9.2-2.2l0-0.9l0-0.9l10.8-0.3l0,0.6l0,0.6l-9.1,0.3v0l9.2,2.2l0,0.6l0,0.6l-9,2.8v0L16,118.6
	z M16.1,105.1l-10.7-1.2l0.7-6.5l0.6,0.1l0.6,0.1l-0.6,5.3l3.3,0.4l0.5-4.8l0.6,0.1l0.6,0.1l-0.5,4.8l3.6,0.4l0.6-5.3l0.6,0.1
	l0.6,0.1L16.1,105.1z M15.8,86.7c1.1,0.2,1.8,0.7,2.4,1.4c0.5,0.7,0.7,1.5,0.5,2.3c-0.2,0.8-0.6,1.5-1.2,1.9
	c-0.6,0.4-1.4,0.5-2.3,0.4l0.3-1.1c0.6,0.1,1.1,0,1.5-0.3s0.6-0.6,0.8-1.2c0.1-0.5,0-1-0.4-1.4c-0.4-0.4-0.9-0.7-1.6-0.9
	c-0.7-0.2-1.3-0.1-1.8,0.1s-0.8,0.6-1,1.2c-0.1,0.3-0.1,0.6,0.1,1s0.3,0.6,0.5,0.8l-0.3,0.9L7.9,90l1-4.4l1.2,0.3l-0.8,3.6l2.7,1
	l0,0c-0.3-0.6-0.4-1.1-0.2-1.6c0.2-0.9,0.7-1.5,1.4-1.9C13.9,86.6,14.8,86.5,15.8,86.7z M19.8,81.3c-1.1,0.2-2.4,0-4-0.6
	c-1.6-0.6-2.8-1.3-3.5-2.1c-0.7-0.8-0.9-1.7-0.6-2.6c0.3-0.9,1-1.4,2.1-1.6c1.1-0.2,2.4,0,4,0.6c1.6,0.6,2.8,1.3,3.5,2.1
	c0.7,0.8,0.9,1.7,0.6,2.6C21.5,80.6,20.8,81.1,19.8,81.3z M20.2,77.7c-0.6-0.5-1.5-1-2.8-1.5c-1.3-0.5-2.4-0.7-3.1-0.7
	s-1.3,0.4-1.5,0.9c-0.2,0.6,0,1.1,0.5,1.6c0.6,0.5,1.5,1,2.8,1.5c1.3,0.5,2.4,0.7,3.1,0.6c0.8,0,1.2-0.4,1.5-0.9
	C20.9,78.7,20.8,78.2,20.2,77.7z M24,70.8c-1.1,0-2.4-0.3-3.9-1.1c-1.5-0.8-2.6-1.6-3.2-2.5c-0.6-0.9-0.7-1.8-0.3-2.6
	c0.4-0.9,1.2-1.3,2.2-1.3s2.4,0.3,3.9,1.1c1.5,0.8,2.6,1.6,3.2,2.5c0.6,0.9,0.7,1.7,0.3,2.6C25.8,70.3,25.1,70.7,24,70.8z
	 M24.9,67.2c-0.5-0.6-1.4-1.2-2.6-1.8c-1.3-0.6-2.3-1-3-1c-0.8,0-1.3,0.2-1.6,0.8c-0.3,0.5-0.2,1.1,0.3,1.7s1.4,1.2,2.6,1.8
	c1.3,0.6,2.3,1,3,1s1.3-0.2,1.6-0.7C25.5,68.4,25.4,67.8,24.9,67.2z"/>
</svg>
