<?xml version="1.0" encoding="utf-8"?>
<!-- Generator: Adobe Illustrator 27.3.1, SVG Export Plug-In . SVG Version: 6.00 Build 0)  -->
<svg version="1.1" id="Capa_1" xmlns="http://www.w3.org/2000/svg" xmlns:xlink="http://www.w3.org/1999/xlink" x="0px" y="0px"
	 viewBox="0 0 545 560" style="enable-background:new 0 0 545 560;" xml:space="preserve">
<style type="text/css">
	.st0{fill:#FF195B;}
</style>
<path class="st0" d="M355.4,0H546v190h-29.6V30.4h-161V0z M28.6,190V30.4h161V0H-1v190H28.6z M516.4,371v158.7h-161V560H546V371
	H516.4z M189.6,529.6h-161V371H-1v189h190.6V529.6z M265.7,180.9h14.9l18.5,28.4h20l-20.9-30.3c4.9-1.9,8.9-4.9,11.9-9.1
	c3.1-4.3,4.7-9.5,4.7-15.3c0-7.7-2.6-14.1-7.7-19.2c-5.1-5-11.5-7.6-18.9-7.6h-39.9v81.4h17.5V180.9z M265.7,142.5h18.4
	c3.6,0,6.7,1.2,9.3,3.5c2.5,2.3,3.8,5.3,3.8,8.7c0,3.4-1.3,6.4-3.9,8.7c-2.6,2.3-5.8,3.5-9.6,3.5h-18.1V142.5z M418.7,193.8v15.5
	h-59.4V128h58.2v15.5h-40V161h38.7v14.7h-38.7v18.2H418.7z M168.5,254.7h0.4v71.7h-18v-62.2h-7.6v-18h25.2V254.7z M281.9,255.8
	c-8.6-8.3-19-12.4-31.1-12.4c-12,0-22.4,4.2-31,12.4c-8.6,8.3-12.9,18.3-12.9,29.8s4.3,21.6,12.9,29.8c8.6,8.3,19,12.4,31,12.4
	c12.1,0,22.5-4.2,31.1-12.4c8.6-8.3,12.9-18.3,12.9-29.8S290.5,264.1,281.9,255.8z M269,303.8c-5,5-11.1,7.5-18.2,7.5
	c-7,0-13.1-2.5-18-7.5c-5-5-7.5-11.1-7.5-18.1c0-7,2.5-13.1,7.5-18.1c5-5,11-7.6,18-7.6c7.1,0,13.3,2.5,18.2,7.6
	c5,5,7.5,11.1,7.5,18.1C276.5,292.7,274,298.8,269,303.8z M361.7,243.4c-12,0-22.4,4.2-31,12.4c-8.6,8.3-12.9,18.3-12.9,29.8
	s4.3,21.6,12.9,29.8c8.6,8.3,19,12.4,31,12.4c12.1,0,22.5-4.2,31.1-12.4c8.6-8.3,12.9-18.3,12.9-29.8s-4.3-21.6-12.9-29.8
	C384.3,247.6,373.8,243.4,361.7,243.4z M379.9,303.8c-5,5-11.1,7.5-18.2,7.5c-7,0-13.1-2.5-18-7.5c-5-5-7.5-11.1-7.5-18.1
	c0-7,2.5-13.1,7.5-18.1c5-5,11-7.6,18-7.6c7.1,0,13.3,2.5,18.2,7.6c5,5,7.5,11.1,7.5,18.1C387.4,292.7,384.9,298.8,379.9,303.8z
	 M249.8,373.9c-8.3-7.9-18.5-11.9-30.2-11.9h-37.6v81.4h37.6c0.1,0,0.2,0,0.3,0c11.5,0,21.6-4,29.8-11.9c8.3-8,12.6-17.7,12.6-28.8
	C262.4,391.5,258.2,381.8,249.8,373.9z M244.1,402.7c0,6.6-2.4,12.4-7.2,17c-4.8,4.7-10.6,7.1-17.3,7.1h-19.3v-48.1h19.3
	c6.7,0,12.5,2.4,17.3,7C241.7,390.3,244.1,396,244.1,402.7z M330.5,360.4c-12,0-22.4,4.2-31,12.4c-8.6,8.3-12.9,18.3-12.9,29.8
	s4.3,21.6,12.9,29.8c8.6,8.3,19,12.4,31,12.4c12.1,0,22.5-4.2,31.1-12.4c8.6-8.3,12.9-18.3,12.9-29.8s-4.3-21.6-12.9-29.8
	C353,364.6,342.5,360.4,330.5,360.4z M348.6,420.8c-5,5-11.1,7.5-18.2,7.5c-7,0-13.1-2.5-18-7.5c-5-5-7.5-11.1-7.5-18.1
	s2.5-13.1,7.5-18.1c5-5,11-7.6,18-7.6c7.1,0,13.3,2.5,18.2,7.6c5,5,7.5,11.1,7.5,18.1C356.1,409.7,353.6,415.8,348.6,420.8z
	 M163.4,210.9c-12,0-22.4-4.2-31-12.4c-8.6-8.3-12.9-18.3-12.9-29.8s4.3-21.6,12.9-29.8c8.6-8.3,19-12.4,31-12.4
	c10.1,0,19.1,3,27,8.9c6.8,5.1,11.6,11.6,14.3,19.2l0.2,0.7h-19.6l-0.1-0.2c-1.9-3.1-4.5-5.7-7.6-7.8c-4.2-2.8-9-4.3-14.2-4.3
	c-7,0-13.1,2.5-18,7.6c-5,5-7.5,11.1-7.5,18.1c0,7,2.5,13.1,7.5,18.1c5,5,11,7.5,18,7.5c5.2,0,10-1.4,14.3-4.2
	c3.6-2.4,6.5-5.5,8.4-9.3l0.1-0.3h19.3l-0.2,0.6c-2.6,8.2-7.6,15.2-14.9,20.8C182.5,207.9,173.4,210.9,163.4,210.9z"/>
</svg>
