<?xml version="1.0" encoding="utf-8"?>
<!-- Generator: Adobe Illustrator 27.3.1, SVG Export Plug-In . SVG Version: 6.00 Build 0)  -->
<svg version="1.1" xmlns="http://www.w3.org/2000/svg" xmlns:xlink="http://www.w3.org/1999/xlink" x="0px" y="0px"
	 viewBox="0 0 841.9 595.3" style="enable-background:new 0 0 841.9 595.3;" xml:space="preserve">
<style type="text/css">
	.st0{fill:none;}
	.st1{fill:#E10C1A;}
	.st2{display:none;}
</style>
<g id="Capa_1">
	<g>
		<rect x="74.9" y="274.2" class="st0" width="687.8" height="233.3"/>
	</g>
	<g>
		<g>
			<path class="st1" d="M608.3,235.1c1.2-1.4,2.2-2.5,3.1-3.6c3.3-3.8,8.7-4.4,12.7-1.3c1.9,1.5,2.2,3.2,0.9,5.1
				c-2.3,3.4-4.8,6.8-7.4,10.6c1.1,1.8,2.4,3.8,4,6.4c3.9-14.4,13.3-22.8,26.4-27.1c6.1-2,12.6-3.4,19-3.9c15-1.3,29.6,1,43.5,7.3
				c2.4,1.1,3.5,2.3,3.4,5.2c-0.2,7.9-0.1,15.7-0.1,24.3c-1.4-0.7-2.4-1.2-3.4-1.8c-10.2-5.7-20.9-9.9-32.5-11.3
				c-4.4-0.5-9.1-0.3-13.5,0.5c-3.9,0.6-6.5,3.4-7,7.6c-0.5,3.9,2,6.1,4.8,7.5c5,2.5,10.2,4.8,15.4,6.9c9.7,4,19.4,7.9,27.7,14.4
				c9.6,7.5,14.9,17.1,14.6,29.5c0,0.4,0,0.9,0,2.2c7.2-7.7,15.4-10.8,25-8.3c6.5,1.6,11.4,5.6,14.7,11.5c6.7,12,1.6,27.3-10.9,33
				c-13.9,6.3-27.2-0.7-33.6-17.9c-1.4,1.8-2.7,3.5-4.1,5.1c-8.3,9.3-19.3,12.9-31.1,14.2c-18,2-35.5-0.8-52.5-6.8
				c-2.9-1-3.9-2.5-3.8-5.6c0.3-6.1,0.1-12.2,0.1-19.2c-3.4,5.6-6.4,10.4-9.5,15.3c-3.2-2.2-2.8-3.9-1.4-6.3
				c14.8-24.5,13.3-48.7-1.4-72.6c-0.2-0.3-0.5-0.5-1-1.1c-11.7,14.7-20.6,30.2-18.8,49.9c1.3,14.5,5.8,28,12.1,41.1
				c2.9,6.1,2.6,7.1-3.3,10.5c-30.2,17.2-69.5,14.3-94.8-7.1c-8.9-7.5-15.3-16.9-19.7-27.7c-0.4-0.9-0.7-1.7-1.7-2.5
				c0,9.9,0,19.9,0,30.1c-13.4,0-26.3,0-39.6,0c0-3,0-5.9,0-9.2c-0.9,0.3-1.5,0.4-1.9,0.8c-24,20.2-70.6,15.1-86.7-25.2
				c-9.9-24.6-8.5-49.1,7.3-71.1c13.3-18.5,32.7-25,54.8-22.7c8.8,0.9,17.3,4,26.3,6.1c0-10.2,0-21.1,0-31.9c0-10.8,0-21.6,0-32.5
				c13.3,0,26.3,0,39.5,0c0,35.6,0,70.9,0,106.3c0.2,0,0.3,0.1,0.5,0.1c2.1-4.5,4.4-9,6.3-13.7c0.3-0.7-0.8-2.1-1.4-3
				c-3.1-4-2.6-6,2-8.1c0.9-0.4,1.9-0.9,2.8-0.9c4.9,0.1,7.9-3,11-6.2c7.4-7.5,16.3-12.9,26.1-16.9c1.7-0.7,3.4-2,4.5-3.4
				c7.6-9.3,19.2-10.7,28.9-3.7c2,1.4,4.4,2.5,6.8,3C585.7,219.4,597.8,225.3,608.3,235.1z M444.8,285c0-6.4,0-12.8,0-19.1
				c0-13.1-0.5-13.7-13.4-17.3c-0.1,0-0.2-0.1-0.4-0.1c-17.5-4.7-32.8,3.7-38,21c-2.9,9.7-3.1,19.6-1.2,29.5
				c1.2,6.2,3.7,11.9,7.9,16.8c11,12.9,33.4,12.9,44.2-0.2c0.7-0.8,0.8-2.2,0.9-3.4C444.8,303.2,444.8,294.1,444.8,285z
				 M529.1,350.7c-0.3-5.9-1.2-11.6-0.9-17.2c0.5-10.5,1.4-21,2.4-31.5c0.5-5.2-0.6-9.7-4.4-13.4c-10.1-9.8-20.3-19.6-30.5-29.4
				c-0.1-0.1-0.4,0-0.7,0C477.2,293.6,495.8,336.6,529.1,350.7z M575.5,227.9c2.2,12,1.5,18.5-2.4,25.2
				c-6.7,11.5-20.1,14.2-30.7,6.2c-6.7-5.1-10.3-12.1-11.2-20.4c-0.4-3.6-0.1-7.2-0.1-11.2c-10.9,3.8-19.8,9.8-27.4,18.6
				c5.2,4,9.8,8,14.9,11.4c4.5,3,9.1,5.9,14.1,7.8c5.7,2.2,11.7,4.2,17.7,4.6c22.2,1.5,36.4-12.4,50.8-26.6
				C593.5,236.4,585.3,231.3,575.5,227.9z M631.1,283.7c-1.7,10.6-3.4,21.2-5.2,32.5c6.9,2.3,14.3,5.1,22,7.1
				c9.2,2.5,18.6,3.4,28,0.6c3.6-1.1,7.1-2.8,7.7-7c0.6-4.2-2-7.1-5.3-8.9c-4.6-2.5-9.4-4.8-14.2-6.8
				C652.4,296.4,640.4,292.3,631.1,283.7z"/>
		</g>
		<g>
			<path d="M201.8,349.1c-13.6,0-26.8,0-40.3,0c0-5.4,0-10.6,0-16.9c-1.5,1.5-2.4,2.3-3.3,3.2c-12.7,13.4-28.3,18.7-46.5,15.6
				c-22.2-3.7-36.3-20.3-36.6-43.6c-0.4-27.4-0.1-54.8-0.1-82.2c0-0.5,0.1-1,0.2-1.7c13,0,25.9,0,39.5,0c0,1.2,0,2.5,0,3.8
				c0,24.1,0,48.2,0,72.2c0,3.2,0.1,6.4,0.8,9.5c2.6,12.5,12.7,18.8,25.1,15.4c9.9-2.7,16.5-9.4,20.4-18.8c0.5-1.2,0.5-2.6,0.5-4
				c0-24.7,0-49.4,0-74.1c0-1.3,0-2.7,0-4.3c13.5,0,26.7,0,40.2,0c0,5.4,0,10.7,0,16.1c0.3,0.2,0.6,0.4,1,0.7
				c0.9-1.1,1.6-2.2,2.6-3.2c13.5-14,29.8-19,48.7-14.8c19.2,4.2,31.9,18.7,33.7,38.4c0.4,4,0.6,8.1,0.6,12.1
				c0.1,24.1,0,48.2,0,72.2c0,1.3,0,2.6,0,4.2c-13.4,0-26.3,0-39.7,0c0-1.5,0-2.8,0-4.1c0-24,0.1-47.9-0.1-71.9
				c0-3.6-0.4-7.4-1.3-10.9c-3.2-12.6-15-18.4-27-13.2c-8.2,3.5-13.2,10.5-17.9,17.5c-0.7,1-0.4,2.6-0.4,3.9c0,24.7,0,49.4,0,74.1
				C201.8,346,201.8,347.5,201.8,349.1z"/>
		</g>
		<g>
			<path d="M300.3,223.4c13.1,0,26,0,39.2,0c0,41.9,0,83.7,0,125.7c-13,0-26,0-39.2,0C300.3,307.3,300.3,265.6,300.3,223.4z"/>
		</g>
		<g>
			<path d="M341.5,182.2c0,12.1-9.6,21.8-21.7,21.8c-12.1,0.1-21.9-9.6-22-21.6c-0.1-12.2,9.7-22.1,21.9-22.1
				C331.8,160.4,341.5,170.2,341.5,182.2z"/>
		</g>
	</g>
	<g>
		<polygon points="144.3,406.3 153.2,406.3 153.2,404.2 144.3,404.2 144.3,398.8 154.3,398.8 154.3,396.6 141.8,396.6 141.8,414.2 
			154.7,414.2 154.7,412.1 144.3,412.1 		"/>
		<path d="M178,401.4c-0.8-0.4-1.8-0.6-2.9-0.6c-1.3,0-2.5,0.3-3.5,0.9c-0.7,0.4-1.2,0.9-1.6,1.6c-0.3-0.6-0.8-1.2-1.3-1.5
			c-0.9-0.6-2-0.9-3.3-0.9c-1.2,0-2.2,0.2-3.1,0.7c-0.6,0.4-1.2,0.8-1.6,1.4v-2h-2.3v13.4h2.4v-6.9c0-1,0.2-1.8,0.5-2.5
			s0.8-1.2,1.4-1.5s1.3-0.5,2.1-0.5c1.1,0,2,0.3,2.6,1c0.6,0.7,0.9,1.6,0.9,2.9v7.4h2.4v-6.9c0-1,0.2-1.8,0.5-2.5
			c0.3-0.7,0.8-1.2,1.4-1.5c0.6-0.3,1.3-0.5,2.1-0.5c1.1,0,1.9,0.3,2.6,1c0.6,0.7,0.9,1.6,0.9,2.9v7.4h2.4v-7.7
			c0-1.3-0.2-2.4-0.7-3.3C179.5,402.4,178.8,401.8,178,401.4z"/>
		<path d="M195.7,401.6c-1-0.6-2.2-0.9-3.5-0.9c-1.1,0-2.2,0.3-3.1,0.8c-0.7,0.4-1.2,0.9-1.7,1.5v-2.1h-2.3v18.3h2.4v-6.9
			c0.5,0.6,1,1.1,1.6,1.4c0.9,0.5,1.9,0.8,3,0.8c1.3,0,2.5-0.3,3.5-0.9c1-0.6,1.8-1.4,2.4-2.4c0.6-1,0.9-2.2,0.9-3.6
			s-0.3-2.6-0.9-3.6C197.5,403,196.7,402.2,195.7,401.6z M195.9,410c-0.4,0.7-0.9,1.3-1.6,1.7s-1.5,0.6-2.3,0.6
			c-0.8,0-1.6-0.2-2.3-0.6s-1.2-0.9-1.6-1.7c-0.4-0.7-0.6-1.5-0.6-2.5c0-1,0.2-1.8,0.6-2.5c0.4-0.7,0.9-1.2,1.6-1.6
			c0.7-0.4,1.4-0.6,2.3-0.6c0.9,0,1.6,0.2,2.3,0.6c0.7,0.4,1.2,0.9,1.6,1.6c0.4,0.7,0.6,1.5,0.6,2.5
			C196.5,408.5,196.3,409.3,195.9,410z"/>
		<path d="M204.7,403.1v-2.3h-2.3v13.4h2.4v-6.7c0-1.5,0.4-2.6,1.1-3.4c0.8-0.8,1.8-1.2,3.1-1.2c0.1,0,0.2,0,0.3,0
			c0.1,0,0.2,0,0.3,0v-2.3c-1.3,0-2.4,0.2-3.2,0.7C205.6,401.9,205,402.4,204.7,403.1z"/>
		<path d="M221.3,401.6c-1-0.6-2.1-0.9-3.4-0.9c-1.3,0-2.4,0.3-3.4,0.9s-1.8,1.4-2.4,2.4c-0.6,1-0.9,2.2-0.9,3.5
			c0,1.3,0.3,2.5,0.9,3.5c0.6,1,1.4,1.8,2.5,2.4s2.3,0.9,3.8,0.9c1.1,0,2.1-0.2,3-0.6c0.9-0.4,1.7-0.9,2.3-1.6l-1.3-1.6
			c-0.5,0.5-1.1,0.9-1.7,1.2s-1.4,0.4-2.2,0.4c-1,0-1.8-0.2-2.6-0.6c-0.7-0.4-1.3-0.9-1.7-1.6c-0.3-0.5-0.5-1.1-0.6-1.7h10.9
			c0-0.1,0-0.2,0-0.4c0-0.1,0-0.3,0-0.4c0-1.4-0.3-2.6-0.8-3.6C223.1,403,222.3,402.2,221.3,401.6z M215.6,403.3
			c0.7-0.4,1.4-0.6,2.2-0.6c0.9,0,1.6,0.2,2.3,0.6c0.6,0.4,1.2,0.9,1.5,1.6c0.3,0.5,0.4,1.1,0.5,1.7h-8.6c0.1-0.6,0.2-1.2,0.5-1.7
			C214.5,404.3,215,403.7,215.6,403.3z"/>
		<path d="M235.8,407.6c-0.5-0.3-1-0.5-1.7-0.6c-0.6-0.1-1.2-0.3-1.8-0.4s-1.2-0.2-1.7-0.3c-0.5-0.1-0.9-0.3-1.2-0.6
			c-0.3-0.2-0.5-0.6-0.5-1c0-0.5,0.3-1,0.8-1.3c0.5-0.3,1.3-0.5,2.4-0.5c0.7,0,1.3,0.1,2,0.2c0.7,0.2,1.3,0.4,1.9,0.8l1-1.9
			c-0.6-0.4-1.3-0.7-2.2-0.9c-0.9-0.2-1.8-0.3-2.7-0.3c-1.1,0-2.1,0.2-3,0.5c-0.8,0.3-1.5,0.8-1.9,1.4c-0.5,0.6-0.7,1.3-0.7,2.1
			c0,0.8,0.2,1.4,0.5,1.9c0.3,0.5,0.7,0.8,1.2,1.1c0.5,0.3,1.1,0.5,1.7,0.6c0.6,0.1,1.2,0.3,1.8,0.4c0.6,0.1,1.2,0.2,1.7,0.3
			c0.5,0.1,0.9,0.3,1.2,0.5c0.3,0.2,0.5,0.6,0.5,1c0,0.6-0.2,1-0.7,1.3c-0.5,0.3-1.3,0.5-2.4,0.5c-0.9,0-1.7-0.1-2.6-0.4
			s-1.5-0.6-2.1-1l-1,1.9c0.6,0.4,1.4,0.8,2.4,1.1c1,0.3,2.1,0.5,3.2,0.5c1.2,0,2.2-0.2,3.1-0.5c0.9-0.3,1.5-0.8,2-1.4
			c0.5-0.6,0.7-1.3,0.7-2.1c0-0.8-0.2-1.4-0.5-1.8C236.7,408.2,236.3,407.8,235.8,407.6z"/>
		<path d="M245.4,400.7c-1.1,0-2.1,0.1-3,0.4s-1.8,0.7-2.5,1.3l1,1.8c0.5-0.4,1.2-0.8,1.9-1c0.8-0.3,1.5-0.4,2.3-0.4
			c1.2,0,2.1,0.3,2.7,0.8c0.6,0.6,0.9,1.4,0.9,2.4v0.5h-3.8c-1.3,0-2.4,0.2-3.2,0.5s-1.3,0.8-1.7,1.4s-0.5,1.2-0.5,2
			c0,0.8,0.2,1.4,0.6,2s1,1.1,1.7,1.4c0.7,0.3,1.6,0.5,2.6,0.5c1.2,0,2.2-0.2,3.1-0.7c0.6-0.3,1-0.7,1.3-1.2v1.8h2.3v-8.1
			c0-1.8-0.5-3.2-1.5-4.1C248.6,401.2,247.2,400.7,245.4,400.7z M247.2,411.9c-0.7,0.4-1.5,0.6-2.4,0.6c-0.9,0-1.7-0.2-2.2-0.6
			s-0.8-0.9-0.8-1.6c0-0.6,0.2-1.1,0.6-1.5c0.4-0.4,1.2-0.6,2.5-0.6h3.7v1.9C248.4,410.9,247.9,411.5,247.2,411.9z"/>
		<path d="M265.9,403.4c0.7-0.4,1.5-0.6,2.3-0.6c0.7,0,1.4,0.2,2,0.5c0.6,0.3,1.2,0.8,1.6,1.5l1.8-1.2c-0.5-0.9-1.3-1.7-2.2-2.1
			c-1-0.5-2-0.7-3.2-0.7c-1.4,0-2.6,0.3-3.7,0.9c-1.1,0.6-1.9,1.4-2.5,2.4s-0.9,2.2-0.9,3.5c0,1.3,0.3,2.5,0.9,3.5s1.4,1.8,2.5,2.4
			c1.1,0.6,2.3,0.9,3.7,0.9c1.2,0,2.3-0.2,3.2-0.7s1.7-1.2,2.2-2.1l-1.8-1.2c-0.4,0.7-1,1.1-1.6,1.5c-0.6,0.3-1.3,0.5-2,0.5
			c-0.9,0-1.7-0.2-2.3-0.6c-0.7-0.4-1.2-0.9-1.6-1.6c-0.4-0.7-0.6-1.5-0.6-2.5s0.2-1.8,0.6-2.5C264.6,404.4,265.2,403.8,265.9,403.4
			z"/>
		<path d="M286,401.6c-1.1-0.6-2.2-0.9-3.6-0.9c-1.3,0-2.5,0.3-3.6,0.9s-1.9,1.4-2.5,2.4s-0.9,2.2-0.9,3.5c0,1.3,0.3,2.5,0.9,3.5
			s1.4,1.8,2.5,2.4s2.2,0.9,3.6,0.9c1.3,0,2.5-0.3,3.6-0.9s1.9-1.4,2.5-2.4c0.6-1,0.9-2.2,0.9-3.5c0-1.3-0.3-2.5-0.9-3.5
			C287.8,403,287,402.2,286,401.6z M286.3,410c-0.4,0.7-0.9,1.3-1.6,1.7s-1.5,0.6-2.3,0.6s-1.6-0.2-2.3-0.6s-1.2-0.9-1.6-1.7
			c-0.4-0.7-0.6-1.5-0.6-2.5c0-1,0.2-1.8,0.6-2.5c0.4-0.7,0.9-1.2,1.6-1.6c0.7-0.4,1.4-0.6,2.3-0.6s1.6,0.2,2.3,0.6
			c0.7,0.4,1.2,0.9,1.6,1.6c0.4,0.7,0.6,1.5,0.6,2.5C286.9,408.5,286.7,409.3,286.3,410z"/>
		<rect x="292.7" y="395.5" width="2.4" height="18.7"/>
		<path d="M304.6,400.7c-1.1,0-2.1,0.1-3,0.4s-1.8,0.7-2.5,1.3l1,1.8c0.5-0.4,1.2-0.8,1.9-1c0.8-0.3,1.5-0.4,2.3-0.4
			c1.2,0,2.1,0.3,2.7,0.8c0.6,0.6,0.9,1.4,0.9,2.4v0.5h-3.8c-1.3,0-2.4,0.2-3.2,0.5s-1.3,0.8-1.7,1.4s-0.5,1.2-0.5,2
			c0,0.8,0.2,1.4,0.6,2s1,1.1,1.7,1.4c0.7,0.3,1.6,0.5,2.6,0.5c1.2,0,2.2-0.2,3.1-0.7c0.6-0.3,1-0.7,1.3-1.2v1.8h2.3v-8.1
			c0-1.8-0.5-3.2-1.5-4.1C307.9,401.2,306.4,400.7,304.6,400.7z M306.4,411.9c-0.7,0.4-1.5,0.6-2.4,0.6c-0.9,0-1.7-0.2-2.2-0.6
			s-0.8-0.9-0.8-1.6c0-0.6,0.2-1.1,0.6-1.5c0.4-0.4,1.2-0.6,2.5-0.6h3.7v1.9C307.6,410.9,307.1,411.5,306.4,411.9z"/>
		<path d="M325.4,401.6c-1-0.6-2.2-0.9-3.5-0.9c-1.1,0-2.1,0.3-3,0.8c-0.6,0.3-1.2,0.8-1.6,1.4v-7.4h-2.4v18.7h2.3v-2.1
			c0.5,0.6,1,1.1,1.7,1.5c0.9,0.5,1.9,0.8,3.1,0.8c1.3,0,2.5-0.3,3.5-0.9c1-0.6,1.8-1.4,2.4-2.4c0.6-1,0.9-2.2,0.9-3.6
			s-0.3-2.6-0.9-3.6C327.2,403,326.4,402.2,325.4,401.6z M325.7,410c-0.4,0.7-0.9,1.3-1.6,1.7s-1.5,0.6-2.3,0.6
			c-0.8,0-1.6-0.2-2.3-0.6s-1.2-0.9-1.6-1.7c-0.4-0.7-0.6-1.5-0.6-2.5c0-1,0.2-1.8,0.6-2.5c0.4-0.7,0.9-1.2,1.6-1.6
			c0.7-0.4,1.4-0.6,2.3-0.6c0.9,0,1.6,0.2,2.3,0.6c0.7,0.4,1.2,0.9,1.6,1.6c0.4,0.7,0.6,1.5,0.6,2.5
			C326.3,408.5,326.1,409.3,325.7,410z"/>
		<path d="M341.4,401.6c-1.1-0.6-2.2-0.9-3.6-0.9c-1.3,0-2.5,0.3-3.6,0.9s-1.9,1.4-2.5,2.4s-0.9,2.2-0.9,3.5c0,1.3,0.3,2.5,0.9,3.5
			s1.4,1.8,2.5,2.4s2.2,0.9,3.6,0.9c1.3,0,2.5-0.3,3.6-0.9s1.9-1.4,2.5-2.4c0.6-1,0.9-2.2,0.9-3.5c0-1.3-0.3-2.5-0.9-3.5
			C343.3,403,342.4,402.2,341.4,401.6z M341.7,410c-0.4,0.7-0.9,1.3-1.6,1.7s-1.5,0.6-2.3,0.6s-1.6-0.2-2.3-0.6s-1.2-0.9-1.6-1.7
			c-0.4-0.7-0.6-1.5-0.6-2.5c0-1,0.2-1.8,0.6-2.5c0.4-0.7,0.9-1.2,1.6-1.6c0.7-0.4,1.4-0.6,2.3-0.6s1.6,0.2,2.3,0.6
			c0.7,0.4,1.2,0.9,1.6,1.6c0.4,0.7,0.6,1.5,0.6,2.5C342.3,408.5,342.1,409.3,341.7,410z"/>
		<path d="M350.4,403.1v-2.3h-2.3v13.4h2.4v-6.7c0-1.5,0.4-2.6,1.1-3.4c0.8-0.8,1.8-1.2,3.1-1.2c0.1,0,0.2,0,0.3,0
			c0.1,0,0.2,0,0.3,0v-2.3c-1.3,0-2.4,0.2-3.2,0.7C351.4,401.9,350.8,402.4,350.4,403.1z"/>
		<path d="M362.2,400.7c-1.1,0-2.1,0.1-3,0.4s-1.8,0.7-2.5,1.3l1,1.8c0.5-0.4,1.2-0.8,1.9-1c0.8-0.3,1.5-0.4,2.3-0.4
			c1.2,0,2.1,0.3,2.7,0.8c0.6,0.6,0.9,1.4,0.9,2.4v0.5h-3.8c-1.3,0-2.4,0.2-3.2,0.5s-1.3,0.8-1.7,1.4s-0.5,1.2-0.5,2
			c0,0.8,0.2,1.4,0.6,2s1,1.1,1.7,1.4c0.7,0.3,1.6,0.5,2.6,0.5c1.2,0,2.2-0.2,3.1-0.7c0.6-0.3,1-0.7,1.3-1.2v1.8h2.3v-8.1
			c0-1.8-0.5-3.2-1.5-4.1C365.4,401.2,364,400.7,362.2,400.7z M364,411.9c-0.7,0.4-1.5,0.6-2.4,0.6c-0.9,0-1.7-0.2-2.2-0.6
			s-0.8-0.9-0.8-1.6c0-0.6,0.2-1.1,0.6-1.5c0.4-0.4,1.2-0.6,2.5-0.6h3.7v1.9C365.2,410.9,364.7,411.5,364,411.9z"/>
		<path d="M382.6,402.9c-0.5-0.6-1-1.1-1.6-1.4c-0.9-0.5-1.9-0.8-3.1-0.8c-1.3,0-2.5,0.3-3.5,0.9c-1,0.6-1.8,1.4-2.4,2.4
			s-0.9,2.2-0.9,3.6s0.3,2.6,0.9,3.6s1.4,1.8,2.4,2.4c1,0.6,2.2,0.9,3.5,0.9c1.2,0,2.2-0.3,3.1-0.8c0.7-0.4,1.2-0.9,1.7-1.5v2.1h2.3
			v-18.7h-2.4V402.9z M382.1,410c-0.4,0.7-0.9,1.3-1.6,1.7s-1.4,0.6-2.3,0.6c-0.9,0-1.6-0.2-2.3-0.6s-1.2-0.9-1.6-1.7
			c-0.4-0.7-0.6-1.5-0.6-2.5c0-1,0.2-1.8,0.6-2.5c0.4-0.7,0.9-1.2,1.6-1.6c0.7-0.4,1.4-0.6,2.3-0.6c0.8,0,1.6,0.2,2.3,0.6
			c0.7,0.4,1.2,0.9,1.6,1.6c0.4,0.7,0.6,1.5,0.6,2.5C382.7,408.5,382.5,409.3,382.1,410z"/>
		<path d="M399,401.6c-1.1-0.6-2.2-0.9-3.6-0.9c-1.3,0-2.5,0.3-3.6,0.9s-1.9,1.4-2.5,2.4s-0.9,2.2-0.9,3.5c0,1.3,0.3,2.5,0.9,3.5
			s1.4,1.8,2.5,2.4s2.2,0.9,3.6,0.9c1.3,0,2.5-0.3,3.6-0.9s1.9-1.4,2.5-2.4c0.6-1,0.9-2.2,0.9-3.5c0-1.3-0.3-2.5-0.9-3.5
			C400.8,403,400,402.2,399,401.6z M399.3,410c-0.4,0.7-0.9,1.3-1.6,1.7s-1.5,0.6-2.3,0.6s-1.6-0.2-2.3-0.6s-1.2-0.9-1.6-1.7
			c-0.4-0.7-0.6-1.5-0.6-2.5c0-1,0.2-1.8,0.6-2.5c0.4-0.7,0.9-1.2,1.6-1.6c0.7-0.4,1.4-0.6,2.3-0.6s1.6,0.2,2.3,0.6
			c0.7,0.4,1.2,0.9,1.6,1.6c0.4,0.7,0.6,1.5,0.6,2.5C399.9,408.5,399.7,409.3,399.3,410z"/>
		<path d="M408,403.1v-2.3h-2.3v13.4h2.4v-6.7c0-1.5,0.4-2.6,1.1-3.4c0.8-0.8,1.8-1.2,3.1-1.2c0.1,0,0.2,0,0.3,0c0.1,0,0.2,0,0.3,0
			v-2.3c-1.3,0-2.4,0.2-3.2,0.7C408.9,401.9,408.4,402.4,408,403.1z"/>
		<path d="M419.8,400.7c-1.1,0-2.1,0.1-3,0.4s-1.8,0.7-2.5,1.3l1,1.8c0.5-0.4,1.2-0.8,1.9-1c0.8-0.3,1.5-0.4,2.3-0.4
			c1.2,0,2.1,0.3,2.7,0.8c0.6,0.6,0.9,1.4,0.9,2.4v0.5h-3.8c-1.3,0-2.4,0.2-3.2,0.5s-1.3,0.8-1.7,1.4s-0.5,1.2-0.5,2
			c0,0.8,0.2,1.4,0.6,2s1,1.1,1.7,1.4c0.7,0.3,1.6,0.5,2.6,0.5c1.2,0,2.2-0.2,3.1-0.7c0.6-0.3,1-0.7,1.3-1.2v1.8h2.3v-8.1
			c0-1.8-0.5-3.2-1.5-4.1C423,401.2,421.6,400.7,419.8,400.7z M421.6,411.9c-0.7,0.4-1.5,0.6-2.4,0.6c-0.9,0-1.7-0.2-2.2-0.6
			s-0.8-0.9-0.8-1.6c0-0.6,0.2-1.1,0.6-1.5c0.4-0.4,1.2-0.6,2.5-0.6h3.7v1.9C422.8,410.9,422.3,411.5,421.6,411.9z"/>
		<path d="M447,402.9c-0.5-0.6-1-1.1-1.6-1.4c-0.9-0.5-1.9-0.8-3.1-0.8c-1.3,0-2.5,0.3-3.5,0.9c-1,0.6-1.8,1.4-2.4,2.4
			s-0.9,2.2-0.9,3.6s0.3,2.6,0.9,3.6s1.4,1.8,2.4,2.4c1,0.6,2.2,0.9,3.5,0.9c1.2,0,2.2-0.3,3.1-0.8c0.7-0.4,1.2-0.9,1.7-1.5v2.1h2.3
			v-18.7H447V402.9z M446.4,410c-0.4,0.7-0.9,1.3-1.6,1.7s-1.4,0.6-2.3,0.6c-0.9,0-1.6-0.2-2.3-0.6s-1.2-0.9-1.6-1.7
			c-0.4-0.7-0.6-1.5-0.6-2.5c0-1,0.2-1.8,0.6-2.5c0.4-0.7,0.9-1.2,1.6-1.6c0.7-0.4,1.4-0.6,2.3-0.6c0.8,0,1.6,0.2,2.3,0.6
			c0.7,0.4,1.2,0.9,1.6,1.6c0.4,0.7,0.6,1.5,0.6,2.5C447,408.5,446.8,409.3,446.4,410z"/>
		<path d="M463,401.6c-1-0.6-2.1-0.9-3.4-0.9c-1.3,0-2.4,0.3-3.4,0.9s-1.8,1.4-2.4,2.4s-0.9,2.2-0.9,3.5c0,1.3,0.3,2.5,0.9,3.5
			s1.4,1.8,2.5,2.4c1.1,0.6,2.3,0.9,3.8,0.9c1.1,0,2.1-0.2,3-0.6c0.9-0.4,1.7-0.9,2.3-1.6l-1.3-1.6c-0.5,0.5-1.1,0.9-1.7,1.2
			s-1.4,0.4-2.2,0.4c-1,0-1.8-0.2-2.6-0.6s-1.3-0.9-1.7-1.6c-0.3-0.5-0.5-1.1-0.6-1.7h10.9c0-0.1,0-0.2,0-0.4c0-0.1,0-0.3,0-0.4
			c0-1.4-0.3-2.6-0.8-3.6C464.7,403,463.9,402.2,463,401.6z M457.3,403.3c0.7-0.4,1.4-0.6,2.2-0.6c0.9,0,1.6,0.2,2.3,0.6
			s1.2,0.9,1.5,1.6c0.3,0.5,0.4,1.1,0.5,1.7h-8.6c0.1-0.6,0.2-1.2,0.5-1.7C456.1,404.3,456.6,403.7,457.3,403.3z"/>
		<path d="M486.5,405.7c-0.6-0.4-1.3-0.6-2.1-0.9c-0.8-0.2-1.5-0.4-2.3-0.6s-1.5-0.4-2.1-0.6c-0.6-0.2-1.1-0.5-1.5-0.9
			c-0.4-0.4-0.6-0.9-0.6-1.5c0-0.5,0.1-1,0.4-1.4c0.3-0.4,0.8-0.8,1.4-1c0.6-0.3,1.5-0.4,2.5-0.4c0.8,0,1.6,0.1,2.5,0.3
			c0.8,0.2,1.6,0.6,2.4,1.1l0.8-2c-0.7-0.5-1.6-0.9-2.6-1.2s-2-0.4-3.1-0.4c-1.6,0-2.8,0.2-3.8,0.7c-1,0.5-1.7,1.1-2.2,1.8
			c-0.5,0.8-0.7,1.6-0.7,2.5c0,0.9,0.2,1.7,0.6,2.3c0.4,0.6,0.9,1.1,1.5,1.4s1.3,0.6,2.1,0.9c0.8,0.2,1.5,0.4,2.3,0.6
			c0.8,0.2,1.5,0.4,2.1,0.6c0.6,0.2,1.1,0.5,1.5,0.9c0.4,0.4,0.6,0.9,0.6,1.5c0,0.5-0.2,1-0.5,1.4c-0.3,0.4-0.8,0.7-1.4,1
			c-0.6,0.2-1.5,0.4-2.5,0.4c-1.1,0-2.2-0.2-3.3-0.6c-1-0.4-1.9-0.9-2.6-1.5l-0.9,2c0.7,0.7,1.7,1.2,2.9,1.6
			c1.2,0.4,2.5,0.6,3.9,0.6c1.5,0,2.8-0.2,3.9-0.7c1-0.5,1.8-1.1,2.3-1.8c0.5-0.8,0.7-1.6,0.7-2.5c0-0.9-0.2-1.7-0.6-2.3
			S487.2,406.1,486.5,405.7z"/>
		<path d="M496.9,400.7c-1.1,0-2.1,0.1-3,0.4s-1.8,0.7-2.5,1.3l1,1.8c0.5-0.4,1.2-0.8,1.9-1c0.8-0.3,1.5-0.4,2.3-0.4
			c1.2,0,2.1,0.3,2.7,0.8c0.6,0.6,0.9,1.4,0.9,2.4v0.5h-3.8c-1.3,0-2.4,0.2-3.2,0.5c-0.8,0.4-1.3,0.8-1.7,1.4
			c-0.3,0.6-0.5,1.2-0.5,2c0,0.8,0.2,1.4,0.6,2s1,1.1,1.7,1.4c0.7,0.3,1.6,0.5,2.6,0.5c1.2,0,2.2-0.2,3.1-0.7c0.6-0.3,1-0.7,1.3-1.2
			v1.8h2.3v-8.1c0-1.8-0.5-3.2-1.5-4.1C500.1,401.2,498.7,400.7,496.9,400.7z M498.7,411.9c-0.7,0.4-1.5,0.6-2.4,0.6
			c-0.9,0-1.7-0.2-2.2-0.6c-0.5-0.4-0.8-0.9-0.8-1.6c0-0.6,0.2-1.1,0.6-1.5s1.2-0.6,2.5-0.6h3.7v1.9
			C499.9,410.9,499.4,411.5,498.7,411.9z"/>
		<polygon points="511.6,411.6 507,400.9 504.5,400.9 510.4,414.2 512.8,414.2 518.7,400.9 516.3,400.9 		"/>
		<path d="M529.5,401.6c-1-0.6-2.1-0.9-3.4-0.9c-1.3,0-2.4,0.3-3.4,0.9s-1.8,1.4-2.4,2.4s-0.9,2.2-0.9,3.5c0,1.3,0.3,2.5,0.9,3.5
			s1.4,1.8,2.5,2.4c1.1,0.6,2.3,0.9,3.8,0.9c1.1,0,2.1-0.2,3-0.6c0.9-0.4,1.7-0.9,2.3-1.6l-1.3-1.6c-0.5,0.5-1.1,0.9-1.7,1.2
			s-1.4,0.4-2.2,0.4c-1,0-1.8-0.2-2.6-0.6s-1.3-0.9-1.7-1.6c-0.3-0.5-0.5-1.1-0.6-1.7h10.9c0-0.1,0-0.2,0-0.4c0-0.1,0-0.3,0-0.4
			c0-1.4-0.3-2.6-0.8-3.6C531.3,403,530.5,402.2,529.5,401.6z M523.8,403.3c0.7-0.4,1.4-0.6,2.2-0.6c0.9,0,1.6,0.2,2.3,0.6
			s1.2,0.9,1.5,1.6c0.3,0.5,0.4,1.1,0.5,1.7h-8.6c0.1-0.6,0.2-1.2,0.5-1.7C522.6,404.3,523.2,403.7,523.8,403.3z"/>
		<path d="M547.7,412.4c-0.7,0-1.2-0.2-1.6-0.6c-0.4-0.4-0.5-0.9-0.5-1.7v-7.3h3.8v-2h-3.8v-2.9h-2.4v2.9h-2.3v2h2.3v7.4
			c0,1.3,0.4,2.4,1.1,3.1s1.8,1.1,3.1,1.1c0.6,0,1.1-0.1,1.6-0.2c0.5-0.2,1-0.4,1.3-0.7l-0.8-1.7
			C549.1,412.1,548.5,412.4,547.7,412.4z"/>
		<path d="M563.3,401.4c-0.8-0.4-1.8-0.6-2.9-0.6c-1.2,0-2.3,0.2-3.2,0.7c-0.6,0.3-1.1,0.8-1.5,1.3v-7.3h-2.4v18.7h2.4v-6.9
			c0-1,0.2-1.8,0.5-2.5c0.3-0.7,0.8-1.2,1.5-1.5c0.6-0.3,1.4-0.5,2.2-0.5c1.1,0,2,0.3,2.7,1c0.6,0.7,0.9,1.6,0.9,2.9v7.4h2.4v-7.7
			c0-1.3-0.2-2.4-0.7-3.3C564.8,402.4,564.2,401.8,563.3,401.4z"/>
		<path d="M579.4,401.6c-1-0.6-2.1-0.9-3.4-0.9c-1.3,0-2.4,0.3-3.4,0.9s-1.8,1.4-2.4,2.4s-0.9,2.2-0.9,3.5c0,1.3,0.3,2.5,0.9,3.5
			s1.4,1.8,2.5,2.4c1.1,0.6,2.3,0.9,3.8,0.9c1.1,0,2.1-0.2,3-0.6c0.9-0.4,1.7-0.9,2.3-1.6l-1.3-1.6c-0.5,0.5-1.1,0.9-1.7,1.2
			s-1.4,0.4-2.2,0.4c-1,0-1.8-0.2-2.6-0.6s-1.3-0.9-1.7-1.6c-0.3-0.5-0.5-1.1-0.6-1.7h10.9c0-0.1,0-0.2,0-0.4c0-0.1,0-0.3,0-0.4
			c0-1.4-0.3-2.6-0.8-3.6C581.2,403,580.4,402.2,579.4,401.6z M573.7,403.3c0.7-0.4,1.4-0.6,2.2-0.6c0.9,0,1.6,0.2,2.3,0.6
			s1.2,0.9,1.5,1.6c0.3,0.5,0.4,1.1,0.5,1.7h-8.6c0.1-0.6,0.2-1.2,0.5-1.7C572.6,404.3,573.1,403.7,573.7,403.3z"/>
		<path d="M596.2,400.5c0.6-0.6,1.4-1.1,2.2-1.4s1.8-0.5,2.8-0.5c1,0,1.9,0.2,2.7,0.5c0.8,0.3,1.6,0.9,2.3,1.6l1.6-1.6
			c-0.8-0.9-1.8-1.6-2.9-2.1c-1.2-0.5-2.4-0.7-3.8-0.7c-1.3,0-2.6,0.2-3.7,0.7c-1.1,0.4-2.1,1.1-3,1.9c-0.8,0.8-1.5,1.8-2,2.9
			s-0.7,2.3-0.7,3.6c0,1.3,0.2,2.5,0.7,3.6c0.5,1.1,1.1,2.1,2,2.9c0.8,0.8,1.8,1.4,3,1.9c1.1,0.4,2.4,0.7,3.7,0.7
			c1.4,0,2.6-0.2,3.8-0.7c1.2-0.5,2.1-1.2,2.9-2.1l-1.6-1.6c-0.7,0.7-1.4,1.3-2.3,1.6c-0.8,0.3-1.7,0.5-2.7,0.5
			c-1,0-1.9-0.2-2.8-0.5s-1.6-0.8-2.2-1.4s-1.1-1.3-1.5-2.2c-0.3-0.8-0.5-1.7-0.5-2.7c0-1,0.2-1.9,0.5-2.7
			C595.1,401.9,595.6,401.1,596.2,400.5z"/>
		<path d="M621.1,401.4c-0.8-0.4-1.8-0.6-2.9-0.6c-1.2,0-2.3,0.2-3.2,0.7c-0.6,0.3-1.1,0.8-1.5,1.3v-7.3H611v18.7h2.4v-6.9
			c0-1,0.2-1.8,0.5-2.5c0.3-0.7,0.8-1.2,1.5-1.5c0.6-0.3,1.4-0.5,2.2-0.5c1.1,0,2,0.3,2.7,1c0.6,0.7,0.9,1.6,0.9,2.9v7.4h2.4v-7.7
			c0-1.3-0.2-2.4-0.7-3.3C622.6,402.4,621.9,401.8,621.1,401.4z"/>
		<path d="M629.5,395.1c-0.5,0-0.9,0.2-1.2,0.5c-0.3,0.3-0.5,0.7-0.5,1.1c0,0.4,0.2,0.8,0.5,1.1c0.3,0.3,0.7,0.5,1.2,0.5
			c0.5,0,0.9-0.2,1.2-0.5c0.3-0.3,0.5-0.7,0.5-1.1c0-0.4-0.2-0.8-0.5-1.1C630.3,395.3,629.9,395.1,629.5,395.1z"/>
		<rect x="628.2" y="400.9" width="2.4" height="13.4"/>
		<rect x="635.3" y="395.5" width="2.4" height="18.7"/>
		<path d="M652.5,402.9c-0.5-0.6-1-1.1-1.6-1.4c-0.9-0.5-1.9-0.8-3.1-0.8c-1.3,0-2.5,0.3-3.5,0.9c-1,0.6-1.8,1.4-2.4,2.4
			s-0.9,2.2-0.9,3.6s0.3,2.6,0.9,3.6s1.4,1.8,2.4,2.4c1,0.6,2.2,0.9,3.5,0.9c1.2,0,2.2-0.3,3.1-0.8c0.7-0.4,1.2-0.9,1.7-1.5v2.1h2.3
			v-18.7h-2.4V402.9z M652,410c-0.4,0.7-0.9,1.3-1.6,1.7s-1.4,0.6-2.3,0.6c-0.9,0-1.6-0.2-2.3-0.6s-1.2-0.9-1.6-1.7
			c-0.4-0.7-0.6-1.5-0.6-2.5c0-1,0.2-1.8,0.6-2.5c0.4-0.7,0.9-1.2,1.6-1.6c0.7-0.4,1.4-0.6,2.3-0.6c0.8,0,1.6,0.2,2.3,0.6
			c0.7,0.4,1.2,0.9,1.6,1.6c0.4,0.7,0.6,1.5,0.6,2.5C652.6,408.5,652.4,409.3,652,410z"/>
		<path d="M661.9,403.1v-2.3h-2.3v13.4h2.4v-6.7c0-1.5,0.4-2.6,1.1-3.4c0.8-0.8,1.8-1.2,3.1-1.2c0.1,0,0.2,0,0.3,0
			c0.1,0,0.2,0,0.3,0v-2.3c-1.3,0-2.4,0.2-3.2,0.7C662.8,401.9,662.3,402.4,661.9,403.1z"/>
		<path d="M678.5,401.6c-1-0.6-2.1-0.9-3.4-0.9c-1.3,0-2.4,0.3-3.4,0.9s-1.8,1.4-2.4,2.4s-0.9,2.2-0.9,3.5c0,1.3,0.3,2.5,0.9,3.5
			s1.4,1.8,2.5,2.4c1.1,0.6,2.3,0.9,3.8,0.9c1.1,0,2.1-0.2,3-0.6c0.9-0.4,1.7-0.9,2.3-1.6l-1.3-1.6c-0.5,0.5-1.1,0.9-1.7,1.2
			s-1.4,0.4-2.2,0.4c-1,0-1.8-0.2-2.6-0.6s-1.3-0.9-1.7-1.6c-0.3-0.5-0.5-1.1-0.6-1.7h10.9c0-0.1,0-0.2,0-0.4c0-0.1,0-0.3,0-0.4
			c0-1.4-0.3-2.6-0.8-3.6C680.3,403,679.5,402.2,678.5,401.6z M672.9,403.3c0.7-0.4,1.4-0.6,2.2-0.6c0.9,0,1.6,0.2,2.3,0.6
			s1.2,0.9,1.5,1.6c0.3,0.5,0.4,1.1,0.5,1.7h-8.6c0.1-0.6,0.2-1.2,0.5-1.7C671.7,404.3,672.2,403.7,672.9,403.3z"/>
		<path d="M697.1,403.3c-0.5-0.9-1.1-1.5-2-1.9s-1.8-0.6-2.9-0.6c-1.2,0-2.3,0.2-3.2,0.7c-0.7,0.4-1.2,0.8-1.6,1.4v-2h-2.3v13.4h2.4
			v-6.9c0-1,0.2-1.8,0.5-2.5c0.3-0.7,0.8-1.2,1.5-1.5c0.6-0.3,1.4-0.5,2.2-0.5c1.1,0,2,0.3,2.7,1c0.6,0.7,0.9,1.6,0.9,2.9v7.4h2.4
			v-7.7C697.8,405.2,697.6,404.1,697.1,403.3z"/>
	</g>
</g>
<g id="guías" class="st2">
</g>
</svg>
