<?xml version="1.0" encoding="UTF-8"?>
<svg id="uuid-a608711a-a07d-4744-b44c-504e95dda0e5" data-name="Capa 1" xmlns="http://www.w3.org/2000/svg" viewBox="0 0 600 189">
  <defs>
    <style>
      .uuid-11a079a8-5a3e-4ef5-810c-f73417c718cf {
        fill: #0017ec;
      }
    </style>
  </defs>
  <path class="uuid-11a079a8-5a3e-4ef5-810c-f73417c718cf" d="M96.2341621446,165.5962567677c-32.7548623139,0-57.3852760494-39.8643276095-57.3852760494-82.2686337001,0-45.1972284868,26.9156153746-61.4479585703,46.9747093686-61.4479585703,24.1217765149,0,40.8806855873,15.9968697049,50.5296711323,41.1345459659h3.0467827748l10.410108449-40.8806855873C134.0680649571,7.4068735274,111.7228528606.29695,91.1555798776.29695,39.3566068523.29695,0,39.6540150841,0,93.7381897484c0,52.8144145396,38.8488860952,93.4412397484,91.1555798776,93.4412397484,30.4701189066,0,49.514229618-12.4419079412,61.9556793275-24.1217765149l-19.8047753837-19.8056918472c-7.363783906,11.6803268054-19.0441107114,22.3442956331-37.0723216768,22.3442956331Z"/>
  <path class="uuid-11a079a8-5a3e-4ef5-810c-f73417c718cf" d="M398.1373882649,3.8519117637h-39.1032047055l2.5381455542,19.8052336155-79.9861814515,129.5686875973-17.7693100377,10.085680384h-58.9084383209v-70.3349047478h45.1967702551l13.2039473087,6.6017445385,5.078582267-31.4860186526-18.7897921011,5.5867612559h-44.6895077296V23.9110057577h57.639136428l18.5359317225,6.0940237813-6.6022027702-26.1531177754h-115.5321332346l8.8869461775,19.2975128583v140.9236698742l-8.8869461775,19.5518314686h139.1448142971l1.0149832826-16.5045904621,17.5209484399-29.4546773922h60.4316005925l4.0626825209,29.7085377708-6.3478841599,16.2507300835h58.4007175638l-11.1721478165-19.0441107114L398.1373882649,3.8519117637ZM329.3251875569,116.0829436132l36.5641426879-61.7018189489,8.3796836521,61.7018189489h-44.9438263399Z"/>
  <path class="uuid-11a079a8-5a3e-4ef5-810c-f73417c718cf" d="M535.5047216802,1.8201122715c-56.8775552922,0-103.0902252934,50.0219503752-103.0902252934,106.8990474357,0,45.1972284868,31.7398790312,79.9838902928,81.5075107961,79.9838902928,30.7239792851,0,53.0682749182-14.7271095802,64.7486017237-24.6299555038l-16.7584508407-24.3760951252c-7.8719628949,12.4419079412-24.3756368935,27.6771965104-44.1817869724,27.6771965104-28.1844590358,0-45.1967702551-27.9310568889-45.1967702551-62.717718695,0-37.3257238236,21.328395887-81.5070525643,58.9084383209-81.5070525643,25.6453970182,0,43.1658872264,13.9655284445,50.0210339117,43.4197476049h3.3011013851l15.2357468009-41.3884063445c-15.4891489477-17.0123112193-38.3416235697-23.3606536109-64.4951995768-23.3606536109Z"/>
</svg>