<?xml version="1.0" encoding="utf-8"?>
<!-- Generator: Adobe Illustrator 27.9.3, SVG Export Plug-In . SVG Version: 9.03 Build 53313)  -->
<svg version="1.1" id="Capa_1" xmlns="http://www.w3.org/2000/svg" xmlns:xlink="http://www.w3.org/1999/xlink" x="0px" y="0px"
	 viewBox="0 0 1190.55 344.11" style="enable-background:new 0 0 1190.55 344.11;" xml:space="preserve">
<style type="text/css">
	.st0{fill:#FFFFFF;}
</style>
<g>
	<g>
		<defs>
			<rect id="SVGID_1_" x="35.48" y="12.57" width="1118.52" height="319.58"/>
		</defs>
		<clipPath id="SVGID_00000155844327906561283470000003715262278665482160_">
			<use xlink:href="#SVGID_1_"  style="overflow:visible;"/>
		</clipPath>
	</g>
	<path class="st0" d="M228.34,146.81c-0.48-0.69-0.93-1.4-1.38-2.11c-0.71-1.11-1.44-2.27-2.27-3.36c-1.28-1.67-2.6-3.32-3.92-4.97
		l-0.17-0.21c-1.51-1.88-3.02-3.77-4.49-5.7l-0.5-0.65c-0.74-0.95-1.76-2.26-1.8-3.05c-0.12-2.21,0.15-4.5,0.43-6.92l0.07-0.6
		l6.14,2.18l-2.48-4.62c-0.58-1.09-1.04-2.23-1.51-3.45c-1.05-2.67-2.14-5.42-4.58-7.66c0.09-0.15,0.16-0.32,0.22-0.49
		c0.47-1.38-0.14-2.7-0.66-3.62c-1.1-1.92-2.25-3.9-3.88-5.31c-4.73-4.07-8.98-9.14-12.98-15.5c-1.95-3.09-4.61-4.74-7.71-4.77
		c-1.25-0.01-2.51-0.05-3.8-0.09c-1.61-0.05-3.23-0.09-4.86-0.09c-3.02,0-5.46,0.16-7.67,0.51c-7.32,1.14-14.62,2.94-21.8,4.71
		l-2.49,0.61c-7.27,1.79-14.67,4.39-19.51,11.19c-1.72,2.42-3.98,4.2-6.42,6.12c-0.91,0.71-1.81,1.43-2.69,2.18
		c-1.31,1.12-2.76,2.07-4.37,3.12c-2.79,1.82-5.67,3.7-7.89,6.74c-2.97,4.07-3.97,8.2-3.08,12.65c1.13,5.61,4.1,10.56,9.35,15.57
		c0.67,0.64,1.36,1.26,2.04,1.89c2.62,2.38,5.1,4.63,6.61,7.83c0.34,0.72,0.7,1.37,1.07,1.95l-1.16-0.09l0.96,2.91
		c0.01,0.04,0.02,0.08,0.03,0.11c-0.32,0.06-0.98,0.1-1.98,0.03l-6.45-0.46l5.07,4.07c0.41,0.33,0.78,0.65,1.14,0.96v4.01l-4.7-1.76
		l2.52,5.39l-1.6,2.06l0.16,1.31l-3.04-0.79l7.46,10.67l-4.54,3.91l6.08-0.44c0.54-0.04,0.96-0.06,1.31-0.06
		c0.93,0,1.24,0.14,2.96,1.01l1.81,0.9c1.45,0.7,3.01,0.99,4.5,1.18l0.31,0.39c0.5,2.71,2.23,4.25,4.76,4.25c0.08,0,0.15,0,0.23,0
		l2.79,2.49c-0.34,0.45-0.68,0.9-1.02,1.36l-0.22,0.3c-1.68,2.24-3.41,4.56-5.36,6.5c-1.92,1.91-4.16,3.71-6.13,5.3
		c-1.76,1.41-3.58,2.88-5.3,4.47c-1.71,1.59-3.2,2.96-5.28,3.65c-2,0.67-3.71,2.2-4.79,3.37c-2.98,3.22-5.2,6.25-7.04,9.59
		c-0.39,0.7-0.73,1.32-1.13,1.83c-0.64,0.29-1.24,0.89-1.89,1.52c-0.22,0.22-0.44,0.44-0.67,0.6c-1.22,0.9-1.57,1.93-1.65,2.63
		c-0.18,1.68,0.91,2.93,1.62,3.75c6.53,7.61,13.84,13.65,21.71,17.95c12.24,6.68,25.55,10.9,39.55,12.55
		c3.11,0.37,6.27,0.55,9.37,0.55c10.52,0,21-2.06,32.04-6.29c1.5-0.58,2.93-1.34,4.33-2.09l0.79-0.42c0.3-0.16,2.1-0.71,2.72-0.84
		l2.52-0.53l-0.87-1.81l0.49-0.33l1.27,2.26l1.8-2.72l0.51-0.86c2.68-0.99,6.54-3.87,8.16-6.74l0.68-1.19l-4.61-5.9
		c-2.15-2.75-4.31-5.51-6.44-8.28c-0.89-1.15-1.73-2.34-2.57-3.53c-2.49-3.53-5.06-7.19-8.88-9.87c-0.25-0.29-0.53-1.65-0.64-2.18
		l-0.2-0.91c-0.08-0.32-0.07-0.78-0.06-1.27c0.01-0.6,0.03-1.33-0.12-2.11c-0.93-4.71,1.28-8.59,3.62-12.71l0.84-1.5
		c0.12-0.06,0.27-0.13,0.41-0.18l0.74-0.32c1.91-0.84,3.83-1.69,5.77-2.45c4.18-1.63,7.64-5.36,8.84-9.5
		c0.99-3.42,0.4-6.87-1.63-9.65c-0.04-0.09-0.09-0.34-0.12-0.49c1.67-1.58,4.75-4.83,2.77-9.38c1.17-3,0.03-5.44-1.13-7.51
		c0.24,0.03,0.49,0.05,0.73,0.05c0.56,0,1.08-0.09,1.55-0.28c2.14-0.84,3.77-2.67,4.47-5.01
		C230.26,151.78,229.83,148.97,228.34,146.81L228.34,146.81z M194.05,222.89c0.07-0.11,0.14-0.2,0.17-0.19
		c3.83,1.18,5.02,0.11,4.84-4.02c-0.18-3.99-0.15-7.99-0.14-11.98c0-0.71,0.21-1.51,0.57-2.12c1.55-2.65,2.79-5.68,4.92-7.74
		c1.91-1.86,4.74-3.02,7.35-3.76c3.69-1.04,5.52-3.83,7.14-6.76c1.48-2.68,0.38-5.32-1.08-7.8c-0.6-1.03-0.76-2.4-1.51-3.29
		c-0.85-1.01-2.12-1.64-3.52-2.66c1.72,0.19,3.33,0.36,4.94,0.53c-0.02,0.16-0.03,0.32-0.05,0.49c0.14-0.09,0.31-0.14,0.41-0.27
		c0.93-1.15,3.4-2.31,2.06-3.62c-1.24-1.21-3.86-1.07-5.89-1.29c-0.86-0.09-1.78,0.39-2.67,0.61c-0.09-0.36-0.18-0.73-0.26-1.09
		c1.7-0.36,3.4-1.01,5.09-1c3.62,0.03,5.02-1.8,3.77-5.22c-0.48-1.31-0.74-2.7-0.73-4.15c1.11,3.11,4.3,5.75,2.2,9.58
		c2.07,3.58,0.14,5.93-2.31,8.28c-0.42,0.4-0.24,2.05,0.23,2.7c4.34,5.98-0.05,13.67-6.28,16.11c-2.15,0.84-4.27,1.78-6.39,2.72
		c-0.52,0.23-1.19,0.47-1.43,0.92c-2.71,4.91-6.03,9.65-4.81,15.82c0.22,1.12-0.05,2.35,0.2,3.45c0.35,1.49,0.58,3.53,1.6,4.25
		c4.83,3.41,7.57,8.52,11.05,13.03c3.39,4.4,6.83,8.77,10.22,13.11c-1.45,2.56-5.13,5.24-7.66,6.09c-0.32,0.1-0.55,0.77-0.7,1.04
		c-0.07,0.13-0.16,0.23-0.24,0.35C208.38,242.92,202.98,229.22,194.05,222.89L194.05,222.89z M139.07,189.54
		c7.16,1.74,11.4-3.1,15.7-6.98c2.56-2.3,4.14-5.72,6.15-8.64c3.13-0.53,5.42,0.77,8.23,2.34c4.56,2.55,7.7,6.73,12.15,9.16
		c1.82,1,3.96,1.39,5.97,2.03c3.44,1.09,7,1.87,10.3,3.29c4.48,1.93,8.75,2.03,13.13-0.03c0.37-0.18,0.78-0.29,1.17-0.42
		c0.05-0.01,0.13,0.09,0.84,0.55c-3.67,1.26-6.9,2.38-9.95,3.43c-0.7,2.38-1.44,4.92-2.19,7.45c-0.33-0.09-0.65-0.19-0.97-0.27
		c0.26-0.87,0.51-1.73,0.77-2.6c0.91-2.97-0.25-4.91-3.3-5.39c-2.68-0.42-5.38-0.72-8.06-1.15c-1-0.17-1.96-0.55-2.84-1.18
		c1.62,0.17,3.23,0.34,4.86,0.51c1.5,0.15,3,0.3,4.53,0.19c-2.01-1.81-4.42-2.08-6.86-1.82c-2.34,0.24-4.22-0.48-6.28-1.6
		c-1.41-0.76-2.81-1.56-4.21-2.34c-0.72-0.27-1.86-0.61-3.29-0.71c-0.42-0.03-0.87-0.03-1.34-0.02l-10.81-3.75l3.68,6.29l-9.1-2.34
		l5.56,6.45c0,0,0,0,0,0l0.3,0.35l-0.44-0.09v0l-9.52-2.04l6.36,6.67h0l-9.78-2.9l2.9,4.31c-4.09,0.94-10.1,3.04-13.66,4.43
		c0,0-11.93,8.62-15.3,11.32c0.58,0.23,0.86,0.45,1.13,0.44c10.28-0.43,20.41,0.85,30.4,3.14c9.87,2.25,19.49,5.15,28.48,10.16
		c1.25,0.7,3.2,1.19,5.14,0.81c0.22-0.39,0.44-0.79,0.64-1.17c-0.06,0.05-0.12,0.09-0.18,0.14c-0.2-1.92,0.3-2.97,1.77-3.19
		c12.49,8.45,14.75,21.86,20.07,32.91c-0.62,0.13-2.67,0.72-3.23,1.02c-1.64,0.87-3.22,1.76-4.9,2.41
		c-13.06,5.01-26.43,7.27-40.47,5.62c-13.77-1.63-26.71-5.71-38.83-12.32c-8.03-4.38-14.98-10.31-20.98-17.3
		c-0.86-1-2.21-2.33-0.48-3.6c0.85-0.62,1.64-1.76,2.63-2.13c0.03-0.04,0.07-0.07,0.1-0.12c0.63-0.72,1.1-1.58,1.56-2.42
		c1.85-3.37,4.1-6.3,6.72-9.13c1.09-1.18,2.48-2.34,3.96-2.83c2.45-0.82,4.16-2.38,6-4.08c3.69-3.42,7.93-6.28,11.49-9.82
		c3-2.99,5.37-6.62,7.97-9.9C141.25,191.4,140.16,190.47,139.07,189.54L139.07,189.54z M187.33,132.99
		c0.67,0.26,1.31,0.51,2.28,0.88c-3.22,0.71-5.51,3.73-6.44,4.86c-0.19-0.24-0.4-1.43,0.74-3.15c1.72-2.58,3.02-5.44,4.52-8.18
		c2.27-4.14,9.04-7.46,13.94-6.89c1.05,0.12,2.11,0.19,3.59,0.32v3.75c-2.16-2.42-4.75-2.67-7.36-1.43
		c-3.55,1.7-5.83,4.92-8.82,7.29C188.91,131.15,188.21,132.06,187.33,132.99L187.33,132.99z M201.07,136.19
		c-0.65-1.13-1.21-2.1-1.91-3.33c-1.69,1.02-3.33,2.02-4.97,3.01c-0.11-0.17-0.22-0.35-0.34-0.52c2.59-3.11,5.18-6.22,7.45-8.94
		c-0.05,0-0.1,0-0.16,0c0.19-0.16,0.39-0.32,0.54-0.48c0.53-0.57,1.03-1.28,1.43-2.04c0.73,0.34,1.23,1.08,1.28,1.88
		c0.05,0.89,0.07,1.8,0.06,2.7c-0.06-0.04-0.14-0.09-0.2-0.14c-0.14-0.11-0.23-0.34-0.09-0.45c-0.55-0.07-1.06,0.32-1.43,0.74
		c-0.43,0.49-0.79,1.08-0.82,1.73c-0.04,1.07,1,2.04,2.04,1.92c0.1-0.01,0.19-0.03,0.28-0.07c-0.09,0.71-0.21,1.41-0.35,2.1
		c-0.6,2.83-3.11,3.95-7.07,3.51c1.1-0.45,1.72-0.73,2.36-0.97C199.75,136.63,200.36,136.43,201.07,136.19L201.07,136.19z
		 M173.01,142.97c0.1,1.07,0.95,2.07,1.09,3.43c-1.51-2.12-3.01-4.25-4.51-6.36c1.55,0.23,3.16,0.47,4.51,0.67
		C173.81,141.25,172.94,142.16,173.01,142.97L173.01,142.97z M172.62,136.46c-5.21-1.27-6.51-3.2-5.65-7.41
		c0.62,1.33,1.32,2.81,2.22,4.72c0.85-3.66,1.52-6.52,2.18-9.38c0.3,0.05,0.6,0.1,0.9,0.15
		C170.91,128.43,169.6,132.31,172.62,136.46L172.62,136.46z M160.17,138.7c0.26,0.1,0.52,0.2,0.78,0.3c1.15-2.06,2.3-4.11,3.34-5.95
		c1.54,3.23-2,9.27-7.49,9.58c2.63-1.95,2.47-4.23,1.59-6.67c-0.1-0.29,0.23-0.74,0.39-1.14
		C159.24,136.11,159.71,137.4,160.17,138.7L160.17,138.7z M158.77,134.82c0-0.01,0-0.01-0.01-0.02c0,0,0.03-0.03,0.02-0.01
		C158.78,134.8,158.77,134.81,158.77,134.82L158.77,134.82z M165.28,142.67c0.44-2.07,0.09-4.32,0.46-6.48
		c1.43,8.25,0.83,10.35-2.94,12.31C163.62,146.65,164.84,144.75,165.28,142.67L165.28,142.67z M168.06,147.84
		c-0.6,2.91-3.3,5.4-7.23,6.33c-3.95,0.94-7.43,0.09-9.7-2.87c1.91-0.41,4.42-0.28,5.94-1.45c1.57-1.2,2.19-3.69,3.21-5.61
		c0.12,0,0.22-0.01,0.33-0.01c-0.64,2.65-1.28,5.29-1.94,8.01C161.05,153.53,164.62,151.96,168.06,147.84L168.06,147.84z
		 M146.29,145.27c2.94,2.9,6.46,1.88,9.97,2.02c-5.04,2.04-9.88,1.18-15.1-3.55c1.48-0.18,3.03-0.16,4.41-0.64
		c3.04-1.04,6-2.34,8.95-3.51c-0.63,0.49-1.43,1.14-2.24,1.76c-0.99,0.74-1.98,1.5-3.01,2.18
		C148.34,144.15,147.34,144.66,146.29,145.27L146.29,145.27z M133.59,153.94c0.99-0.4,1.98-0.81,3.59-1.47
		c-1.8,1.7-3.06,2.9-4.33,4.09c0.07,0.28,0.13,0.56,0.19,0.85c1.53,0.2,3.06,0.41,4.77,0.63c-0.73,1.19-1.48,2.39-2.21,3.56
		c3.33,3.51,3.72,4.19,9.5-1.29c-0.53,1.04-1.03,2.1-1.59,3.12c-0.6,1.08-1.26,2.12-2.15,3.62h7.01c-3.87,2.36-5.44,2.35-13.04-0.32
		c0.78-0.29,1.26-0.46,1.57-0.58c-2.39-1.89-4.5-3.57-6.68-5.29c0.89-0.37,1.9-0.78,3.41-1.41c-2.02-0.85-3.57-1.51-5.13-2.17
		C130.28,156.12,131.93,155.03,133.59,153.94h-0.01C133.58,153.93,133.59,153.93,133.59,153.94
		C133.59,153.93,133.59,153.93,133.59,153.94L133.59,153.94z M129.98,167.02c-2.25-1-3.75-2.6-4.04-5.27
		c1.65,2.51,3.58,4.41,7.01,4.09C131.96,166.22,130.97,166.62,129.98,167.02c0.01,0.01,0.02,0.01,0.03,0.02
		C130,167.03,129.98,167.02,129.98,167.02C129.98,167.02,129.98,167.02,129.98,167.02L129.98,167.02z M129.99,167.02l0.08,0.04
		c-0.04,0-0.09-0.01-0.13-0.01C129.96,167.04,129.97,167.03,129.99,167.02L129.99,167.02z M139.21,181.47
		c1.25,0.52,2.4,0.99,3.65,1.48c-3.22,0.96-5.66-0.19-7.75-3.69c3.8-0.21,5.91-2.75,7.69-5.74l0.66,0.43
		C142.11,176.34,140.76,178.72,139.21,181.47L139.21,181.47z M131.49,168.22c1.63,0.35,3.05,0.78,4.49,0.95
		c1.31,0.15,2.65,0.03,3.96,0.03c0.04,0.23,0.08,0.46,0.12,0.69c-1.49,0.59-3,1.18-4.49,1.77c-0.09,0.21-0.19,0.42-0.28,0.63
		c1.77,0.68,3.54,1.36,5.03,1.93C136.5,175.76,132.89,173.33,131.49,168.22L131.49,168.22z M160.95,173.88
		c-1.44,0.41-2.87,0.81-4.13,1.17c1.98-1.8,3.93-3.58,5.89-5.35l-0.77,2.2c1.45-1.1,2.58-1.96,3.72-2.81
		c0.16,0.19,0.31,0.37,0.47,0.56C164.4,171.05,162.67,172.47,160.95,173.88L160.95,173.88l-0.06,0.04
		C160.91,173.91,160.93,173.9,160.95,173.88L160.95,173.88z M167,165.28c2.38,0.58,3.35-1.69,5.02-2.72
		c-1.05,2.2-2.41,4.2-4.76,4.94c-2.33,0.74-4.74,0.64-6.88-1.28c4.97-0.09,6.07-3.63,6.8-7.53c0.22,0.07,0.44,0.13,0.66,0.2
		C167.57,160.97,167.29,163.05,167,165.28L167,165.28z M157.07,160.82c-0.02,0.02-0.05,0.04-0.07,0.06
		c-0.04-0.02-0.08-0.03-0.12-0.05C156.94,160.82,157.01,160.82,157.07,160.82L157.07,160.82c0.84-0.78,1.69-1.55,2.7-2.48
		c0.08,1.45,0.17,2.87,0.26,4.27c3.34-0.75,3.9-1.66,4.44-7.06c1.04,1.85,0.4,5.86-1.21,7.63c-1.83,2.01-4.58,2.5-6.61,1.48
		C156.81,163.24,156.94,162.03,157.07,160.82L157.07,160.82z M154.49,160.04c0.63-0.23,1.57,0.46,2.39,0.79
		c-1.07,0.14-2.21,0.1-3.13,0.54c-1.03,0.51-1.81,1.53-2.71,2.33c0.93,0.96,1.83,1.96,2.8,2.88c0.31,0.29,0.82,0.37,1.43,0.62
		c-2.32,0.48-2.32,0.48-7.94-4.05C149.83,162.04,152.1,160.86,154.49,160.04L154.49,160.04z M148.45,154.03
		c1.65,0.41,3.27,0.81,4.79,1.19C150.49,156.76,149.28,156.44,148.45,154.03L148.45,154.03z M154.33,171.94
		c-2.6,1.38-5.23,1.67-7.73,0.02c1.76-1.62,3.31-3.04,5.01-4.6c-0.33,1.28-0.63,2.4-0.96,3.7c3.12,0.38,5.07-1.01,6.68-3.22
		C157.41,169.59,156.64,170.71,154.33,171.94L154.33,171.94z M155.7,174.58c-2.56,3.98-7.42,6.7-11.78,7.01
		c0.22-2.07,0.45-4.18,0.7-6.61c0.1,0.24,0.2,0.58,0.39,0.85c2.23,3.29,3.22,3.52,6.71,1.43
		C152.93,176.53,154.07,175.68,155.7,174.58L155.7,174.58z M135.25,149.05h9.29c-4.15,2.52-4.15,2.52-3.38,3.74
		c0.54-0.48,1.05-0.94,1.57-1.4c0.16,0.09,0.33,0.19,0.49,0.28c-0.62,1.32-1.23,2.64-2.19,4.72c2.61,0.66,5.05,1.28,7.41,1.88
		c-4.14,1.22-7.93,0.15-11.79-2.5c1.31-0.69,2.39-1.27,3.7-1.96C138.6,152.17,137.09,150.76,135.25,149.05L135.25,149.05z
		 M169.91,155.13c2.87,2.27,5.58,1.37,7.18-2.42c0,2.77-0.82,4.05-3.06,4.81c-3.42,1.16-5.68,0.32-7.89-2.61
		c2.23-1.77,4.46-3.54,6.68-5.3c0.11,0.03,0.22,0.05,0.33,0.07C172.06,151.49,170.99,153.31,169.91,155.13L169.91,155.13z
		 M134.07,185.3c6.39,3.09,13.1,0.94,20.6-6.79c-1.9,5.32-5.77,7.46-10.03,8.87c-2.28,0.76-4.81,0.83-7.24,1.05
		C135.29,188.63,134.29,187.44,134.07,185.3L134.07,185.3z M120.96,165.36v-5.95c2.87,3.37,4.49,7.33,8.98,7.64
		c-0.53,0.23-1.14,0.72-1.57,0.59c-1.46-0.44-2.86-1.11-4.28-1.7c-0.17,0.2-0.35,0.4-0.52,0.61c0.81,0.44,1.63,0.89,2.44,1.33
		c-0.13,0.14-0.26,0.28-0.39,0.42c-0.94,0.04-1.89,0.09-2.83,0.13c-0.18,0.21-0.37,0.43-0.55,0.64c1.41,1.89,2.82,3.78,4.25,5.69
		h-4.63c1.42,3.47,2.85,4.12,7.13,3.35c-0.57-2.43-1.14-4.87-1.71-7.3c0.19-0.16,0.38-0.31,0.58-0.47c2.46,3.34,5.65,5.17,9.73,5.6
		c-2.08,0.42-4.15,0.84-7.06,1.44c1.76,1.68,3.08,2.95,4.3,4.11c-0.53,0.13-1.45,0.38-2.37,0.62c0,0.18,0.01,0.36,0.01,0.53
		c1.28,0.3,2.56,0.58,3.84,0.87l-0.15,0.81c-2.66-0.46-5.57-0.37-7.91-1.5c-4.01-1.94-3.86-2.26-7.08-2.03
		c0.64-0.55,1.07-0.93,1.3-1.12c-1.69-2.42-3.38-4.82-5.37-7.67c1.45,0.38,2.56,0.67,3.61,0.94c-1.2-1.34-2.39-2.67-3.59-4
		c0.14-0.18,0.28-0.36,0.42-0.55c0.89,0.27,1.78,0.54,2.95,0.89c-0.76-1.64-1.44-3.09-2.32-4.96
		C119.25,164.71,119.95,164.98,120.96,165.36L120.96,165.36z M123.05,153.08c3.54,0.29,7.03,0.57,10.53,0.86
		c-2.84,1.11-5.68,2.22-9.12,3.56c2.05,1.49,3.51,2.56,4.98,3.62c-0.08,0.09-0.15,0.18-0.23,0.28c-1.8-0.57-3.73-0.9-5.38-1.78
		c-1.59-0.84-2.9-2.23-4.77-3.74C121.92,156.09,123.89,155.65,123.05,153.08L123.05,153.08z M224.32,157.48
		c-1.19,0.46-2.89-0.33-4.32-0.7c-0.26-0.07-0.33-0.88-0.58-1.63c-1.27,0.78-2.53,2.03-3.98,2.35c-1.46,0.32-3.12-0.28-5.21-0.55
		c-0.32,0.35-1.06,1.19-1.8,2.02c-0.11-0.05-0.22-0.1-0.33-0.15c0.83-2.26,1.48-4.63,2.58-6.74c0.51-0.97,1.94-1.44,2.95-2.14
		c0.14,0.22,0.28,0.44,0.42,0.66c-0.15,0.18-0.26,0.45-0.45,0.53c-1.85,0.79-2.55,2.15-1.6,3.97c0.83,1.6,3.14,1.68,4.8,0.54
		c1.25-0.84,2.64-1.49,4.01-2.12c0.28-0.13,0.75,0.18,1.36,0.35c-0.37,0.78-0.66,1.4-1.23,2.6c1.33-0.14,2.5,0.04,3.34-0.41
		c2.34-1.26,3.03-5.16,1.19-7.51c-4.39-5.58-7.44-12.22-13.13-16.79c-1.93-1.55-2.72-3.93-2.35-6.56c0.29-2.07,0.21-4.22,0.72-6.22
		c0.71-2.74-0.54-3.89-2.94-4.61c-0.44,1.05-0.88,2.09-1.37,3.25c-2.11-1.85-4.09-3.59-6.02-5.27c-1.38,1.27-2.72,2.52-4.13,3.83
		c-0.29-0.62-0.49-1.03-0.67-1.43c-1.5,1.25-2.89,2.4-4.29,3.56c-0.03-0.15-0.12-0.65-0.22-1.14c-0.12-0.55-0.25-1.09-0.44-1.95
		c-1.04,1.35-1.91,2.47-2.81,3.62c-0.36-0.35-0.65-0.63-1.01-0.98c-0.82,1.05-1.62,2.08-2.51,3.22c-0.3-0.5-0.58-0.96-0.83-1.38
		c-1.7,1.48-3.32,2.9-5.04,4.4c-0.03-0.43-0.07-0.92-0.12-1.69c-0.25,0.35-0.44,0.5-0.46,0.67c-0.34,3.54-0.56,7.09-1,10.62
		c-0.4,3.16-2.63,5.3-5.48,5.46c3.83-4.21,1.63-9.38,2.71-14.11c0.19,1.68,0.38,3.35,0.57,5.03c0.2,0.03,0.41,0.05,0.61,0.08
		c0.88-4.03,1.76-8.05,2.78-12.69c-2.96,2.46-5.83,4.68-8.5,7.11c-3.66,3.32-7.16,6.81-10.74,10.23c-3.24,1.94-6.41,4.02-9.75,5.76
		c-1.78,0.92-3.87,1.2-5.78,1.89c-0.77,0.28-1.44,0.84-2.15,1.29c0.01,0.02,0.03,0.03,0.05,0.04c-0.02,0-0.05,0-0.07,0.01
		c0.26,0.67,0.52,1.35,0.78,2.03c0.25,0.66,0.48,1.34,0.72,2c-0.63,0.22-1.26,0.64-1.88,0.62c-1.62-0.04-3.24-0.33-4.86-0.42
		c-0.5-0.03-1.08,0.13-1.48,0.42c-0.14,0.11,0.17,0.84,0.29,1.29c0.19,0.74,0.39,1.49,0.58,2.23c-0.77,0.11-1.54,0.27-2.32,0.32
		c-0.82,0.06-1.75-0.21-2.46,0.08c-4.44,1.85-6.86-1.07-8.37-4.25c-2.1-4.44-5.77-7.15-9.09-10.32c-4.22-4.03-7.58-8.65-8.76-14.5
		c-0.81-4.02,0.23-7.61,2.73-11.04c3.16-4.33,8.06-6.2,11.94-9.51c3.26-2.78,6.86-5.03,9.45-8.67c4.47-6.28,11.33-8.67,18.36-10.41
		c7.99-1.96,16-4.02,24.12-5.29c5.23-0.82,10.67-0.36,16.01-0.31c2.67,0.03,4.66,1.64,6.04,3.83c3.74,5.94,8.04,11.36,13.38,15.95
		c1.46,1.25,2.48,3.11,3.47,4.83c1.08,1.88,0.54,2.64-1.59,2.94c-4.12,0.58-8.46,0.06-12.16,2.63c-0.3,0.21-0.6,0.43-0.9,0.66
		c3.1,0.06,6.11,0.31,8.01,3.43c0.2,0.33,1.17,0.58,1.44,0.38c0.48-0.34,0.88-1.03,0.96-1.62c0.1-0.77-0.14-1.58,0.25-2.71
		c2.12,2.04,4.25,4.08,6.37,6.12c0.17-0.07,0.35-0.14,0.53-0.21c-0.99-2.53-1.98-5.06-3.15-8.06c4.21,2.9,4.62,7.64,6.73,11.57
		c-1.03-0.36-2.06-0.72-3.63-1.28c-0.31,3.55-0.97,6.99-0.78,10.39c0.09,1.66,1.6,3.35,2.72,4.82c2.79,3.68,5.77,7.21,8.58,10.88
		c1.31,1.71,2.37,3.62,3.59,5.39C228.94,151.21,227.89,156.06,224.32,157.48L224.32,157.48z"/>
	<polygon class="st0" points="721.22,118.73 721.22,226.99 723.59,226.99 723.59,118.73 721.22,118.73 	"/>
	<path class="st0" d="M342.28,140.75c-0.75,0-1.33-0.06-1.74-0.17c-0.41-0.11-0.7-0.3-0.89-0.55c-0.19-0.25-0.3-0.55-0.34-0.89
		c-0.04-0.34-0.06-0.85-0.06-1.54v-12.98c0-0.74,0.02-1.28,0.06-1.63c0.04-0.34,0.15-0.63,0.33-0.85c0.18-0.22,0.48-0.4,0.91-0.52
		c0.43-0.12,1.01-0.2,1.73-0.24v-0.43h-8.07v0.43c1.02,0.07,1.73,0.19,2.11,0.36c0.38,0.17,0.62,0.46,0.71,0.89
		c0.09,0.42,0.14,1.2,0.14,2.35v12.54c0,1.02-0.05,1.73-0.16,2.14c-0.11,0.41-0.35,0.7-0.75,0.85c-0.39,0.16-1.07,0.23-2.04,0.23
		v0.43h8.07V140.75L342.28,140.75z M380.44,120.96h-7.31v0.43c1.04,0.08,1.8,0.23,2.28,0.45s0.79,0.54,0.93,0.96
		c0.14,0.42,0.21,1.08,0.21,1.96V138l-13.43-17.04h-4.83v0.43c1.4,0.21,2.41,0.58,3.03,1.1v14.42c0,1.02-0.06,1.76-0.19,2.21
		c-0.13,0.45-0.39,0.79-0.8,1.02c-0.4,0.23-1.08,0.44-2.04,0.61v0.43h7.34v-0.43c-1.05-0.06-1.84-0.23-2.35-0.49
		c-0.52-0.27-0.85-0.63-0.99-1.09c-0.15-0.46-0.22-1.13-0.22-2.01v-14.02l14.55,18.44h0.69v-16.64c0-0.91,0.09-1.58,0.27-2.04
		c0.18-0.45,0.48-0.77,0.9-0.97c0.42-0.19,1.07-0.37,1.97-0.54V120.96L380.44,120.96z M407.57,133.5c-0.5-0.77-1.1-1.42-1.8-1.96
		c-0.7-0.54-1.66-1.19-2.87-1.95c-1.28-0.79-2.25-1.41-2.9-1.88c-0.66-0.47-1.16-0.95-1.5-1.44c-0.35-0.49-0.52-1.05-0.52-1.67
		c0-0.47,0.13-0.94,0.38-1.43c0.25-0.49,0.66-0.91,1.22-1.26c0.56-0.35,1.28-0.52,2.15-0.52c0.63,0,1.24,0.13,1.83,0.38
		c0.59,0.25,1.1,0.58,1.54,0.97c0.44,0.4,0.81,0.85,1.12,1.34c0.31,0.5,0.55,1.01,0.7,1.54h0.38l-0.51-4.43h-0.41
		c-0.04,0.52-0.18,0.78-0.43,0.78c-0.12,0-0.27-0.06-0.45-0.16c-0.68-0.39-1.32-0.69-1.92-0.9c-0.6-0.21-1.26-0.31-1.98-0.31
		c-1.09,0-2.03,0.23-2.82,0.69c-0.79,0.46-1.39,1.04-1.8,1.75c-0.41,0.71-0.61,1.43-0.61,2.17c0,1.2,0.43,2.24,1.28,3.13
		c0.86,0.89,2.13,1.85,3.82,2.88c1.16,0.68,2.08,1.28,2.77,1.8c0.7,0.53,1.23,1.09,1.61,1.68c0.38,0.6,0.57,1.25,0.57,1.96
		c0,0.71-0.2,1.39-0.58,2.02c-0.39,0.64-0.91,1.14-1.57,1.52c-0.66,0.38-1.38,0.56-2.15,0.56c-0.67,0-1.39-0.16-2.17-0.47
		c-0.78-0.32-1.42-0.81-1.93-1.49c-0.64-0.84-1.16-1.85-1.56-3.03h-0.37l0.81,5.17h0.31c0.1-0.49,0.29-0.74,0.56-0.74
		c0.04,0,0.51,0.2,1.43,0.59c0.69,0.28,1.25,0.48,1.66,0.6c0.41,0.11,0.9,0.17,1.47,0.17c1.12,0,2.15-0.27,3.06-0.82
		c0.91-0.54,1.63-1.25,2.15-2.11c0.52-0.86,0.78-1.71,0.78-2.54C408.32,135.14,408.07,134.27,407.57,133.5L407.57,133.5z
		 M440.72,120.29h-0.33c-0.17,0.33-0.35,0.52-0.53,0.58c-0.18,0.06-0.6,0.09-1.25,0.09h-11.86c-0.38,0-0.65-0.01-0.82-0.02
		c-0.17-0.01-0.31-0.04-0.41-0.08c-0.1-0.04-0.19-0.1-0.27-0.19c-0.08-0.09-0.17-0.22-0.27-0.38h-0.33l-0.51,5.17h0.3l0.4-1.02
		c0.38-1.06,0.66-1.76,0.81-2.1c0.13-0.29,0.25-0.47,0.36-0.54c0.11-0.07,0.34-0.1,0.69-0.1h4.95v15.64c0,0.91-0.05,1.55-0.17,1.94
		c-0.11,0.39-0.41,0.7-0.89,0.93c-0.48,0.23-1.3,0.41-2.46,0.53v0.43h9.1v-0.43c-1.15-0.12-1.97-0.3-2.46-0.53
		c-0.48-0.23-0.78-0.54-0.89-0.93c-0.11-0.39-0.17-1.04-0.17-1.94V121.7h4.45c0.41,0,0.7,0.01,0.86,0.02
		c0.16,0.01,0.28,0.04,0.36,0.09c0.08,0.05,0.15,0.13,0.21,0.25c0.2,0.5,0.39,0.98,0.57,1.44c0.18,0.46,0.3,0.77,0.36,0.95
		l0.38,1.02h0.32L440.72,120.29L440.72,120.29z M465.12,140.75c-0.75,0-1.33-0.06-1.74-0.17c-0.41-0.11-0.7-0.3-0.89-0.55
		c-0.19-0.25-0.3-0.55-0.35-0.89c-0.04-0.34-0.06-0.85-0.06-1.54v-12.98c0-0.74,0.02-1.28,0.06-1.63c0.04-0.34,0.15-0.63,0.33-0.85
		c0.18-0.22,0.48-0.4,0.91-0.52c0.43-0.12,1-0.2,1.73-0.24v-0.43h-8.07v0.43c1.03,0.07,1.73,0.19,2.11,0.36
		c0.38,0.17,0.62,0.46,0.71,0.89c0.09,0.42,0.14,1.2,0.14,2.35v12.54c0,1.02-0.05,1.73-0.16,2.14c-0.11,0.41-0.36,0.7-0.75,0.85
		c-0.39,0.16-1.07,0.23-2.05,0.23v0.43h8.07V140.75L465.12,140.75z M497.48,120.29h-0.33c-0.18,0.33-0.35,0.52-0.53,0.58
		c-0.18,0.06-0.6,0.09-1.26,0.09h-11.86c-0.37,0-0.65-0.01-0.82-0.02c-0.18-0.01-0.31-0.04-0.41-0.08c-0.1-0.04-0.19-0.1-0.27-0.19
		c-0.08-0.09-0.17-0.22-0.27-0.38h-0.33l-0.51,5.17h0.3l0.4-1.02c0.38-1.06,0.66-1.76,0.81-2.1c0.13-0.29,0.25-0.47,0.36-0.54
		c0.11-0.07,0.34-0.1,0.69-0.1h4.95v15.64c0,0.91-0.06,1.55-0.17,1.94c-0.11,0.39-0.41,0.7-0.89,0.93c-0.49,0.23-1.3,0.41-2.46,0.53
		v0.43h9.1v-0.43c-1.15-0.12-1.97-0.3-2.46-0.53c-0.49-0.23-0.78-0.54-0.89-0.93c-0.11-0.39-0.17-1.04-0.17-1.94V121.7h4.45
		c0.41,0,0.7,0.01,0.86,0.02c0.16,0.01,0.28,0.04,0.36,0.09c0.08,0.05,0.15,0.13,0.21,0.25c0.2,0.5,0.39,0.98,0.57,1.44
		c0.18,0.46,0.3,0.77,0.36,0.95l0.38,1.02h0.31L497.48,120.29L497.48,120.29z M535.45,120.96h-7.05v0.43
		c0.96,0.09,1.66,0.22,2.1,0.39c0.44,0.17,0.74,0.44,0.9,0.82c0.16,0.38,0.24,0.97,0.24,1.76v9.33c0,1.49-0.29,2.76-0.86,3.79
		c-0.58,1.04-1.36,1.82-2.35,2.35c-0.99,0.53-2.1,0.8-3.33,0.8c-2.09,0-3.67-0.58-4.76-1.73c-1.09-1.15-1.63-2.79-1.63-4.93v-10.1
		c0-0.57,0.06-1.01,0.17-1.33c0.11-0.32,0.39-0.58,0.83-0.78c0.44-0.2,1.14-0.33,2.09-0.38v-0.43h-8.26v0.43
		c0.99,0.08,1.7,0.2,2.13,0.36c0.43,0.16,0.7,0.38,0.8,0.65c0.1,0.27,0.15,0.7,0.15,1.26v10.88c0,1.02,0.16,1.96,0.48,2.81
		c0.31,0.85,0.8,1.59,1.45,2.23c0.65,0.64,1.46,1.12,2.44,1.47c0.98,0.34,2.12,0.51,3.42,0.51c1.16,0,2.23-0.15,3.2-0.45
		c0.97-0.3,1.82-0.78,2.54-1.45c0.72-0.66,1.27-1.51,1.65-2.55c0.38-1.04,0.57-2.27,0.57-3.7v-8.77c0-0.96,0.18-1.72,0.56-2.29
		c0.37-0.57,1.21-0.89,2.53-0.97V120.96L535.45,120.96z M567.58,120.29h-0.33c-0.17,0.33-0.35,0.52-0.53,0.58
		c-0.18,0.06-0.6,0.09-1.25,0.09h-11.86c-0.38,0-0.65-0.01-0.82-0.02c-0.17-0.01-0.31-0.04-0.41-0.08c-0.1-0.04-0.19-0.1-0.27-0.19
		c-0.08-0.09-0.17-0.22-0.27-0.38h-0.33l-0.51,5.17h0.3l0.39-1.02c0.39-1.06,0.66-1.76,0.81-2.1c0.13-0.29,0.25-0.47,0.36-0.54
		c0.11-0.07,0.34-0.1,0.68-0.1h4.95v15.64c0,0.91-0.05,1.55-0.16,1.94c-0.11,0.39-0.41,0.7-0.89,0.93c-0.48,0.23-1.3,0.41-2.46,0.53
		v0.43h9.1v-0.43c-1.16-0.12-1.97-0.3-2.46-0.53c-0.48-0.23-0.78-0.54-0.89-0.93c-0.11-0.39-0.17-1.04-0.17-1.94V121.7h4.45
		c0.41,0,0.7,0.01,0.86,0.02c0.16,0.01,0.28,0.04,0.36,0.09c0.08,0.05,0.15,0.13,0.21,0.25c0.2,0.5,0.39,0.98,0.57,1.44
		c0.18,0.46,0.3,0.77,0.36,0.95l0.38,1.02h0.32L567.58,120.29L567.58,120.29z M603.53,126.86c-0.56-1.28-1.32-2.39-2.29-3.32
		c-0.97-0.93-2.09-1.66-3.36-2.17c-1.26-0.51-2.57-0.77-3.92-0.77c-1.59,0-3.05,0.29-4.39,0.86c-1.34,0.57-2.47,1.36-3.42,2.35
		c-0.94,1-1.66,2.13-2.17,3.4c-0.5,1.27-0.75,2.6-0.75,3.98c0,1.4,0.25,2.73,0.77,3.98c0.51,1.25,1.24,2.36,2.19,3.32
		c0.95,0.96,2.08,1.71,3.38,2.26c1.3,0.54,2.68,0.82,4.14,0.82c1.47,0,2.84-0.26,4.13-0.79c1.28-0.53,2.42-1.27,3.41-2.23
		c0.99-0.96,1.75-2.09,2.3-3.38c0.54-1.29,0.82-2.67,0.82-4.14C604.37,129.53,604.08,128.14,603.53,126.86L603.53,126.86z
		 M601.27,135.64c-0.42,1.13-0.99,2.09-1.73,2.86c-0.74,0.77-1.55,1.34-2.45,1.71c-0.89,0.37-1.82,0.56-2.79,0.56
		c-1.36,0-2.7-0.38-4.02-1.15c-1.33-0.76-2.42-1.92-3.29-3.46c-0.87-1.55-1.3-3.42-1.3-5.61c0-1.92,0.35-3.57,1.05-4.96
		c0.7-1.39,1.63-2.44,2.8-3.17c1.17-0.73,2.44-1.09,3.82-1.09c1.34,0,2.66,0.39,3.97,1.17c1.31,0.78,2.4,1.96,3.26,3.53
		c0.86,1.57,1.29,3.46,1.29,5.67C601.9,133.2,601.69,134.51,601.27,135.64L601.27,135.64z"/>
	<path class="st0" d="M343.28,162.75h-23.16v1.35c3.3,0.26,5.71,0.74,7.24,1.43c1.52,0.7,2.51,1.71,2.95,3.04
		c0.45,1.33,0.67,3.4,0.67,6.21v41.93l-42.54-53.97h-15.3v1.35c4.43,0.67,7.63,1.82,9.6,3.48v45.67c0,3.24-0.2,5.58-0.61,7
		c-0.41,1.42-1.25,2.5-2.52,3.24c-1.28,0.74-3.43,1.38-6.47,1.93v1.35h23.25v-1.35c-3.33-0.2-5.82-0.72-7.45-1.56
		c-1.64-0.84-2.69-1.99-3.15-3.45c-0.46-1.46-0.7-3.58-0.7-6.37v-44.41l46.06,58.4h2.17v-52.71c0-2.87,0.29-5.02,0.87-6.45
		c0.58-1.43,1.53-2.45,2.85-3.06c1.32-0.61,3.4-1.17,6.24-1.69V162.75L343.28,162.75z M399.78,211.03c-0.87,4.37-1.83,7.47-2.89,9.3
		c-1.06,1.82-2.39,2.97-4,3.43c-1.61,0.46-4.14,0.7-7.58,0.7h-9.34c-2.38,0-3.99-0.2-4.84-0.61c-0.85-0.41-1.39-1.19-1.61-2.35
		c-0.22-1.16-0.33-3.37-0.33-6.65v-19.86h14.17c2.29,0,4.02,0.23,5.19,0.7c1.17,0.46,2,1.31,2.5,2.54c0.49,1.23,0.85,3.24,1.09,6.02
		h1.35v-19.77h-1.35c-0.12,1.91-0.36,3.46-0.74,4.65c-0.38,1.19-0.9,2.02-1.56,2.5c-0.67,0.48-1.48,0.78-2.45,0.89
		c-0.97,0.12-2.5,0.17-4.58,0.17h-13.6V165.1h11.82c4.26,0,7.22,0.2,8.89,0.61c1.67,0.41,2.87,1.39,3.63,2.95
		c0.75,1.56,1.45,4.49,2.09,8.78h1.35l-0.82-14.69h-44.28v1.35c3.62,0.26,6.15,0.68,7.58,1.26c1.43,0.58,2.32,1.41,2.65,2.5
		c0.33,1.09,0.5,2.89,0.5,5.41v41.93c0,3.16-0.18,5.32-0.54,6.47c-0.36,1.16-1.27,1.99-2.72,2.5c-1.45,0.51-4.07,0.92-7.86,1.24
		v1.35h48.06l1.61-15.73H399.78L399.78,211.03z M464.18,202.12c-0.57-1.71-1.47-3.35-2.72-4.93c-1.25-1.58-2.89-2.98-4.91-4.22
		c-2.03-1.23-4.39-2.19-7.08-2.89c3.76-0.98,6.68-2.59,8.73-4.82c2.05-2.23,3.08-5.01,3.08-8.34c0-1.94-0.58-4.02-1.74-6.24
		c-1.16-2.22-3.53-4.21-7.13-5.97c-3.59-1.77-8.67-2.65-15.25-2.65c-0.87,0.03-2.74,0.07-5.61,0.13c-2.87,0.06-5.82,0.14-8.84,0.24
		c-3.03,0.1-4.93,0.16-5.69,0.17c-0.77,0.01-2.65,0.07-5.63,0.15v1.35c3.79,0.29,6.37,0.66,7.74,1.11c1.36,0.45,2.22,1.25,2.56,2.39
		c0.35,1.14,0.52,3.21,0.52,6.19v39.72c0,3.48-0.18,5.92-0.54,7.34c-0.36,1.42-1.32,2.48-2.87,3.17c-1.55,0.7-4.21,1.16-7.97,1.39
		v1.35h28.68c5.39,0,10-0.84,13.84-2.52c3.84-1.68,6.74-4,8.71-6.97c1.97-2.97,2.96-6.31,2.96-10.02
		C465.02,205.54,464.74,203.83,464.18,202.12L464.18,202.12z M450.66,185.98c-2.48,2.1-6.35,3.15-11.62,3.15h-10.21v-24.2
		c0.38-0.03,1.26-0.11,2.65-0.24c1.39-0.13,2.57-0.22,3.54-0.26c0.97-0.04,1.82-0.07,2.54-0.07c2.93,0,5.48,0.36,7.67,1.06
		c2.19,0.71,3.93,1.65,5.24,2.82c1.3,1.17,2.28,2.56,2.93,4.17c0.65,1.61,0.98,3.28,0.98,5.02
		C454.38,181.03,453.14,183.88,450.66,185.98L450.66,185.98z M455.46,215.87c-1.16,2.51-3.15,4.56-5.95,6.17
		c-2.81,1.61-6.45,2.41-10.91,2.41c-3.07,0-5.3-0.38-6.69-1.13c-1.39-0.75-2.25-1.83-2.59-3.24c-0.33-1.4-0.5-3.66-0.5-6.76v-21.9
		h7.3c7.18,0,12.49,1.5,15.92,4.5c3.44,3,5.15,6.96,5.15,11.88C457.2,210.68,456.62,213.37,455.46,215.87L455.46,215.87z
		 M539.71,226.67c-2.06-0.12-4.14-1.03-6.24-2.74c-2.1-1.71-3.99-3.72-5.67-6.02c-1.68-2.3-3.16-4.58-4.43-6.84
		c-1.28-2.26-2.36-4.19-3.26-5.78c-0.49-0.87-1.5-2.53-3.04-5c-1.54-2.46-2.54-4.08-3-4.87c2.05-0.64,4.04-1.69,5.95-3.15
		c1.91-1.46,3.48-3.27,4.7-5.43c1.22-2.16,1.83-4.57,1.83-7.23c0-2.29-0.47-4.48-1.39-6.58c-0.93-2.1-2.39-3.97-4.37-5.61
		c-1.98-1.64-4.58-2.94-7.8-3.91c-3.21-0.97-6.95-1.46-11.21-1.46c-0.84,0-4.28,0.08-10.32,0.24c-6.04,0.16-10.81,0.31-14.32,0.46
		v1.35c4.26,0.12,7,0.75,8.21,1.91c1.22,1.16,1.82,2.84,1.82,5.04v1.17v44.41c0,2.29-0.23,3.99-0.67,5.11
		c-0.45,1.12-1.38,1.94-2.78,2.48c-1.41,0.54-3.6,0.93-6.58,1.2v1.35h28.29v-1.35c-3.68-0.29-6.34-0.7-7.99-1.22
		c-1.65-0.52-2.67-1.23-3.07-2.13c-0.39-0.9-0.58-2.39-0.58-4.48v-0.78v-19.42h4.6c2.26,0,5.26-0.17,8.99-0.52
		c0.32,0.43,0.79,1.14,1.41,2.11c0.62,0.97,1.2,1.88,1.74,2.72c0.54,0.84,2.37,3.82,5.5,8.95c2,3.27,3.69,5.87,5.08,7.8
		c1.39,1.93,2.93,3.61,4.63,5.04c1.69,1.43,3.64,2.53,5.82,3.28c2.19,0.75,4.9,1.17,8.15,1.26V226.67L539.71,226.67z M513.16,191.67
		c-3.68,2.33-8.47,3.5-14.38,3.5h-5v-30.33c2.87-0.32,5.39-0.48,7.56-0.48c4.11,0,7.47,0.73,10.06,2.19
		c2.59,1.46,4.45,3.37,5.58,5.71c1.13,2.35,1.69,4.91,1.69,7.69C518.68,185.43,516.84,189.34,513.16,191.67L513.16,191.67z
		 M575.03,225.41c-2.37,0-4.21-0.18-5.5-0.54c-1.29-0.36-2.23-0.94-2.83-1.74c-0.6-0.8-0.95-1.73-1.09-2.8
		c-0.13-1.07-0.2-2.69-0.2-4.87v-41.11c0-2.35,0.07-4.06,0.2-5.15c0.13-1.09,0.48-1.98,1.04-2.69c0.56-0.71,1.53-1.26,2.89-1.65
		c1.36-0.39,3.18-0.64,5.47-0.76v-1.35h-25.55v1.35c3.24,0.23,5.47,0.62,6.67,1.15c1.2,0.54,1.95,1.47,2.24,2.8
		c0.29,1.33,0.43,3.81,0.43,7.43v39.72c0,3.22-0.17,5.47-0.5,6.78c-0.33,1.3-1.12,2.2-2.37,2.69c-1.24,0.49-3.4,0.74-6.47,0.74v1.35
		h25.55V225.41L575.03,225.41z M612.65,162.75h-26.59v1.35c3.45,0.26,5.85,0.69,7.21,1.28c1.36,0.59,2.2,1.49,2.52,2.67
		c0.32,1.19,0.48,3.26,0.48,6.21v49.93v3.91c0,3.16-0.1,5.42-0.28,6.8c-0.19,1.38-0.66,2.82-1.41,4.32
		c-0.64,1.33-1.47,2.35-2.5,3.04c-1.03,0.7-1.99,1.04-2.89,1.04c-1.36,0-2.8-0.65-4.3-1.96c-1.33-1.19-2.21-1.92-2.63-2.19
		c-0.42-0.28-0.87-0.41-1.37-0.41c-0.69,0-1.32,0.22-1.87,0.67c-0.55,0.45-0.99,0.97-1.3,1.56c-0.32,0.59-0.48,1.14-0.48,1.63
		c0,1.07,0.77,2.08,2.3,3.02c1.54,0.94,3.34,1.41,5.43,1.41c2.55,0,5.09-0.77,7.63-2.3c2.53-1.54,4.6-3.71,6.19-6.52
		c1.77-3.13,2.89-5.94,3.37-8.43c0.48-2.49,0.72-5.26,0.72-8.3v-1.61v-46.45c0-2.58,0.16-4.38,0.48-5.41
		c0.32-1.03,1.1-1.8,2.33-2.32c1.23-0.52,3.56-1.06,6.98-1.61V162.75L612.65,162.75z M680.39,225.41c-3.04-0.55-5.15-1.06-6.32-1.54
		c-1.17-0.48-2.14-1.32-2.89-2.52c-0.75-1.2-1.72-3.47-2.91-6.8l-18.51-52.93h-6.95l1,2.48l-17.16,49.93
		c-1.13,3.24-2.19,5.63-3.19,7.15c-1,1.52-2.07,2.52-3.22,3c-1.15,0.48-2.9,0.89-5.28,1.24v1.35h23.77v-1.35
		c-3.13-0.23-5.5-0.54-7.1-0.91c-1.61-0.38-2.76-0.88-3.43-1.5c-0.68-0.62-1.02-1.41-1.02-2.37c0-0.96,0.51-2.85,1.52-5.69
		l5.95-17.21h20.81l6.43,18.25c0.81,2.29,1.22,3.95,1.22,5c0,0.93-0.26,1.65-0.78,2.17c-0.52,0.52-1.43,0.94-2.74,1.26
		c-1.3,0.32-3.51,0.65-6.6,1v1.35h27.42V225.41L680.39,225.41z M635.42,195.43l9.56-27.85l9.69,27.85H635.42L635.42,195.43z"/>
	<path class="st0" d="M762.86,185.64V226h9.41v-15.16h2.76c3.21,0,6.43-0.28,8.4-1.47c1.8-1.07,5.41-4,5.41-10.99
		c0-4.11-1.13-6.99-3.16-9.3s-4.57-3.44-11.78-3.44H762.86L762.86,185.64z M772.27,193.03h1.13c2.14,0,6.03,0.11,6.03,5.13
		c0,4.85-2.93,5.3-5.52,5.3h-1.63V193.03L772.27,193.03z M793.92,196.8V226h8.91v-15.67c0-5.13,2.14-6.65,4.17-6.65
		c0.79,0,1.3,0.23,1.92,0.45l1.69-7.33c-1.3-0.45-1.97-0.68-2.93-0.68c-3.27,0-4.57,3.21-5.13,4.9h-0.11v-4.23H793.92L793.92,196.8z
		 M812.07,211.91c0,3.55,0,14.77,11.84,14.77c11.72,0,11.72-11.44,11.72-15.28c0-4.68-0.45-15.28-11.84-15.28
		C812.07,196.13,812.07,207.51,812.07,211.91L812.07,211.91z M820.97,211.57c0-5.07,0-8.79,2.82-8.79c2.71,0,2.93,3.72,2.93,8.57
		c0,4.96-0.17,8.68-2.93,8.68C820.97,220.03,820.97,216.59,820.97,211.57L820.97,211.57z M838.79,196.8v6.65h3.72V226h8.91v-22.55
		h4.45v-6.65h-4.45v-2.37c0-1.63,0-3.21,2.93-3.21c0.79,0,1.35,0.11,1.8,0.17l1.13-5.75c-1.24-0.28-3.38-0.68-6.43-0.68
		c-8.34,0-8.34,5.81-8.34,9.08v2.76H838.79L838.79,196.8z M882.53,213.6v-2.99c0-2.93-0.45-8.12-3.72-11.56
		c-2.71-2.82-6.48-2.93-8.06-2.93c-12.12,0-12.12,11.78-12.12,15.84c0,9.41,3.61,14.71,12.06,14.71c2.25,0,6.2,0,9.08-3.49
		c1.86-2.25,2.09-4.06,2.25-5.58l-8.46-1.07c-0.11,1.47-0.28,4.12-3.04,4.12c-2.2,0-2.99-1.69-2.99-7.05H882.53L882.53,213.6z
		 M867.54,208.81c0-2.76-0.06-6.76,3.33-6.76c1.69,0,3.04,1.01,3.04,6.09v0.68H867.54L867.54,208.81z M906.6,204.13
		c-0.28-2.54-2.42-8-10.03-8c-7.1,0-10.15,4.51-10.15,8.74c0,4,2.37,6.48,7.67,9.3c2.87,1.52,4.96,2.59,4.96,4.34
		c0,1.13-1.01,2.14-2.31,2.14c-2.42,0-2.76-2.76-2.87-3.72l-8.12,1.3c0.96,5.98,4.51,8.46,10.43,8.46c9.64,0,11.16-5.75,11.16-8.68
		c0-5.24-4.11-7.44-8-9.53c-3.95-2.14-5.02-3.04-5.02-4.45c0-0.9,0.79-1.86,2.2-1.86c1.24,0,2.25,0.39,2.71,3.1L906.6,204.13
		L906.6,204.13z M912.63,196.8V226h8.91v-29.2H912.63L912.63,196.8z M912.63,185.64v6.99h8.91v-6.99H912.63L912.63,185.64z
		 M927.06,211.91c0,3.55,0,14.77,11.84,14.77c11.72,0,11.72-11.44,11.72-15.28c0-4.68-0.45-15.28-11.84-15.28
		C927.06,196.13,927.06,207.51,927.06,211.91L927.06,211.91z M935.97,211.57c0-5.07,0-8.79,2.82-8.79c2.71,0,2.93,3.72,2.93,8.57
		c0,4.96-0.17,8.68-2.93,8.68C935.97,220.03,935.97,216.59,935.97,211.57L935.97,211.57z M955.53,196.8V226h8.91v-16.12
		c0-3.1,0.06-6.88,2.82-6.88c2.03,0,2.03,2.59,2.03,4.57V226h8.91v-21.03c0-2.82-0.23-8.85-7.38-8.85c-2.99,0-4.85,1.3-6.26,3.27
		h-0.11v-2.59H955.53L955.53,196.8z M991.89,205.65c0.11-1.24,0.39-3.61,2.99-3.61c2.65,0,2.65,2.09,2.65,4.23v0.73
		c-0.73,0.39-1.24,0.68-4.79,1.52c-4.85,1.13-6.43,1.75-8.12,3.95c-1.07,1.41-1.8,3.21-1.8,5.81c0,7.38,6.14,8.4,8.4,8.4
		c4.34,0,6.31-2.31,7.1-3.27c0.28,1.24,0.39,1.58,0.85,2.59h8.62c-0.73-1.24-1.8-3.1-1.8-9.3v-10.94c0-3.89-0.51-9.64-10.82-9.64
		c-5.64,0-10.03,0.96-11.5,8.17L991.89,205.65L991.89,205.65z M997.52,216.2c0,3.44-1.18,4.68-3.1,4.68c-1.13,0-3.16-0.79-3.16-3.04
		c0-2.65,2.25-3.66,4.06-4.4c1.3-0.51,1.47-0.62,2.2-1.01V216.2L997.52,216.2z M1012.18,185.64V226h8.85v-40.36H1012.18
		L1012.18,185.64z M1050.46,213.6v-2.99c0-2.93-0.45-8.12-3.72-11.56c-2.71-2.82-6.48-2.93-8.06-2.93
		c-12.12,0-12.12,11.78-12.12,15.84c0,9.41,3.61,14.71,12.06,14.71c2.25,0,6.2,0,9.08-3.49c1.86-2.25,2.09-4.06,2.25-5.58
		l-8.46-1.07c-0.11,1.47-0.28,4.12-3.04,4.12c-2.2,0-2.99-1.69-2.99-7.05H1050.46L1050.46,213.6z M1035.46,208.81
		c0-2.76-0.06-6.76,3.33-6.76c1.69,0,3.04,1.01,3.04,6.09v0.68H1035.46L1035.46,208.81z M1074.53,204.13c-0.28-2.54-2.42-8-10.03-8
		c-7.1,0-10.15,4.51-10.15,8.74c0,4,2.37,6.48,7.67,9.3c2.87,1.52,4.96,2.59,4.96,4.34c0,1.13-1.01,2.14-2.31,2.14
		c-2.42,0-2.76-2.76-2.88-3.72l-8.12,1.3c0.96,5.98,4.51,8.46,10.43,8.46c9.64,0,11.16-5.75,11.16-8.68c0-5.24-4.11-7.44-8-9.53
		c-3.95-2.14-5.02-3.04-5.02-4.45c0-0.9,0.79-1.86,2.2-1.86c1.24,0,2.25,0.39,2.71,3.1L1074.53,204.13L1074.53,204.13z"/>
	<path class="st0" d="M788.67,130.77c-0.73-5.75-2.82-12.74-13.19-12.74c-2.99,0-6.76,0.45-9.7,4.17
		c-2.25,2.87-3.27,6.09-3.27,17.76c0,10.65,1.01,19.79,13.47,19.79c7.27,0,12.46-3.66,13.08-14.26l-9.7-1.86
		c-0.06,4.74-0.11,8.46-3.66,8.46c-3.49,0-3.49-3.61-3.49-6.6V133.3c0-3.89,0-7.61,3.49-7.61c3.38,0,3.55,3.95,3.66,6.71
		L788.67,130.77L788.67,130.77z M793.46,144.97c0,3.55,0,14.77,11.84,14.77c11.72,0,11.72-11.44,11.72-15.28
		c0-4.68-0.45-15.28-11.84-15.28C793.46,129.19,793.46,140.58,793.46,144.97L793.46,144.97z M802.37,144.63c0-5.07,0-8.79,2.82-8.79
		c2.71,0,2.93,3.72,2.93,8.57c0,4.96-0.17,8.68-2.93,8.68C802.37,153.09,802.37,149.65,802.37,144.63L802.37,144.63z M822.04,129.87
		v29.2h8.91v-17.59c0-3.38,0.06-5.41,2.31-5.41c1.8,0,1.8,1.75,1.8,3.1v19.9h8.91v-16.91c0-3.33,0.06-6.14,2.37-6.14
		c1.69,0,1.75,1.41,1.75,3.95v19.11h8.91v-20.69c0-1.47-0.17-4.4-0.9-5.69c-2.03-3.49-5.3-3.49-6.37-3.49
		c-2.14,0-4.4,0.68-6.43,4.06c-0.51-1.18-1.8-4.06-6.26-4.06c-4.4,0-6.09,3.21-6.6,4.45v-3.78H822.04L822.04,129.87z M862.57,129.87
		v40.36h8.91v-13.87h0.11c1.8,3.27,4.85,3.38,5.75,3.38c8.51,0,8.51-11.27,8.51-15.45c0-3.72,0-15.11-8.46-15.11
		c-4.17,0-5.69,2.87-6.31,4.34h-0.11v-3.66H862.57L862.57,129.87z M871.2,143.73c0-4.74,0.73-7.78,3.16-7.78
		c2.82,0,2.82,3.61,2.82,9.41c0,4,0,7.61-2.76,7.61C871.2,152.98,871.2,147.96,871.2,143.73L871.2,143.73z M913.87,146.66v-2.99
		c0-2.93-0.45-8.12-3.72-11.56c-2.71-2.82-6.48-2.93-8.06-2.93c-12.12,0-12.12,11.78-12.12,15.84c0,9.41,3.61,14.71,12.06,14.71
		c2.25,0,6.2,0,9.08-3.49c1.86-2.25,2.09-4.06,2.25-5.58l-8.46-1.07c-0.11,1.47-0.28,4.12-3.04,4.12c-2.2,0-2.99-1.69-2.99-7.05
		H913.87L913.87,146.66z M898.88,141.87c0-2.76-0.06-6.76,3.33-6.76c1.69,0,3.04,1.01,3.04,6.09v0.68H898.88L898.88,141.87z
		 M928.47,129.87V118.7l-8.91,5.3v5.86h-2.87v6.65h2.87v14.99c0,2.03,0,8.23,7.33,8.23c2.48,0,4.96-0.56,6.99-1.01l-0.62-6.37
		c-1.18,0.39-1.75,0.51-2.42,0.51c-2.37,0-2.37-1.63-2.37-3.04v-13.3h4.79v-6.65H928.47L928.47,129.87z M960.49,146.66v-2.99
		c0-2.93-0.45-8.12-3.72-11.56c-2.71-2.82-6.48-2.93-8.06-2.93c-12.12,0-12.12,11.78-12.12,15.84c0,9.41,3.61,14.71,12.06,14.71
		c2.25,0,6.2,0,9.08-3.49c1.86-2.25,2.09-4.06,2.25-5.58l-8.46-1.07c-0.11,1.47-0.28,4.12-3.04,4.12c-2.2,0-2.99-1.69-2.99-7.05
		H960.49L960.49,146.66z M945.49,141.87c0-2.76-0.06-6.76,3.33-6.76c1.69,0,3.04,1.01,3.04,6.09v0.68H945.49L945.49,141.87z
		 M965.11,129.87v29.2h8.91v-16.12c0-3.1,0.06-6.88,2.82-6.88c2.03,0,2.03,2.59,2.03,4.57v18.43h8.91v-21.03
		c0-2.82-0.23-8.85-7.38-8.85c-2.99,0-4.85,1.3-6.26,3.27h-0.11v-2.59H965.11L965.11,129.87z M1016.18,138.94
		c-1.75-9.75-9.02-9.75-11.27-9.75c-12.23,0-12.23,11.5-12.23,15.45c0,8.68,3.04,15.11,12.34,15.11c2.2,0,10.43,0,11.61-10.48
		l-8.62-1.52c0,0.11-0.06,0.51-0.11,0.73c-0.28,2.03-0.62,4.62-3.21,4.62c-3.04,0-3.1-3.33-3.1-7.44c0-6.65,0.17-9.81,3.21-9.81
		c2.59,0,2.87,2.93,3.04,4.62L1016.18,138.94L1016.18,138.94z M1021.76,129.87v29.2h8.91v-29.2H1021.76L1021.76,129.87z
		 M1021.76,118.7v6.99h8.91v-6.99H1021.76L1021.76,118.7z M1044.99,138.72c0.11-1.24,0.39-3.61,2.99-3.61
		c2.65,0,2.65,2.09,2.65,4.23v0.73c-0.73,0.39-1.24,0.68-4.79,1.52c-4.85,1.13-6.43,1.75-8.12,3.95c-1.07,1.41-1.8,3.21-1.8,5.81
		c0,7.38,6.14,8.4,8.4,8.4c4.34,0,6.31-2.31,7.1-3.27c0.28,1.24,0.39,1.58,0.85,2.59h8.62c-0.73-1.24-1.8-3.1-1.8-9.3v-10.94
		c0-3.89-0.51-9.64-10.82-9.64c-5.64,0-10.03,0.96-11.5,8.17L1044.99,138.72L1044.99,138.72z M1050.62,149.26
		c0,3.44-1.18,4.68-3.1,4.68c-1.13,0-3.16-0.79-3.16-3.04c0-2.65,2.26-3.66,4.06-4.4c1.3-0.51,1.47-0.62,2.2-1.01V149.26
		L1050.62,149.26z M1084.11,137.19c-0.28-2.54-2.42-8-10.03-8c-7.1,0-10.15,4.51-10.15,8.74c0,4,2.37,6.48,7.67,9.3
		c2.88,1.52,4.96,2.59,4.96,4.34c0,1.13-1.01,2.14-2.31,2.14c-2.42,0-2.76-2.76-2.87-3.72l-8.12,1.3c0.96,5.98,4.51,8.46,10.43,8.46
		c9.64,0,11.16-5.75,11.16-8.68c0-5.24-4.11-7.44-8-9.53c-3.95-2.14-5.02-3.04-5.02-4.45c0-0.9,0.79-1.86,2.2-1.86
		c1.24,0,2.25,0.39,2.71,3.1L1084.11,137.19L1084.11,137.19z"/>
</g>
</svg>
