<?xml version="1.0" encoding="utf-8"?>
<!-- Generator: Adobe Illustrator 27.9.3, SVG Export Plug-In . SVG Version: 9.03 Build 53313)  -->
<svg version="1.1" id="Capa_1" xmlns="http://www.w3.org/2000/svg" xmlns:xlink="http://www.w3.org/1999/xlink" x="0px" y="0px"
	 viewBox="0 0 1074.74 229.56" style="enable-background:new 0 0 1074.74 229.56;" xml:space="preserve">
<style type="text/css">
	.st0{fill:#C31632;}
</style>
<g>
	<polygon class="st0" points="667.61,60.01 667.61,170.35 670.03,170.35 670.03,60.01 667.61,60.01 	"/>
	<path class="st0" d="M281.4,82.45c-0.76,0-1.35-0.06-1.77-0.17c-0.41-0.12-0.72-0.3-0.91-0.56c-0.19-0.26-0.31-0.56-0.35-0.9
		c-0.04-0.35-0.06-0.87-0.06-1.57V66.02c0-0.76,0.02-1.31,0.06-1.66c0.04-0.35,0.15-0.64,0.34-0.87c0.18-0.23,0.49-0.41,0.93-0.53
		c0.44-0.13,1.03-0.21,1.76-0.24v-0.43h-8.22v0.43c1.04,0.07,1.76,0.2,2.15,0.37c0.39,0.17,0.63,0.47,0.72,0.9
		c0.09,0.43,0.14,1.23,0.14,2.39v12.78c0,1.03-0.05,1.76-0.16,2.18c-0.11,0.42-0.36,0.71-0.76,0.87c-0.4,0.16-1.1,0.24-2.08,0.24
		v0.43h8.22V82.45L281.4,82.45z M320.29,62.29h-7.45v0.43c1.06,0.08,1.84,0.24,2.33,0.46c0.49,0.22,0.81,0.55,0.95,0.98
		c0.14,0.43,0.22,1.1,0.22,2v13.5l-13.69-17.37h-4.92v0.43c1.43,0.21,2.46,0.59,3.09,1.12v14.7c0,1.04-0.07,1.8-0.2,2.25
		c-0.13,0.46-0.4,0.8-0.81,1.04c-0.41,0.24-1.1,0.45-2.08,0.62v0.43h7.48v-0.43c-1.07-0.07-1.87-0.23-2.4-0.5
		c-0.53-0.27-0.87-0.64-1.01-1.11c-0.15-0.47-0.22-1.15-0.22-2.05V64.5l14.82,18.8h0.7V66.33c0-0.92,0.09-1.62,0.28-2.08
		c0.19-0.46,0.49-0.79,0.92-0.99c0.42-0.2,1.09-0.38,2.01-0.55V62.29L320.29,62.29z M347.94,75.07c-0.51-0.78-1.12-1.45-1.83-2
		c-0.71-0.55-1.69-1.21-2.93-1.99c-1.31-0.8-2.29-1.44-2.96-1.92c-0.67-0.48-1.18-0.97-1.53-1.47c-0.35-0.5-0.53-1.07-0.53-1.71
		c0-0.48,0.13-0.96,0.39-1.46c0.25-0.5,0.67-0.92,1.24-1.28c0.57-0.35,1.3-0.53,2.19-0.53c0.64,0,1.26,0.13,1.87,0.38
		c0.6,0.26,1.12,0.59,1.57,0.99c0.45,0.41,0.83,0.86,1.15,1.37c0.32,0.51,0.56,1.03,0.71,1.57h0.39l-0.52-4.52h-0.42
		c-0.04,0.53-0.18,0.8-0.43,0.8c-0.12,0-0.27-0.06-0.46-0.17c-0.69-0.4-1.34-0.71-1.95-0.92c-0.61-0.21-1.28-0.31-2.02-0.31
		c-1.11,0-2.07,0.23-2.88,0.7c-0.8,0.47-1.42,1.06-1.83,1.78c-0.42,0.72-0.62,1.46-0.62,2.22c0,1.22,0.43,2.28,1.31,3.19
		c0.87,0.9,2.17,1.88,3.9,2.94c1.17,0.69,2.11,1.3,2.82,1.84c0.71,0.54,1.26,1.11,1.64,1.71c0.39,0.61,0.58,1.27,0.58,2
		c0,0.73-0.2,1.42-0.6,2.06c-0.39,0.65-0.93,1.16-1.6,1.55c-0.67,0.38-1.4,0.57-2.19,0.57c-0.68,0-1.42-0.16-2.21-0.48
		c-0.79-0.32-1.45-0.83-1.97-1.52c-0.65-0.86-1.18-1.89-1.59-3.09h-0.38l0.83,5.27h0.32c0.1-0.5,0.29-0.76,0.57-0.76
		c0.04,0,0.52,0.2,1.45,0.6c0.71,0.29,1.27,0.49,1.69,0.61c0.42,0.12,0.92,0.17,1.5,0.17c1.15,0,2.19-0.28,3.12-0.83
		c0.93-0.55,1.66-1.27,2.19-2.15c0.53-0.88,0.79-1.74,0.79-2.59C348.71,76.74,348.45,75.85,347.94,75.07L347.94,75.07z M381.73,61.6
		h-0.34c-0.18,0.34-0.36,0.53-0.54,0.59c-0.18,0.06-0.61,0.09-1.28,0.09h-12.08c-0.38,0-0.66-0.01-0.84-0.02
		c-0.18-0.01-0.32-0.04-0.42-0.08c-0.1-0.04-0.19-0.1-0.27-0.2c-0.08-0.09-0.17-0.22-0.27-0.39h-0.33l-0.52,5.27h0.31l0.41-1.03
		c0.39-1.08,0.67-1.79,0.83-2.14c0.13-0.3,0.25-0.48,0.36-0.55c0.11-0.07,0.34-0.1,0.7-0.1h5.05v15.94c0,0.92-0.05,1.58-0.17,1.98
		c-0.11,0.4-0.42,0.71-0.91,0.95c-0.49,0.24-1.33,0.42-2.5,0.54v0.43h9.27v-0.43c-1.17-0.12-2.01-0.3-2.5-0.54
		c-0.49-0.24-0.8-0.55-0.91-0.95c-0.11-0.4-0.17-1.06-0.17-1.98V63.04h4.53c0.42,0,0.71,0.01,0.88,0.02
		c0.16,0.01,0.28,0.04,0.36,0.09c0.08,0.05,0.15,0.13,0.22,0.25c0.2,0.51,0.4,1,0.58,1.47c0.18,0.47,0.31,0.79,0.37,0.96l0.39,1.03
		h0.32L381.73,61.6L381.73,61.6z M406.59,82.45c-0.76,0-1.36-0.06-1.77-0.17c-0.42-0.12-0.72-0.3-0.91-0.56
		c-0.19-0.26-0.31-0.56-0.35-0.9c-0.04-0.35-0.06-0.87-0.06-1.57V66.02c0-0.76,0.02-1.31,0.06-1.66c0.04-0.35,0.15-0.64,0.34-0.87
		c0.18-0.23,0.49-0.41,0.93-0.53c0.44-0.13,1.02-0.21,1.76-0.24v-0.43h-8.23v0.43c1.04,0.07,1.76,0.2,2.15,0.37
		c0.39,0.17,0.63,0.47,0.72,0.9c0.09,0.43,0.14,1.23,0.14,2.39v12.78c0,1.03-0.05,1.76-0.16,2.18c-0.11,0.42-0.36,0.71-0.76,0.87
		c-0.4,0.16-1.1,0.24-2.09,0.24v0.43h8.23V82.45L406.59,82.45z M439.58,61.6h-0.33c-0.18,0.34-0.36,0.53-0.54,0.59
		c-0.18,0.06-0.61,0.09-1.28,0.09h-12.09c-0.38,0-0.66-0.01-0.84-0.02c-0.18-0.01-0.32-0.04-0.42-0.08c-0.1-0.04-0.19-0.1-0.27-0.2
		c-0.08-0.09-0.17-0.22-0.27-0.39h-0.34l-0.52,5.27H423l0.41-1.03c0.39-1.08,0.67-1.79,0.83-2.14c0.13-0.3,0.25-0.48,0.36-0.55
		c0.11-0.07,0.34-0.1,0.7-0.1h5.05v15.94c0,0.92-0.06,1.58-0.17,1.98c-0.11,0.4-0.41,0.71-0.91,0.95s-1.33,0.42-2.5,0.54v0.43h9.27
		v-0.43c-1.17-0.12-2.01-0.3-2.5-0.54c-0.5-0.24-0.8-0.55-0.91-0.95c-0.11-0.4-0.17-1.06-0.17-1.98V63.04h4.53
		c0.42,0,0.71,0.01,0.87,0.02c0.17,0.01,0.29,0.04,0.37,0.09c0.08,0.05,0.15,0.13,0.22,0.25c0.2,0.51,0.4,1,0.58,1.47
		c0.18,0.47,0.31,0.79,0.37,0.96l0.39,1.03h0.32L439.58,61.6L439.58,61.6z M478.28,62.29h-7.19v0.43c0.98,0.09,1.69,0.23,2.14,0.4
		c0.45,0.17,0.75,0.45,0.92,0.84c0.17,0.39,0.24,0.99,0.24,1.8v9.51c0,1.52-0.29,2.81-0.88,3.87c-0.59,1.06-1.39,1.86-2.39,2.4
		c-1.01,0.54-2.14,0.81-3.4,0.81c-2.13,0-3.74-0.59-4.85-1.76c-1.11-1.17-1.66-2.85-1.66-5.02V65.27c0-0.58,0.05-1.03,0.17-1.36
		c0.11-0.33,0.39-0.59,0.85-0.8c0.45-0.21,1.16-0.34,2.13-0.39v-0.43h-8.42v0.43c1.01,0.08,1.73,0.21,2.17,0.37
		c0.44,0.16,0.71,0.38,0.82,0.66c0.11,0.28,0.16,0.71,0.16,1.29v11.09c0,1.04,0.16,2,0.48,2.87c0.32,0.87,0.81,1.62,1.48,2.27
		c0.66,0.65,1.49,1.15,2.49,1.5c1,0.35,2.16,0.52,3.48,0.52c1.18,0,2.27-0.15,3.26-0.46c0.99-0.31,1.85-0.8,2.59-1.48
		c0.74-0.68,1.3-1.54,1.68-2.6c0.39-1.06,0.58-2.31,0.58-3.77v-8.94c0-0.98,0.19-1.76,0.57-2.34c0.38-0.58,1.24-0.91,2.58-0.99
		V62.29L478.28,62.29z M511.02,61.6h-0.34c-0.18,0.34-0.36,0.53-0.54,0.59c-0.18,0.06-0.61,0.09-1.28,0.09h-12.08
		c-0.38,0-0.66-0.01-0.84-0.02c-0.18-0.01-0.32-0.04-0.42-0.08c-0.1-0.04-0.19-0.1-0.27-0.2c-0.08-0.09-0.17-0.22-0.27-0.39h-0.33
		l-0.52,5.27h0.31l0.41-1.03c0.39-1.08,0.66-1.79,0.82-2.14c0.13-0.3,0.25-0.48,0.37-0.55c0.11-0.07,0.34-0.1,0.7-0.1h5.05v15.94
		c0,0.92-0.05,1.58-0.17,1.98c-0.11,0.4-0.42,0.71-0.91,0.95c-0.49,0.24-1.33,0.42-2.5,0.54v0.43h9.27v-0.43
		c-1.18-0.12-2.01-0.3-2.51-0.54c-0.49-0.24-0.8-0.55-0.91-0.95c-0.11-0.4-0.17-1.06-0.17-1.98V63.04h4.53
		c0.42,0,0.71,0.01,0.88,0.02c0.16,0.01,0.28,0.04,0.36,0.09c0.08,0.05,0.15,0.13,0.22,0.25c0.21,0.51,0.4,1,0.58,1.47
		c0.18,0.47,0.31,0.79,0.37,0.96l0.39,1.03h0.32L511.02,61.6L511.02,61.6z M547.66,68.3c-0.57-1.31-1.35-2.43-2.33-3.38
		c-0.99-0.95-2.13-1.69-3.42-2.21c-1.29-0.52-2.62-0.78-3.99-0.78c-1.62,0-3.11,0.29-4.47,0.87c-1.36,0.58-2.52,1.38-3.48,2.4
		c-0.96,1.02-1.69,2.17-2.21,3.47c-0.51,1.3-0.77,2.65-0.77,4.06c0,1.43,0.26,2.78,0.78,4.06c0.52,1.28,1.27,2.41,2.24,3.38
		c0.97,0.98,2.12,1.75,3.45,2.3c1.33,0.55,2.74,0.83,4.22,0.83c1.49,0,2.89-0.27,4.2-0.8c1.31-0.54,2.47-1.29,3.48-2.27
		c1.01-0.98,1.78-2.13,2.34-3.44c0.55-1.31,0.83-2.72,0.83-4.22C548.51,71.02,548.23,69.61,547.66,68.3L547.66,68.3z M545.36,77.25
		c-0.42,1.16-1.01,2.13-1.76,2.92c-0.75,0.79-1.58,1.37-2.49,1.75c-0.91,0.38-1.86,0.57-2.84,0.57c-1.38,0-2.75-0.39-4.1-1.17
		c-1.35-0.78-2.47-1.96-3.35-3.53c-0.88-1.58-1.32-3.48-1.32-5.72c0-1.96,0.36-3.64,1.07-5.06c0.71-1.41,1.67-2.49,2.86-3.23
		c1.2-0.74,2.49-1.11,3.89-1.11c1.36,0,2.71,0.4,4.05,1.2c1.34,0.8,2.44,2,3.32,3.6c0.88,1.6,1.31,3.53,1.31,5.78
		C546,74.76,545.78,76.1,545.36,77.25L545.36,77.25z"/>
	<path d="M282.42,104.88h-23.6v1.37c3.37,0.27,5.82,0.75,7.37,1.46c1.55,0.71,2.55,1.74,3.01,3.1c0.46,1.36,0.69,3.47,0.69,6.33
		v42.74l-43.36-55h-15.59v1.37c4.52,0.68,7.78,1.86,9.79,3.54v46.55c0,3.31-0.21,5.68-0.62,7.13c-0.41,1.45-1.27,2.55-2.57,3.3
		c-1.3,0.75-3.5,1.41-6.6,1.97v1.37h23.69v-1.37c-3.4-0.21-5.93-0.74-7.6-1.59c-1.67-0.86-2.74-2.03-3.21-3.52
		c-0.47-1.49-0.71-3.65-0.71-6.49v-45.26l46.94,59.52h2.21v-53.72c0-2.92,0.29-5.12,0.89-6.58c0.59-1.46,1.56-2.5,2.9-3.12
		c1.34-0.62,3.46-1.2,6.35-1.73V104.88L282.42,104.88z M340.01,154.08c-0.89,4.46-1.87,7.62-2.94,9.48
		c-1.08,1.86-2.44,3.03-4.08,3.5c-1.64,0.47-4.22,0.71-7.73,0.71h-9.52c-2.42,0-4.07-0.21-4.94-0.62c-0.87-0.41-1.42-1.21-1.64-2.39
		c-0.22-1.18-0.33-3.44-0.33-6.78v-20.24h14.44c2.33,0,4.1,0.24,5.29,0.71c1.2,0.47,2.04,1.34,2.55,2.59
		c0.5,1.26,0.87,3.3,1.11,6.13h1.37v-20.15h-1.37c-0.12,1.95-0.37,3.53-0.75,4.74c-0.38,1.21-0.92,2.06-1.59,2.55
		c-0.68,0.49-1.51,0.79-2.5,0.91c-0.99,0.12-2.55,0.18-4.67,0.18h-13.86v-28.12h12.05c4.34,0,7.36,0.21,9.06,0.62
		c1.7,0.41,2.93,1.42,3.7,3.01c0.77,1.59,1.48,4.58,2.13,8.95h1.37l-0.84-14.97h-45.13v1.37c3.69,0.27,6.27,0.69,7.73,1.28
		c1.46,0.59,2.36,1.44,2.7,2.55c0.34,1.11,0.51,2.95,0.51,5.51v42.74c0,3.22-0.18,5.42-0.55,6.6c-0.37,1.18-1.29,2.03-2.77,2.55
		c-1.48,0.52-4.15,0.94-8.02,1.26v1.37h48.98l1.64-16.03H340.01L340.01,154.08z M405.63,145c-0.58-1.74-1.5-3.42-2.77-5.03
		c-1.27-1.61-2.94-3.04-5.01-4.3c-2.07-1.25-4.47-2.24-7.22-2.95c3.83-1,6.8-2.64,8.9-4.92c2.09-2.27,3.14-5.11,3.14-8.5
		c0-1.98-0.59-4.1-1.77-6.36c-1.18-2.26-3.6-4.29-7.26-6.09c-3.66-1.8-8.84-2.7-15.54-2.7c-0.88,0.03-2.79,0.07-5.71,0.13
		c-2.92,0.06-5.93,0.14-9.01,0.24c-3.08,0.1-5.02,0.16-5.8,0.18c-0.78,0.02-2.7,0.07-5.74,0.15v1.37c3.87,0.3,6.5,0.67,7.89,1.13
		c1.39,0.46,2.26,1.27,2.61,2.44c0.36,1.17,0.53,3.27,0.53,6.31v40.48c0,3.54-0.18,6.04-0.55,7.48c-0.37,1.45-1.34,2.52-2.92,3.23
		c-1.58,0.71-4.29,1.18-8.13,1.42v1.37h29.23c5.49,0,10.19-0.86,14.11-2.57c3.91-1.71,6.87-4.08,8.88-7.11
		c2.01-3.03,3.01-6.43,3.01-10.21C406.5,148.49,406.21,146.75,405.63,145L405.63,145z M391.86,128.55
		c-2.52,2.14-6.47,3.21-11.85,3.21H369.6v-24.67c0.38-0.03,1.29-0.11,2.7-0.24c1.41-0.13,2.62-0.22,3.61-0.27
		c0.99-0.04,1.85-0.07,2.59-0.07c2.98,0,5.59,0.36,7.82,1.09c2.23,0.72,4.01,1.68,5.34,2.88c1.33,1.2,2.33,2.61,2.99,4.25
		c0.66,1.64,0.99,3.34,0.99,5.12C395.64,123.51,394.38,126.41,391.86,128.55L391.86,128.55z M396.75,159.02
		c-1.18,2.55-3.21,4.65-6.07,6.29c-2.87,1.64-6.57,2.46-11.12,2.46c-3.13,0-5.4-0.38-6.82-1.15c-1.42-0.77-2.3-1.87-2.64-3.3
		c-0.34-1.43-0.51-3.73-0.51-6.89v-22.32h7.44c7.32,0,12.73,1.53,16.23,4.58c3.5,3.06,5.25,7.09,5.25,12.11
		C398.52,153.73,397.93,156.47,396.75,159.02L396.75,159.02z M482.62,170.03c-2.1-0.12-4.22-1.05-6.36-2.79
		c-2.14-1.74-4.07-3.79-5.78-6.13c-1.71-2.35-3.22-4.67-4.52-6.97c-1.3-2.3-2.41-4.27-3.32-5.89c-0.5-0.89-1.53-2.58-3.1-5.09
		c-1.57-2.51-2.59-4.16-3.06-4.96c2.1-0.65,4.12-1.72,6.07-3.21c1.95-1.49,3.54-3.34,4.78-5.54c1.24-2.2,1.86-4.66,1.86-7.37
		c0-2.33-0.47-4.57-1.42-6.71c-0.94-2.14-2.43-4.04-4.45-5.71c-2.02-1.67-4.67-3-7.95-3.99c-3.27-0.99-7.08-1.48-11.43-1.48
		c-0.85,0-4.36,0.08-10.52,0.24c-6.15,0.16-11.02,0.32-14.59,0.46v1.37c4.34,0.12,7.13,0.77,8.37,1.95
		c1.24,1.18,1.86,2.89,1.86,5.14v1.2v45.26c0,2.33-0.23,4.07-0.69,5.2c-0.46,1.14-1.4,1.98-2.83,2.52
		c-1.43,0.55-3.67,0.95-6.71,1.22v1.37h28.83v-1.37c-3.75-0.29-6.46-0.71-8.15-1.24c-1.68-0.53-2.72-1.25-3.12-2.17
		c-0.4-0.91-0.6-2.44-0.6-4.56v-0.8v-19.8h4.69c2.31,0,5.36-0.18,9.17-0.53c0.33,0.44,0.8,1.16,1.44,2.15
		c0.64,0.99,1.22,1.91,1.77,2.77c0.55,0.86,2.41,3.9,5.6,9.12c2.04,3.34,3.76,5.99,5.18,7.95c1.42,1.96,2.99,3.68,4.71,5.14
		c1.73,1.46,3.71,2.58,5.94,3.34c2.23,0.77,5,1.2,8.31,1.28V170.03L482.62,170.03z M455.56,134.35c-3.75,2.38-8.64,3.56-14.66,3.56
		h-5.09v-30.91c2.92-0.32,5.49-0.49,7.71-0.49c4.19,0,7.61,0.75,10.25,2.24c2.64,1.49,4.54,3.43,5.69,5.82
		c1.15,2.39,1.73,5,1.73,7.84C461.18,128,459.31,131.98,455.56,134.35L455.56,134.35z M518.62,168.74c-2.42,0-4.29-0.18-5.6-0.55
		c-1.31-0.37-2.28-0.96-2.88-1.77c-0.61-0.81-0.97-1.76-1.11-2.86c-0.13-1.09-0.2-2.75-0.2-4.96v-41.9c0-2.39,0.07-4.14,0.2-5.25
		c0.13-1.11,0.48-2.02,1.06-2.75c0.57-0.72,1.55-1.28,2.94-1.68c1.39-0.4,3.25-0.66,5.58-0.77v-1.37h-26.04v1.37
		c3.31,0.24,5.57,0.63,6.8,1.17c1.22,0.55,1.99,1.5,2.28,2.86c0.29,1.36,0.44,3.88,0.44,7.57v40.48c0,3.28-0.17,5.58-0.51,6.91
		c-0.34,1.33-1.15,2.24-2.42,2.75c-1.27,0.5-3.47,0.75-6.6,0.75v1.37h26.04V168.74L518.62,168.74z M556.96,104.88h-27.1v1.37
		c3.51,0.27,5.96,0.7,7.35,1.31c1.39,0.61,2.24,1.51,2.57,2.72c0.33,1.21,0.49,3.32,0.49,6.33v50.89v3.99c0,3.22-0.1,5.53-0.29,6.93
		c-0.19,1.4-0.67,2.87-1.44,4.41c-0.65,1.36-1.5,2.39-2.55,3.1c-1.05,0.71-2.03,1.06-2.94,1.06c-1.39,0-2.85-0.66-4.38-1.99
		c-1.36-1.21-2.25-1.96-2.68-2.24c-0.43-0.28-0.89-0.42-1.4-0.42c-0.71,0-1.34,0.23-1.9,0.69c-0.56,0.46-1.01,0.99-1.33,1.59
		c-0.33,0.6-0.49,1.16-0.49,1.66c0,1.09,0.78,2.12,2.35,3.08c1.57,0.96,3.41,1.44,5.53,1.44c2.6,0,5.19-0.78,7.77-2.35
		c2.58-1.57,4.69-3.78,6.31-6.64c1.8-3.19,2.94-6.05,3.43-8.59c0.49-2.54,0.73-5.36,0.73-8.46v-1.64v-47.34
		c0-2.63,0.16-4.47,0.49-5.51c0.32-1.05,1.11-1.84,2.37-2.37c1.26-0.53,3.63-1.08,7.11-1.64V104.88L556.96,104.88z M626,168.74
		c-3.1-0.56-5.25-1.09-6.44-1.57c-1.2-0.49-2.18-1.34-2.95-2.57c-0.77-1.22-1.76-3.54-2.97-6.93l-18.87-53.94h-7.08l1.02,2.52
		l-17.49,50.89c-1.15,3.31-2.23,5.74-3.25,7.28c-1.02,1.55-2.11,2.57-3.28,3.06c-1.17,0.49-2.96,0.91-5.38,1.26v1.37h24.22v-1.37
		c-3.19-0.24-5.6-0.55-7.24-0.93c-1.64-0.38-2.81-0.89-3.5-1.53c-0.69-0.63-1.04-1.44-1.04-2.41c0-0.97,0.52-2.91,1.55-5.8
		l6.07-17.54h21.21l6.55,18.6c0.83,2.33,1.24,4.03,1.24,5.09c0,0.95-0.27,1.68-0.8,2.21c-0.53,0.53-1.46,0.96-2.79,1.28
		c-1.33,0.33-3.57,0.66-6.73,1.02v1.37H626V168.74L626,168.74z M580.17,138.18l9.74-28.39l9.88,28.39H580.17L580.17,138.18z"/>
	<path d="M167.33,89.75c-1.3-1.86-2.42-3.86-3.8-5.65c-2.97-3.84-6.13-7.54-9.08-11.4c-1.18-1.55-2.77-3.31-2.87-5.05
		c-0.2-3.56,0.49-7.17,0.82-10.89c1.66,0.58,2.75,0.96,3.84,1.34c-2.23-4.12-2.66-9.09-7.12-12.12c1.23,3.14,2.28,5.79,3.33,8.44
		c-0.19,0.07-0.37,0.15-0.56,0.23c-2.24-2.14-4.49-4.28-6.74-6.42c-0.41,1.19-0.16,2.04-0.27,2.84c-0.08,0.62-0.51,1.34-1.02,1.69
		c-0.29,0.21-1.3-0.05-1.52-0.4c-2-3.26-5.19-3.53-8.47-3.59c0.32-0.24,0.63-0.46,0.95-0.69c3.91-2.69,8.52-2.15,12.87-2.75
		c2.26-0.31,2.83-1.11,1.68-3.08c-1.04-1.8-2.13-3.74-3.67-5.06c-5.65-4.81-10.19-10.49-14.15-16.71c-1.46-2.3-3.57-3.99-6.39-4.02
		c-5.66-0.06-11.41-0.53-16.94,0.32c-8.59,1.32-17.06,3.48-25.52,5.54c-7.45,1.82-14.7,4.33-19.43,10.91
		c-2.74,3.81-6.55,6.17-10,9.08c-4.1,3.47-9.29,5.43-12.63,9.97c-2.64,3.59-3.74,7.35-2.89,11.56c1.25,6.13,4.81,10.97,9.27,15.19
		c3.51,3.32,7.4,6.16,9.62,10.82c1.59,3.34,4.16,6.4,8.85,4.45c0.75-0.31,1.73-0.02,2.6-0.08c0.82-0.06,1.64-0.22,2.45-0.34
		c-0.2-0.78-0.42-1.56-0.62-2.34c-0.12-0.47-0.45-1.24-0.3-1.35c0.42-0.3,1.04-0.47,1.57-0.44c1.71,0.1,3.42,0.39,5.14,0.44
		c0.66,0.02,1.33-0.42,1.99-0.65c-0.25-0.7-0.5-1.4-0.76-2.1c-0.26-0.71-0.55-1.42-0.82-2.13c0.03,0,0.06,0,0.08-0.01
		c-0.01-0.01-0.03-0.03-0.05-0.04c0.75-0.46,1.46-1.05,2.27-1.35c2.02-0.72,4.24-1.01,6.12-1.98c3.53-1.82,6.89-4,10.32-6.03
		c3.78-3.58,7.49-7.24,11.36-10.72c2.83-2.55,5.87-4.87,9-7.45c-1.07,4.86-2.01,9.08-2.94,13.3c-0.22-0.03-0.43-0.06-0.65-0.08
		c-0.2-1.76-0.4-3.51-0.61-5.27c-1.15,4.96,1.18,10.37-2.87,14.79c3.02-0.17,5.38-2.41,5.8-5.72c0.48-3.69,0.71-7.42,1.06-11.13
		c0.02-0.18,0.22-0.33,0.49-0.7c0.06,0.8,0.1,1.32,0.13,1.77c1.82-1.58,3.54-3.06,5.34-4.61c0.27,0.44,0.55,0.92,0.88,1.44
		c0.94-1.19,1.78-2.27,2.65-3.37c0.39,0.37,0.69,0.66,1.07,1.03c0.95-1.21,1.87-2.38,2.97-3.79c0.2,0.89,0.34,1.46,0.46,2.04
		c0.11,0.52,0.2,1.04,0.23,1.19c1.48-1.22,2.95-2.43,4.54-3.73c0.2,0.41,0.4,0.85,0.71,1.49c1.5-1.37,2.91-2.68,4.37-4.01
		c2.04,1.77,4.13,3.58,6.37,5.53c0.52-1.22,0.98-2.3,1.45-3.4c2.54,0.76,3.86,1.96,3.11,4.83c-0.55,2.1-0.46,4.35-0.77,6.52
		c-0.38,2.77,0.45,5.25,2.49,6.88c6.03,4.79,9.26,11.74,13.9,17.59c1.95,2.46,1.22,6.56-1.26,7.87c-0.88,0.47-2.12,0.28-3.53,0.42
		c0.6-1.26,0.91-1.91,1.3-2.73c-0.65-0.18-1.15-0.5-1.44-0.37c-1.45,0.66-2.92,1.34-4.24,2.22c-1.76,1.19-4.2,1.11-5.08-0.57
		c-1-1.9-0.26-3.34,1.7-4.16c0.2-0.09,0.32-0.36,0.47-0.55c-0.15-0.23-0.3-0.46-0.44-0.69c-1.07,0.73-2.58,1.23-3.12,2.24
		c-1.17,2.21-1.85,4.69-2.73,7.06c0.11,0.06,0.23,0.11,0.35,0.16c0.78-0.88,1.57-1.75,1.9-2.12c2.22,0.28,3.97,0.91,5.51,0.58
		c1.54-0.33,2.87-1.64,4.21-2.46c0.27,0.79,0.35,1.64,0.62,1.71c1.51,0.39,3.32,1.22,4.57,0.73
		C168.59,98.22,169.69,93.14,167.33,89.75L167.33,89.75z M107.23,97.24c1.14-1.9,2.28-3.81,3.42-5.71
		c-0.11-0.03-0.23-0.05-0.35-0.08c-2.35,1.85-4.7,3.69-7.07,5.55c2.34,3.07,4.73,3.96,8.35,2.74c2.37-0.8,3.23-2.13,3.24-5.04
		C113.14,98.67,110.27,99.62,107.23,97.24L107.23,97.24z M80.38,90.87h-9.83c1.94,1.79,3.55,3.27,5.39,4.98
		c-1.38,0.73-2.53,1.33-3.92,2.06c4.08,2.77,8.09,3.89,12.47,2.62c-2.5-0.63-5.08-1.27-7.84-1.97c1.02-2.17,1.67-3.56,2.32-4.94
		c-0.17-0.09-0.34-0.2-0.51-0.29c-0.55,0.48-1.09,0.97-1.66,1.47C75.99,93.51,75.99,93.51,80.38,90.87L80.38,90.87z M78.53,116.52
		c-1.88,3.14-4.12,5.8-8.14,6.02c2.21,3.66,4.79,4.87,8.2,3.86c-1.32-0.52-2.54-1.01-3.86-1.56c1.64-2.88,3.07-5.37,4.49-7.88
		L78.53,116.52L78.53,116.52z M64.98,109.71c-0.01,0.01-0.03,0.02-0.05,0.03c0.05,0.01,0.09,0.01,0.14,0.01L64.98,109.71
		L64.98,109.71z M64.98,109.7c1.04-0.42,2.09-0.83,3.14-1.24c-3.63,0.33-5.67-1.65-7.41-4.28C61,106.97,62.59,108.66,64.98,109.7
		L64.98,109.7z M65.01,109.72c-0.01-0.01-0.02-0.01-0.04-0.02c0,0,0,0-0.01,0C64.97,109.7,64.99,109.71,65.01,109.72L65.01,109.72z
		 M75.92,117.25c-1.57-0.6-3.45-1.31-5.32-2.02c0.09-0.22,0.19-0.44,0.29-0.66c1.58-0.62,3.17-1.24,4.76-1.86
		c-0.04-0.24-0.08-0.48-0.12-0.72c-1.4,0-2.81,0.13-4.2-0.03c-1.53-0.18-3.03-0.63-4.75-0.99
		C68.05,116.32,71.87,118.86,75.92,117.25L75.92,117.25z M91.09,121.74c-7.93,8.1-15.03,10.35-21.8,7.12
		c0.23,2.24,1.29,3.5,3.52,3.27c2.57-0.24,5.25-0.31,7.66-1.1C84.99,129.56,89.09,127.31,91.09,121.74L91.09,121.74z M92.19,117.62
		c-1.72,1.15-2.93,2.05-4.22,2.81c-3.69,2.19-4.73,1.95-7.1-1.5c-0.2-0.29-0.3-0.65-0.41-0.9c-0.27,2.54-0.51,4.76-0.74,6.93
		C84.33,124.64,89.48,121.79,92.19,117.62L92.19,117.62z M93.92,110.56c-1.71,2.31-3.77,3.77-7.07,3.37
		c0.35-1.35,0.66-2.53,1.02-3.87c-1.8,1.63-3.44,3.12-5.3,4.82c2.64,1.73,5.43,1.43,8.18-0.02
		C93.19,113.57,93.99,112.39,93.92,110.56L93.92,110.56z M89.59,97.34c-1.6-0.4-3.32-0.82-5.06-1.25
		C85.4,98.61,86.67,98.96,89.59,97.34L89.59,97.34z M90.9,102.39c-2.52,0.86-4.92,2.09-7.58,3.27c5.95,4.74,5.95,4.74,8.4,4.24
		c-0.64-0.26-1.18-0.35-1.51-0.65c-1.03-0.96-1.98-2.01-2.96-3.02c0.95-0.84,1.78-1.91,2.87-2.44c0.97-0.47,2.19-0.43,3.31-0.57
		C92.57,102.87,91.57,102.15,90.9,102.39L90.9,102.39z M93.57,103.27c0.03-0.02,0.05-0.04,0.07-0.06c-0.14,1.27-0.28,2.54-0.44,4.03
		c2.16,1.06,5.06,0.55,7-1.56c1.71-1.86,2.38-6.06,1.28-8c-0.57,5.66-1.17,6.61-4.7,7.4c-0.09-1.47-0.19-2.95-0.28-4.48
		c-1.07,0.97-1.97,1.79-2.86,2.6v0c-0.06,0.01-0.14,0.01-0.2,0.02C93.48,103.24,93.52,103.25,93.57,103.27L93.57,103.27z
		 M109.46,105.03c-1.77,1.08-2.78,3.45-5.31,2.85c0.31-2.33,0.6-4.52,0.89-6.7c-0.23-0.07-0.47-0.13-0.7-0.21
		c-0.77,4.09-1.94,7.8-7.2,7.89c2.26,2,4.81,2.11,7.28,1.34C106.91,109.43,108.35,107.33,109.46,105.03L109.46,105.03z
		 M93.37,118.12c1.34-0.38,2.85-0.8,4.37-1.22c1.83-1.48,3.65-2.96,5.47-4.44c-0.17-0.2-0.33-0.39-0.5-0.59
		c-1.2,0.9-2.4,1.8-3.93,2.95l0.82-2.3C97.53,114.37,95.47,116.24,93.37,118.12L93.37,118.12z M97.75,116.9L97.75,116.9
		c-0.03,0.02-0.04,0.03-0.06,0.05L97.75,116.9L97.75,116.9z M52.48,106.87c0.93,1.96,1.65,3.48,2.45,5.2
		c-1.24-0.37-2.18-0.65-3.13-0.93c-0.15,0.19-0.3,0.38-0.45,0.57c1.27,1.4,2.53,2.79,3.8,4.2c-1.11-0.29-2.29-0.59-3.82-0.99
		c2.11,2.99,3.89,5.5,5.68,8.04c-0.24,0.2-0.7,0.6-1.37,1.17c3.4-0.24,3.25,0.1,7.49,2.13c2.48,1.18,5.56,1.09,8.37,1.57l0.16-0.85
		c-1.35-0.31-2.71-0.61-4.06-0.92c0-0.18-0.01-0.37-0.01-0.56c0.97-0.25,1.95-0.51,2.5-0.65c-1.29-1.22-2.68-2.54-4.55-4.3
		c3.08-0.62,5.27-1.07,7.47-1.51c-4.31-0.45-7.69-2.37-10.29-5.86c-0.2,0.17-0.41,0.33-0.61,0.49c0.6,2.55,1.21,5.11,1.81,7.65
		c-4.52,0.8-6.04,0.13-7.54-3.51h4.9c-1.51-2-3-3.98-4.5-5.97c0.2-0.22,0.39-0.45,0.59-0.67c1-0.04,2-0.1,2.99-0.14
		c0.14-0.15,0.28-0.29,0.41-0.44c-0.86-0.46-1.72-0.93-2.58-1.39c0.18-0.21,0.37-0.43,0.55-0.64c1.5,0.61,2.98,1.32,4.52,1.78
		c0.45,0.14,1.09-0.38,1.66-0.62c-4.75-0.32-6.46-4.48-9.5-8.01v6.23C54.36,107.56,53.62,107.29,52.48,106.87L52.48,106.87z
		 M57.64,95.1c0.89,2.69-1.19,3.15-4.22,2.94c1.98,1.58,3.37,3.04,5.05,3.92c1.74,0.91,3.78,1.26,5.69,1.86
		c0.08-0.09,0.16-0.19,0.24-0.29c-1.55-1.11-3.1-2.23-5.27-3.8c3.64-1.41,6.65-2.57,9.65-3.73C65.08,95.7,61.39,95.4,57.64,95.1
		L57.64,95.1z M72.6,94.46c-1.71,0.69-2.76,1.11-3.8,1.54c0-0.01,0-0.01,0-0.01c-0.01,0-0.01,0-0.02,0.01h0.01
		c-1.74,1.14-3.49,2.28-5.34,3.5c1.66,0.69,3.29,1.38,5.43,2.27c-1.61,0.66-2.67,1.09-3.61,1.48c2.31,1.81,4.54,3.57,7.07,5.54
		c-0.33,0.12-0.84,0.3-1.66,0.61c8.05,2.8,9.7,2.82,13.8,0.34h-7.42c0.94-1.57,1.64-2.66,2.27-3.79c0.59-1.07,1.12-2.18,1.68-3.27
		c-6.12,5.74-6.53,5.02-10.06,1.35c0.77-1.23,1.56-2.48,2.34-3.73c-1.81-0.23-3.43-0.45-5.05-0.66c-0.06-0.3-0.13-0.59-0.2-0.89
		C69.36,97.5,70.69,96.25,72.6,94.46L72.6,94.46z M82.23,86.91c1.12-0.64,2.17-1.18,3.16-1.82c1.09-0.71,2.13-1.5,3.18-2.28
		c0.87-0.65,1.71-1.33,2.37-1.84c-3.12,1.23-6.25,2.59-9.47,3.68c-1.47,0.49-3.1,0.48-4.67,0.67c5.52,4.96,10.64,5.85,15.98,3.72
		C89.06,88.89,85.34,89.96,82.23,86.91L82.23,86.91z M105.27,89.61c-3.65,4.32-7.42,5.97-9.92,4.6c0.69-2.84,1.37-5.62,2.05-8.39
		c-0.12,0-0.23,0.01-0.35,0.01c-1.09,2.01-1.74,4.62-3.4,5.88c-1.62,1.23-4.27,1.09-6.29,1.52c2.4,3.11,6.08,4,10.27,3.01
		C101.78,95.27,104.64,92.66,105.27,89.61L105.27,89.61z M102.33,84.19c-0.47,2.17-1.76,4.17-2.63,6.12
		c3.98-2.06,4.62-4.26,3.11-12.9C102.43,79.67,102.79,82.02,102.33,84.19L102.33,84.19z M95.43,75.95c0,0.01,0,0.01,0.01,0.02
		c0-0.01,0.01-0.02,0.02-0.04C95.47,75.92,95.43,75.95,95.43,75.95L95.43,75.95z M96.93,80.03c-0.49-1.36-0.99-2.71-1.49-4.06
		c-0.17,0.42-0.52,0.89-0.41,1.2c0.93,2.56,1.1,4.95-1.68,6.99c5.81-0.33,9.56-6.66,7.93-10.04c-1.09,1.93-2.31,4.08-3.53,6.23
		C97.47,80.24,97.2,80.13,96.93,80.03L96.93,80.03z M110.1,77.68c-3.2-4.35-1.81-8.42-0.38-12.49c-0.32-0.05-0.63-0.11-0.95-0.16
		c-0.7,3-1.41,6-2.31,9.83c-0.95-2.01-1.69-3.56-2.35-4.95C103.21,74.33,104.58,76.35,110.1,77.68L110.1,77.68z M111.66,88.1
		c-0.14-1.43-1.05-2.47-1.15-3.6c-0.08-0.85,0.84-1.8,1.15-2.37c-1.43-0.21-3.13-0.46-4.77-0.71
		C108.48,83.65,110.07,85.88,111.66,88.1L111.66,88.1z M138.18,73.91c0.74,1.29,1.34,2.31,2.02,3.49c-0.75,0.26-1.39,0.46-2.03,0.7
		c-0.67,0.25-1.33,0.54-2.49,1.01c4.19,0.46,6.86-0.71,7.49-3.67c0.15-0.72,0.27-1.46,0.37-2.2c-0.09,0.04-0.19,0.06-0.29,0.07
		c-1.11,0.13-2.2-0.89-2.16-2.01c0.03-0.68,0.41-1.3,0.87-1.81c0.4-0.44,0.93-0.84,1.52-0.78c-0.14,0.11-0.05,0.36,0.09,0.47
		c0.07,0.05,0.15,0.1,0.22,0.14c0.01-0.95,0-1.9-0.06-2.83c-0.05-0.85-0.58-1.62-1.36-1.97c-0.42,0.8-0.95,1.54-1.51,2.14
		c-0.16,0.17-0.36,0.34-0.57,0.51c0.05,0,0.11,0,0.16,0c-2.4,2.85-5.15,6.11-7.89,9.36c0.12,0.18,0.24,0.36,0.36,0.54
		C134.65,76.03,136.39,74.98,138.18,73.91L138.18,73.91z M128.08,74.97c-1.02-0.39-1.7-0.65-2.41-0.92
		c0.93-0.97,1.67-1.93,2.59-2.66c3.16-2.48,5.57-5.85,9.33-7.64c2.76-1.31,5.49-1.04,7.78,1.49v-3.93c-1.56-0.14-2.68-0.21-3.8-0.34
		c-5.19-0.6-12.36,2.88-14.76,7.22c-1.59,2.86-2.96,5.86-4.78,8.57c-1.21,1.8-0.98,3.05-0.78,3.3
		C122.25,78.88,124.67,75.71,128.08,74.97L128.08,74.97z M38.46,176.71c-1.05,0.39-1.88,1.58-2.79,2.23
		c-1.83,1.33-0.4,2.73,0.51,3.77c6.35,7.33,13.71,13.54,22.21,18.13c12.83,6.93,26.52,11.21,41.1,12.91
		c14.86,1.73,29.01-0.64,42.83-5.88c1.78-0.68,3.45-1.62,5.19-2.52c0.6-0.31,2.77-0.94,3.42-1.07
		c-5.63-11.57-8.02-25.63-21.24-34.48c-1.56,0.23-2.09,1.32-1.87,3.34c0.07-0.05,0.13-0.1,0.19-0.15c-0.21,0.39-0.44,0.81-0.68,1.22
		c-2.06,0.4-4.12-0.11-5.44-0.85c-9.51-5.25-19.69-8.29-30.14-10.65c-10.57-2.4-21.29-3.74-32.17-3.29
		c-0.29,0.01-0.59-0.22-1.2-0.46c3.57-2.83,16.19-11.86,16.19-11.86c3.77-1.45,10.13-3.65,14.46-4.64l-3.07-4.51l10.35,3.04h0.01
		L89.58,134l10.07,2.14v0l0.47,0.1l-0.32-0.37c0,0,0,0,0,0l-5.88-6.76l9.63,2.45l-3.9-6.59l11.44,3.93
		c0.49-0.01,0.97-0.01,1.41,0.02c1.51,0.1,2.72,0.46,3.48,0.74c1.49,0.82,2.97,1.66,4.46,2.46c2.18,1.17,4.17,1.93,6.65,1.68
		c2.58-0.28,5.13,0,7.26,1.9c-1.62,0.11-3.21-0.04-4.8-0.2c-1.71-0.17-3.43-0.35-5.14-0.53c0.93,0.67,1.95,1.07,3.01,1.24
		c2.84,0.45,5.69,0.76,8.53,1.21c3.23,0.5,4.46,2.54,3.5,5.65c-0.28,0.9-0.55,1.81-0.82,2.72c0.34,0.09,0.69,0.18,1.03,0.28
		c0.79-2.66,1.58-5.31,2.32-7.81c3.23-1.1,6.64-2.28,10.53-3.59c-0.75-0.48-0.84-0.59-0.89-0.57c-0.42,0.14-0.84,0.25-1.24,0.44
		c-4.63,2.15-9.16,2.05-13.9,0.03c-3.49-1.49-7.26-2.3-10.9-3.44c-2.12-0.67-4.39-1.08-6.32-2.12c-4.72-2.54-8.04-6.93-12.86-9.6
		c-2.97-1.64-5.4-3.01-8.71-2.45c-2.12,3.06-3.8,6.64-6.51,9.05c-4.55,4.06-9.04,9.13-16.61,7.31c1.15,0.98,2.31,1.95,3.88,3.28
		c-2.75,3.44-5.26,7.24-8.43,10.37c-3.77,3.72-8.25,6.7-12.16,10.29c-1.95,1.79-3.76,3.42-6.35,4.28c-1.56,0.52-3.03,1.73-4.19,2.96
		c-2.77,2.96-5.16,6.04-7.11,9.57c-0.49,0.88-0.99,1.78-1.66,2.53C38.53,176.64,38.49,176.68,38.46,176.71L38.46,176.71z
		 M155.11,201.9c0.09-0.13,0.18-0.23,0.25-0.37c0.16-0.28,0.4-0.98,0.74-1.09c2.68-0.89,6.57-3.7,8.11-6.38
		c-3.58-4.55-7.22-9.13-10.81-13.74c-3.68-4.73-6.58-10.08-11.7-13.65c-1.08-0.76-1.32-2.89-1.69-4.45
		c-0.27-1.16,0.02-2.45-0.22-3.62c-1.29-6.47,2.21-11.43,5.09-16.57c0.26-0.47,0.96-0.72,1.51-0.96c2.24-0.98,4.48-1.96,6.76-2.85
		c6.6-2.55,11.24-10.61,6.65-16.88c-0.5-0.68-0.69-2.41-0.25-2.83c2.59-2.46,4.63-4.92,2.44-8.67c2.22-4.02-1.15-6.78-2.33-10.04
		c-0.01,1.51,0.26,2.97,0.77,4.34c1.32,3.59-0.16,5.5-3.99,5.47c-1.79-0.01-3.59,0.68-5.39,1.05c0.09,0.38,0.19,0.77,0.28,1.14
		c0.94-0.23,1.92-0.74,2.82-0.64c2.16,0.24,4.92,0.09,6.24,1.35c1.42,1.37-1.19,2.59-2.18,3.79c-0.1,0.13-0.29,0.19-0.44,0.28
		c0.02-0.17,0.03-0.34,0.05-0.51c-1.7-0.18-3.4-0.36-5.22-0.55c1.48,1.07,2.82,1.73,3.72,2.79c0.79,0.93,0.96,2.36,1.6,3.45
		c1.54,2.59,2.71,5.36,1.14,8.17c-1.72,3.07-3.65,5.99-7.55,7.08c-2.77,0.77-5.76,2-7.78,3.94c-2.26,2.15-3.57,5.33-5.21,8.11
		c-0.38,0.64-0.6,1.48-0.6,2.22c-0.01,4.18-0.04,8.37,0.15,12.56c0.2,4.33-1.06,5.45-5.12,4.21c-0.03-0.01-0.1,0.08-0.18,0.2
		C142.22,174.88,147.94,189.23,155.11,201.9L155.11,201.9z"/>
	<path d="M710.93,128.85v41.14h9.59v-15.45h2.82c3.27,0,6.55-0.29,8.56-1.49c1.84-1.09,5.52-4.08,5.52-11.2
		c0-4.19-1.15-7.12-3.22-9.48c-2.07-2.36-4.65-3.5-12.01-3.5H710.93L710.93,128.85z M720.52,136.37h1.15c2.18,0,6.15,0.11,6.15,5.23
		c0,4.94-2.99,5.4-5.63,5.4h-1.67V136.37L720.52,136.37z M742.59,140.22v29.76h9.08v-15.97c0-5.23,2.18-6.78,4.25-6.78
		c0.8,0,1.32,0.23,1.95,0.46l1.72-7.47c-1.32-0.46-2.01-0.69-2.99-0.69c-3.33,0-4.65,3.27-5.23,5h-0.11v-4.31H742.59L742.59,140.22z
		 M761.09,155.62c0,3.62,0,15.05,12.06,15.05c11.95,0,11.95-11.66,11.95-15.57c0-4.77-0.46-15.57-12.06-15.57
		C761.09,139.53,761.09,151.14,761.09,155.62L761.09,155.62z M770.16,155.27c0-5.17,0-8.96,2.87-8.96c2.76,0,2.99,3.79,2.99,8.73
		c0,5.06-0.17,8.85-2.99,8.85C770.16,163.89,770.16,160.39,770.16,155.27L770.16,155.27z M788.32,140.22V147h3.79v22.98h9.08V147
		h4.54v-6.78h-4.54v-2.41c0-1.67,0-3.27,2.99-3.27c0.8,0,1.38,0.11,1.84,0.17l1.15-5.86c-1.26-0.29-3.45-0.69-6.55-0.69
		c-8.5,0-8.5,5.92-8.5,9.25v2.82H788.32L788.32,140.22z M832.9,157.34v-3.04c0-2.99-0.46-8.27-3.79-11.78
		c-2.76-2.87-6.61-2.99-8.22-2.99c-12.35,0-12.35,12.01-12.35,16.14c0,9.59,3.68,14.99,12.29,14.99c2.3,0,6.32,0,9.25-3.56
		c1.9-2.3,2.13-4.14,2.3-5.69l-8.62-1.09c-0.11,1.49-0.29,4.19-3.1,4.19c-2.24,0-3.05-1.72-3.05-7.18H832.9L832.9,157.34z
		 M817.62,152.46c0-2.82-0.06-6.89,3.39-6.89c1.72,0,3.1,1.03,3.1,6.2v0.69H817.62L817.62,152.46z M857.43,147.69
		c-0.29-2.59-2.47-8.16-10.23-8.16c-7.24,0-10.34,4.6-10.34,8.91c0,4.08,2.41,6.61,7.81,9.48c2.93,1.55,5.06,2.64,5.06,4.42
		c0,1.15-1.03,2.18-2.36,2.18c-2.47,0-2.82-2.82-2.93-3.79l-8.27,1.32c0.98,6.09,4.6,8.62,10.63,8.62c9.82,0,11.38-5.86,11.38-8.85
		c0-5.34-4.19-7.58-8.16-9.71c-4.02-2.18-5.11-3.1-5.11-4.54c0-0.92,0.8-1.9,2.24-1.9c1.26,0,2.3,0.4,2.76,3.16L857.43,147.69
		L857.43,147.69z M863.58,140.22v29.76h9.08v-29.76H863.58L863.58,140.22z M863.58,128.85v7.12h9.08v-7.12H863.58L863.58,128.85z
		 M878.29,155.62c0,3.62,0,15.05,12.06,15.05c11.95,0,11.95-11.66,11.95-15.57c0-4.77-0.46-15.57-12.06-15.57
		C878.29,139.53,878.29,151.14,878.29,155.62L878.29,155.62z M887.36,155.27c0-5.17,0-8.96,2.87-8.96c2.76,0,2.99,3.79,2.99,8.73
		c0,5.06-0.17,8.85-2.99,8.85C887.36,163.89,887.36,160.39,887.36,155.27L887.36,155.27z M907.3,140.22v29.76h9.08v-16.43
		c0-3.16,0.06-7.01,2.87-7.01c2.07,0,2.07,2.64,2.07,4.65v18.79h9.08v-21.43c0-2.87-0.23-9.02-7.53-9.02
		c-3.05,0-4.94,1.32-6.38,3.33h-0.11v-2.64H907.3L907.3,140.22z M944.36,149.24c0.11-1.26,0.4-3.68,3.05-3.68
		c2.7,0,2.7,2.13,2.7,4.31v0.75c-0.75,0.4-1.26,0.69-4.88,1.55c-4.94,1.15-6.55,1.78-8.27,4.02c-1.09,1.44-1.84,3.27-1.84,5.92
		c0,7.53,6.26,8.56,8.56,8.56c4.42,0,6.43-2.36,7.24-3.33c0.29,1.26,0.4,1.61,0.86,2.64h8.79c-0.75-1.26-1.84-3.16-1.84-9.48v-11.15
		c0-3.96-0.52-9.82-11.03-9.82c-5.75,0-10.23,0.98-11.72,8.33L944.36,149.24L944.36,149.24z M950.1,159.99
		c0,3.5-1.21,4.77-3.16,4.77c-1.15,0-3.22-0.8-3.22-3.1c0-2.7,2.3-3.73,4.14-4.48c1.32-0.52,1.49-0.63,2.24-1.03V159.99
		L950.1,159.99z M965.04,128.85v41.14h9.02v-41.14H965.04L965.04,128.85z M1004.05,157.34v-3.04c0-2.99-0.46-8.27-3.79-11.78
		c-2.76-2.87-6.61-2.99-8.22-2.99c-12.35,0-12.35,12.01-12.35,16.14c0,9.59,3.68,14.99,12.29,14.99c2.3,0,6.32,0,9.25-3.56
		c1.9-2.3,2.13-4.14,2.3-5.69l-8.62-1.09c-0.11,1.49-0.29,4.19-3.1,4.19c-2.24,0-3.04-1.72-3.04-7.18H1004.05L1004.05,157.34z
		 M988.77,152.46c0-2.82-0.06-6.89,3.39-6.89c1.72,0,3.1,1.03,3.1,6.2v0.69H988.77L988.77,152.46z M1028.58,147.69
		c-0.29-2.59-2.47-8.16-10.23-8.16c-7.24,0-10.34,4.6-10.34,8.91c0,4.08,2.41,6.61,7.81,9.48c2.93,1.55,5.06,2.64,5.06,4.42
		c0,1.15-1.03,2.18-2.36,2.18c-2.47,0-2.82-2.82-2.93-3.79l-8.27,1.32c0.98,6.09,4.6,8.62,10.63,8.62c9.82,0,11.38-5.86,11.38-8.85
		c0-5.34-4.19-7.58-8.16-9.71c-4.02-2.18-5.11-3.1-5.11-4.54c0-0.92,0.8-1.9,2.24-1.9c1.26,0,2.3,0.4,2.76,3.16L1028.58,147.69
		L1028.58,147.69z"/>
	<path d="M737.24,72.92c-0.75-5.86-2.87-12.98-13.44-12.98c-3.04,0-6.89,0.46-9.88,4.25c-2.3,2.93-3.33,6.2-3.33,18.1
		c0,10.86,1.03,20.17,13.73,20.17c7.41,0,12.7-3.73,13.33-14.54l-9.88-1.9c-0.06,4.83-0.11,8.62-3.73,8.62
		c-3.56,0-3.56-3.68-3.56-6.72V75.5c0-3.96,0-7.76,3.56-7.76c3.45,0,3.62,4.02,3.73,6.84L737.24,72.92L737.24,72.92z M742.13,87.39
		c0,3.62,0,15.05,12.06,15.05c11.95,0,11.95-11.66,11.95-15.57c0-4.77-0.46-15.57-12.06-15.57
		C742.13,71.31,742.13,82.91,742.13,87.39L742.13,87.39z M751.2,87.05c0-5.17,0-8.96,2.87-8.96c2.76,0,2.99,3.79,2.99,8.73
		c0,5.06-0.17,8.85-2.99,8.85C751.2,95.67,751.2,92.16,751.2,87.05L751.2,87.05z M771.25,72v29.76h9.08V83.83
		c0-3.45,0.06-5.52,2.36-5.52c1.84,0,1.84,1.78,1.84,3.16v20.28h9.08V84.52c0-3.39,0.06-6.26,2.41-6.26c1.72,0,1.78,1.44,1.78,4.02
		v19.48h9.08V80.67c0-1.49-0.17-4.48-0.92-5.8c-2.07-3.56-5.4-3.56-6.49-3.56c-2.18,0-4.48,0.69-6.55,4.14
		c-0.52-1.21-1.84-4.14-6.38-4.14c-4.48,0-6.2,3.27-6.72,4.54V72H771.25L771.25,72z M812.56,72v41.14h9.08V99h0.11
		c1.84,3.33,4.94,3.45,5.86,3.45c8.68,0,8.68-11.49,8.68-15.74c0-3.79,0-15.4-8.62-15.4c-4.25,0-5.8,2.93-6.43,4.42h-0.11V72H812.56
		L812.56,72z M821.35,86.13c0-4.83,0.75-7.93,3.22-7.93c2.87,0,2.87,3.68,2.87,9.59c0,4.08,0,7.76-2.82,7.76
		C821.35,95.55,821.35,90.44,821.35,86.13L821.35,86.13z M864.84,89.12v-3.04c0-2.99-0.46-8.27-3.79-11.78
		c-2.76-2.87-6.61-2.99-8.22-2.99c-12.35,0-12.35,12.01-12.35,16.14c0,9.59,3.68,14.99,12.29,14.99c2.3,0,6.32,0,9.25-3.56
		c1.9-2.3,2.13-4.14,2.3-5.69l-8.62-1.09c-0.11,1.49-0.29,4.19-3.1,4.19c-2.24,0-3.04-1.72-3.04-7.18H864.84L864.84,89.12z
		 M849.56,84.23c0-2.82-0.06-6.89,3.39-6.89c1.72,0,3.1,1.03,3.1,6.2v0.69H849.56L849.56,84.23z M879.72,72V60.62l-9.08,5.4V72
		h-2.93v6.78h2.93v15.28c0,2.07,0,8.39,7.47,8.39c2.53,0,5.06-0.57,7.12-1.03l-0.63-6.49c-1.21,0.4-1.78,0.52-2.47,0.52
		c-2.41,0-2.41-1.67-2.41-3.1V78.78h4.88V72H879.72L879.72,72z M912.36,89.12v-3.04c0-2.99-0.46-8.27-3.79-11.78
		c-2.76-2.87-6.61-2.99-8.22-2.99C888,71.31,888,83.32,888,87.45c0,9.59,3.68,14.99,12.29,14.99c2.3,0,6.32,0,9.25-3.56
		c1.9-2.3,2.13-4.14,2.3-5.69l-8.62-1.09c-0.12,1.49-0.29,4.19-3.1,4.19c-2.24,0-3.04-1.72-3.04-7.18H912.36L912.36,89.12z
		 M897.07,84.23c0-2.82-0.06-6.89,3.39-6.89c1.72,0,3.1,1.03,3.1,6.2v0.69H897.07L897.07,84.23z M917.07,72v29.76h9.08V85.33
		c0-3.16,0.06-7.01,2.87-7.01c2.07,0,2.07,2.64,2.07,4.65v18.79h9.08V80.33c0-2.87-0.23-9.02-7.53-9.02c-3.04,0-4.94,1.32-6.38,3.33
		h-0.11V72H917.07L917.07,72z M969.12,81.25c-1.78-9.94-9.19-9.94-11.49-9.94c-12.47,0-12.47,11.72-12.47,15.74
		c0,8.85,3.1,15.4,12.58,15.4c2.24,0,10.63,0,11.84-10.69l-8.79-1.55c0,0.11-0.06,0.52-0.11,0.75c-0.29,2.07-0.63,4.71-3.27,4.71
		c-3.1,0-3.16-3.39-3.16-7.58c0-6.78,0.17-10,3.27-10c2.64,0,2.93,2.99,3.1,4.71L969.12,81.25L969.12,81.25z M974.81,72v29.76h9.08
		V72H974.81L974.81,72z M974.81,60.62v7.12h9.08v-7.12H974.81L974.81,60.62z M998.48,81.02c0.11-1.26,0.4-3.68,3.04-3.68
		c2.7,0,2.7,2.13,2.7,4.31v0.75c-0.75,0.4-1.26,0.69-4.88,1.55c-4.94,1.15-6.55,1.78-8.27,4.02c-1.09,1.44-1.84,3.27-1.84,5.92
		c0,7.53,6.26,8.56,8.56,8.56c4.42,0,6.43-2.36,7.24-3.33c0.29,1.26,0.4,1.61,0.86,2.64h8.79c-0.75-1.26-1.84-3.16-1.84-9.48V81.13
		c0-3.96-0.52-9.82-11.03-9.82c-5.75,0-10.23,0.98-11.72,8.33L998.48,81.02L998.48,81.02z M1004.22,91.76c0,3.5-1.21,4.77-3.16,4.77
		c-1.15,0-3.22-0.8-3.22-3.1c0-2.7,2.3-3.73,4.14-4.48c1.32-0.52,1.49-0.63,2.24-1.03V91.76L1004.22,91.76z M1038.35,79.47
		c-0.29-2.59-2.47-8.16-10.23-8.16c-7.24,0-10.34,4.6-10.34,8.9c0,4.08,2.41,6.61,7.81,9.48c2.93,1.55,5.06,2.64,5.06,4.42
		c0,1.15-1.03,2.18-2.36,2.18c-2.47,0-2.82-2.82-2.93-3.79l-8.27,1.32c0.98,6.09,4.6,8.62,10.63,8.62c9.82,0,11.38-5.86,11.38-8.85
		c0-5.34-4.19-7.58-8.16-9.71c-4.02-2.18-5.11-3.1-5.11-4.54c0-0.92,0.8-1.9,2.24-1.9c1.26,0,2.3,0.4,2.76,3.16L1038.35,79.47
		L1038.35,79.47z"/>
</g>
</svg>
