<?xml version="1.0" encoding="UTF-8"?>
<svg id="Capa_2" data-name="Capa 2" xmlns="http://www.w3.org/2000/svg" viewBox="0 0 389.49 130.31">
  <defs>
    <style>
      .cls-1 {
        fill: #c31532;
      }
    </style>
  </defs>
  <g id="Capa_1-2" data-name="Capa 1">
    <g>
      <path d="M40.01,39.25c-1.24.73-2.44,1.54-3.73,2.16-2.07.99-4.21,1.85-6.32,2.76-.63.27-1.25.56-1.82.99,2.95.22,5.38-1.37,8.15-1.99-1.61,1.09-3.22,2.19-4.87,3.31,1.6,1.63,3.69,1.42,5.8,1.46-2.38,1.18-5.73.5-9.46-2.53.34,1.03.61,1.8.9,2.67-1.78,1.14-3.82-.37-5.7.48.18.8.35,1.56.53,2.38-1.76.23-3.43.52-5.11.65-1.55.12-2.66-.83-3.25-2.08-1.59-3.36-4.23-5.77-6.91-8.18-2.28-2.05-4.19-4.39-5.4-7.25-2.12-5.03-.94-9.54,3.42-12.85,3.34-2.54,6.74-4.99,10.08-7.52.69-.53,1.36-1.15,1.85-1.86,2.95-4.26,7.22-6.43,12.09-7.56,6.01-1.39,12-2.95,18.08-3.92,3.83-.61,7.81-.3,11.72-.29,1.63,0,2.84,1,3.7,2.34,2.77,4.29,5.99,8.17,9.81,11.58.95.85,1.59,2.09,2.25,3.22.59,1.01.27,1.54-.93,1.7-2.01.27-4.06.39-6.05.76-1.07.2-2.06.81-3.09,1.24.04.11.07.22.11.33.74.11,1.54.06,2.19.35.99.45,1.86,1.15,2.79,1.72.38.23.92.67,1.15.55.38-.2.65-.74.79-1.19.13-.43.03-.93.03-1.8,1.72,1.61,3.18,2.97,4.64,4.32l.33-.18c-.63-1.65-1.26-3.31-1.88-4.96,2.53,1.72,2.97,4.59,4.27,7.26-.94-.29-1.64-.51-2.53-.79-.17,2.43-.44,4.72-.43,7.01,0,.83.54,1.75,1.07,2.45,2.08,2.73,4.29,5.37,6.38,8.1,1.09,1.42,2.09,2.92,3.05,4.44,1.09,1.73.92,3.8-.31,5.24-1.1,1.29-3.03,1.56-4.33.56-.28-.22-.39-.65-.61-1.04-.23.15-.48.27-.7.44-1.22.97-2.55,1.49-4.12.97-1.19-.4-2.16-.19-2.78,1.1.63-3.7,1.5-5.1,3.76-5.88-.18.23-.31.5-.53.67-1.1.82-1.35,1.52-.85,2.51.45.91,1.45,1.31,2.56.87,1.03-.41,1.98-1.02,2.99-1.47.43-.19.93-.22,1.64-.38-.34.82-.56,1.35-.82,2,1.29.12,2.45.08,3.22-1.05.87-1.26,1.07-2.75.19-3.94-3.05-4.13-5.41-8.81-9.5-12.13-1.16-.95-1.72-2.21-1.61-3.7.14-1.75.31-3.5.58-5.23.26-1.67-.37-2.6-2.18-2.88-.14.3-.3.62-.45.94-.15.32-.3.64-.5,1.09-1.41-1.2-2.76-2.36-4.16-3.56-.94.83-1.83,1.62-2.78,2.47-.23-.25-.44-.48-.69-.75-.94.76-1.84,1.48-2.83,2.27-.19-.66-.34-1.2-.57-1.99-.68.85-1.24,1.54-1.87,2.33-.24-.13-.5-.27-.84-.46-.51.63-1.04,1.27-1.7,2.09-.2-.3-.37-.56-.58-.89-1.13.96-2.22,1.88-3.35,2.83-.13-.2-.25-.37-.39-.59-.08.13-.19.22-.2.32-.25,2.38-.49,4.77-.75,7.15-.22,1.97-1.6,3.39-3.48,3.46,1.96-2.46,1.14-5.37,1.69-8.08.11.7.23,1.4.34,2.1.14.01.27.03.41.04.64-2.84,1.28-5.68,1.99-8.79-5.05,3.76-9.35,7.92-13.64,12.09l.03-.03Z"/>
      <path d="M15.77,94.13c.61.04,1.23.11,1.84.1,12.95-.1,25.33,2.57,37.17,7.76,1.49.65,2.93,1.46,4.48,1.94,1.74.54,2.08.2,2.29-1.55.14-1.18.91-1.52,1.9-.81,3.86,2.74,6.51,6.46,8.41,10.71,1.68,3.74,3.2,7.55,4.76,11.25-6.15,3.16-12.63,5.25-19.45,6.23-5.61.81-11.21.71-16.83-.13-8.6-1.28-16.73-3.93-24.41-7.98-5.84-3.08-10.8-7.25-15.11-12.21-1.12-1.29-1.14-1.63.2-2.71,1.33-1.07,2.24-2.42,3.17-3.83,1.25-1.89,2.68-3.68,4.18-5.38.69-.78,1.71-1.27,2.6-1.85,1.22-.81,2.55-1.48,3.69-2.39,2.57-2.04,5.19-4.04,7.53-6.32,2.41-2.36,4.52-5.03,6.85-7.65-.85-.76-1.49-1.32-2.32-2.06.66,0,1.1.07,1.5-.01,1.35-.3,2.84-.38,3.99-1.04,4.02-2.33,7.12-5.61,9.26-9.95-.77.17-1.43.32-2.45.55,1.3-1.17,2.33-2.1,3.48-3.15-.02.37-.03.59-.05,1.05.88-.62,1.66-1.17,2.44-1.72.08.1.16.2.25.3-1.09.89-2.18,1.78-3.46,2.84,3.86.14,6.68,2.03,9.16,4.34,3.07,2.86,6.6,4.63,10.64,5.62,2.93.72,5.76,1.81,8.67,2.62,2.04.57,4.03.07,5.96-.69.44-.17.91-.26,1.37-.38.03.11.06.21.09.32-1.85.64-3.68,1.34-5.56,1.9-.88.26-1.3.73-1.52,1.58-.28,1.12-.63,2.22-.99,3.32-.07.21-.28.37-.43.55-.09-.06-.18-.11-.27-.17.16-.59.31-1.19.47-1.78.55-2.06-.28-3.36-2.37-3.66-1.78-.25-3.56-.47-5.33-.75-.57-.09-1.11-.31-1.61-.7,1.85.17,3.7.33,5.84.52-.9-1.14-1.95-1.55-2.94-1.44-3.26.37-6.02-.82-8.68-2.46-.5-.31-1.1-.59-1.67-.61-2.94-.1-5.5-1.52-8.25-2.28-.36-.1-.73-.22-1.37-.41.87,1.5,1.6,2.75,2.45,4.2-2.13-.52-4.04-.98-6.29-1.52,1.41,1.63,2.57,2.97,3.99,4.61-2.38-.49-4.41-.9-6.82-1.4,1.47,1.56,2.7,2.88,3.94,4.19-.03.07-.06.13-.09.2-1.98-.57-3.96-1.13-6.24-1.78.71,1.1,1.27,1.97,2.04,3.17-8.24.87-14.06,5.94-20.13,10.56.01.12.03.25.04.37Z"/>
      <path d="M208.5,100.82c.3-.18.59-.45.92-.51,1.05-.2,2.14-.26,3.18-.5,2.45-.56,3.28-1.54,3.48-4.03.07-.88.07-1.76.07-2.64,0-9.84,0-19.67-.04-29.51,0-2.9-.89-3.81-3.8-4.14-.87-.1-1.75-.14-2.62-.28-.31-.05-.59-.32-.88-.49.05-.2.09-.41.14-.61,1.94,0,3.88.03,5.82,0,4.16-.08,8.32-.31,12.47-.25,4.02.05,7.96.61,11.38,3.04,3.07,2.18,4.46,5.91,3.37,9.49-.91,2.96-3.14,4.61-5.9,5.68-.37.14-.75.27-1.12.41-.07.03-.11.11-.13.14,1.36.61,2.8,1.11,4.1,1.86,7.62,4.36,7.98,14.64.73,19.61-3.14,2.15-6.7,3.02-10.41,3.09-6.83.12-13.67.03-20.5.03-.09-.12-.18-.25-.27-.37ZM220.7,77.5c-.09.24-.14.31-.14.39.04,5.92.04,11.84.15,17.75.04,2.16,1.06,3.24,3.19,3.76,2.41.59,4.83.41,7.25-.07,4.84-.97,8.17-4.67,8.47-9.41.37-5.87-2.15-9.81-7.28-11.5-3.82-1.26-7.74-.86-11.65-.92ZM220.65,59.71v16.31c2.55,0,4.99.02,7.43-.01.84-.01,1.68-.1,2.5-.23,2.05-.32,3.91-1.01,5.4-2.57,2.91-3.04,2.6-10.45-3.25-12.79-3.95-1.58-7.98-1.18-12.08-.71Z"/>
      <path d="M294.97,101.97c-3.34.06-6.58-.55-9.06-2.9-1.89-1.79-3.54-3.9-5.01-6.06-2.42-3.56-4.62-7.28-6.87-10.95-.46-.75-.93-.95-1.83-.86-2.1.21-4.23.22-6.34.3-.51.02-1.02,0-1.6,0-.04.42-.09.72-.09,1.03,0,4.2-.02,8.4,0,12.59.02,3.41.55,4.06,3.91,4.72,1.05.21,2.13.26,3.19.46.32.06.59.36.88.55-.06.11-.12.22-.18.33h-18.78c-.06-.1-.13-.2-.19-.31.28-.2.54-.5.85-.57.85-.2,1.73-.26,2.58-.46,2.52-.6,3.31-1.59,3.37-4.19.04-1.48.01-2.96.01-4.44,0-8.96,0-17.91,0-26.87,0-3.53-1.31-4.91-4.86-5.11-.44-.02-.89,0-1.31-.11-.25-.07-.43-.36-.88-.77,2.23-.11,4.09-.24,5.95-.29,3.76-.11,7.51-.24,11.27-.25,3.04,0,6.04.43,8.89,1.6,4.37,1.79,7.12,4.88,7.3,9.72.19,5.07-2.64,8.33-6.97,10.49-.21.11-.44.18-.66.27-.18.08-.36.17-.53.26,0,.08-.04.17-.01.21,2.88,4.78,5.64,9.64,8.71,14.31,1.27,1.93,3.1,3.53,4.83,5.1.75.68,1.92.9,2.88,1.36.27.13.49.34.74.52-.06.1-.12.2-.18.3ZM264.15,79.94c3.39.59,9.03-.18,11.86-1.53,2.41-1.16,4.08-2.95,4.62-5.6.24-1.2.29-2.46.28-3.68-.07-4.77-3.05-8.35-7.66-9.41-2.78-.64-5.56-.38-8.34-.2-.75.05-.76.51-.76,1.07.01,3.56,0,7.11,0,10.67,0,2.87,0,5.75,0,8.68Z"/>
      <path d="M116.15,58.29c3.23,0,6.47-.02,9.7.03.31,0,.7.33.92.61,8.99,11.38,17.97,22.78,26.95,34.17.29.37.6.72,1.08,1.29.05-.6.1-.93.1-1.26,0-9.12,0-18.24,0-27.36,0-4.69-1.45-6.21-6.13-6.53q-.9-.06-1.07-.89h15.3l.2.25c-.26.21-.48.53-.77.62-.87.29-1.76.49-2.65.72-1.95.51-2.89,1.91-3.15,3.8-.17,1.22-.24,2.47-.24,3.7-.02,11,0,22,0,32.99,0,.47,0,.95,0,1.39-1.14.5-1.67-.15-2.24-.88-9.67-12.28-19.35-24.55-29.02-36.81-.28-.36-.59-.69-1.07-1.24-.03.65-.07,1.03-.07,1.41,0,9.28-.01,18.56,0,27.84,0,1.24.1,2.48.24,3.71.21,1.84,1.22,3.13,2.97,3.68,1.17.37,2.41.48,3.61.76.33.08.62.34.93.51-.05.12-.11.24-.16.36h-15.87c.45-.45.64-.76.91-.88.39-.17.85-.2,1.27-.31,3.45-.88,4.37-2,4.58-5.58.04-.64.03-1.28.03-1.92,0-9.96-.01-19.92.03-29.88,0-.94-.27-1.56-1.11-1.86-1.53-.54-3.1-.99-4.64-1.51-.31-.11-.58-.35-.87-.52.08-.14.15-.29.23-.43Z"/>
      <path d="M180.61,78.39c3.85,0,7.56.09,11.27-.03,2.62-.08,3.38-.9,3.85-3.51.1-.59.2-1.18.36-2.17.35.39.72.62.72.85.04,4,.04,8,0,12,0,.23-.34.46-.72.94-.17-1.14-.28-1.89-.39-2.63-.38-2.61-1.31-3.73-3.89-3.85-3.7-.17-7.42-.04-11.21-.04-.03.31-.07.58-.07.85.02,5.24.03,10.48.07,15.71.02,2.28.54,3.03,2.85,3.1,3.99.12,7.99.03,11.97-.12,1.85-.07,3.23-1.2,3.91-2.92.65-1.66,1.09-3.4,1.66-5.1.11-.32.4-.57.61-.85.11.07.22.14.33.21-.27,2.65-.53,5.3-.8,7.95-.01.12-.05.23-.07.35q-.3,2.13-2.51,2.13c-9.48,0-18.95,0-28.43,0-.47,0-.94,0-1.41,0-.06-.14-.11-.27-.17-.41.3-.18.59-.47.91-.53,1.18-.21,2.37-.3,3.55-.52,2.13-.39,2.95-1.37,3.03-3.5.06-1.72.1-3.44.11-5.16.01-8.2,0-16.4,0-24.59,0-.96-.03-1.92-.08-2.88-.14-2.8-.97-3.72-3.77-4.14-.83-.13-1.67-.14-2.49-.29-.33-.06-.62-.35-.92-.53.06-.11.12-.22.18-.33h29.55c.19,3.27.37,6.48.55,9.69-.15.05-.3.11-.46.16-.18-.36-.45-.71-.54-1.1-.31-1.28-.5-2.58-.83-3.85-.48-1.84-1.66-3.09-3.59-3.19-4.34-.22-8.68-.3-13.12-.44v18.75Z"/>
      <path d="M364.3,57.56c1.52,0,2.81-.07,4.07.05.34.03.77.57.91.96,2.65,7.47,5.25,14.95,7.88,22.42,1.66,4.73,3.42,9.43,5,14.19.98,2.94,2.86,4.56,5.93,4.93.47.06,1.6-.21,1.36,1.08h-18.14c-.07-.09-.14-.17-.21-.26.24-.21.46-.57.74-.62,1.17-.23,2.37-.32,3.54-.56,2.35-.49,3.03-1.56,2.35-3.87-.58-1.98-1.31-3.93-1.98-5.88-.85-2.44-1.73-4.88-2.55-7.33-.22-.66-.5-.96-1.25-.96-4.08.04-8.16.03-12.23,0-.66,0-1,.18-1.21.82-1.38,4.11-2.8,8.21-4.2,12.32-.12.34-.23.68-.31,1.03-.5,1.97.06,3.1,2.05,3.62,1.53.4,3.14.5,4.7.79.33.06.62.33.93.5-.05.12-.1.24-.15.37h-15.66l-.23-.22c.25-.23.48-.63.75-.65,3.42-.28,5.25-2.4,6.3-5.4,2.25-6.42,4.49-12.85,6.72-19.29,1.64-4.74,3.24-9.49,4.88-14.23.43-1.23,1.11-2.43.04-3.82ZM359.33,80.17h12.99c-2.17-6.24-4.3-12.35-6.54-18.78-2.21,6.44-4.31,12.55-6.45,18.78Z"/>
      <path d="M326.39,58.33h17.49c.07.09.14.17.21.26-.25.22-.46.56-.74.64-1.07.29-2.19.45-3.26.75-1.82.51-2.49,1.37-2.52,3.29-.05,3.68-.05,7.36-.08,11.03-.05,8.8.02,17.59-.21,26.39-.12,4.59-1.93,8.66-5.48,11.7-2.49,2.13-5.42,3.01-8.7,2.06-.56-.16-1.11-.46-1.59-.8-1.4-.98-1.55-2.05-.53-3.34.93-1.17,2.03-1.23,3.3-.19.46.38.91.79,1.37,1.16,2.19,1.75,4.63,1.4,5.93-1.09.73-1.4,1.33-3.07,1.36-4.62.15-9.75.14-19.51.15-29.27,0-4.28-.04-8.56-.1-12.83-.03-2.36-.73-3.23-3.01-3.78-.92-.22-1.89-.27-2.82-.46-.35-.07-.66-.31-.99-.48l.22-.42Z"/>
      <path d="M301.84,58.34h16.87c.06.11.11.22.17.34-.32.18-.61.46-.95.53-.74.15-1.51.16-2.25.3-2.33.45-3.29,1.58-3.31,3.96-.03,4.24-.02,8.47-.02,12.71,0,6.35,0,12.71,0,19.06,0,3.69,1.24,4.92,4.93,5.08.52.02,1.47-.45,1.48.84h-16.98c-.05-.11-.11-.22-.16-.33.31-.17.6-.44.93-.49.86-.14,1.75-.1,2.61-.27,1.74-.34,2.46-1.17,2.61-2.92.11-1.39.2-2.79.2-4.19.02-8.51.02-17.03,0-25.54,0-1.52-.11-3.03-.18-4.55-.1-2.02-.92-2.97-2.91-3.34-.78-.14-1.59-.16-2.37-.31-.32-.06-.59-.32-.89-.5l.22-.38Z"/>
      <path d="M85.52,116.99c-1.36,2.38-3.81,3.4-6.12,4.81-.54-1-1.16-2.14-1.79-3.27-2.18-3.9-4.21-7.9-6.6-11.66-1.57-2.46-3.66-4.59-5.52-6.86-.17.13-.12.05-.08.06,2.29.36,2.9-.14,2.89-2.46,0-2.76-.08-5.52-.02-8.28.02-.8.32-1.62.61-2.38.25-.66.71-1.25,1.02-1.89,1.36-2.86,3.64-4.64,6.66-5.39,2.93-.73,4.58-2.75,5.81-5.27.19-.38.32-.86.27-1.27-.37-2.73-1.3-5.21-3.48-7.06-.17-.14-.34-.27-.81-.64.92.05,1.58-.08,2.06.15,1.11.53,1.69-.17,2.33-.79.9-.87.81-1.63-.39-1.9-1.41-.32-2.9-.29-4.36-.38-.31-.02-.63.06-.95.1l-.1-.49c1.06-.23,2.12-.48,3.19-.7.23-.05.48,0,.72-.02,2.09-.09,2.94-1.27,2.37-3.27-.23-.79-.43-1.59-.51-2.42,1,1.71,2.54,3.27,1.51,5.53-.08.18-.03.47.06.66.78,1.74.25,3.17-.97,4.48-1.32,1.42-1.32,1.57-.33,3.3,1.45,2.51,1.1,5.53-1.16,7.93-.96,1.02-2.26,1.73-3.46,2.5-.52.34-1.15.56-1.76.72-2.83.74-4.59,2.56-5.76,5.2-1.11,2.49-2.03,4.93-1.44,7.72.27,1.28.29,2.61.54,3.89.1.51.46,1.01.82,1.41,1.78,1.98,3.67,3.87,5.38,5.91,1.64,1.96,3.1,4.06,4.67,6.08,1.54,1.99,3.12,3.95,4.69,5.95Z"/>
      <path d="M19.54,61.38c-.35.11-.74.37-1.05.3-.73-.17-1.41-.52-2.13-.77-.24-.08-.52-.07-.78-.11-.03.1-.06.2-.09.3.47.31.95.61,1.66,1.07-1.03.14-1.81.25-2.87.4,1.09,1.46,2,2.68,3.05,4.09h-2.97c.49,2.41,2.43,3.3,4.84,2.31-.37-1.66-.74-3.32-1.11-4.98.1-.05.2-.11.3-.16,1.55,1.9,3.46,3.21,5.87,3.89-1.25.27-2.5.55-3.94.87,1.05.97,1.95,1.8,2.96,2.72-.68.24-1.13.41-1.58.57-.02.09-.03.18-.05.27.86.25,1.71.5,2.57.76-.02.1-.03.2-.05.3-1.69,0-3.38-.13-4.99-.73-1.59-.59-3.14-1.28-4.71-1.93-.08-.27-.1-.79-.35-1.16-.95-1.43-1.97-2.8-3.08-4.37.82.17,1.45.3,2.35.48-.92-1.05-1.66-1.9-2.4-2.76.05-.09.09-.17.14-.26.62.13,1.24.27,2.1.45-.5-1.13-.92-2.08-1.4-3.17.63.17,1.14.3,1.76.47v-3.53c.08-.04.16-.09.24-.13.47.59.94,1.18,1.4,1.77,1.14,1.45,2.28,2.92,4.34,3.07l-.03-.03Z"/>
      <path d="M12.68,53.89q2.42-.34,2.64-1.9c2.97-.29,5.95,1.13,8.98-.04-.66.62-1.34,1.21-1.97,1.86-.19.2-.31.55-.29.81,0,.12.44.25.69.29.78.13,1.58.22,2.54.35-.48.83-.93,1.59-1.37,2.36,1.9,2.62,2.58,2.59,6.23-.12-.7,1.26-1.4,2.51-2.17,3.9h4.31c-1.45,1.61-3.35,1.57-8.37-.15.37-.16.62-.26.95-.41-1.63-1.29-3.07-2.42-4.6-3.63.73-.34,1.35-.62,2.21-1.02-1.19-.53-2.2-.99-3.36-1.5.78-.55,1.44-1.03,2.1-1.5-.04-.09-.09-.18-.13-.28-1.61.61-3.23,1.22-5.07,1.91,1.19.87,2.2,1.61,3.26,2.38-2.03.13-4.5-1.12-6.57-3.34Z"/>
      <path class="cls-1" d="M350.86,43.61c1.11-.17,1.43-.87,1.42-1.96-.03-3.07-.04-6.15.02-9.23.02-1.32-.43-2.08-1.82-1.99,2.8,0,5.64-.32,8.38.08,3.79.56,5.82,3.41,5.54,6.9-.26,3.22-3.13,5.98-6.6,6.17-2.31.13-4.62.02-6.94.02ZM353.58,36.56c0,1.8.03,3.6-.01,5.39-.02,1.04.5,1.49,1.45,1.46,1.11-.03,2.26,0,3.32-.29,2.45-.65,4-2.34,4.42-4.84.44-2.62-.01-5.04-2.46-6.64-1.87-1.22-3.98-1.35-6.11-1.15-.23.02-.57.59-.59.91-.06,1.72-.03,3.43-.03,5.15Z"/>
      <path class="cls-1" d="M246.81,37.39c0,1.78-.12,3.42.07,5.03.06.49.96.88,1.32,1.19h-4.14c1.12-.21,1.47-.93,1.46-2-.03-3.04-.03-6.08,0-9.12.01-1.19-.27-2.06-1.62-2.26,1.94,0,3.9-.17,5.81.06,1.11.13,2.33.69,3.16,1.43,1.4,1.25.99,3.52-.61,4.68-.35.25-.73.46-1.22.76,1.6,2.26,2.41,5,4.98,6.68-1.45-.09-2.43-.72-3.15-1.74-.76-1.08-1.53-2.16-2.13-3.33-.59-1.16-1.38-1.66-2.66-1.41-.34.07-.71.01-1.28.01ZM246.8,37.36c1.33-.24,2.51-.33,3.61-.67,1.18-.36,1.73-1.3,1.75-2.56.04-2.69-2.23-4.42-4.83-3.63-.22.07-.5.42-.51.64-.04,1.98-.02,3.96-.02,6.23Z"/>
      <path class="cls-1" d="M303,30.44c2.26,0,5.08-.31,7.79.08,3.64.52,5.81,3.38,5.58,6.54-.26,3.51-3.05,6.33-6.66,6.53-2.31.13-4.62.02-7-.03,1.19-.18,1.55-.88,1.53-1.99-.05-3-.01-6-.02-8.99,0-1.69-.13-1.84-1.23-2.14ZM305.41,36.68c0,1.24,0,2.47,0,3.71,0,3.03.25,3.26,3.3,3.03,3.12-.23,5.36-2.13,6-5.08.62-2.88-.54-5.67-2.96-6.97-1.74-.93-3.66-1.07-5.58-.88-.28.03-.71.6-.73.93-.07,1.75-.03,3.51-.04,5.26Z"/>
      <path d="M73.04,29.57v2.29c-2.84-2.27-5.21-1.05-7.44.85-1.49,1.27-2.92,2.61-4.36,3.94-.4.37-.74.8-1.17,1.26.47.23.82.39,1.04.49-1.26.99-2.56,2.01-4.06,3.19.21-.63.31-1.18.57-1.65.99-1.82,2.03-3.62,3.03-5.43,1.79-3.24,6.3-5.55,10.01-5.12.75.09,1.5.11,2.38.17Z"/>
      <path class="cls-1" d="M168.49,43.88c-3.18-4.02-6.36-8.04-9.63-12.16-.16.28-.28.4-.28.52,0,3.08.02,6.15.03,9.23,0,1.08.43,1.84,1.56,2.11h-3.34c1.24-.39,1.48-1.32,1.47-2.46-.02-2.64-.05-5.28.01-7.91.03-1.39.1-2.69-2.13-2.79.45-.13.52-.16.59-.17,1.81-.36,2.98.38,4.06,1.88,2.17,3.01,4.56,5.86,6.87,8.77.17.21.36.39.54.58.12-.09.23-.14.23-.18,0-3.07-.02-6.15-.01-9.22,0-1.25-.92-1.51-1.84-1.81h3.94c-1.73.44-1.79,1.75-1.78,3.18.04,3.43.01,6.86.01,10.28-.11.05-.21.1-.32.16Z"/>
      <path class="cls-1" d="M225.73,30.65v6.07c1.71-.35,3.6.74,4.94-1v2.53c-.56-1.43-1.39-1.65-4.98-1.23,0,1.83-.05,3.7.05,5.55.02.3.69.75,1.09.8,1.03.11,2.07.05,3.11,0,1.11-.04,1.81-.67,2.25-1.68-.03.59-.06,1.18-.1,1.85h-9.25c1.22-.1,1.55-.84,1.53-1.98-.04-3,.01-5.99,0-8.99-.01-1.73-.08-1.78-2.02-2.27h8.96c.05.75.11,1.5.16,2.31-.35-.61-.53-1.34-.99-1.63-.52-.32-1.29-.29-1.95-.32-.91-.05-1.82-.01-2.81-.01Z"/>
      <path class="cls-1" d="M330.02,43.61h-3.47c.14.14.29.27.43.41.32-.57.72-1.12.94-1.73,1.46-4.04,2.87-8.09,4.35-12.27.58-.23.93.1,1.18.84,1.23,3.58,2.46,7.16,3.8,10.7.3.8,1.01,1.44,1.43,2.02h-3.93c.41-.22,1.05-.35,1.26-.73.2-.36-.05-.98-.13-1.48-.03-.19-.13-.37-.2-.56-1.22-3.52-1.22-3.53-4.97-3.25-.36.03-.84.4-.99.73-.43.94-.72,1.94-1.05,2.92-.55,1.67-.37,1.96,1.35,2.4ZM332.4,31.46c-.12,0-.24,0-.36.01-.64,1.86-1.28,3.72-1.94,5.64h4.28c-.69-1.98-1.34-3.82-1.98-5.65Z"/>
      <path class="cls-1" d="M131.38,30.26h4.56c-1.55.19-1.76,1.21-1.71,2.53.07,2.12,0,4.24.02,6.36.02,2.5,1.39,4.12,3.59,4.29,2.92.23,4.87-1.02,5.11-3.62.24-2.58.15-5.18.15-7.78,0-1.05-.7-1.55-1.68-1.74h3.69c-1.51.31-1.75,1.42-1.74,2.72.01,2,.03,4,0,6-.04,2.02-.74,3.77-2.78,4.47-2.2.75-4.49.83-6.28-.94-.66-.66-1.09-1.8-1.16-2.76-.17-2.39-.06-4.79-.08-7.19,0-1.7-.06-1.76-1.68-2.33Z"/>
      <path class="cls-1" d="M207.71,30.26h3.6c-1.2.36-1.56,1.39-1.94,2.4-1.36,3.54-2.72,7.07-4.08,10.61-.1.26-.22.5-.44,1.01-.29-.57-.51-.95-.68-1.35-1.45-3.63-2.86-7.28-4.37-10.88-.3-.72-.97-1.28-1.36-1.77h4c-.43.2-1.14.31-1.31.68-.19.4.02,1.07.21,1.57,1.12,2.94,2.29,5.87,3.44,8.8.1.25.24.49.48.97.25-.5.43-.82.56-1.16,1.08-2.79,2.14-5.59,3.21-8.38.71-1.86.56-2.13-1.32-2.48Z"/>
      <path d="M67.5,41.02c.69-.27,1.39-.55,2.23-.88-.44-.77-.86-1.5-1.34-2.32-1.18.7-2.3,1.36-3.42,2.02-.08-.08-.16-.16-.24-.24,2.16-2.58,4.32-5.17,6.76-8.1.29,1.16.5,2.02.73,2.93-1.26,0-1.89.74-1.89,1.61,0,.58.73,1.16,1.27,1.65-.03,2.7-1.24,3.73-4.11,3.33Z"/>
      <path class="cls-1" d="M274.07,31.06c.04.4.08.9.15,1.69-.37-.45-.56-.71-.77-.95-.79-.93-1.76-1.47-3.03-1.4-1.06.06-1.86.54-2.22,1.53-.35.95-.05,1.84.75,2.46.75.59,1.58,1.08,2.36,1.62.66.45,1.34.87,1.97,1.36,1.65,1.29,2.11,2.87,1.34,4.39-.88,1.72-2.89,2.54-4.79,1.95-.74-.23-1.48-.49-2.37-.79-.11-.63-.26-1.44-.46-2.63.84,1.71,1.64,2.96,3.36,3.23,1.31.2,2.61-.35,3.23-1.51.62-1.16.44-2.4-.63-3.35-.71-.63-1.56-1.11-2.34-1.66-.72-.5-1.47-.97-2.14-1.53-1.26-1.04-1.59-2.35-.99-3.62.61-1.3,2.25-2.13,3.71-1.78.94.23,1.84.6,2.87.95Z"/>
      <path class="cls-1" d="M290.72,30.3c-1.19.18-1.5.93-1.48,2.06.05,3.12-.01,6.24.04,9.36.01.63.35,1.25.53,1.86h-2.41c.17-.52.5-1.1.51-1.68.05-3.2,0-6.4.05-9.6.02-1.14-.31-1.87-1.55-2h4.31Z"/>
      <path d="M41.19,46.22c-.39,1.65-.78,3.29-1.2,5.04,2.73.96,4.31-.96,6.15-2.25-.78,2.01-2.46,2.95-4.41,3.46-2.53.67-4.88.42-7.04-1.97,3.44.19,5.52-1.25,6.21-4.53l.28.26Z"/>
      <path class="cls-1" d="M185.57,43.61h-2.37c.17-.66.49-1.35.51-2.04.06-3,.02-6,.02-8.99,0-1.09-.1-2.12-1.5-2.31h4.37c-1.46.15-1.75,1.08-1.73,2.37.05,3-.02,6,.05,8.99.02.68.43,1.36.64,1.98Z"/>
      <path d="M27.64,54.1c1.56.41,3,.78,4.51,1.18-1.65.96-5.38.09-7.3-1.67.73-.4,1.45-.8,2.36-1.3-1.11-1.05-2.14-2.01-3.32-3.12h5.58c-.39.93-2.15.8-1.86,2.45.51-.35.88-.6,1.25-.85l.24.13c-.47,1.03-.94,2.06-1.44,3.17Z"/>
      <path d="M36.77,70.03c-1.27,3.17-3.88,4.69-6.94,5.49-1.6.42-3.3.51-4.97.64-1.17.09-1.68-.47-1.93-1.93,5.76,2.29,9.85-.75,13.84-4.19Z"/>
      <path d="M45.36,53.03c1.47-1.15,2.94-2.3,4.41-3.46.06.04.11.08.17.12-.68,1.16-1.35,2.31-2.02,3.46,1.78,1.56,3.08,1.28,4.84-1-.11,1.68-.64,2.3-2.4,2.79-2.16.6-3.61.06-5-1.91Z"/>
      <path d="M44.17,53.78c.75,4.35-1.8,7.1-5.35,6.03-.29-1.7.08-3.12,1.88-4.07.1.84.2,1.64.3,2.44,1.9.13,2.57-.75,3.17-4.4Z"/>
      <path d="M46.16,60.52c.86-.46,1.73-.92,2.5-1.33-.16.95-1.13,2.01-2.48,2.46-1.61.53-3.19.56-4.79-.69,3.29-.27,4.1-2.62,4.64-5.22.1.05.21.1.31.14l-.48,4.25c.1.13.2.26.3.38Z"/>
      <path d="M23.7,65.11c.98.39,1.97.78,2.98,1.18-2.01,1.26-4.97-.85-5.47-3.88.94.17,1.87.38,2.8.5.92.12,1.86.14,2.86.47-1.08.45-2.17.91-3.25,1.36.02.12.05.24.07.37Z"/>
      <path d="M29.77,71.4c.12-1.31.25-2.61.37-3.9.1-.09.2-.19.3-.28.05.19.05.42.16.56,1.55,2.04,2.11,2.16,4.36.85.75-.43,1.47-.92,2.24-1.41-.89,1.96-4.25,3.84-7.44,4.17Z"/>
      <path d="M28.52,72.34c-1.86.66-3.45-.12-4.86-2.38,2.54-.28,4.03-1.96,5.27-4,.11.09.22.18.33.27-.94,1.7-1.89,3.39-2.88,5.17.72.32,1.36.6,2.14.94Z"/>
      <path d="M39.98,39.28c.43.96.87,1.91,1.44,3.17.95-1.62,1.68-2.88,2.44-4.19.81,2.66-1.68,5.94-4.66,6.08,1.1-1.23,1.24-2.57.77-4.02-.1-.32.01-.7.03-1.06,0,0-.03.03-.03.03Z"/>
      <path d="M34.96,61.81c-.24,1-.39,1.65-.56,2.36,1.93.42,3.25-.51,4.48-1.78-.13,2.5-4.38,3.98-7.2,2.44,1.04-.96,2.05-1.88,3.29-3.02Z"/>
      <path d="M37.98,56.86c-1.13.67-2.25,1.35-3.57,2.13,1.01,1.05,1.8,1.86,2.58,2.67-2.01-.02-3.09-1.78-4.91-2.82,2.1-.9,3.83-2.07,5.91-1.98Z"/>
      <path d="M47.39,38.45c.58-2.33,1.07-4.34,1.57-6.36.12.03.24.06.35.08-.28,1.31-.77,2.61-.79,3.92-.02,1.33.43,2.67.66,3.95-2.48-.26-3.64-1.63-3.39-4.62.57,1.08,1,1.91,1.58,3.03Z"/>
      <path d="M43.53,48.14c.55-2.07,1.11-4.21,1.6-6.06.8,2.55.24,5.57-1.6,6.06Z"/>
      <path d="M50.28,43.24v3.14c-.75-1.04-1.55-2.15-2.51-3.48,1.06.14,1.88.26,2.51.34Z"/>
      <path d="M19.57,61.41c-.86-.81-2.03-1.4-2.16-2.63,1.19.72,2.42,1.46,3.62,2.18-.36.1-.93.26-1.5.42,0,0,.03.03.03.03Z"/>
      <path d="M35.92,53.28c-1.66.98-2.28.82-2.86-.72.96.24,1.87.47,2.86.72Z"/>
    </g>
  </g>
</svg>