<?xml version="1.0" encoding="utf-8"?>
<!-- Generator: Adobe Illustrator 27.3.1, SVG Export Plug-In . SVG Version: 6.00 Build 0)  -->
<svg version="1.1" id="Capa_1" xmlns="http://www.w3.org/2000/svg" xmlns:xlink="http://www.w3.org/1999/xlink" x="0px" y="0px"
	 viewBox="0 0 271.3 78.1" style="enable-background:new 0 0 271.3 78.1;" xml:space="preserve">
<style type="text/css">
	.st0{fill:#A6A5A6;}
	.st1{fill:none;stroke:#A6A5A6;stroke-width:2.0437;stroke-miterlimit:10;}
</style>
<g>
	<g>
		<path class="st0" d="M99,22c-2.1,0-3.2-0.5-4.2-1.4l1-1.5c0.9,0.7,1.9,1.2,3.3,1.2c1.3,0,2.2-0.7,2.2-1.7s-0.6-1.5-2.4-2
			c-2.2-0.6-3.6-1.4-3.6-3.6c0-2,1.3-3.3,3.8-3.3c1.4,0,2.9,0.5,3.8,1.4l-0.9,1.4c-0.8-0.6-1.6-1.2-2.9-1.2c-1.1,0-1.9,0.6-1.9,1.6
			c0,1.2,0.9,1.5,2.6,2c2.1,0.6,3.5,1.5,3.5,3.6C103.1,20.8,101.3,22,99,22"/>
		<rect x="105.3" y="9.9" class="st0" width="1.9" height="11.9"/>
		<path class="st0" d="M113.3,22c-2.1,0-3.2-0.5-4.2-1.4l1-1.5c0.9,0.7,1.9,1.2,3.3,1.2c1.3,0,2.2-0.7,2.2-1.7s-0.6-1.5-2.4-2
			c-2.2-0.6-3.6-1.4-3.6-3.6c0-2,1.3-3.3,3.8-3.3c1.4,0,2.9,0.5,3.8,1.4l-0.9,1.4c-0.8-0.6-1.6-1.2-2.9-1.2c-1.1,0-1.9,0.6-1.9,1.6
			c0,1.2,0.9,1.5,2.6,2c2.1,0.6,3.5,1.5,3.5,3.6C117.4,20.8,115.6,22,113.3,22"/>
		<polygon class="st0" points="118.4,9.9 118.4,11.4 121.8,11.4 121.8,21.8 123.8,21.8 123.8,11.4 127.2,11.4 127.2,9.9 		"/>
		<polygon class="st0" points="128.8,9.9 128.8,21.8 136.1,21.8 136.1,20.2 130.7,20.2 130.7,16.4 134.9,16.4 134.9,14.7 
			130.7,14.7 130.7,11.4 135.9,11.4 135.9,9.9 		"/>
		<path class="st0" d="M147.8,21.8V15c0-0.3,0-2.1,0.1-2.5l-3.3,9.3h-1.8l-3.3-9.3c0.1,0.4,0.1,2.1,0.1,2.5v6.7h-1.7V9.9h2.4
			l3.5,9.8l3.4-9.8h2.5v11.9H147.8z"/>
		<path class="st0" d="M156.2,12.2l1.8,5.5h-3.5L156.2,12.2z M155.3,9.8l-4,12h1.9l0.8-2.7h4.4l0.9,2.7h2l-4-12
			C157.3,9.8,155.3,9.8,155.3,9.8z"/>
	</g>
	<path class="st0" d="M102.4,41.3l-4.6-8.1c-0.2-0.4-0.4-0.8-0.4-1.2v9.3h-1.6V29.4h2l4.4,7.6c0.2,0.4,0.3,0.7,0.4,1.1v-8.6h1.6
		v11.9L102.4,41.3L102.4,41.3z"/>
	<path class="st0" d="M110.8,31.8l-1.8,5.5h3.5L110.8,31.8z M113.8,41.3l-0.9-2.7h-4.4l-0.8,2.7h-1.9l4-12h2l4,12H113.8z"/>
	<path class="st0" d="M121.9,41.5c-3,0-4.9-2.3-4.9-6.2s2-6.1,4.9-6.1c2.3,0,3.7,1.5,4.1,3.5l-1.7,0.6c-0.5-1.7-1.2-2.5-2.5-2.5
		c-1.7,0-2.9,1.5-2.9,4.5c0,3.1,1.2,4.6,3,4.6c1.4,0,2.1-0.8,2.6-2.4l1.5,0.7C125.6,40.3,123.9,41.5,121.9,41.5"/>
	<rect x="128.2" y="29.4" class="st0" width="1.9" height="11.9"/>
	<path class="st0" d="M137.5,30.8c-1.9,0-3.1,1.7-3.1,4.6c0,3,1.1,4.7,3.1,4.7c1.9,0,3.1-1.8,3.1-4.6
		C140.6,32.4,139.3,30.8,137.5,30.8 M137.5,41.5c-3.1,0-5-2.2-5-6.2c0-3.9,2-6.1,5-6.1s5,2.1,5,6.2
		C142.5,39.3,140.6,41.5,137.5,41.5"/>
	<path class="st0" d="M151.3,41.3l-4.6-8.1c-0.2-0.4-0.4-0.8-0.4-1.2v9.3h-1.6V29.4h2L151,37c0.2,0.4,0.3,0.7,0.4,1.1v-8.6h1.6v11.9
		L151.3,41.3L151.3,41.3z"/>
	<path class="st0" d="M159.7,31.8l-1.8,5.5h3.5L159.7,31.8z M162.8,41.3l-0.9-2.7h-4.4l-0.8,2.7h-1.9l4-12h2l4,12H162.8z"/>
	<polygon class="st0" points="166.4,41.3 166.4,29.4 168.3,29.4 168.3,39.7 173.1,39.7 173.1,41.3 	"/>
	<path class="st0" d="M182.4,30.9H181v9h1c2.2,0,3.8-1.2,3.8-4.5C185.7,32.5,184.5,30.9,182.4,30.9 M181.8,41.3H179V29.4h3
		c3.7,0,5.6,2,5.6,5.9C187.6,39.6,185.4,41.3,181.8,41.3"/>
	<polygon class="st0" points="189.7,41.3 189.7,29.4 196.8,29.4 196.8,31 191.6,31 191.6,34.3 195.7,34.3 195.7,35.9 191.6,35.9 
		191.6,39.8 197,39.8 197,41.3 	"/>
	<g>
		<polygon class="st0" points="202.9,41.3 202.9,29.4 210,29.4 210,31 204.8,31 204.8,34.3 209,34.3 209,35.9 204.8,35.9 
			204.8,39.8 210.2,39.8 210.2,41.3 		"/>
		<path class="st0" d="M221.9,41.3v-6.7c0-0.3,0-2.1,0.1-2.5l-3.3,9.3h-1.8l-3.3-9.3c0.1,0.4,0.1,2.1,0.1,2.5v6.7H212V29.4h2.4
			l3.5,9.8l3.4-9.8h2.5v11.9C223.8,41.3,221.9,41.3,221.9,41.3z"/>
		<path class="st0" d="M230,30.9h-1.7v4.8h1.8c1.4,0,2.4-0.7,2.4-2.4C232.4,31.7,231.4,30.9,230,30.9 M229.8,37.2h-1.6v4.1h-1.9
			V29.4h3.6c2.9,0,4.4,1.5,4.4,3.9C234.4,35.8,232.6,37.2,229.8,37.2"/>
		<polygon class="st0" points="236.2,41.3 236.2,29.4 238.2,29.4 238.2,39.7 242.9,39.7 242.9,41.3 		"/>
		<polygon class="st0" points="244.7,41.3 244.7,29.4 251.8,29.4 251.8,31 246.6,31 246.6,34.3 250.7,34.3 250.7,35.9 246.6,35.9 
			246.6,39.8 252,39.8 252,41.3 		"/>
		<path class="st0" d="M258.3,30.8c-1.9,0-3.1,1.7-3.1,4.6c0,3,1.1,4.7,3.1,4.7c1.9,0,3.1-1.8,3.1-4.6
			C261.4,32.4,260.2,30.8,258.3,30.8 M258.3,41.5c-3.1,0-5-2.2-5-6.2c0-3.9,2-6.1,5-6.1s5,2.1,5,6.2
			C263.3,39.3,261.4,41.5,258.3,41.5"/>
	</g>
	<g>
		<rect x="65.8" y="9.8" class="st0" width="19.7" height="9.5"/>
		<rect x="65.8" y="20.9" class="st0" width="14.9" height="9.5"/>
		<path class="st0" d="M13,20.5v-0.4C13,20.3,13,20.4,13,20.5"/>
		<path class="st0" d="M22.3,30.4h0.1H22.3z"/>
		<path class="st0" d="M35.1,20.9h-0.2H35.1z"/>
		<path class="st0" d="M33.4,31.2L33.4,31.2v-0.7H23.2c-0.3,0-0.5,0-0.8,0h-0.2c-5.1-0.5-9.1-4.7-9.3-9.8c0-0.1,0-0.3,0-0.4v-0.5
			c0.2-5.5,4.7-9.9,10.2-9.9h10.3H35h7.1h2H54c5.4,0,9.8,4.2,10.2,9.5v0.8V21v10.3V32H65h10.2h10.3v9.6H65
			c-5.7,0-10.3-4.6-10.3-10.3v-0.8V20.1v-0.8H54h-9.8h-0.5h-1.6H35h-1.6H24v0.3V20v0.2v0.4v0.3h10.1c0.3,0,0.5,0,0.8,0h0.2
			c5.2,0.5,9.3,4.9,9.3,10.3c0,0,0.1,9.7-10.3,10.3H13v-9.6h20.4V31.2z"/>
	</g>
	<line class="st1" x1="13" y1="51.9" x2="263.3" y2="51.9"/>
	<g>
		<path class="st0" d="M16.5,58.3h1.1l2.9,7.9h-1.1l-0.8-2.4h-3.1l-0.8,2.4h-1L16.5,58.3z M15.7,62.9h2.6l-0.9-2.6
			c-0.2-0.4-0.4-1.1-0.4-1.1l0,0c0,0-0.2,0.7-0.4,1.1L15.7,62.9z"/>
		<path class="st0" d="M21.3,66.5h0.8c0.1,0.6,0.7,0.9,1.6,0.9c1,0,1.6-0.5,1.6-1.5v-0.8l0,0c-0.4,0.5-0.9,0.9-1.7,0.9
			c-1.5,0-2.5-1.2-2.5-2.8c0-1.8,1.1-2.8,2.4-2.8c0.8,0,1.4,0.3,1.7,0.9l0,0v-0.7h0.9V66c0,1.5-1,2.2-2.5,2.2
			C22.3,68,21.4,67.4,21.3,66.5z M25.4,63.1c0-1.2-0.5-2-1.7-2c-1.1,0-1.6,0.8-1.6,2.1c0,1.2,0.6,2.1,1.6,2.1
			C25,65.2,25.4,64.3,25.4,63.1z"/>
		<path class="st0" d="M27.6,63.3c0-1.6,1.1-3,2.7-3c1.7,0,2.6,1.3,2.6,3.2h-4.4c0.1,1.2,0.7,2,1.8,2c0.8,0,1.4-0.4,1.6-1.2h0.9
			c-0.3,1.2-1.2,1.9-2.4,1.9C28.6,66.3,27.6,64.9,27.6,63.3z M28.5,62.8h3.4c-0.1-1.1-0.6-1.8-1.7-1.8C29.2,61,28.6,61.8,28.5,62.8z
			"/>
		<path class="st0" d="M35.1,61.2L35.1,61.2c0.4-0.5,1-0.9,1.8-0.9c1.2,0,1.9,0.6,1.9,1.8v4h-0.9v-3.9c0-0.7-0.5-1.2-1.3-1.2
			c-0.9,0-1.6,0.6-1.6,1.6v3.5h-0.9v-5.7H35L35.1,61.2L35.1,61.2z"/>
		<path class="st0" d="M40.1,63.3c0-1.6,1.1-3,2.8-3c1.3,0,2.2,0.8,2.4,2h-0.9c-0.1-0.8-0.7-1.2-1.5-1.2c-1.2,0-1.8,1-1.8,2.3
			c0,1.3,0.6,2.2,1.8,2.2c0.9,0,1.5-0.5,1.6-1.4h0.9c-0.1,1.4-1,2.2-2.4,2.2C41.2,66.3,40.1,64.9,40.1,63.3z"/>
		<path class="st0" d="M46.6,58.3h0.9v1.1h-0.9V58.3z M46.6,60.4h0.9v5.7h-0.9V60.4z"/>
		<path class="st0" d="M52.6,65.3L52.6,65.3c-0.4,0.4-0.9,0.9-1.9,0.9c-1.1,0-1.9-0.5-1.9-1.6c0-1.3,1.1-1.6,2.5-1.8
			c0.8-0.1,1.4-0.2,1.4-0.8s-0.5-1-1.3-1c-0.9,0-1.4,0.4-1.4,1.3h-0.9c0-1.1,0.8-1.9,2.3-1.9c1.2,0,2.1,0.5,2.1,1.8v2.7
			c0,0.5,0.1,0.7,0.6,0.6l0,0v0.6c-0.1,0-0.3,0.1-0.5,0.1C53,66.2,52.7,65.9,52.6,65.3z M52.6,64v-1c-0.3,0.2-0.8,0.3-1.3,0.4
			c-0.9,0.2-1.6,0.3-1.6,1.2c0,0.8,0.6,0.9,1.2,0.9C52.1,65.6,52.6,64.7,52.6,64z"/>
		<path class="st0" d="M57,63.3c0-1.9,1.1-3,2.5-3c0.8,0,1.4,0.4,1.8,0.9l0,0v-3h0.9v7.9h-0.9v-0.7l0,0c-0.4,0.6-1,0.9-1.8,0.9
			C58,66.3,57,65.1,57,63.3z M61.4,63.3c0-1.3-0.6-2.2-1.8-2.2c-1.1,0-1.6,1-1.6,2.2c0,1.3,0.5,2.2,1.6,2.2
			C60.9,65.6,61.4,64.6,61.4,63.3z"/>
		<path class="st0" d="M63.6,63.3c0-1.6,1.1-3,2.7-3c1.7,0,2.6,1.3,2.6,3.2h-4.4c0.1,1.2,0.7,2,1.8,2c0.8,0,1.4-0.4,1.6-1.2h0.9
			c-0.3,1.2-1.2,1.9-2.4,1.9C64.6,66.3,63.6,64.9,63.6,63.3z M64.5,62.8h3.4c-0.1-1.1-0.6-1.8-1.7-1.8C65.2,61,64.6,61.8,64.5,62.8z
			"/>
		<path class="st0" d="M72.1,63.3c0-1.6,1.1-3,2.8-3c1.3,0,2.2,0.8,2.4,2h-0.9c-0.1-0.8-0.7-1.2-1.5-1.2c-1.2,0-1.8,1-1.8,2.3
			c0,1.3,0.6,2.2,1.8,2.2c0.9,0,1.5-0.5,1.6-1.4h0.9c-0.1,1.4-1,2.2-2.4,2.2C73.1,66.3,72.1,64.9,72.1,63.3z"/>
		<path class="st0" d="M78.2,63.3c0-1.6,1.1-3,2.8-3c1.7,0,2.7,1.3,2.7,3c0,1.7-1,3-2.7,3S78.2,64.9,78.2,63.3z M82.8,63.3
			c0-1.3-0.6-2.3-1.8-2.3c-1.2,0-1.8,1-1.8,2.3c0,1.3,0.6,2.2,1.8,2.2C82.2,65.5,82.8,64.5,82.8,63.3z"/>
		<path class="st0" d="M85.1,58.3H86v7.9h-0.9V58.3z"/>
		<path class="st0" d="M87.3,63.3c0-1.6,1.1-3,2.8-3c1.7,0,2.7,1.3,2.7,3c0,1.7-1,3-2.7,3C88.4,66.3,87.3,64.9,87.3,63.3z
			 M91.9,63.3c0-1.3-0.6-2.3-1.8-2.3c-1.2,0-1.8,1-1.8,2.3c0,1.3,0.6,2.2,1.8,2.2S91.9,64.5,91.9,63.3z"/>
		<path class="st0" d="M93.8,63.3c0-1.6,1.1-3,2.8-3c1.3,0,2.2,0.8,2.4,2h-0.9C98,61.5,97.4,61,96.6,61c-1.2,0-1.8,1-1.8,2.3
			c0,1.3,0.6,2.2,1.8,2.2c0.9,0,1.5-0.5,1.6-1.4H99c-0.1,1.4-1,2.2-2.4,2.2C94.9,66.3,93.8,64.9,93.8,63.3z"/>
		<path class="st0" d="M103.9,65.3L103.9,65.3c-0.4,0.4-0.9,0.9-1.9,0.9c-1.1,0-1.9-0.5-1.9-1.6c0-1.3,1.1-1.6,2.5-1.8
			c0.8-0.1,1.4-0.2,1.4-0.8s-0.5-1-1.3-1c-0.9,0-1.4,0.4-1.4,1.3h-0.9c0-1.1,0.8-1.9,2.3-1.9c1.2,0,2.1,0.5,2.1,1.8v2.7
			c0,0.5,0.1,0.7,0.6,0.6l0,0v0.6c-0.1,0-0.3,0.1-0.5,0.1C104.3,66.2,104,65.9,103.9,65.3z M103.9,64v-1c-0.3,0.2-0.8,0.3-1.3,0.4
			c-0.9,0.2-1.6,0.3-1.6,1.2c0,0.8,0.6,0.9,1.2,0.9C103.4,65.6,103.9,64.7,103.9,64z"/>
		<path class="st0" d="M106.1,63.3c0-1.6,1.1-3,2.8-3c1.3,0,2.2,0.8,2.4,2h-0.9c-0.1-0.8-0.7-1.2-1.5-1.2c-1.2,0-1.8,1-1.8,2.3
			c0,1.3,0.6,2.2,1.8,2.2c0.9,0,1.5-0.5,1.6-1.4h0.9c-0.1,1.4-1,2.2-2.4,2.2C107.2,66.3,106.1,64.9,106.1,63.3z"/>
		<path class="st0" d="M112.6,58.3h0.9v1.1h-0.9V58.3z M112.6,60.4h0.9v5.7h-0.9V60.4z"/>
		<path class="st0" d="M114.8,63.3c0-1.6,1.1-3,2.8-3c1.7,0,2.7,1.3,2.7,3c0,1.7-1,3-2.7,3C115.9,66.3,114.8,64.9,114.8,63.3z
			 M119.4,63.3c0-1.3-0.6-2.3-1.8-2.3c-1.2,0-1.8,1-1.8,2.3c0,1.3,0.6,2.2,1.8,2.2S119.4,64.5,119.4,63.3z M117.8,58.2h1.1l-0.9,1.4
			h-0.8L117.8,58.2z"/>
		<path class="st0" d="M122.5,61.2L122.5,61.2c0.4-0.5,1-0.9,1.8-0.9c1.2,0,1.9,0.6,1.9,1.8v4h-0.9v-3.9c0-0.7-0.5-1.2-1.3-1.2
			c-0.9,0-1.6,0.6-1.6,1.6v3.5h-0.9v-5.7h0.9L122.5,61.2L122.5,61.2z"/>
		<path class="st0" d="M133.6,65.3L133.6,65.3c-0.4,0.4-0.9,0.9-1.9,0.9c-1.1,0-1.9-0.5-1.9-1.6c0-1.3,1.1-1.6,2.5-1.8
			c0.8-0.1,1.4-0.2,1.4-0.8s-0.5-1-1.3-1c-0.9,0-1.4,0.4-1.4,1.3h-1c0-1.1,0.8-1.9,2.3-1.9c1.2,0,2.1,0.5,2.1,1.8v2.7
			c0,0.5,0.1,0.7,0.6,0.6l0,0v0.6c-0.1,0-0.3,0.1-0.5,0.1C134,66.2,133.7,65.9,133.6,65.3z M133.6,64v-1c-0.3,0.2-0.8,0.3-1.3,0.4
			c-0.9,0.2-1.6,0.3-1.6,1.2c0,0.8,0.6,0.9,1.2,0.9C133,65.6,133.6,64.7,133.6,64z"/>
		<path class="st0" d="M139.7,66.1v-0.8l0,0c-0.4,0.5-0.9,0.9-1.7,0.9c-1.2,0-1.9-0.7-1.9-1.9v-3.9h0.9v3.9c0,0.7,0.5,1.2,1.3,1.2
			c0.9,0,1.5-0.7,1.5-1.6v-3.5h0.9v5.7C140.7,66.1,139.7,66.1,139.7,66.1z"/>
		<path class="st0" d="M141.9,60.4h0.8v-1.8h0.9v1.8h1.1v0.7h-1.1v3.7c0,0.4,0.2,0.5,0.6,0.5c0.2,0,0.4,0,0.5-0.1l0,0V66
			c-0.2,0-0.5,0.1-0.7,0.1c-0.7,0-1.3-0.3-1.3-1.1v-3.9h-0.8V60.4z"/>
		<path class="st0" d="M145.7,63.3c0-1.6,1.1-3,2.8-3s2.7,1.3,2.7,3c0,1.7-1,3-2.7,3S145.7,64.9,145.7,63.3z M150.3,63.3
			c0-1.3-0.6-2.3-1.8-2.3s-1.8,1-1.8,2.3c0,1.3,0.6,2.2,1.8,2.2S150.3,64.5,150.3,63.3z"/>
		<path class="st0" d="M153.4,61.4L153.4,61.4c0.4-0.6,1-1,1.7-1c0.2,0,0.3,0,0.4,0.1v0.9l0,0c-0.1,0-0.2-0.1-0.4-0.1
			c-0.9,0-1.7,0.7-1.7,1.7v3.2h-0.9v-5.7h0.9V61.4z"/>
		<path class="st0" d="M156.8,58.3h0.9v1.1h-0.9V58.3z M156.8,60.4h0.9v5.7h-0.9V60.4z"/>
		<path class="st0" d="M159.1,65.4l3.2-4.2l0,0h-3v-0.8h4.2V61l-3.3,4.3l0,0h3.4v0.8h-4.5L159.1,65.4L159.1,65.4z"/>
		<path class="st0" d="M168.4,65.3L168.4,65.3c-0.4,0.4-0.9,0.9-1.9,0.9c-1.1,0-1.9-0.5-1.9-1.6c0-1.3,1.1-1.6,2.5-1.8
			c0.8-0.1,1.4-0.2,1.4-0.8s-0.5-1-1.3-1c-0.9,0-1.4,0.4-1.4,1.3h-0.9c0-1.1,0.8-1.9,2.3-1.9c1.2,0,2.1,0.5,2.1,1.8v2.7
			c0,0.5,0.1,0.7,0.6,0.6l0,0v0.6c-0.1,0-0.3,0.1-0.5,0.1C168.8,66.2,168.5,65.9,168.4,65.3z M168.4,64v-1c-0.3,0.2-0.8,0.3-1.3,0.4
			c-0.9,0.2-1.6,0.3-1.6,1.2c0,0.8,0.6,0.9,1.2,0.9C167.9,65.6,168.4,64.7,168.4,64z"/>
		<path class="st0" d="M170.7,63.3c0-1.9,1.1-3,2.5-3c0.8,0,1.4,0.4,1.8,0.9l0,0v-3h0.9v7.9H175v-0.7l0,0c-0.4,0.6-1,0.9-1.8,0.9
			C171.6,66.3,170.7,65.1,170.7,63.3z M175,63.3c0-1.3-0.6-2.2-1.8-2.2c-1.1,0-1.6,1-1.6,2.2c0,1.3,0.5,2.2,1.6,2.2
			C174.5,65.6,175,64.6,175,63.3z"/>
		<path class="st0" d="M181,65.3L181,65.3c-0.4,0.4-0.9,0.9-1.9,0.9c-1.1,0-1.9-0.5-1.9-1.6c0-1.3,1.1-1.6,2.5-1.8
			c0.8-0.1,1.4-0.2,1.4-0.8s-0.5-1-1.3-1c-0.9,0-1.4,0.4-1.4,1.3h-0.9c0-1.1,0.8-1.9,2.3-1.9c1.2,0,2.1,0.5,2.1,1.8v2.7
			c0,0.5,0.1,0.7,0.6,0.6l0,0v0.6c-0.1,0-0.3,0.1-0.5,0.1C181.4,66.2,181.1,65.9,181,65.3z M181,64v-1c-0.3,0.2-0.8,0.3-1.3,0.4
			c-0.9,0.2-1.6,0.3-1.6,1.2c0,0.8,0.6,0.9,1.2,0.9C180.5,65.6,181,64.7,181,64z"/>
		<path class="st0" d="M186.6,61.2L186.6,61.2c0.4-0.5,1-0.9,1.8-0.9c1.2,0,1.9,0.6,1.9,1.8v4h-0.9v-3.9c0-0.7-0.5-1.2-1.3-1.2
			c-0.9,0-1.6,0.6-1.6,1.6v3.5h-0.9v-5.7h0.9v0.8H186.6z"/>
		<path class="st0" d="M191.8,61.1c0-1.5,0.9-2.6,2.4-2.6s2.4,1.2,2.4,2.6s-0.9,2.6-2.4,2.6S191.8,62.5,191.8,61.1z M195.7,61.1
			c0-1.1-0.5-1.9-1.5-1.9s-1.5,0.8-1.5,1.9c0,1.1,0.5,1.9,1.5,1.9S195.7,62.2,195.7,61.1z"/>
		<path class="st0" d="M201.6,60.6H200V60c0.9,0,1.7-0.4,1.9-1.5h0.7v7.6h-0.9L201.6,60.6L201.6,60.6z"/>
		<path class="st0" d="M207,62.6c1-0.6,1.6-1,1.6-1.9s-0.6-1.6-1.6-1.6c-0.5,0-0.9,0.2-1.2,0.5s-0.4,0.7-0.4,1.5h-1
			c0-1,0.3-1.6,0.7-2c0.5-0.5,1.2-0.7,2-0.7c1.5,0,2.5,1,2.5,2.3c0,1.5-1,1.9-2.2,2.6c-0.8,0.5-1.9,1.1-2.1,1.9h4.1v0.9h-5.2
			C204.3,64.1,205.7,63.4,207,62.6z"/>
		<path class="st0" d="M210.9,62.4c0-2.4,1.2-3.9,2.9-3.9s2.9,1.5,2.9,3.9c0,2.4-1,3.9-2.9,3.9C212,66.3,210.9,64.8,210.9,62.4z
			 M215.8,62.4c0-1.9-0.6-3.1-2-3.1c-1.3,0-2,1.2-2,3.1c0,1.9,0.6,3.1,2,3.1S215.8,64.3,215.8,62.4z"/>
		<path class="st0" d="M218.2,62.4c0-2.4,1.2-3.9,2.9-3.9s2.9,1.5,2.9,3.9c0,2.4-1,3.9-2.9,3.9S218.2,64.8,218.2,62.4z M223,62.4
			c0-1.9-0.6-3.1-2-3.1c-1.3,0-2,1.2-2,3.1c0,1.9,0.6,3.1,2,3.1S223,64.3,223,62.4z"/>
		<path class="st0" d="M225.4,62.4c0-2.4,1.2-3.9,2.9-3.9s2.9,1.5,2.9,3.9c0,2.4-1,3.9-2.9,3.9C226.5,66.3,225.4,64.8,225.4,62.4z
			 M230.3,62.4c0-1.9-0.6-3.1-2-3.1c-1.3,0-2,1.2-2,3.1c0,1.9,0.6,3.1,2,3.1S230.3,64.3,230.3,62.4z"/>
		<path class="st0" d="M232.7,62.4c0-2.4,1.2-3.9,2.9-3.9s2.9,1.5,2.9,3.9c0,2.4-1,3.9-2.9,3.9S232.7,64.8,232.7,62.4z M237.6,62.4
			c0-1.9-0.6-3.1-2-3.1c-1.3,0-2,1.2-2,3.1c0,1.9,0.6,3.1,2,3.1S237.6,64.3,237.6,62.4z"/>
		<path class="st0" d="M239.9,62.4c0-2.4,1.2-3.9,2.9-3.9s2.9,1.5,2.9,3.9c0,2.4-1,3.9-2.9,3.9C241,66.3,239.9,64.8,239.9,62.4z
			 M244.8,62.4c0-1.9-0.6-3.1-2-3.1c-1.3,0-2,1.2-2,3.1c0,1.9,0.6,3.1,2,3.1S244.8,64.3,244.8,62.4z"/>
		<path class="st0" d="M248.6,60.6h-1.7V60c0.9,0,1.7-0.4,1.9-1.5h0.7v7.6h-0.9V60.6z"/>
		<path class="st0" d="M254,62.6c1-0.6,1.6-1,1.6-1.9s-0.6-1.6-1.6-1.6c-0.5,0-0.9,0.2-1.2,0.5s-0.4,0.7-0.4,1.5h-1
			c0-1,0.3-1.6,0.7-2c0.5-0.5,1.2-0.7,2-0.7c1.5,0,2.5,1,2.5,2.3c0,1.5-1,1.9-2.2,2.6c-0.8,0.5-1.9,1.1-2.1,1.9h4.1v0.9h-5.2
			C251.2,64.1,252.6,63.4,254,62.6z"/>
		<path class="st0" d="M257.8,62.4c0-2.4,1.2-3.9,2.9-3.9s2.9,1.5,2.9,3.9c0,2.4-1,3.9-2.9,3.9C258.9,66.3,257.8,64.8,257.8,62.4z
			 M262.7,62.4c0-1.9-0.6-3.1-2-3.1c-1.3,0-2,1.2-2,3.1c0,1.9,0.6,3.1,2,3.1S262.7,64.3,262.7,62.4z"/>
	</g>
</g>
</svg>
